M48
; DRILL file {KiCad 8.0.8} date 2025-02-28T07:36:16+0100
; FORMAT={-:-/ absolute / inch / decimal}
; #@! TF.CreationDate,2025-02-28T07:36:16+01:00
; #@! TF.GenerationSoftware,Kicad,Pcbnew,8.0.8
; #@! TF.FileFunction,Plated,1,2,PTH
FMAT,2
INCH
; #@! TA.AperFunction,Plated,PTH,ViaDrill
T1C0.0157
; #@! TA.AperFunction,Plated,PTH,ComponentDrill
T2C0.0315
; #@! TA.AperFunction,Plated,PTH,ComponentDrill
T3C0.0394
%
G90
G05
T1
X3.142Y-3.196
X3.28Y-2.922
T2
X1.5157Y-2.9921
X1.5157Y-3.0709
X1.53Y-3.75
X1.53Y-3.85
X1.53Y-3.95
X1.53Y-4.05
X1.53Y-4.15
X1.53Y-4.25
X1.53Y-4.35
X1.53Y-4.45
X1.53Y-4.55
X1.53Y-4.65
X1.53Y-4.75
X1.53Y-5.44
X1.53Y-5.54
X1.53Y-5.64
X1.53Y-5.74
X1.53Y-5.84
X1.53Y-5.94
X1.53Y-6.04
X1.53Y-6.14
X1.53Y-6.24
X1.53Y-6.34
X1.53Y-6.44
X1.5945Y-2.9921
X1.5945Y-3.0709
X1.6732Y-2.9921
X1.6732Y-3.0709
X1.752Y-2.9921
X1.752Y-3.0709
X1.8307Y-2.9921
X1.8307Y-3.0709
X1.9094Y-2.9921
X1.9094Y-3.0709
X1.9882Y-2.9921
X1.9882Y-3.0709
X2.0669Y-2.9921
X2.0669Y-3.0709
X2.1457Y-2.9921
X2.1457Y-3.0709
X2.2244Y-2.9921
X2.2244Y-3.0709
X2.3031Y-2.9921
X2.3031Y-3.0709
X2.3819Y-2.9921
X2.3819Y-3.0709
X2.4606Y-2.9921
X2.4606Y-3.0709
X2.5394Y-2.9921
X2.5394Y-3.0709
X2.6181Y-2.9921
X2.6181Y-3.0709
X2.6969Y-2.9921
X2.6969Y-3.0709
X2.7756Y-2.9921
X2.7756Y-3.0709
X2.8543Y-2.9921
X2.8543Y-3.0709
X2.9331Y-2.9921
X2.9331Y-3.0709
X3.0118Y-2.9921
X3.0118Y-3.0709
T3
X1.98Y-4.1
X1.98Y-4.2
X1.98Y-4.3
X1.98Y-4.4
X1.98Y-4.5
X1.98Y-4.6
X1.98Y-4.7
X1.98Y-4.8
X1.98Y-4.9
X1.98Y-5.0
X1.98Y-5.1
X1.98Y-5.2
X1.98Y-5.3
X1.98Y-5.4
X1.98Y-5.5
X1.98Y-5.6
X1.98Y-5.7
X1.98Y-5.8
X1.98Y-5.9
X1.98Y-6.0
X1.98Y-6.1
X1.98Y-6.2
X1.98Y-6.3
X1.98Y-6.4
X1.98Y-6.5
X2.08Y-4.1
X2.08Y-4.2
X2.08Y-4.3
X2.08Y-4.4
X2.08Y-4.5
X2.08Y-4.6
X2.08Y-4.7
X2.08Y-4.8
X2.08Y-4.9
X2.08Y-5.0
X2.08Y-5.1
X2.08Y-5.2
X2.08Y-5.3
X2.08Y-5.4
X2.08Y-5.5
X2.08Y-5.6
X2.08Y-5.7
X2.08Y-5.8
X2.08Y-5.9
X2.08Y-6.0
X2.08Y-6.1
X2.08Y-6.2
X2.08Y-6.3
X2.08Y-6.4
X2.08Y-6.5
X3.1553Y-3.3868
X3.1553Y-3.4852
M30
