M48
; DRILL file {KiCad 8.0.8} date 2025-02-03T10:00:01+0100
; FORMAT={-:-/ absolute / metric / decimal}
; #@! TF.CreationDate,2025-02-03T10:00:01+01:00
; #@! TF.GenerationSoftware,Kicad,Pcbnew,8.0.8
; #@! TF.FileFunction,Plated,1,2,PTH
FMAT,2
METRIC
; #@! TA.AperFunction,Plated,PTH,ComponentDrill
T1C0.800
; #@! TA.AperFunction,Plated,PTH,ComponentDrill
T2C1.000
%
G90
G05
T1
X38.5Y-76.0
X38.5Y-78.0
X38.862Y-95.25
X38.862Y-97.79
X38.862Y-100.33
X38.862Y-102.87
X38.862Y-105.41
X38.862Y-107.95
X38.862Y-110.49
X38.862Y-113.03
X38.862Y-115.57
X38.862Y-118.11
X38.862Y-120.65
X38.862Y-138.176
X38.862Y-140.716
X38.862Y-143.256
X38.862Y-145.796
X38.862Y-148.336
X38.862Y-150.876
X38.862Y-153.416
X38.862Y-155.956
X38.862Y-158.496
X38.862Y-161.036
X38.862Y-163.576
X40.5Y-76.0
X40.5Y-78.0
X42.5Y-76.0
X42.5Y-78.0
X44.5Y-76.0
X44.5Y-78.0
X46.5Y-76.0
X46.5Y-78.0
X48.5Y-76.0
X48.5Y-78.0
X50.5Y-76.0
X50.5Y-78.0
X52.5Y-76.0
X52.5Y-78.0
X54.5Y-76.0
X54.5Y-78.0
X56.5Y-76.0
X56.5Y-78.0
X58.5Y-76.0
X58.5Y-78.0
X60.5Y-76.0
X60.5Y-78.0
X62.5Y-76.0
X62.5Y-78.0
X64.5Y-76.0
X64.5Y-78.0
X66.5Y-76.0
X66.5Y-78.0
X68.5Y-76.0
X68.5Y-78.0
X70.5Y-76.0
X70.5Y-78.0
X72.5Y-76.0
X72.5Y-78.0
X74.5Y-76.0
X74.5Y-78.0
X76.5Y-76.0
X76.5Y-78.0
T2
X36.576Y-126.746
X36.576Y-129.286
X36.576Y-131.826
X39.116Y-126.746
X39.116Y-129.286
X39.116Y-131.826
X50.292Y-104.14
X50.292Y-106.68
X50.292Y-109.22
X50.292Y-111.76
X50.292Y-114.3
X50.292Y-116.84
X50.292Y-119.38
X50.292Y-121.92
X50.292Y-124.46
X50.292Y-127.0
X50.292Y-129.54
X50.292Y-132.08
X50.292Y-134.62
X50.292Y-137.16
X50.292Y-139.7
X50.292Y-142.24
X50.292Y-144.78
X50.292Y-147.32
X50.292Y-149.86
X50.292Y-152.4
X50.292Y-154.94
X50.292Y-157.48
X50.292Y-160.02
X50.292Y-162.56
X50.292Y-165.1
X52.832Y-104.14
X52.832Y-106.68
X52.832Y-109.22
X52.832Y-111.76
X52.832Y-114.3
X52.832Y-116.84
X52.832Y-119.38
X52.832Y-121.92
X52.832Y-124.46
X52.832Y-127.0
X52.832Y-129.54
X52.832Y-132.08
X52.832Y-134.62
X52.832Y-137.16
X52.832Y-139.7
X52.832Y-142.24
X52.832Y-144.78
X52.832Y-147.32
X52.832Y-149.86
X52.832Y-152.4
X52.832Y-154.94
X52.832Y-157.48
X52.832Y-160.02
X52.832Y-162.56
X52.832Y-165.1
X72.75Y-84.45
X72.75Y-86.99
X72.75Y-89.53
X72.75Y-92.07
M30
