%TF.GenerationSoftware,KiCad,Pcbnew,8.0.8*%
%TF.CreationDate,2025-01-30T20:37:13+01:00*%
%TF.ProjectId,x68030_scsi,78363830-3330-45f7-9363-73692e6b6963,rev?*%
%TF.SameCoordinates,Original*%
%TF.FileFunction,Copper,L1,Top*%
%TF.FilePolarity,Positive*%
%FSLAX46Y46*%
G04 Gerber Fmt 4.6, Leading zero omitted, Abs format (unit mm)*
G04 Created by KiCad (PCBNEW 8.0.8) date 2025-01-30 20:37:13*
%MOMM*%
%LPD*%
G01*
G04 APERTURE LIST*
G04 Aperture macros list*
%AMRoundRect*
0 Rectangle with rounded corners*
0 $1 Rounding radius*
0 $2 $3 $4 $5 $6 $7 $8 $9 X,Y pos of 4 corners*
0 Add a 4 corners polygon primitive as box body*
4,1,4,$2,$3,$4,$5,$6,$7,$8,$9,$2,$3,0*
0 Add four circle primitives for the rounded corners*
1,1,$1+$1,$2,$3*
1,1,$1+$1,$4,$5*
1,1,$1+$1,$6,$7*
1,1,$1+$1,$8,$9*
0 Add four rect primitives between the rounded corners*
20,1,$1+$1,$2,$3,$4,$5,0*
20,1,$1+$1,$4,$5,$6,$7,0*
20,1,$1+$1,$6,$7,$8,$9,0*
20,1,$1+$1,$8,$9,$2,$3,0*%
G04 Aperture macros list end*
%TA.AperFunction,SMDPad,CuDef*%
%ADD10RoundRect,0.237500X-0.250000X-0.237500X0.250000X-0.237500X0.250000X0.237500X-0.250000X0.237500X0*%
%TD*%
%TA.AperFunction,SMDPad,CuDef*%
%ADD11RoundRect,0.237500X-0.237500X0.300000X-0.237500X-0.300000X0.237500X-0.300000X0.237500X0.300000X0*%
%TD*%
%TA.AperFunction,SMDPad,CuDef*%
%ADD12RoundRect,0.237500X-0.287500X-0.237500X0.287500X-0.237500X0.287500X0.237500X-0.287500X0.237500X0*%
%TD*%
%TA.AperFunction,ComponentPad*%
%ADD13R,1.350000X1.350000*%
%TD*%
%TA.AperFunction,ComponentPad*%
%ADD14O,1.350000X1.350000*%
%TD*%
%TA.AperFunction,ComponentPad*%
%ADD15R,1.700000X1.700000*%
%TD*%
%TA.AperFunction,ComponentPad*%
%ADD16O,1.700000X1.700000*%
%TD*%
%TA.AperFunction,SMDPad,CuDef*%
%ADD17RoundRect,0.237500X0.237500X-0.250000X0.237500X0.250000X-0.237500X0.250000X-0.237500X-0.250000X0*%
%TD*%
%TA.AperFunction,ComponentPad*%
%ADD18RoundRect,0.250000X-0.600000X-0.600000X0.600000X-0.600000X0.600000X0.600000X-0.600000X0.600000X0*%
%TD*%
%TA.AperFunction,ComponentPad*%
%ADD19C,1.700000*%
%TD*%
%TA.AperFunction,ViaPad*%
%ADD20C,0.800000*%
%TD*%
%TA.AperFunction,Conductor*%
%ADD21C,1.000000*%
%TD*%
%TA.AperFunction,Conductor*%
%ADD22C,0.250000*%
%TD*%
G04 APERTURE END LIST*
D10*
%TO.P,R7,1*%
%TO.N,Net-(F1-Pad2)*%
X41175000Y-126970000D03*
%TO.P,R7,2*%
%TO.N,/DB6*%
X43000000Y-126970000D03*
%TD*%
D11*
%TO.P,C16,1*%
%TO.N,/{slash}I{slash}O*%
X73980000Y-84137500D03*
%TO.P,C16,2*%
%TO.N,GND*%
X73980000Y-85862500D03*
%TD*%
D10*
%TO.P,R14,1*%
%TO.N,Net-(F1-Pad2)*%
X41175000Y-144460000D03*
%TO.P,R14,2*%
%TO.N,/{slash}MSG*%
X43000000Y-144460000D03*
%TD*%
%TO.P,R1,1*%
%TO.N,Net-(F1-Pad2)*%
X41175000Y-111910000D03*
%TO.P,R1,2*%
%TO.N,/DB0*%
X43000000Y-111910000D03*
%TD*%
D12*
%TO.P,F1,1*%
%TO.N,VCC*%
X36750000Y-111500000D03*
%TO.P,F1,2*%
%TO.N,Net-(F1-Pad2)*%
X38500000Y-111500000D03*
%TD*%
D10*
%TO.P,R2,1*%
%TO.N,Net-(F1-Pad2)*%
X41175000Y-114420000D03*
%TO.P,R2,2*%
%TO.N,/DB1*%
X43000000Y-114420000D03*
%TD*%
D11*
%TO.P,C13,1*%
%TO.N,/{slash}RST*%
X66450000Y-84137500D03*
%TO.P,C13,2*%
%TO.N,GND*%
X66450000Y-85862500D03*
%TD*%
%TO.P,C5,1*%
%TO.N,/DB4*%
X46500000Y-84087500D03*
%TO.P,C5,2*%
%TO.N,GND*%
X46500000Y-85812500D03*
%TD*%
%TO.P,C15,1*%
%TO.N,/{slash}SEL*%
X71470000Y-84137500D03*
%TO.P,C15,2*%
%TO.N,GND*%
X71470000Y-85862500D03*
%TD*%
%TO.P,C4,1*%
%TO.N,/DB3*%
X44500000Y-94500000D03*
%TO.P,C4,2*%
%TO.N,GND*%
X44500000Y-96225000D03*
%TD*%
D10*
%TO.P,R13,1*%
%TO.N,Net-(F1-Pad2)*%
X41175000Y-141950000D03*
%TO.P,R13,2*%
%TO.N,/{slash}RST*%
X43000000Y-141950000D03*
%TD*%
%TO.P,R17,1*%
%TO.N,Net-(F1-Pad2)*%
X41175000Y-151990000D03*
%TO.P,R17,2*%
%TO.N,/{slash}C{slash}D*%
X43000000Y-151990000D03*
%TD*%
D11*
%TO.P,C2,1*%
%TO.N,/DB1*%
X39500000Y-94500000D03*
%TO.P,C2,2*%
%TO.N,GND*%
X39500000Y-96225000D03*
%TD*%
%TO.P,C3,1*%
%TO.N,/DB2*%
X42000000Y-94500000D03*
%TO.P,C3,2*%
%TO.N,GND*%
X42000000Y-96225000D03*
%TD*%
D13*
%TO.P,J2,1,Pin_1*%
%TO.N,/ID_SWITCH1*%
X38500000Y-78000000D03*
D14*
%TO.P,J2,2,Pin_2*%
%TO.N,/ID_SWITCH2*%
X38500000Y-76000000D03*
%TO.P,J2,3,Pin_3*%
%TO.N,/ID_SWITCH3*%
X40500000Y-78000000D03*
%TO.P,J2,4,Pin_4*%
%TO.N,unconnected-(J2-Pin_4-Pad4)*%
X40500000Y-76000000D03*
%TO.P,J2,5,Pin_5*%
%TO.N,/NO_IDEA1*%
X42500000Y-78000000D03*
%TO.P,J2,6,Pin_6*%
X42500000Y-76000000D03*
%TO.P,J2,7,Pin_7*%
%TO.N,unconnected-(J2-Pin_7-Pad7)*%
X44500000Y-78000000D03*
%TO.P,J2,8,Pin_8*%
%TO.N,/DB0*%
X44500000Y-76000000D03*
%TO.P,J2,9,Pin_9*%
%TO.N,unconnected-(J2-Pin_9-Pad9)*%
X46500000Y-78000000D03*
%TO.P,J2,10,Pin_10*%
%TO.N,/DB1*%
X46500000Y-76000000D03*
%TO.P,J2,11,Pin_11*%
%TO.N,unconnected-(J2-Pin_11-Pad11)*%
X48500000Y-78000000D03*
%TO.P,J2,12,Pin_12*%
%TO.N,/DB2*%
X48500000Y-76000000D03*
%TO.P,J2,13,Pin_13*%
%TO.N,unconnected-(J2-Pin_13-Pad13)*%
X50500000Y-78000000D03*
%TO.P,J2,14,Pin_14*%
%TO.N,/DB3*%
X50500000Y-76000000D03*
%TO.P,J2,15,Pin_15*%
%TO.N,unconnected-(J2-Pin_15-Pad15)*%
X52500000Y-78000000D03*
%TO.P,J2,16,Pin_16*%
%TO.N,/DB4*%
X52500000Y-76000000D03*
%TO.P,J2,17,Pin_17*%
%TO.N,unconnected-(J2-Pin_17-Pad17)*%
X54500000Y-78000000D03*
%TO.P,J2,18,Pin_18*%
%TO.N,/DB5*%
X54500000Y-76000000D03*
%TO.P,J2,19,Pin_19*%
%TO.N,/DB6*%
X56500000Y-78000000D03*
%TO.P,J2,20,Pin_20*%
%TO.N,GND*%
X56500000Y-76000000D03*
%TO.P,J2,21,Pin_21*%
%TO.N,/DB7*%
X58500000Y-78000000D03*
%TO.P,J2,22,Pin_22*%
%TO.N,GND*%
X58500000Y-76000000D03*
%TO.P,J2,23,Pin_23*%
%TO.N,/PARITY*%
X60500000Y-78000000D03*
%TO.P,J2,24,Pin_24*%
%TO.N,GND*%
X60500000Y-76000000D03*
%TO.P,J2,25,Pin_25*%
%TO.N,VCC*%
X62500000Y-78000000D03*
%TO.P,J2,26,Pin_26*%
%TO.N,/{slash}ATN*%
X62500000Y-76000000D03*
%TO.P,J2,27,Pin_27*%
%TO.N,/{slash}BSY*%
X64500000Y-78000000D03*
%TO.P,J2,28,Pin_28*%
%TO.N,GND*%
X64500000Y-76000000D03*
%TO.P,J2,29,Pin_29*%
%TO.N,/{slash}ACK*%
X66500000Y-78000000D03*
%TO.P,J2,30,Pin_30*%
%TO.N,/{slash}RST*%
X66500000Y-76000000D03*
%TO.P,J2,31,Pin_31*%
%TO.N,/{slash}MSG*%
X68500000Y-78000000D03*
%TO.P,J2,32,Pin_32*%
%TO.N,GND*%
X68500000Y-76000000D03*
%TO.P,J2,33,Pin_33*%
%TO.N,/{slash}SEL*%
X70500000Y-78000000D03*
%TO.P,J2,34,Pin_34*%
%TO.N,/{slash}I{slash}O*%
X70500000Y-76000000D03*
%TO.P,J2,35,Pin_35*%
%TO.N,/{slash}C{slash}D*%
X72500000Y-78000000D03*
%TO.P,J2,36,Pin_36*%
%TO.N,GND*%
X72500000Y-76000000D03*
%TO.P,J2,37,Pin_37*%
%TO.N,/{slash}REQ*%
X74500000Y-78000000D03*
%TO.P,J2,38,Pin_38*%
%TO.N,GND*%
X74500000Y-76000000D03*
%TO.P,J2,39,Pin_39*%
%TO.N,/NO_IDEA2*%
X76500000Y-78000000D03*
%TO.P,J2,40,Pin_40*%
X76500000Y-76000000D03*
%TD*%
D10*
%TO.P,R5,1*%
%TO.N,Net-(F1-Pad2)*%
X41175000Y-121950000D03*
%TO.P,R5,2*%
%TO.N,/DB4*%
X43000000Y-121950000D03*
%TD*%
D11*
%TO.P,C7,1*%
%TO.N,/DB6*%
X51070000Y-84087500D03*
%TO.P,C7,2*%
%TO.N,GND*%
X51070000Y-85812500D03*
%TD*%
D10*
%TO.P,R3,1*%
%TO.N,Net-(F1-Pad2)*%
X41175000Y-116930000D03*
%TO.P,R3,2*%
%TO.N,/DB2*%
X43000000Y-116930000D03*
%TD*%
%TO.P,R8,1*%
%TO.N,Net-(F1-Pad2)*%
X41175000Y-129480000D03*
%TO.P,R8,2*%
%TO.N,/DB7*%
X43000000Y-129480000D03*
%TD*%
%TO.P,R6,1*%
%TO.N,Net-(F1-Pad2)*%
X41175000Y-124460000D03*
%TO.P,R6,2*%
%TO.N,/DB5*%
X43000000Y-124460000D03*
%TD*%
D11*
%TO.P,C6,1*%
%TO.N,/DB5*%
X48560000Y-84087500D03*
%TO.P,C6,2*%
%TO.N,GND*%
X48560000Y-85812500D03*
%TD*%
D15*
%TO.P,J3,1,Pin_1*%
%TO.N,/ID_SWITCH1*%
X37000000Y-146000000D03*
D16*
%TO.P,J3,2,Pin_2*%
%TO.N,GND*%
X34460000Y-146000000D03*
%TO.P,J3,3,Pin_3*%
%TO.N,/ID_SWITCH2*%
X37000000Y-143460000D03*
%TO.P,J3,4,Pin_4*%
%TO.N,GND*%
X34460000Y-143460000D03*
%TO.P,J3,5,Pin_5*%
%TO.N,/ID_SWITCH3*%
X37000000Y-140920000D03*
%TO.P,J3,6,Pin_6*%
%TO.N,GND*%
X34460000Y-140920000D03*
%TD*%
D11*
%TO.P,C8,1*%
%TO.N,/DB7*%
X53580000Y-84087500D03*
%TO.P,C8,2*%
%TO.N,GND*%
X53580000Y-85812500D03*
%TD*%
D10*
%TO.P,R12,1*%
%TO.N,Net-(F1-Pad2)*%
X41175000Y-139440000D03*
%TO.P,R12,2*%
%TO.N,/{slash}ACK*%
X43000000Y-139440000D03*
%TD*%
%TO.P,R10,1*%
%TO.N,Net-(F1-Pad2)*%
X41175000Y-134500000D03*
%TO.P,R10,2*%
%TO.N,/{slash}ATN*%
X43000000Y-134500000D03*
%TD*%
%TO.P,R15,1*%
%TO.N,Net-(F1-Pad2)*%
X41175000Y-146970000D03*
%TO.P,R15,2*%
%TO.N,/{slash}SEL*%
X43000000Y-146970000D03*
%TD*%
%TO.P,R11,1*%
%TO.N,Net-(F1-Pad2)*%
X41175000Y-136930000D03*
%TO.P,R11,2*%
%TO.N,/{slash}BSY*%
X43000000Y-136930000D03*
%TD*%
D17*
%TO.P,JP1,1,A*%
%TO.N,/NO_IDEA1*%
X80000000Y-77825000D03*
%TO.P,JP1,2,B*%
%TO.N,/NO_IDEA2*%
X80000000Y-76000000D03*
%TD*%
D11*
%TO.P,C17,1*%
%TO.N,/{slash}C{slash}D*%
X76490000Y-84137500D03*
%TO.P,C17,2*%
%TO.N,GND*%
X76490000Y-85862500D03*
%TD*%
%TO.P,C10,1*%
%TO.N,/{slash}ATN*%
X58520000Y-84087500D03*
%TO.P,C10,2*%
%TO.N,GND*%
X58520000Y-85812500D03*
%TD*%
D10*
%TO.P,R16,1*%
%TO.N,Net-(F1-Pad2)*%
X41175000Y-149480000D03*
%TO.P,R16,2*%
%TO.N,/{slash}I{slash}O*%
X43000000Y-149480000D03*
%TD*%
%TO.P,R4,1*%
%TO.N,Net-(F1-Pad2)*%
X41175000Y-119440000D03*
%TO.P,R4,2*%
%TO.N,/DB3*%
X43000000Y-119440000D03*
%TD*%
D11*
%TO.P,C12,1*%
%TO.N,/{slash}ACK*%
X63940000Y-84137500D03*
%TO.P,C12,2*%
%TO.N,GND*%
X63940000Y-85862500D03*
%TD*%
%TO.P,C9,1*%
%TO.N,/PARITY*%
X56010000Y-84087500D03*
%TO.P,C9,2*%
%TO.N,GND*%
X56010000Y-85812500D03*
%TD*%
%TO.P,C1,1*%
%TO.N,/DB0*%
X37000000Y-94500000D03*
%TO.P,C1,2*%
%TO.N,GND*%
X37000000Y-96225000D03*
%TD*%
%TO.P,C11,1*%
%TO.N,/{slash}BSY*%
X61430000Y-84137500D03*
%TO.P,C11,2*%
%TO.N,GND*%
X61430000Y-85862500D03*
%TD*%
D10*
%TO.P,R18,1*%
%TO.N,Net-(F1-Pad2)*%
X41175000Y-154500000D03*
%TO.P,R18,2*%
%TO.N,/{slash}REQ*%
X43000000Y-154500000D03*
%TD*%
%TO.P,R9,1*%
%TO.N,Net-(F1-Pad2)*%
X41175000Y-131990000D03*
%TO.P,R9,2*%
%TO.N,/PARITY*%
X43000000Y-131990000D03*
%TD*%
D11*
%TO.P,C14,1*%
%TO.N,/{slash}MSG*%
X68960000Y-84137500D03*
%TO.P,C14,2*%
%TO.N,GND*%
X68960000Y-85862500D03*
%TD*%
D18*
%TO.P,J1,1,Pin_1*%
%TO.N,GND*%
X55500000Y-104020000D03*
D19*
%TO.P,J1,2,Pin_2*%
%TO.N,/DB0*%
X58040000Y-104020000D03*
%TO.P,J1,3,Pin_3*%
%TO.N,GND*%
X55500000Y-106560000D03*
%TO.P,J1,4,Pin_4*%
%TO.N,/DB1*%
X58040000Y-106560000D03*
%TO.P,J1,5,Pin_5*%
%TO.N,GND*%
X55500000Y-109100000D03*
%TO.P,J1,6,Pin_6*%
%TO.N,/DB2*%
X58040000Y-109100000D03*
%TO.P,J1,7,Pin_7*%
%TO.N,GND*%
X55500000Y-111640000D03*
%TO.P,J1,8,Pin_8*%
%TO.N,/DB3*%
X58040000Y-111640000D03*
%TO.P,J1,9,Pin_9*%
%TO.N,GND*%
X55500000Y-114180000D03*
%TO.P,J1,10,Pin_10*%
%TO.N,/DB4*%
X58040000Y-114180000D03*
%TO.P,J1,11,Pin_11*%
%TO.N,GND*%
X55500000Y-116720000D03*
%TO.P,J1,12,Pin_12*%
%TO.N,/DB5*%
X58040000Y-116720000D03*
%TO.P,J1,13,Pin_13*%
%TO.N,GND*%
X55500000Y-119260000D03*
%TO.P,J1,14,Pin_14*%
%TO.N,/DB6*%
X58040000Y-119260000D03*
%TO.P,J1,15,Pin_15*%
%TO.N,GND*%
X55500000Y-121800000D03*
%TO.P,J1,16,Pin_16*%
%TO.N,/DB7*%
X58040000Y-121800000D03*
%TO.P,J1,17,Pin_17*%
%TO.N,GND*%
X55500000Y-124340000D03*
%TO.P,J1,18,Pin_18*%
%TO.N,/PARITY*%
X58040000Y-124340000D03*
%TO.P,J1,19,Pin_19*%
%TO.N,GND*%
X55500000Y-126880000D03*
%TO.P,J1,20,Pin_20*%
X58040000Y-126880000D03*
%TO.P,J1,21,Pin_21*%
X55500000Y-129420000D03*
%TO.P,J1,22,Pin_22*%
X58040000Y-129420000D03*
%TO.P,J1,23,Pin_23*%
X55500000Y-131960000D03*
%TO.P,J1,24,Pin_24*%
X58040000Y-131960000D03*
%TO.P,J1,25,Pin_25*%
%TO.N,unconnected-(J1-Pin_25-Pad25)*%
X55500000Y-134500000D03*
%TO.P,J1,26,Pin_26*%
%TO.N,/TMPWR*%
X58040000Y-134500000D03*
%TO.P,J1,27,Pin_27*%
%TO.N,GND*%
X55500000Y-137040000D03*
%TO.P,J1,28,Pin_28*%
X58040000Y-137040000D03*
%TO.P,J1,29,Pin_29*%
X55500000Y-139580000D03*
%TO.P,J1,30,Pin_30*%
X58040000Y-139580000D03*
%TO.P,J1,31,Pin_31*%
X55500000Y-142120000D03*
%TO.P,J1,32,Pin_32*%
%TO.N,/{slash}ATN*%
X58040000Y-142120000D03*
%TO.P,J1,33,Pin_33*%
%TO.N,GND*%
X55500000Y-144660000D03*
%TO.P,J1,34,Pin_34*%
X58040000Y-144660000D03*
%TO.P,J1,35,Pin_35*%
X55500000Y-147200000D03*
%TO.P,J1,36,Pin_36*%
%TO.N,/{slash}BSY*%
X58040000Y-147200000D03*
%TO.P,J1,37,Pin_37*%
%TO.N,GND*%
X55500000Y-149740000D03*
%TO.P,J1,38,Pin_38*%
%TO.N,/{slash}ACK*%
X58040000Y-149740000D03*
%TO.P,J1,39,Pin_39*%
%TO.N,GND*%
X55500000Y-152280000D03*
%TO.P,J1,40,Pin_40*%
%TO.N,/{slash}RST*%
X58040000Y-152280000D03*
%TO.P,J1,41,Pin_41*%
%TO.N,GND*%
X55500000Y-154820000D03*
%TO.P,J1,42,Pin_42*%
%TO.N,/{slash}MSG*%
X58040000Y-154820000D03*
%TO.P,J1,43,Pin_43*%
%TO.N,GND*%
X55500000Y-157360000D03*
%TO.P,J1,44,Pin_44*%
%TO.N,/{slash}SEL*%
X58040000Y-157360000D03*
%TO.P,J1,45,Pin_45*%
%TO.N,GND*%
X55500000Y-159900000D03*
%TO.P,J1,46,Pin_46*%
%TO.N,/{slash}C{slash}D*%
X58040000Y-159900000D03*
%TO.P,J1,47,Pin_47*%
%TO.N,GND*%
X55500000Y-162440000D03*
%TO.P,J1,48,Pin_48*%
%TO.N,/{slash}REQ*%
X58040000Y-162440000D03*
%TO.P,J1,49,Pin_49*%
%TO.N,GND*%
X55500000Y-164980000D03*
%TO.P,J1,50,Pin_50*%
%TO.N,/{slash}I{slash}O*%
X58040000Y-164980000D03*
%TD*%
D11*
%TO.P,C18,1*%
%TO.N,/{slash}REQ*%
X79000000Y-84137500D03*
%TO.P,C18,2*%
%TO.N,GND*%
X79000000Y-85862500D03*
%TD*%
D20*
%TO.N,GND*%
X62000000Y-173000000D03*
X49500000Y-134000000D03*
X48000000Y-173000000D03*
X79000000Y-88000000D03*
X68500000Y-87500000D03*
X58000000Y-72000000D03*
X39500000Y-104500000D03*
X37500000Y-126000000D03*
X61500000Y-87500000D03*
X32000000Y-72000000D03*
X80000000Y-87500000D03*
X32500000Y-173000000D03*
X49500000Y-136500000D03*
X39500000Y-109000000D03*
X63500000Y-87000000D03*
X32500000Y-154000000D03*
X84000000Y-93000000D03*
X49000000Y-98000000D03*
X71500000Y-87500000D03*
X66000000Y-87000000D03*
X50500000Y-101500000D03*
X84000000Y-72000000D03*
X49000000Y-96000000D03*
X75000000Y-87500000D03*
%TO.N,VCC*%
X36500000Y-107500000D03*
%TO.N,/DB3*%
X47000000Y-92500000D03*
%TO.N,/DB7*%
X54500000Y-82000000D03*
%TO.N,/DB5*%
X50323750Y-82323750D03*
%TO.N,/PARITY*%
X56500000Y-82000000D03*
%TO.N,/{slash}I{slash}O*%
X72750000Y-82750000D03*
X71500000Y-90500000D03*
X53000000Y-157500000D03*
%TO.N,/DB4*%
X47568750Y-82568750D03*
%TO.N,/{slash}ATN*%
X59553750Y-83053750D03*
%TO.N,/DB2*%
X43000000Y-93000000D03*
%TO.N,/DB1*%
X38500000Y-93000000D03*
%TO.N,/DB6*%
X52500000Y-82000000D03*
%TO.N,/NO_IDEA1*%
X78500000Y-77500000D03*
%TD*%
D21*
%TO.N,VCC*%
X36500000Y-111500000D02*
X36500000Y-107500000D01*
X36750000Y-111500000D02*
X36500000Y-111500000D01*
%TO.N,Net-(F1-Pad2)*%
X40765000Y-111500000D02*
X41175000Y-111910000D01*
X41085000Y-112000000D02*
X41175000Y-111910000D01*
X38500000Y-111500000D02*
X40765000Y-111500000D01*
X41175000Y-154500000D02*
X41175000Y-111910000D01*
D22*
%TO.N,/{slash}MSG*%
X67500000Y-85500000D02*
X68000000Y-85000000D01*
X68960000Y-84137500D02*
X68960000Y-78460000D01*
X58040000Y-154820000D02*
X61000000Y-151860000D01*
X68960000Y-78460000D02*
X68500000Y-78000000D01*
X67500000Y-87062076D02*
X67500000Y-85500000D01*
X68097500Y-85000000D02*
X68960000Y-84137500D01*
X65000000Y-89000000D02*
X65562076Y-89000000D01*
X65562076Y-89000000D02*
X67500000Y-87062076D01*
X56720000Y-153500000D02*
X58040000Y-154820000D01*
X54500000Y-153500000D02*
X56720000Y-153500000D01*
X45460000Y-144460000D02*
X54500000Y-153500000D01*
X43000000Y-144460000D02*
X45460000Y-144460000D01*
X61000000Y-93000000D02*
X65000000Y-89000000D01*
X68000000Y-85000000D02*
X68097500Y-85000000D01*
X61000000Y-151860000D02*
X61000000Y-93000000D01*
%TO.N,/DB3*%
X49500000Y-79000000D02*
X49500000Y-77000000D01*
X45000000Y-83500000D02*
X49500000Y-79000000D01*
X49500000Y-77000000D02*
X50500000Y-76000000D01*
X49435000Y-113005000D02*
X56675000Y-113005000D01*
X44500000Y-94500000D02*
X45000000Y-94500000D01*
X45000000Y-90500000D02*
X45000000Y-83500000D01*
X43000000Y-119440000D02*
X49435000Y-113005000D01*
X45000000Y-94500000D02*
X47000000Y-92500000D01*
X47000000Y-92500000D02*
X45000000Y-90500000D01*
X56675000Y-113005000D02*
X58040000Y-111640000D01*
%TO.N,/DB7*%
X54500000Y-82000000D02*
X58500000Y-78000000D01*
X49315000Y-123165000D02*
X56675000Y-123165000D01*
X53580000Y-84087500D02*
X53580000Y-82920000D01*
X56675000Y-123165000D02*
X58040000Y-121800000D01*
X53580000Y-82920000D02*
X54500000Y-82000000D01*
X43000000Y-129480000D02*
X49315000Y-123165000D01*
%TO.N,/DB5*%
X49375000Y-118085000D02*
X56675000Y-118085000D01*
X56675000Y-118085000D02*
X58040000Y-116720000D01*
X53500000Y-77000000D02*
X54500000Y-76000000D01*
X50323750Y-82323750D02*
X53500000Y-79147500D01*
X53500000Y-79147500D02*
X53500000Y-77000000D01*
X48560000Y-84087500D02*
X50323750Y-82323750D01*
X43000000Y-124460000D02*
X49375000Y-118085000D01*
%TO.N,/DB0*%
X41500000Y-100000000D02*
X38000000Y-96500000D01*
X54020000Y-100000000D02*
X43000000Y-100000000D01*
X43500000Y-77000000D02*
X44500000Y-76000000D01*
X43500000Y-79500000D02*
X43500000Y-77000000D01*
X38000000Y-96500000D02*
X38000000Y-95500000D01*
X38000000Y-95500000D02*
X37000000Y-94500000D01*
X37000000Y-86000000D02*
X43500000Y-79500000D01*
X43000000Y-111910000D02*
X43000000Y-100000000D01*
X43000000Y-100000000D02*
X41500000Y-100000000D01*
X37000000Y-94500000D02*
X37000000Y-86000000D01*
X58040000Y-104020000D02*
X54020000Y-100000000D01*
%TO.N,/PARITY*%
X53795000Y-125705000D02*
X56675000Y-125705000D01*
X43000000Y-131990000D02*
X47510000Y-131990000D01*
X47510000Y-131990000D02*
X53795000Y-125705000D01*
X56500000Y-82000000D02*
X60500000Y-78000000D01*
X56010000Y-82490000D02*
X56500000Y-82000000D01*
X56010000Y-84087500D02*
X56010000Y-82490000D01*
X56675000Y-125705000D02*
X58040000Y-124340000D01*
%TO.N,/{slash}I{slash}O*%
X72750000Y-82750000D02*
X71500000Y-81500000D01*
X43000000Y-149480000D02*
X44980000Y-149480000D01*
X63000000Y-160020000D02*
X63000000Y-95823223D01*
X68323223Y-90500000D02*
X71500000Y-90500000D01*
X58040000Y-164980000D02*
X63000000Y-160020000D01*
X73980000Y-84020000D02*
X74000000Y-84000000D01*
X63000000Y-95823223D02*
X68323223Y-90500000D01*
X74000000Y-84000000D02*
X72750000Y-82750000D01*
X44980000Y-149480000D02*
X53000000Y-157500000D01*
X73980000Y-84137500D02*
X73980000Y-84020000D01*
X71500000Y-81500000D02*
X71500000Y-77000000D01*
X71500000Y-77000000D02*
X70500000Y-76000000D01*
%TO.N,/{slash}REQ*%
X81500000Y-85000000D02*
X80637500Y-84137500D01*
X62500000Y-95636396D02*
X68636396Y-89500000D01*
X43000000Y-154500000D02*
X49765000Y-161265000D01*
X81500000Y-89500000D02*
X81500000Y-85000000D01*
X49765000Y-161265000D02*
X56865000Y-161265000D01*
X80637500Y-84137500D02*
X79000000Y-84137500D01*
X58040000Y-162440000D02*
X62500000Y-157980000D01*
X68636396Y-89500000D02*
X81500000Y-89500000D01*
X56865000Y-161265000D02*
X58040000Y-162440000D01*
X79000000Y-84000000D02*
X75500000Y-80500000D01*
X75500000Y-80000000D02*
X74500000Y-79000000D01*
X74500000Y-79000000D02*
X74500000Y-78000000D01*
X75500000Y-80500000D02*
X75500000Y-80000000D01*
X62500000Y-157980000D02*
X62500000Y-95636396D01*
X79000000Y-84137500D02*
X79000000Y-84000000D01*
%TO.N,/DB4*%
X47568750Y-82568750D02*
X51500000Y-78637500D01*
X43000000Y-121950000D02*
X49405000Y-115545000D01*
X46500000Y-83637500D02*
X47568750Y-82568750D01*
X46500000Y-84087500D02*
X46500000Y-83637500D01*
X51500000Y-77000000D02*
X52500000Y-76000000D01*
X51500000Y-78637500D02*
X51500000Y-77000000D01*
X49405000Y-115545000D02*
X56675000Y-115545000D01*
X56675000Y-115545000D02*
X58040000Y-114180000D01*
%TO.N,/{slash}RST*%
X64775000Y-87199695D02*
X65000000Y-86974695D01*
X65000000Y-86974695D02*
X65000000Y-85587500D01*
X64775000Y-87225000D02*
X64775000Y-87199695D01*
X66450000Y-84137500D02*
X67500000Y-83087500D01*
X54000000Y-151000000D02*
X56760000Y-151000000D01*
X67500000Y-77000000D02*
X66500000Y-76000000D01*
X58040000Y-152280000D02*
X60500000Y-149820000D01*
X65000000Y-85587500D02*
X66450000Y-84137500D01*
X43000000Y-141950000D02*
X44950000Y-141950000D01*
X67500000Y-83087500D02*
X67500000Y-77000000D01*
X60500000Y-149820000D02*
X60500000Y-91500000D01*
X56760000Y-151000000D02*
X58040000Y-152280000D01*
X44950000Y-141950000D02*
X54000000Y-151000000D01*
X60500000Y-91500000D02*
X64775000Y-87225000D01*
%TO.N,/{slash}BSY*%
X53525000Y-146025000D02*
X56865000Y-146025000D01*
X61430000Y-84137500D02*
X62500000Y-83067500D01*
X58040000Y-147200000D02*
X59500000Y-145740000D01*
X61430000Y-84522924D02*
X61430000Y-84137500D01*
X62500000Y-83067500D02*
X62500000Y-80500000D01*
X63000000Y-79500000D02*
X64500000Y-78000000D01*
X62500000Y-80500000D02*
X63000000Y-80000000D01*
X56865000Y-146025000D02*
X58040000Y-147200000D01*
X44430000Y-136930000D02*
X53525000Y-146025000D01*
X43000000Y-136930000D02*
X44430000Y-136930000D01*
X63000000Y-80000000D02*
X63000000Y-79500000D01*
X59500000Y-86452924D02*
X61430000Y-84522924D01*
X59500000Y-145740000D02*
X59500000Y-86452924D01*
%TO.N,/{slash}SEL*%
X70500000Y-83167500D02*
X70500000Y-78000000D01*
X61500000Y-94500000D02*
X67500000Y-88500000D01*
X70862500Y-84137500D02*
X71470000Y-84137500D01*
X69500000Y-88500000D02*
X70000000Y-88000000D01*
X56865000Y-156185000D02*
X58040000Y-157360000D01*
X71470000Y-84137500D02*
X70500000Y-83167500D01*
X67500000Y-88500000D02*
X69500000Y-88500000D01*
X44970000Y-146970000D02*
X54185000Y-156185000D01*
X58040000Y-157360000D02*
X61500000Y-153900000D01*
X54185000Y-156185000D02*
X56865000Y-156185000D01*
X70000000Y-88000000D02*
X70000000Y-85000000D01*
X61500000Y-153900000D02*
X61500000Y-94500000D01*
X70000000Y-85000000D02*
X70862500Y-84137500D01*
X43000000Y-146970000D02*
X44970000Y-146970000D01*
%TO.N,/{slash}ATN*%
X43000000Y-134500000D02*
X49445000Y-140945000D01*
X61500000Y-77000000D02*
X62500000Y-76000000D01*
X58520000Y-84087500D02*
X59553750Y-83053750D01*
X59553750Y-83053750D02*
X61500000Y-81107500D01*
X61500000Y-81107500D02*
X61500000Y-77000000D01*
X49445000Y-140945000D02*
X56865000Y-140945000D01*
X56865000Y-140945000D02*
X58040000Y-142120000D01*
%TO.N,/DB2*%
X42000000Y-94500000D02*
X42000000Y-94000000D01*
X47500000Y-79500000D02*
X47500000Y-77000000D01*
X43000000Y-116930000D02*
X49465000Y-110465000D01*
X44500000Y-82500000D02*
X47500000Y-79500000D01*
X44500000Y-91500000D02*
X44500000Y-82500000D01*
X49465000Y-110465000D02*
X56675000Y-110465000D01*
X47500000Y-77000000D02*
X48500000Y-76000000D01*
X42000000Y-94000000D02*
X43000000Y-93000000D01*
X56675000Y-110465000D02*
X58040000Y-109100000D01*
X43000000Y-93000000D02*
X44500000Y-91500000D01*
%TO.N,/{slash}C{slash}D*%
X77500000Y-88000000D02*
X77500000Y-85147500D01*
X68500000Y-89000000D02*
X76500000Y-89000000D01*
X49735000Y-158725000D02*
X43000000Y-151990000D01*
X76500000Y-89000000D02*
X77500000Y-88000000D01*
X58040000Y-159900000D02*
X62000000Y-155940000D01*
X76490000Y-83490000D02*
X72500000Y-79500000D01*
X77500000Y-85147500D02*
X76490000Y-84137500D01*
X62000000Y-95500000D02*
X68500000Y-89000000D01*
X58040000Y-159900000D02*
X56865000Y-158725000D01*
X62000000Y-155940000D02*
X62000000Y-95500000D01*
X56865000Y-158725000D02*
X49735000Y-158725000D01*
X76490000Y-84137500D02*
X76490000Y-83490000D01*
X72500000Y-79500000D02*
X72500000Y-78000000D01*
%TO.N,/DB1*%
X39500000Y-94000000D02*
X38500000Y-93000000D01*
X39500000Y-94500000D02*
X44000000Y-90000000D01*
X44000000Y-81000000D02*
X45500000Y-79500000D01*
X49495000Y-107925000D02*
X56675000Y-107925000D01*
X43000000Y-114420000D02*
X49495000Y-107925000D01*
X39500000Y-94500000D02*
X39500000Y-94000000D01*
X44000000Y-90000000D02*
X44000000Y-81000000D01*
X56675000Y-107925000D02*
X58040000Y-106560000D01*
X45500000Y-79500000D02*
X45500000Y-77000000D01*
X45500000Y-77000000D02*
X46500000Y-76000000D01*
%TO.N,/DB6*%
X43000000Y-126970000D02*
X49345000Y-120625000D01*
X56675000Y-120625000D02*
X58040000Y-119260000D01*
X52500000Y-82000000D02*
X56500000Y-78000000D01*
X51070000Y-83430000D02*
X52500000Y-82000000D01*
X49345000Y-120625000D02*
X56675000Y-120625000D01*
X51070000Y-84087500D02*
X51070000Y-83430000D01*
%TO.N,/{slash}ACK*%
X62500000Y-85577500D02*
X63940000Y-84137500D01*
X53500000Y-148500000D02*
X56800000Y-148500000D01*
X43000000Y-139440000D02*
X44440000Y-139440000D01*
X63940000Y-84137500D02*
X63940000Y-80560000D01*
X63940000Y-80560000D02*
X66500000Y-78000000D01*
X60000000Y-147780000D02*
X60000000Y-90500000D01*
X58040000Y-149740000D02*
X60000000Y-147780000D01*
X62500000Y-88000000D02*
X62500000Y-85577500D01*
X56800000Y-148500000D02*
X58040000Y-149740000D01*
X44440000Y-139440000D02*
X53500000Y-148500000D01*
X60000000Y-90500000D02*
X62500000Y-88000000D01*
%TO.N,/NO_IDEA2*%
X76500000Y-78000000D02*
X76500000Y-76000000D01*
X76500000Y-76000000D02*
X80000000Y-76000000D01*
%TO.N,/NO_IDEA1*%
X80000000Y-77825000D02*
X78825000Y-77825000D01*
X42500000Y-78000000D02*
X42500000Y-76000000D01*
X78825000Y-77825000D02*
X78500000Y-77500000D01*
%TO.N,/ID_SWITCH3*%
X34000000Y-134500000D02*
X34000000Y-84000000D01*
X37000000Y-137500000D02*
X34000000Y-134500000D01*
X39000000Y-79500000D02*
X40500000Y-78000000D01*
X34000000Y-84000000D02*
X38500000Y-79500000D01*
X37000000Y-140920000D02*
X37000000Y-137500000D01*
X38500000Y-79500000D02*
X39000000Y-79500000D01*
%TO.N,/ID_SWITCH1*%
X37000000Y-148500000D02*
X37000000Y-146000000D01*
X32000000Y-147500000D02*
X33000000Y-148500000D01*
X33000000Y-148500000D02*
X37000000Y-148500000D01*
X38500000Y-78000000D02*
X32000000Y-84500000D01*
X32000000Y-84500000D02*
X32000000Y-147500000D01*
%TO.N,/ID_SWITCH2*%
X33000000Y-149500000D02*
X38000000Y-149500000D01*
X31000000Y-147500000D02*
X33000000Y-149500000D01*
X38000000Y-149500000D02*
X38500000Y-149000000D01*
X38500000Y-149000000D02*
X38500000Y-144960000D01*
X38500000Y-76000000D02*
X31000000Y-83500000D01*
X31000000Y-83500000D02*
X31000000Y-147500000D01*
X38500000Y-144960000D02*
X37000000Y-143460000D01*
%TD*%
%TA.AperFunction,Conductor*%
%TO.N,GND*%
G36*
X85943039Y-70019685D02*
G01*
X85988794Y-70072489D01*
X86000000Y-70124000D01*
X86000000Y-94876000D01*
X85980315Y-94943039D01*
X85927511Y-94988794D01*
X85876000Y-95000000D01*
X65007175Y-95000000D01*
X64940136Y-94980315D01*
X64894381Y-94927511D01*
X64884437Y-94858353D01*
X64913462Y-94794797D01*
X64919494Y-94788319D01*
X68545994Y-91161819D01*
X68607317Y-91128334D01*
X68633675Y-91125500D01*
X70796252Y-91125500D01*
X70863291Y-91145185D01*
X70888400Y-91166526D01*
X70894126Y-91172885D01*
X70894130Y-91172889D01*
X71047265Y-91284148D01*
X71047270Y-91284151D01*
X71220192Y-91361142D01*
X71220197Y-91361144D01*
X71405354Y-91400500D01*
X71405355Y-91400500D01*
X71594644Y-91400500D01*
X71594646Y-91400500D01*
X71779803Y-91361144D01*
X71952730Y-91284151D01*
X72105871Y-91172888D01*
X72232533Y-91032216D01*
X72327179Y-90868284D01*
X72385674Y-90688256D01*
X72405460Y-90500000D01*
X72385674Y-90311744D01*
X72377900Y-90287818D01*
X72375905Y-90217977D01*
X72411985Y-90158144D01*
X72474686Y-90127316D01*
X72495831Y-90125500D01*
X81561607Y-90125500D01*
X81561608Y-90125499D01*
X81682452Y-90101463D01*
X81796286Y-90054311D01*
X81898733Y-89985858D01*
X81985858Y-89898733D01*
X82054311Y-89796286D01*
X82101463Y-89682452D01*
X82125500Y-89561606D01*
X82125500Y-84938394D01*
X82101463Y-84817548D01*
X82054311Y-84703714D01*
X82054310Y-84703713D01*
X82054307Y-84703707D01*
X81985858Y-84601267D01*
X81985855Y-84601263D01*
X81895637Y-84511045D01*
X81895606Y-84511016D01*
X81127698Y-83743108D01*
X81127678Y-83743086D01*
X81036236Y-83651644D01*
X81036228Y-83651638D01*
X80960844Y-83601268D01*
X80960843Y-83601267D01*
X80933790Y-83583190D01*
X80933786Y-83583188D01*
X80918627Y-83576909D01*
X80853292Y-83549847D01*
X80819952Y-83536037D01*
X80819948Y-83536036D01*
X80819944Y-83536035D01*
X80746680Y-83521462D01*
X80746679Y-83521462D01*
X80699111Y-83512000D01*
X80699107Y-83512000D01*
X80699106Y-83512000D01*
X79973032Y-83512000D01*
X79905993Y-83492315D01*
X79867494Y-83453097D01*
X79820342Y-83376653D01*
X79820339Y-83376649D01*
X79698351Y-83254661D01*
X79698350Y-83254660D01*
X79551516Y-83164092D01*
X79387753Y-83109826D01*
X79387751Y-83109825D01*
X79286684Y-83099500D01*
X79286677Y-83099500D01*
X79035453Y-83099500D01*
X78968414Y-83079815D01*
X78947772Y-83063181D01*
X76161819Y-80277228D01*
X76128334Y-80215905D01*
X76125500Y-80189547D01*
X76125500Y-80067741D01*
X76125501Y-80067720D01*
X76125501Y-79938391D01*
X76101464Y-79817555D01*
X76101463Y-79817549D01*
X76054312Y-79703715D01*
X75985858Y-79601267D01*
X75985855Y-79601263D01*
X75363548Y-78978956D01*
X75330063Y-78917633D01*
X75335047Y-78847941D01*
X75367695Y-78799635D01*
X75372427Y-78795322D01*
X75401045Y-78757424D01*
X75457153Y-78715788D01*
X75526865Y-78711095D01*
X75588048Y-78744837D01*
X75598947Y-78757415D01*
X75627573Y-78795322D01*
X75627575Y-78795324D01*
X75627578Y-78795327D01*
X75685293Y-78847941D01*
X75788568Y-78942088D01*
X75788570Y-78942089D01*
X75788576Y-78942093D01*
X75973786Y-79056770D01*
X75973792Y-79056773D01*
X75986268Y-79061606D01*
X76176931Y-79135470D01*
X76391074Y-79175500D01*
X76391076Y-79175500D01*
X76608924Y-79175500D01*
X76608926Y-79175500D01*
X76823069Y-79135470D01*
X77026210Y-79056772D01*
X77211432Y-78942088D01*
X77372427Y-78795322D01*
X77503712Y-78621472D01*
X77600817Y-78426459D01*
X77660435Y-78216923D01*
X77660436Y-78216914D01*
X77661313Y-78212225D01*
X77692979Y-78149943D01*
X77753290Y-78114668D01*
X77823098Y-78117599D01*
X77875352Y-78152034D01*
X77894129Y-78172888D01*
X78047265Y-78284148D01*
X78047270Y-78284151D01*
X78220192Y-78361142D01*
X78220197Y-78361144D01*
X78405354Y-78400500D01*
X78555203Y-78400500D01*
X78602655Y-78409938D01*
X78642548Y-78426463D01*
X78763388Y-78450499D01*
X78763392Y-78450500D01*
X78763393Y-78450500D01*
X78763394Y-78450500D01*
X79057809Y-78450500D01*
X79124848Y-78470185D01*
X79163348Y-78509404D01*
X79179660Y-78535850D01*
X79301650Y-78657840D01*
X79448484Y-78748408D01*
X79612247Y-78802674D01*
X79713323Y-78813000D01*
X80286676Y-78812999D01*
X80286684Y-78812998D01*
X80286687Y-78812998D01*
X80342030Y-78807344D01*
X80387753Y-78802674D01*
X80551516Y-78748408D01*
X80698350Y-78657840D01*
X80820340Y-78535850D01*
X80910908Y-78389016D01*
X80965174Y-78225253D01*
X80975500Y-78124177D01*
X80975499Y-77525824D01*
X80965174Y-77424747D01*
X80910908Y-77260984D01*
X80820340Y-77114150D01*
X80706371Y-77000181D01*
X80672886Y-76938858D01*
X80677870Y-76869166D01*
X80706371Y-76824819D01*
X80736209Y-76794981D01*
X80820340Y-76710850D01*
X80910908Y-76564016D01*
X80965174Y-76400253D01*
X80975500Y-76299177D01*
X80975499Y-75700824D01*
X80965174Y-75599747D01*
X80910908Y-75435984D01*
X80820340Y-75289150D01*
X80698350Y-75167160D01*
X80551516Y-75076592D01*
X80387753Y-75022326D01*
X80387751Y-75022325D01*
X80286678Y-75012000D01*
X79713330Y-75012000D01*
X79713312Y-75012001D01*
X79612247Y-75022325D01*
X79448484Y-75076592D01*
X79448481Y-75076593D01*
X79301648Y-75167161D01*
X79179659Y-75289150D01*
X79163348Y-75315596D01*
X79111400Y-75362321D01*
X79057809Y-75374500D01*
X77562414Y-75374500D01*
X77495375Y-75354815D01*
X77463460Y-75325226D01*
X77436215Y-75289148D01*
X77372427Y-75204678D01*
X77372423Y-75204674D01*
X77372421Y-75204672D01*
X77211433Y-75057913D01*
X77211423Y-75057906D01*
X77026213Y-74943229D01*
X77026207Y-74943226D01*
X76941113Y-74910260D01*
X76823069Y-74864530D01*
X76608926Y-74824500D01*
X76391074Y-74824500D01*
X76176931Y-74864530D01*
X76128130Y-74883435D01*
X75973792Y-74943226D01*
X75973786Y-74943229D01*
X75788576Y-75057906D01*
X75788566Y-75057913D01*
X75627574Y-75204676D01*
X75598640Y-75242991D01*
X75542530Y-75284627D01*
X75472818Y-75289318D01*
X75411637Y-75255576D01*
X75400731Y-75242990D01*
X75372051Y-75205011D01*
X75372050Y-75205010D01*
X75211131Y-75058314D01*
X75025987Y-74943677D01*
X75025985Y-74943676D01*
X74822931Y-74865013D01*
X74822921Y-74865010D01*
X74750001Y-74851378D01*
X74750000Y-74851379D01*
X74750000Y-75684314D01*
X74745606Y-75679920D01*
X74654394Y-75627259D01*
X74552661Y-75600000D01*
X74447339Y-75600000D01*
X74345606Y-75627259D01*
X74254394Y-75679920D01*
X74250000Y-75684314D01*
X74250000Y-74851379D01*
X74249998Y-74851378D01*
X74177078Y-74865010D01*
X74177068Y-74865013D01*
X73974014Y-74943676D01*
X73974012Y-74943677D01*
X73788869Y-75058314D01*
X73788868Y-75058314D01*
X73627945Y-75205014D01*
X73598954Y-75243405D01*
X73542845Y-75285041D01*
X73473133Y-75289732D01*
X73411951Y-75255990D01*
X73401046Y-75243405D01*
X73372054Y-75205014D01*
X73211131Y-75058314D01*
X73025987Y-74943677D01*
X73025985Y-74943676D01*
X72822931Y-74865013D01*
X72822921Y-74865010D01*
X72750001Y-74851378D01*
X72750000Y-74851379D01*
X72750000Y-75684314D01*
X72745606Y-75679920D01*
X72654394Y-75627259D01*
X72552661Y-75600000D01*
X72447339Y-75600000D01*
X72345606Y-75627259D01*
X72254394Y-75679920D01*
X72250000Y-75684314D01*
X72250000Y-74851379D01*
X72249998Y-74851378D01*
X72177078Y-74865010D01*
X72177068Y-74865013D01*
X71974014Y-74943676D01*
X71974012Y-74943677D01*
X71788869Y-75058314D01*
X71788868Y-75058314D01*
X71627945Y-75205014D01*
X71599267Y-75242990D01*
X71543157Y-75284626D01*
X71473445Y-75289317D01*
X71412264Y-75255575D01*
X71401359Y-75242990D01*
X71392547Y-75231321D01*
X71372427Y-75204678D01*
X71372420Y-75204672D01*
X71211433Y-75057913D01*
X71211423Y-75057906D01*
X71026213Y-74943229D01*
X71026207Y-74943226D01*
X70941113Y-74910260D01*
X70823069Y-74864530D01*
X70608926Y-74824500D01*
X70391074Y-74824500D01*
X70176931Y-74864530D01*
X70128130Y-74883435D01*
X69973792Y-74943226D01*
X69973786Y-74943229D01*
X69788576Y-75057906D01*
X69788566Y-75057913D01*
X69627574Y-75204676D01*
X69598640Y-75242991D01*
X69542530Y-75284627D01*
X69472818Y-75289318D01*
X69411637Y-75255576D01*
X69400731Y-75242990D01*
X69372051Y-75205011D01*
X69372050Y-75205010D01*
X69211131Y-75058314D01*
X69025987Y-74943677D01*
X69025985Y-74943676D01*
X68822931Y-74865013D01*
X68822921Y-74865010D01*
X68750001Y-74851378D01*
X68750000Y-74851379D01*
X68750000Y-75684314D01*
X68745606Y-75679920D01*
X68654394Y-75627259D01*
X68552661Y-75600000D01*
X68447339Y-75600000D01*
X68345606Y-75627259D01*
X68254394Y-75679920D01*
X68250000Y-75684314D01*
X68250000Y-74851379D01*
X68249998Y-74851378D01*
X68177078Y-74865010D01*
X68177068Y-74865013D01*
X67974014Y-74943676D01*
X67974012Y-74943677D01*
X67788869Y-75058314D01*
X67788868Y-75058314D01*
X67627945Y-75205014D01*
X67599267Y-75242990D01*
X67543157Y-75284626D01*
X67473445Y-75289317D01*
X67412264Y-75255575D01*
X67401359Y-75242990D01*
X67392547Y-75231321D01*
X67372427Y-75204678D01*
X67372420Y-75204672D01*
X67211433Y-75057913D01*
X67211423Y-75057906D01*
X67026213Y-74943229D01*
X67026207Y-74943226D01*
X66941113Y-74910260D01*
X66823069Y-74864530D01*
X66608926Y-74824500D01*
X66391074Y-74824500D01*
X66176931Y-74864530D01*
X66128130Y-74883435D01*
X65973792Y-74943226D01*
X65973786Y-74943229D01*
X65788576Y-75057906D01*
X65788566Y-75057913D01*
X65627574Y-75204676D01*
X65598640Y-75242991D01*
X65542530Y-75284627D01*
X65472818Y-75289318D01*
X65411637Y-75255576D01*
X65400731Y-75242990D01*
X65372051Y-75205011D01*
X65372050Y-75205010D01*
X65211131Y-75058314D01*
X65025987Y-74943677D01*
X65025985Y-74943676D01*
X64822931Y-74865013D01*
X64822921Y-74865010D01*
X64750001Y-74851378D01*
X64750000Y-74851379D01*
X64750000Y-75684314D01*
X64745606Y-75679920D01*
X64654394Y-75627259D01*
X64552661Y-75600000D01*
X64447339Y-75600000D01*
X64345606Y-75627259D01*
X64254394Y-75679920D01*
X64250000Y-75684314D01*
X64250000Y-74851379D01*
X64249998Y-74851378D01*
X64177078Y-74865010D01*
X64177068Y-74865013D01*
X63974014Y-74943676D01*
X63974012Y-74943677D01*
X63788869Y-75058314D01*
X63788868Y-75058314D01*
X63627945Y-75205014D01*
X63599267Y-75242990D01*
X63543157Y-75284626D01*
X63473445Y-75289317D01*
X63412264Y-75255575D01*
X63401359Y-75242990D01*
X63392547Y-75231321D01*
X63372427Y-75204678D01*
X63372420Y-75204672D01*
X63211433Y-75057913D01*
X63211423Y-75057906D01*
X63026213Y-74943229D01*
X63026207Y-74943226D01*
X62941113Y-74910260D01*
X62823069Y-74864530D01*
X62608926Y-74824500D01*
X62391074Y-74824500D01*
X62176931Y-74864530D01*
X62128130Y-74883435D01*
X61973792Y-74943226D01*
X61973786Y-74943229D01*
X61788576Y-75057906D01*
X61788566Y-75057913D01*
X61627574Y-75204676D01*
X61598640Y-75242991D01*
X61542530Y-75284627D01*
X61472818Y-75289318D01*
X61411637Y-75255576D01*
X61400731Y-75242990D01*
X61372051Y-75205011D01*
X61372050Y-75205010D01*
X61211131Y-75058314D01*
X61025987Y-74943677D01*
X61025985Y-74943676D01*
X60822931Y-74865013D01*
X60822921Y-74865010D01*
X60750001Y-74851378D01*
X60750000Y-74851379D01*
X60750000Y-75684314D01*
X60745606Y-75679920D01*
X60654394Y-75627259D01*
X60552661Y-75600000D01*
X60447339Y-75600000D01*
X60345606Y-75627259D01*
X60254394Y-75679920D01*
X60250000Y-75684314D01*
X60250000Y-74851379D01*
X60249998Y-74851378D01*
X60177078Y-74865010D01*
X60177068Y-74865013D01*
X59974014Y-74943676D01*
X59974012Y-74943677D01*
X59788869Y-75058314D01*
X59788868Y-75058314D01*
X59627945Y-75205014D01*
X59598954Y-75243405D01*
X59542845Y-75285041D01*
X59473133Y-75289732D01*
X59411951Y-75255990D01*
X59401046Y-75243405D01*
X59372054Y-75205014D01*
X59211131Y-75058314D01*
X59025987Y-74943677D01*
X59025985Y-74943676D01*
X58822931Y-74865013D01*
X58822921Y-74865010D01*
X58750001Y-74851378D01*
X58750000Y-74851379D01*
X58750000Y-75684314D01*
X58745606Y-75679920D01*
X58654394Y-75627259D01*
X58552661Y-75600000D01*
X58447339Y-75600000D01*
X58345606Y-75627259D01*
X58254394Y-75679920D01*
X58250000Y-75684314D01*
X58250000Y-74851379D01*
X58249998Y-74851378D01*
X58177078Y-74865010D01*
X58177068Y-74865013D01*
X57974014Y-74943676D01*
X57974012Y-74943677D01*
X57788869Y-75058314D01*
X57788868Y-75058314D01*
X57627945Y-75205014D01*
X57598954Y-75243405D01*
X57542845Y-75285041D01*
X57473133Y-75289732D01*
X57411951Y-75255990D01*
X57401046Y-75243405D01*
X57372054Y-75205014D01*
X57211131Y-75058314D01*
X57025987Y-74943677D01*
X57025985Y-74943676D01*
X56822931Y-74865013D01*
X56822921Y-74865010D01*
X56750001Y-74851378D01*
X56750000Y-74851379D01*
X56750000Y-75684314D01*
X56745606Y-75679920D01*
X56654394Y-75627259D01*
X56552661Y-75600000D01*
X56447339Y-75600000D01*
X56345606Y-75627259D01*
X56254394Y-75679920D01*
X56250000Y-75684314D01*
X56250000Y-74851379D01*
X56249998Y-74851378D01*
X56177078Y-74865010D01*
X56177068Y-74865013D01*
X55974014Y-74943676D01*
X55974012Y-74943677D01*
X55788869Y-75058314D01*
X55788868Y-75058314D01*
X55627945Y-75205014D01*
X55599267Y-75242990D01*
X55543157Y-75284626D01*
X55473445Y-75289317D01*
X55412264Y-75255575D01*
X55401359Y-75242990D01*
X55392547Y-75231321D01*
X55372427Y-75204678D01*
X55372420Y-75204672D01*
X55211433Y-75057913D01*
X55211423Y-75057906D01*
X55026213Y-74943229D01*
X55026207Y-74943226D01*
X54941113Y-74910260D01*
X54823069Y-74864530D01*
X54608926Y-74824500D01*
X54391074Y-74824500D01*
X54176931Y-74864530D01*
X54128130Y-74883435D01*
X53973792Y-74943226D01*
X53973786Y-74943229D01*
X53788576Y-75057906D01*
X53788566Y-75057913D01*
X53627573Y-75204676D01*
X53598953Y-75242576D01*
X53542844Y-75284211D01*
X53473132Y-75288902D01*
X53411950Y-75255159D01*
X53401047Y-75242576D01*
X53372426Y-75204676D01*
X53211433Y-75057913D01*
X53211423Y-75057906D01*
X53026213Y-74943229D01*
X53026207Y-74943226D01*
X52941113Y-74910260D01*
X52823069Y-74864530D01*
X52608926Y-74824500D01*
X52391074Y-74824500D01*
X52176931Y-74864530D01*
X52128130Y-74883435D01*
X51973792Y-74943226D01*
X51973786Y-74943229D01*
X51788576Y-75057906D01*
X51788566Y-75057913D01*
X51627573Y-75204676D01*
X51598953Y-75242576D01*
X51542844Y-75284211D01*
X51473132Y-75288902D01*
X51411950Y-75255159D01*
X51401047Y-75242576D01*
X51372426Y-75204676D01*
X51211433Y-75057913D01*
X51211423Y-75057906D01*
X51026213Y-74943229D01*
X51026207Y-74943226D01*
X50941113Y-74910260D01*
X50823069Y-74864530D01*
X50608926Y-74824500D01*
X50391074Y-74824500D01*
X50176931Y-74864530D01*
X50128130Y-74883435D01*
X49973792Y-74943226D01*
X49973786Y-74943229D01*
X49788576Y-75057906D01*
X49788566Y-75057913D01*
X49627573Y-75204676D01*
X49598953Y-75242576D01*
X49542844Y-75284211D01*
X49473132Y-75288902D01*
X49411950Y-75255159D01*
X49401047Y-75242576D01*
X49372426Y-75204676D01*
X49211433Y-75057913D01*
X49211423Y-75057906D01*
X49026213Y-74943229D01*
X49026207Y-74943226D01*
X48941113Y-74910260D01*
X48823069Y-74864530D01*
X48608926Y-74824500D01*
X48391074Y-74824500D01*
X48176931Y-74864530D01*
X48128130Y-74883435D01*
X47973792Y-74943226D01*
X47973786Y-74943229D01*
X47788576Y-75057906D01*
X47788566Y-75057913D01*
X47627573Y-75204676D01*
X47598953Y-75242576D01*
X47542844Y-75284211D01*
X47473132Y-75288902D01*
X47411950Y-75255159D01*
X47401047Y-75242576D01*
X47372426Y-75204676D01*
X47211433Y-75057913D01*
X47211423Y-75057906D01*
X47026213Y-74943229D01*
X47026207Y-74943226D01*
X46941113Y-74910260D01*
X46823069Y-74864530D01*
X46608926Y-74824500D01*
X46391074Y-74824500D01*
X46176931Y-74864530D01*
X46128130Y-74883435D01*
X45973792Y-74943226D01*
X45973786Y-74943229D01*
X45788576Y-75057906D01*
X45788566Y-75057913D01*
X45627573Y-75204676D01*
X45598953Y-75242576D01*
X45542844Y-75284211D01*
X45473132Y-75288902D01*
X45411950Y-75255159D01*
X45401047Y-75242576D01*
X45372426Y-75204676D01*
X45211433Y-75057913D01*
X45211423Y-75057906D01*
X45026213Y-74943229D01*
X45026207Y-74943226D01*
X44941113Y-74910260D01*
X44823069Y-74864530D01*
X44608926Y-74824500D01*
X44391074Y-74824500D01*
X44176931Y-74864530D01*
X44128130Y-74883435D01*
X43973792Y-74943226D01*
X43973786Y-74943229D01*
X43788576Y-75057906D01*
X43788566Y-75057913D01*
X43627573Y-75204676D01*
X43598953Y-75242576D01*
X43542844Y-75284211D01*
X43473132Y-75288902D01*
X43411950Y-75255159D01*
X43401047Y-75242576D01*
X43372426Y-75204676D01*
X43211433Y-75057913D01*
X43211423Y-75057906D01*
X43026213Y-74943229D01*
X43026207Y-74943226D01*
X42941113Y-74910260D01*
X42823069Y-74864530D01*
X42608926Y-74824500D01*
X42391074Y-74824500D01*
X42176931Y-74864530D01*
X42128130Y-74883435D01*
X41973792Y-74943226D01*
X41973786Y-74943229D01*
X41788576Y-75057906D01*
X41788566Y-75057913D01*
X41627573Y-75204676D01*
X41598953Y-75242576D01*
X41542844Y-75284211D01*
X41473132Y-75288902D01*
X41411950Y-75255159D01*
X41401047Y-75242576D01*
X41372426Y-75204676D01*
X41211433Y-75057913D01*
X41211423Y-75057906D01*
X41026213Y-74943229D01*
X41026207Y-74943226D01*
X40941113Y-74910260D01*
X40823069Y-74864530D01*
X40608926Y-74824500D01*
X40391074Y-74824500D01*
X40176931Y-74864530D01*
X40128130Y-74883435D01*
X39973792Y-74943226D01*
X39973786Y-74943229D01*
X39788576Y-75057906D01*
X39788566Y-75057913D01*
X39627573Y-75204676D01*
X39598953Y-75242576D01*
X39542844Y-75284211D01*
X39473132Y-75288902D01*
X39411950Y-75255159D01*
X39401047Y-75242576D01*
X39372426Y-75204676D01*
X39211433Y-75057913D01*
X39211423Y-75057906D01*
X39026213Y-74943229D01*
X39026207Y-74943226D01*
X38941113Y-74910260D01*
X38823069Y-74864530D01*
X38608926Y-74824500D01*
X38391074Y-74824500D01*
X38176931Y-74864530D01*
X38128130Y-74883435D01*
X37973792Y-74943226D01*
X37973786Y-74943229D01*
X37788576Y-75057906D01*
X37788566Y-75057913D01*
X37627574Y-75204676D01*
X37496288Y-75378527D01*
X37399184Y-75573537D01*
X37339564Y-75783081D01*
X37319464Y-75999999D01*
X37319464Y-76000000D01*
X37339190Y-76212885D01*
X37325775Y-76281455D01*
X37303400Y-76312007D01*
X32228478Y-81386931D01*
X30601269Y-83014140D01*
X30601267Y-83014142D01*
X30572348Y-83043061D01*
X30514142Y-83101266D01*
X30495540Y-83129107D01*
X30495539Y-83129108D01*
X30445690Y-83203709D01*
X30445685Y-83203718D01*
X30398540Y-83317538D01*
X30398535Y-83317554D01*
X30380189Y-83409791D01*
X30380189Y-83409792D01*
X30374500Y-83438391D01*
X30374500Y-147561609D01*
X30381241Y-147595497D01*
X30381241Y-147595499D01*
X30398535Y-147682444D01*
X30398538Y-147682454D01*
X30412347Y-147715792D01*
X30412347Y-147715793D01*
X30445685Y-147796281D01*
X30445690Y-147796290D01*
X30465209Y-147825501D01*
X30465210Y-147825502D01*
X30514141Y-147898732D01*
X30514144Y-147898736D01*
X30605586Y-147990178D01*
X30605608Y-147990198D01*
X32511016Y-149895606D01*
X32511045Y-149895637D01*
X32601261Y-149985853D01*
X32601264Y-149985855D01*
X32601267Y-149985858D01*
X32626102Y-150002452D01*
X32703714Y-150054312D01*
X32769264Y-150081463D01*
X32769265Y-150081463D01*
X32769266Y-150081464D01*
X32785358Y-150088129D01*
X32817548Y-150101463D01*
X32877971Y-150113481D01*
X32938393Y-150125500D01*
X38061607Y-150125500D01*
X38122029Y-150113481D01*
X38182452Y-150101463D01*
X38230736Y-150081463D01*
X38296286Y-150054312D01*
X38373898Y-150002452D01*
X38398733Y-149985858D01*
X38485858Y-149898733D01*
X38485859Y-149898731D01*
X38492925Y-149891665D01*
X38492928Y-149891661D01*
X38898729Y-149485860D01*
X38898733Y-149485858D01*
X38985858Y-149398733D01*
X39028926Y-149334276D01*
X39037254Y-149321813D01*
X39037256Y-149321810D01*
X39047044Y-149307161D01*
X39054312Y-149296285D01*
X39092656Y-149203714D01*
X39101463Y-149182452D01*
X39125500Y-149061606D01*
X39125500Y-144898394D01*
X39101463Y-144777548D01*
X39054311Y-144663714D01*
X39054310Y-144663713D01*
X39054307Y-144663707D01*
X38985859Y-144561268D01*
X38951148Y-144526557D01*
X38898733Y-144474142D01*
X38898732Y-144474141D01*
X38340236Y-143915646D01*
X38306752Y-143854324D01*
X38308143Y-143795872D01*
X38335063Y-143695408D01*
X38355659Y-143460000D01*
X38335063Y-143224592D01*
X38273903Y-142996337D01*
X38174035Y-142782171D01*
X38168731Y-142774595D01*
X38038494Y-142588597D01*
X37871402Y-142421506D01*
X37871396Y-142421501D01*
X37685842Y-142291575D01*
X37642217Y-142236998D01*
X37635023Y-142167500D01*
X37666546Y-142105145D01*
X37685842Y-142088425D01*
X37767990Y-142030904D01*
X37871401Y-141958495D01*
X38038495Y-141791401D01*
X38174035Y-141597830D01*
X38273903Y-141383663D01*
X38335063Y-141155408D01*
X38355659Y-140920000D01*
X38335063Y-140684592D01*
X38273903Y-140456337D01*
X38174035Y-140242171D01*
X38168731Y-140234595D01*
X38038494Y-140048597D01*
X37871402Y-139881506D01*
X37871401Y-139881505D01*
X37716430Y-139772993D01*
X37678376Y-139746347D01*
X37634751Y-139691770D01*
X37625500Y-139644772D01*
X37625500Y-137567741D01*
X37625501Y-137567720D01*
X37625501Y-137438391D01*
X37601464Y-137317555D01*
X37601463Y-137317549D01*
X37554312Y-137203715D01*
X37485858Y-137101267D01*
X37485855Y-137101263D01*
X34661819Y-134277227D01*
X34628334Y-134215904D01*
X34625500Y-134189546D01*
X34625500Y-96574154D01*
X36025001Y-96574154D01*
X36035319Y-96675152D01*
X36089546Y-96838800D01*
X36089551Y-96838811D01*
X36180052Y-96985534D01*
X36180055Y-96985538D01*
X36301961Y-97107444D01*
X36301965Y-97107447D01*
X36448688Y-97197948D01*
X36448699Y-97197953D01*
X36612347Y-97252180D01*
X36713352Y-97262499D01*
X36750000Y-97262499D01*
X36750000Y-96475000D01*
X36025001Y-96475000D01*
X36025001Y-96574154D01*
X34625500Y-96574154D01*
X34625500Y-84310452D01*
X34645185Y-84243413D01*
X34661819Y-84222771D01*
X38722771Y-80161819D01*
X38784094Y-80128334D01*
X38810452Y-80125500D01*
X39061607Y-80125500D01*
X39122029Y-80113481D01*
X39182452Y-80101463D01*
X39182455Y-80101461D01*
X39182458Y-80101461D01*
X39215787Y-80087654D01*
X39215786Y-80087654D01*
X39215792Y-80087652D01*
X39296286Y-80054312D01*
X39347509Y-80020084D01*
X39398733Y-79985858D01*
X39485858Y-79898733D01*
X39485858Y-79898731D01*
X39496066Y-79888524D01*
X39496067Y-79888521D01*
X40191535Y-79193054D01*
X40252856Y-79159571D01*
X40301994Y-79158848D01*
X40391074Y-79175500D01*
X40391077Y-79175500D01*
X40608924Y-79175500D01*
X40608926Y-79175500D01*
X40823069Y-79135470D01*
X41026210Y-79056772D01*
X41211432Y-78942088D01*
X41372427Y-78795322D01*
X41401047Y-78757422D01*
X41457153Y-78715787D01*
X41526865Y-78711094D01*
X41588048Y-78744836D01*
X41598946Y-78757414D01*
X41627573Y-78795322D01*
X41627576Y-78795325D01*
X41627578Y-78795327D01*
X41685293Y-78847941D01*
X41788568Y-78942088D01*
X41788570Y-78942089D01*
X41788576Y-78942093D01*
X41973786Y-79056770D01*
X41973792Y-79056773D01*
X41986268Y-79061606D01*
X42176931Y-79135470D01*
X42391074Y-79175500D01*
X42391076Y-79175500D01*
X42608924Y-79175500D01*
X42608926Y-79175500D01*
X42622389Y-79172983D01*
X42691903Y-79180012D01*
X42746582Y-79223508D01*
X42769066Y-79289661D01*
X42752216Y-79357468D01*
X42732857Y-79382552D01*
X39737289Y-82378120D01*
X36601270Y-85514139D01*
X36601267Y-85514142D01*
X36561097Y-85554312D01*
X36514140Y-85601268D01*
X36488858Y-85639106D01*
X36445688Y-85703713D01*
X36445688Y-85703714D01*
X36418252Y-85769951D01*
X36403003Y-85806764D01*
X36398538Y-85817545D01*
X36398535Y-85817553D01*
X36374500Y-85938389D01*
X36374500Y-93503018D01*
X36354815Y-93570057D01*
X36315600Y-93608555D01*
X36301650Y-93617160D01*
X36301649Y-93617160D01*
X36179661Y-93739148D01*
X36089093Y-93885981D01*
X36089091Y-93885986D01*
X36063981Y-93961763D01*
X36034826Y-94049747D01*
X36034826Y-94049748D01*
X36034825Y-94049748D01*
X36024500Y-94150815D01*
X36024500Y-94849169D01*
X36024501Y-94849187D01*
X36034825Y-94950252D01*
X36071109Y-95059749D01*
X36089092Y-95114016D01*
X36179659Y-95260849D01*
X36179661Y-95260851D01*
X36193982Y-95275172D01*
X36227467Y-95336495D01*
X36222483Y-95406187D01*
X36193985Y-95450532D01*
X36180052Y-95464465D01*
X36089551Y-95611188D01*
X36089546Y-95611199D01*
X36035319Y-95774847D01*
X36025000Y-95875845D01*
X36025000Y-95975000D01*
X36876000Y-95975000D01*
X36943039Y-95994685D01*
X36988794Y-96047489D01*
X37000000Y-96099000D01*
X37000000Y-96225000D01*
X37126000Y-96225000D01*
X37193039Y-96244685D01*
X37238794Y-96297489D01*
X37250000Y-96349000D01*
X37250000Y-97262499D01*
X37286640Y-97262499D01*
X37286654Y-97262498D01*
X37387652Y-97252180D01*
X37551300Y-97197953D01*
X37551302Y-97197952D01*
X37629936Y-97149449D01*
X37697328Y-97131008D01*
X37763992Y-97151929D01*
X37782716Y-97167306D01*
X41101262Y-100485854D01*
X41101265Y-100485857D01*
X41169411Y-100531390D01*
X41203714Y-100554311D01*
X41317548Y-100601463D01*
X41438388Y-100625499D01*
X41438392Y-100625500D01*
X41438393Y-100625500D01*
X41438394Y-100625500D01*
X42250500Y-100625500D01*
X42317539Y-100645185D01*
X42363294Y-100697989D01*
X42374500Y-100749500D01*
X42374500Y-110967808D01*
X42354815Y-111034847D01*
X42315599Y-111073345D01*
X42289152Y-111089657D01*
X42289149Y-111089660D01*
X42175181Y-111203629D01*
X42113858Y-111237114D01*
X42044166Y-111232130D01*
X41999819Y-111203629D01*
X41885851Y-111089661D01*
X41885850Y-111089660D01*
X41739016Y-110999092D01*
X41677169Y-110978597D01*
X41628494Y-110948573D01*
X41542140Y-110862219D01*
X41542139Y-110862218D01*
X41402782Y-110722861D01*
X41402781Y-110722860D01*
X41402780Y-110722859D01*
X41238920Y-110613371D01*
X41238911Y-110613366D01*
X41147894Y-110575666D01*
X41110165Y-110560038D01*
X41056836Y-110537949D01*
X41056832Y-110537948D01*
X41056828Y-110537946D01*
X40960188Y-110518724D01*
X40863544Y-110499500D01*
X40863541Y-110499500D01*
X38401459Y-110499500D01*
X38355185Y-110508704D01*
X38287746Y-110522118D01*
X38263557Y-110524500D01*
X38163331Y-110524500D01*
X38163312Y-110524501D01*
X38062247Y-110534825D01*
X37898484Y-110589092D01*
X37898481Y-110589093D01*
X37751648Y-110679661D01*
X37712681Y-110718629D01*
X37651358Y-110752114D01*
X37581666Y-110747130D01*
X37537319Y-110718629D01*
X37536819Y-110718129D01*
X37503334Y-110656806D01*
X37500500Y-110630448D01*
X37500500Y-107401456D01*
X37462052Y-107208170D01*
X37462051Y-107208169D01*
X37462051Y-107208165D01*
X37400680Y-107060000D01*
X37386635Y-107026092D01*
X37386628Y-107026079D01*
X37277139Y-106862218D01*
X37277136Y-106862214D01*
X37137785Y-106722863D01*
X37137781Y-106722860D01*
X36973920Y-106613371D01*
X36973907Y-106613364D01*
X36791839Y-106537950D01*
X36791829Y-106537947D01*
X36598543Y-106499500D01*
X36598541Y-106499500D01*
X36401459Y-106499500D01*
X36401457Y-106499500D01*
X36208170Y-106537947D01*
X36208160Y-106537950D01*
X36026092Y-106613364D01*
X36026079Y-106613371D01*
X35862218Y-106722860D01*
X35862214Y-106722863D01*
X35722863Y-106862214D01*
X35722860Y-106862218D01*
X35613371Y-107026079D01*
X35613364Y-107026092D01*
X35537950Y-107208160D01*
X35537947Y-107208170D01*
X35499500Y-107401456D01*
X35499500Y-107401459D01*
X35499500Y-111401459D01*
X35499500Y-111598541D01*
X35499500Y-111598543D01*
X35499499Y-111598543D01*
X35537947Y-111791829D01*
X35537950Y-111791839D01*
X35613364Y-111973907D01*
X35613371Y-111973920D01*
X35722860Y-112137781D01*
X35722863Y-112137785D01*
X35862214Y-112277136D01*
X35862218Y-112277139D01*
X36026079Y-112386628D01*
X36026092Y-112386635D01*
X36206873Y-112461516D01*
X36208165Y-112462051D01*
X36208169Y-112462051D01*
X36208170Y-112462052D01*
X36401456Y-112500500D01*
X36401459Y-112500500D01*
X36848543Y-112500500D01*
X36962247Y-112477882D01*
X36986439Y-112475499D01*
X37086670Y-112475499D01*
X37086676Y-112475499D01*
X37187753Y-112465174D01*
X37351516Y-112410908D01*
X37498350Y-112320340D01*
X37537319Y-112281371D01*
X37598642Y-112247886D01*
X37668334Y-112252870D01*
X37712681Y-112281371D01*
X37751650Y-112320340D01*
X37898484Y-112410908D01*
X38062247Y-112465174D01*
X38163323Y-112475500D01*
X38263563Y-112475499D01*
X38287756Y-112477882D01*
X38401458Y-112500500D01*
X38401459Y-112500500D01*
X40050500Y-112500500D01*
X40117539Y-112520185D01*
X40163294Y-112572989D01*
X40174500Y-112624500D01*
X40174500Y-154598541D01*
X40180162Y-154627007D01*
X40184618Y-154649409D01*
X40187000Y-154673598D01*
X40187000Y-154786668D01*
X40187001Y-154786687D01*
X40197325Y-154887752D01*
X40251592Y-155051515D01*
X40251593Y-155051518D01*
X40265654Y-155074314D01*
X40342160Y-155198350D01*
X40464150Y-155320340D01*
X40610984Y-155410908D01*
X40774747Y-155465174D01*
X40875823Y-155475500D01*
X40938563Y-155475499D01*
X40962754Y-155477881D01*
X41028596Y-155490979D01*
X41076458Y-155500500D01*
X41076459Y-155500500D01*
X41273543Y-155500500D01*
X41387247Y-155477882D01*
X41411439Y-155475499D01*
X41474170Y-155475499D01*
X41474176Y-155475499D01*
X41575253Y-155465174D01*
X41739016Y-155410908D01*
X41885850Y-155320340D01*
X41999819Y-155206371D01*
X42061142Y-155172886D01*
X42130834Y-155177870D01*
X42175181Y-155206371D01*
X42289150Y-155320340D01*
X42435984Y-155410908D01*
X42599747Y-155465174D01*
X42700823Y-155475500D01*
X43039547Y-155475499D01*
X43106586Y-155495183D01*
X43127228Y-155511818D01*
X49276016Y-161660606D01*
X49276045Y-161660637D01*
X49366264Y-161750856D01*
X49366267Y-161750858D01*
X49443133Y-161802218D01*
X49468710Y-161819309D01*
X49468712Y-161819310D01*
X49468715Y-161819312D01*
X49535396Y-161846931D01*
X49535398Y-161846933D01*
X49575640Y-161863601D01*
X49582548Y-161866463D01*
X49642971Y-161878481D01*
X49703393Y-161890500D01*
X49703394Y-161890500D01*
X54088015Y-161890500D01*
X54155054Y-161910185D01*
X54200809Y-161962989D01*
X54210753Y-162032147D01*
X54207790Y-162046593D01*
X54165432Y-162204674D01*
X54165430Y-162204684D01*
X54144843Y-162439998D01*
X54144843Y-162440000D01*
X54165430Y-162675315D01*
X54165432Y-162675326D01*
X54226566Y-162903483D01*
X54226570Y-162903492D01*
X54326398Y-163117576D01*
X54385073Y-163201372D01*
X55017037Y-162569408D01*
X55034075Y-162632993D01*
X55099901Y-162747007D01*
X55192993Y-162840099D01*
X55307007Y-162905925D01*
X55370591Y-162922962D01*
X54738626Y-163554926D01*
X54815031Y-163608426D01*
X54858656Y-163663003D01*
X54865848Y-163732501D01*
X54834326Y-163794856D01*
X54815030Y-163811575D01*
X54738627Y-163865072D01*
X54738626Y-163865073D01*
X55370591Y-164497037D01*
X55307007Y-164514075D01*
X55192993Y-164579901D01*
X55099901Y-164672993D01*
X55034075Y-164787007D01*
X55017037Y-164850590D01*
X54385073Y-164218626D01*
X54385073Y-164218627D01*
X54326400Y-164302421D01*
X54326399Y-164302423D01*
X54226570Y-164516507D01*
X54226566Y-164516516D01*
X54165432Y-164744673D01*
X54165430Y-164744684D01*
X54144843Y-164979998D01*
X54144843Y-164980001D01*
X54165430Y-165215315D01*
X54165432Y-165215326D01*
X54226566Y-165443483D01*
X54226570Y-165443492D01*
X54326398Y-165657576D01*
X54385073Y-165741372D01*
X55017037Y-165109408D01*
X55034075Y-165172993D01*
X55099901Y-165287007D01*
X55192993Y-165380099D01*
X55307007Y-165445925D01*
X55370591Y-165462962D01*
X54738626Y-166094926D01*
X54822417Y-166153598D01*
X54822421Y-166153600D01*
X55036507Y-166253429D01*
X55036516Y-166253433D01*
X55264673Y-166314567D01*
X55264684Y-166314569D01*
X55499998Y-166335157D01*
X55500002Y-166335157D01*
X55735315Y-166314569D01*
X55735326Y-166314567D01*
X55963483Y-166253433D01*
X55963492Y-166253429D01*
X56177580Y-166153599D01*
X56261371Y-166094925D01*
X55629408Y-165462962D01*
X55692993Y-165445925D01*
X55807007Y-165380099D01*
X55900099Y-165287007D01*
X55965925Y-165172993D01*
X55982962Y-165109408D01*
X56614925Y-165741371D01*
X56668120Y-165665404D01*
X56722697Y-165621780D01*
X56792196Y-165614588D01*
X56854550Y-165646111D01*
X56871268Y-165665404D01*
X57001505Y-165851401D01*
X57168599Y-166018495D01*
X57265384Y-166086265D01*
X57362165Y-166154032D01*
X57362167Y-166154033D01*
X57362170Y-166154035D01*
X57576337Y-166253903D01*
X57804592Y-166315063D01*
X57992918Y-166331539D01*
X58039999Y-166335659D01*
X58040000Y-166335659D01*
X58040001Y-166335659D01*
X58079234Y-166332226D01*
X58275408Y-166315063D01*
X58503663Y-166253903D01*
X58717830Y-166154035D01*
X58911401Y-166018495D01*
X59078495Y-165851401D01*
X59214035Y-165657830D01*
X59313903Y-165443663D01*
X59375063Y-165215408D01*
X59395659Y-164980000D01*
X59375063Y-164744592D01*
X59348143Y-164644125D01*
X59349806Y-164574276D01*
X59380235Y-164524353D01*
X63398729Y-160505860D01*
X63398733Y-160505858D01*
X63485858Y-160418733D01*
X63554311Y-160316286D01*
X63601463Y-160202452D01*
X63625500Y-160081606D01*
X63625500Y-96133675D01*
X63645185Y-96066636D01*
X63661819Y-96045994D01*
X63788319Y-95919494D01*
X63849642Y-95886009D01*
X63919334Y-95890993D01*
X63975267Y-95932865D01*
X63999684Y-95998329D01*
X64000000Y-96007175D01*
X64000000Y-174876000D01*
X63980315Y-174943039D01*
X63927511Y-174988794D01*
X63876000Y-175000000D01*
X30124000Y-175000000D01*
X30056961Y-174980315D01*
X30011206Y-174927511D01*
X30000000Y-174876000D01*
X30000000Y-169865186D01*
X38599500Y-169865186D01*
X38599500Y-170134813D01*
X38629686Y-170402719D01*
X38629688Y-170402731D01*
X38689684Y-170665594D01*
X38689687Y-170665602D01*
X38778734Y-170920082D01*
X38895714Y-171162994D01*
X38895716Y-171162997D01*
X39039162Y-171391289D01*
X39207266Y-171602085D01*
X39397915Y-171792734D01*
X39608711Y-171960838D01*
X39837003Y-172104284D01*
X40079921Y-172221267D01*
X40271049Y-172288145D01*
X40334397Y-172310312D01*
X40334405Y-172310315D01*
X40334408Y-172310315D01*
X40334409Y-172310316D01*
X40597268Y-172370312D01*
X40865187Y-172400499D01*
X40865188Y-172400500D01*
X40865191Y-172400500D01*
X41134812Y-172400500D01*
X41134812Y-172400499D01*
X41402732Y-172370312D01*
X41665591Y-172310316D01*
X41920079Y-172221267D01*
X42162997Y-172104284D01*
X42391289Y-171960838D01*
X42602085Y-171792734D01*
X42792734Y-171602085D01*
X42960838Y-171391289D01*
X43104284Y-171162997D01*
X43221267Y-170920079D01*
X43310316Y-170665591D01*
X43370312Y-170402732D01*
X43400500Y-170134809D01*
X43400500Y-169865191D01*
X43370312Y-169597268D01*
X43310316Y-169334409D01*
X43221267Y-169079921D01*
X43104284Y-168837003D01*
X42960838Y-168608711D01*
X42792734Y-168397915D01*
X42602085Y-168207266D01*
X42391289Y-168039162D01*
X42162997Y-167895716D01*
X42162994Y-167895714D01*
X41920082Y-167778734D01*
X41665602Y-167689687D01*
X41665594Y-167689684D01*
X41468446Y-167644687D01*
X41402732Y-167629688D01*
X41402728Y-167629687D01*
X41402719Y-167629686D01*
X41134813Y-167599500D01*
X41134809Y-167599500D01*
X40865191Y-167599500D01*
X40865186Y-167599500D01*
X40597280Y-167629686D01*
X40597268Y-167629688D01*
X40334405Y-167689684D01*
X40334397Y-167689687D01*
X40079917Y-167778734D01*
X39837005Y-167895714D01*
X39608712Y-168039161D01*
X39397915Y-168207265D01*
X39207265Y-168397915D01*
X39039161Y-168608712D01*
X38895714Y-168837005D01*
X38778734Y-169079917D01*
X38689687Y-169334397D01*
X38689684Y-169334405D01*
X38629688Y-169597268D01*
X38629686Y-169597280D01*
X38599500Y-169865186D01*
X30000000Y-169865186D01*
X30000000Y-70124000D01*
X30019685Y-70056961D01*
X30072489Y-70011206D01*
X30124000Y-70000000D01*
X85876000Y-70000000D01*
X85943039Y-70019685D01*
G37*
%TD.AperFunction*%
%TA.AperFunction,Conductor*%
G36*
X56614925Y-163201371D02*
G01*
X56668120Y-163125404D01*
X56722697Y-163081780D01*
X56792196Y-163074588D01*
X56854550Y-163106111D01*
X56871268Y-163125404D01*
X57001505Y-163311401D01*
X57001506Y-163311402D01*
X57168597Y-163478493D01*
X57168603Y-163478498D01*
X57354158Y-163608425D01*
X57397783Y-163663002D01*
X57404977Y-163732500D01*
X57373454Y-163794855D01*
X57354158Y-163811575D01*
X57168597Y-163941505D01*
X57001508Y-164108594D01*
X56871269Y-164294595D01*
X56816692Y-164338219D01*
X56747193Y-164345412D01*
X56684839Y-164313890D01*
X56668119Y-164294595D01*
X56614925Y-164218626D01*
X55982962Y-164850590D01*
X55965925Y-164787007D01*
X55900099Y-164672993D01*
X55807007Y-164579901D01*
X55692993Y-164514075D01*
X55629409Y-164497037D01*
X56261372Y-163865073D01*
X56184969Y-163811575D01*
X56141344Y-163756998D01*
X56134152Y-163687499D01*
X56165674Y-163625144D01*
X56184968Y-163608426D01*
X56261371Y-163554925D01*
X55629408Y-162922962D01*
X55692993Y-162905925D01*
X55807007Y-162840099D01*
X55900099Y-162747007D01*
X55965925Y-162632993D01*
X55982962Y-162569408D01*
X56614925Y-163201371D01*
G37*
%TD.AperFunction*%
%TA.AperFunction,Conductor*%
G36*
X33293834Y-84193270D02*
G01*
X33349767Y-84235142D01*
X33374184Y-84300606D01*
X33374500Y-84309452D01*
X33374500Y-134561611D01*
X33398535Y-134682444D01*
X33398540Y-134682461D01*
X33445685Y-134796280D01*
X33445690Y-134796289D01*
X33479914Y-134847507D01*
X33479915Y-134847509D01*
X33514140Y-134898731D01*
X33514141Y-134898732D01*
X33514142Y-134898733D01*
X33601267Y-134985858D01*
X33601268Y-134985858D01*
X33608335Y-134992925D01*
X33608334Y-134992925D01*
X33608338Y-134992928D01*
X36338181Y-137722771D01*
X36371666Y-137784094D01*
X36374500Y-137810452D01*
X36374500Y-139644773D01*
X36354815Y-139711812D01*
X36321623Y-139746348D01*
X36128597Y-139881505D01*
X35961508Y-140048594D01*
X35831269Y-140234595D01*
X35776692Y-140278219D01*
X35707193Y-140285412D01*
X35644839Y-140253890D01*
X35628119Y-140234594D01*
X35498113Y-140048926D01*
X35498108Y-140048920D01*
X35331082Y-139881894D01*
X35137578Y-139746399D01*
X34923492Y-139646570D01*
X34923486Y-139646567D01*
X34710000Y-139589364D01*
X34710000Y-140486988D01*
X34652993Y-140454075D01*
X34525826Y-140420000D01*
X34394174Y-140420000D01*
X34267007Y-140454075D01*
X34210000Y-140486988D01*
X34210000Y-139589364D01*
X34209999Y-139589364D01*
X33996513Y-139646567D01*
X33996507Y-139646570D01*
X33782422Y-139746399D01*
X33782420Y-139746400D01*
X33588926Y-139881886D01*
X33588920Y-139881891D01*
X33421891Y-140048920D01*
X33421886Y-140048926D01*
X33286400Y-140242420D01*
X33286399Y-140242422D01*
X33186570Y-140456507D01*
X33186567Y-140456513D01*
X33129364Y-140669999D01*
X33129364Y-140670000D01*
X34026988Y-140670000D01*
X33994075Y-140727007D01*
X33960000Y-140854174D01*
X33960000Y-140985826D01*
X33994075Y-141112993D01*
X34026988Y-141170000D01*
X33129364Y-141170000D01*
X33186567Y-141383486D01*
X33186570Y-141383492D01*
X33286399Y-141597578D01*
X33421894Y-141791082D01*
X33588917Y-141958105D01*
X33775031Y-142088425D01*
X33818656Y-142143003D01*
X33825848Y-142212501D01*
X33794326Y-142274856D01*
X33775031Y-142291575D01*
X33588922Y-142421890D01*
X33588920Y-142421891D01*
X33421891Y-142588920D01*
X33421886Y-142588926D01*
X33286400Y-142782420D01*
X33286399Y-142782422D01*
X33186570Y-142996507D01*
X33186567Y-142996513D01*
X33129364Y-143209999D01*
X33129364Y-143210000D01*
X34026988Y-143210000D01*
X33994075Y-143267007D01*
X33960000Y-143394174D01*
X33960000Y-143525826D01*
X33994075Y-143652993D01*
X34026988Y-143710000D01*
X33129364Y-143710000D01*
X33186567Y-143923486D01*
X33186570Y-143923492D01*
X33286399Y-144137578D01*
X33421894Y-144331082D01*
X33588917Y-144498105D01*
X33775031Y-144628425D01*
X33818656Y-144683003D01*
X33825848Y-144752501D01*
X33794326Y-144814856D01*
X33775031Y-144831575D01*
X33588922Y-144961890D01*
X33588920Y-144961891D01*
X33421891Y-145128920D01*
X33421886Y-145128926D01*
X33286400Y-145322420D01*
X33286399Y-145322422D01*
X33186570Y-145536507D01*
X33186567Y-145536513D01*
X33129364Y-145749999D01*
X33129364Y-145750000D01*
X34026988Y-145750000D01*
X33994075Y-145807007D01*
X33960000Y-145934174D01*
X33960000Y-146065826D01*
X33994075Y-146192993D01*
X34026988Y-146250000D01*
X33129364Y-146250000D01*
X33186567Y-146463486D01*
X33186570Y-146463492D01*
X33286399Y-146677578D01*
X33421894Y-146871082D01*
X33588917Y-147038105D01*
X33782421Y-147173600D01*
X33996507Y-147273429D01*
X33996516Y-147273433D01*
X34210000Y-147330634D01*
X34210000Y-146433012D01*
X34267007Y-146465925D01*
X34394174Y-146500000D01*
X34525826Y-146500000D01*
X34652993Y-146465925D01*
X34710000Y-146433012D01*
X34710000Y-147330633D01*
X34923483Y-147273433D01*
X34923492Y-147273429D01*
X35137578Y-147173600D01*
X35331078Y-147038108D01*
X35453133Y-146916053D01*
X35514456Y-146882568D01*
X35584148Y-146887552D01*
X35640082Y-146929423D01*
X35656997Y-146960401D01*
X35706202Y-147092328D01*
X35706206Y-147092335D01*
X35792452Y-147207544D01*
X35792455Y-147207547D01*
X35907664Y-147293793D01*
X35907671Y-147293797D01*
X35952618Y-147310561D01*
X36042517Y-147344091D01*
X36102127Y-147350500D01*
X36250500Y-147350499D01*
X36317539Y-147370183D01*
X36363294Y-147422987D01*
X36374500Y-147474499D01*
X36374500Y-147750500D01*
X36354815Y-147817539D01*
X36302011Y-147863294D01*
X36250500Y-147874500D01*
X33310453Y-147874500D01*
X33243414Y-147854815D01*
X33222772Y-147838181D01*
X32661819Y-147277228D01*
X32628334Y-147215905D01*
X32625500Y-147189547D01*
X32625500Y-84810452D01*
X32645185Y-84743413D01*
X32661819Y-84722771D01*
X33162819Y-84221771D01*
X33224142Y-84188286D01*
X33293834Y-84193270D01*
G37*
%TD.AperFunction*%
%TA.AperFunction,Conductor*%
G36*
X34710000Y-145566988D02*
G01*
X34652993Y-145534075D01*
X34525826Y-145500000D01*
X34394174Y-145500000D01*
X34267007Y-145534075D01*
X34210000Y-145566988D01*
X34210000Y-143893012D01*
X34267007Y-143925925D01*
X34394174Y-143960000D01*
X34525826Y-143960000D01*
X34652993Y-143925925D01*
X34710000Y-143893012D01*
X34710000Y-145566988D01*
G37*
%TD.AperFunction*%
%TA.AperFunction,Conductor*%
G36*
X54155054Y-141590185D02*
G01*
X54200809Y-141642989D01*
X54210753Y-141712147D01*
X54207790Y-141726593D01*
X54165432Y-141884674D01*
X54165430Y-141884684D01*
X54144843Y-142119998D01*
X54144843Y-142120000D01*
X54165430Y-142355315D01*
X54165432Y-142355326D01*
X54226566Y-142583483D01*
X54226570Y-142583492D01*
X54326398Y-142797576D01*
X54385073Y-142881372D01*
X55017037Y-142249408D01*
X55034075Y-142312993D01*
X55099901Y-142427007D01*
X55192993Y-142520099D01*
X55307007Y-142585925D01*
X55370591Y-142602962D01*
X54738626Y-143234926D01*
X54815031Y-143288426D01*
X54858656Y-143343003D01*
X54865848Y-143412501D01*
X54834326Y-143474856D01*
X54815030Y-143491575D01*
X54738627Y-143545072D01*
X54738626Y-143545073D01*
X55370591Y-144177037D01*
X55307007Y-144194075D01*
X55192993Y-144259901D01*
X55099901Y-144352993D01*
X55034075Y-144467007D01*
X55017037Y-144530590D01*
X54385073Y-143898626D01*
X54385073Y-143898627D01*
X54326400Y-143982421D01*
X54326399Y-143982423D01*
X54226570Y-144196507D01*
X54226566Y-144196516D01*
X54165432Y-144424673D01*
X54165430Y-144424684D01*
X54144843Y-144659998D01*
X54144843Y-144660000D01*
X54165430Y-144895315D01*
X54165432Y-144895326D01*
X54226566Y-145123483D01*
X54226571Y-145123497D01*
X54273015Y-145223096D01*
X54283507Y-145292173D01*
X54254987Y-145355957D01*
X54196510Y-145394196D01*
X54160633Y-145399500D01*
X53835453Y-145399500D01*
X53768414Y-145379815D01*
X53747772Y-145363181D01*
X50166772Y-141782181D01*
X50133287Y-141720858D01*
X50138271Y-141651166D01*
X50180143Y-141595233D01*
X50245607Y-141570816D01*
X50254453Y-141570500D01*
X54088015Y-141570500D01*
X54155054Y-141590185D01*
G37*
%TD.AperFunction*%
%TA.AperFunction,Conductor*%
G36*
X56614925Y-142881371D02*
G01*
X56668120Y-142805404D01*
X56722697Y-142761780D01*
X56792196Y-142754588D01*
X56854550Y-142786111D01*
X56871268Y-142805404D01*
X57001505Y-142991401D01*
X57168599Y-143158495D01*
X57277754Y-143234926D01*
X57354595Y-143288731D01*
X57398219Y-143343308D01*
X57405412Y-143412807D01*
X57373890Y-143475161D01*
X57354594Y-143491881D01*
X57278627Y-143545073D01*
X57278626Y-143545073D01*
X57910590Y-144177037D01*
X57847007Y-144194075D01*
X57732993Y-144259901D01*
X57639901Y-144352993D01*
X57574075Y-144467007D01*
X57557037Y-144530590D01*
X56925073Y-143898626D01*
X56925073Y-143898627D01*
X56871575Y-143975031D01*
X56816999Y-144018656D01*
X56747500Y-144025850D01*
X56685145Y-143994327D01*
X56668425Y-143975032D01*
X56614925Y-143898626D01*
X55982962Y-144530589D01*
X55965925Y-144467007D01*
X55900099Y-144352993D01*
X55807007Y-144259901D01*
X55692993Y-144194075D01*
X55629409Y-144177037D01*
X56261372Y-143545073D01*
X56184969Y-143491575D01*
X56141344Y-143436998D01*
X56134152Y-143367499D01*
X56165674Y-143305144D01*
X56184968Y-143288426D01*
X56261371Y-143234925D01*
X55629408Y-142602962D01*
X55692993Y-142585925D01*
X55807007Y-142520099D01*
X55900099Y-142427007D01*
X55965925Y-142312993D01*
X55982962Y-142249408D01*
X56614925Y-142881371D01*
G37*
%TD.AperFunction*%
%TA.AperFunction,Conductor*%
G36*
X34710000Y-143026988D02*
G01*
X34652993Y-142994075D01*
X34525826Y-142960000D01*
X34394174Y-142960000D01*
X34267007Y-142994075D01*
X34210000Y-143026988D01*
X34210000Y-141353012D01*
X34267007Y-141385925D01*
X34394174Y-141420000D01*
X34525826Y-141420000D01*
X34652993Y-141385925D01*
X34710000Y-141353012D01*
X34710000Y-143026988D01*
G37*
%TD.AperFunction*%
%TA.AperFunction,Conductor*%
G36*
X54124966Y-126362137D02*
G01*
X54180899Y-126404009D01*
X54205316Y-126469473D01*
X54201407Y-126510412D01*
X54165432Y-126644673D01*
X54165430Y-126644684D01*
X54144843Y-126879998D01*
X54144843Y-126880000D01*
X54165430Y-127115315D01*
X54165432Y-127115326D01*
X54226566Y-127343483D01*
X54226570Y-127343492D01*
X54326398Y-127557576D01*
X54385073Y-127641372D01*
X55017037Y-127009408D01*
X55034075Y-127072993D01*
X55099901Y-127187007D01*
X55192993Y-127280099D01*
X55307007Y-127345925D01*
X55370591Y-127362962D01*
X54738626Y-127994926D01*
X54815031Y-128048426D01*
X54858656Y-128103003D01*
X54865848Y-128172501D01*
X54834326Y-128234856D01*
X54815030Y-128251575D01*
X54738627Y-128305072D01*
X54738626Y-128305073D01*
X55370591Y-128937037D01*
X55307007Y-128954075D01*
X55192993Y-129019901D01*
X55099901Y-129112993D01*
X55034075Y-129227007D01*
X55017037Y-129290590D01*
X54385073Y-128658626D01*
X54385073Y-128658627D01*
X54326400Y-128742421D01*
X54326399Y-128742423D01*
X54226570Y-128956507D01*
X54226566Y-128956516D01*
X54165432Y-129184673D01*
X54165430Y-129184684D01*
X54144843Y-129419998D01*
X54144843Y-129420001D01*
X54165430Y-129655315D01*
X54165432Y-129655326D01*
X54226566Y-129883483D01*
X54226570Y-129883492D01*
X54326398Y-130097576D01*
X54385073Y-130181372D01*
X55017037Y-129549408D01*
X55034075Y-129612993D01*
X55099901Y-129727007D01*
X55192993Y-129820099D01*
X55307007Y-129885925D01*
X55370591Y-129902962D01*
X54738626Y-130534926D01*
X54815031Y-130588426D01*
X54858656Y-130643003D01*
X54865848Y-130712501D01*
X54834326Y-130774856D01*
X54815030Y-130791575D01*
X54738627Y-130845072D01*
X54738626Y-130845073D01*
X55370591Y-131477037D01*
X55307007Y-131494075D01*
X55192993Y-131559901D01*
X55099901Y-131652993D01*
X55034075Y-131767007D01*
X55017037Y-131830590D01*
X54385073Y-131198626D01*
X54385073Y-131198627D01*
X54326400Y-131282421D01*
X54326399Y-131282423D01*
X54226570Y-131496507D01*
X54226566Y-131496516D01*
X54165432Y-131724673D01*
X54165430Y-131724684D01*
X54144843Y-131959998D01*
X54144843Y-131960001D01*
X54165430Y-132195315D01*
X54165432Y-132195326D01*
X54226566Y-132423483D01*
X54226570Y-132423492D01*
X54326398Y-132637576D01*
X54385073Y-132721372D01*
X55017037Y-132089408D01*
X55034075Y-132152993D01*
X55099901Y-132267007D01*
X55192993Y-132360099D01*
X55307007Y-132425925D01*
X55370591Y-132442962D01*
X54738627Y-133074925D01*
X54814595Y-133128119D01*
X54858219Y-133182696D01*
X54865412Y-133252195D01*
X54833890Y-133314549D01*
X54814595Y-133331269D01*
X54628594Y-133461508D01*
X54461505Y-133628597D01*
X54325965Y-133822169D01*
X54325964Y-133822171D01*
X54226098Y-134036335D01*
X54226094Y-134036344D01*
X54164938Y-134264586D01*
X54164936Y-134264596D01*
X54144341Y-134499999D01*
X54144341Y-134500000D01*
X54164936Y-134735403D01*
X54164938Y-134735413D01*
X54226094Y-134963655D01*
X54226096Y-134963659D01*
X54226097Y-134963663D01*
X54239744Y-134992928D01*
X54325965Y-135177830D01*
X54325967Y-135177834D01*
X54425752Y-135320340D01*
X54461505Y-135371401D01*
X54628599Y-135538495D01*
X54801288Y-135659413D01*
X54814595Y-135668731D01*
X54858219Y-135723308D01*
X54865412Y-135792807D01*
X54833890Y-135855161D01*
X54814594Y-135871881D01*
X54738627Y-135925073D01*
X54738626Y-135925073D01*
X55370591Y-136557037D01*
X55307007Y-136574075D01*
X55192993Y-136639901D01*
X55099901Y-136732993D01*
X55034075Y-136847007D01*
X55017037Y-136910590D01*
X54385073Y-136278626D01*
X54385073Y-136278627D01*
X54326400Y-136362421D01*
X54326399Y-136362423D01*
X54226570Y-136576507D01*
X54226566Y-136576516D01*
X54165432Y-136804673D01*
X54165430Y-136804684D01*
X54144843Y-137039998D01*
X54144843Y-137040001D01*
X54165430Y-137275315D01*
X54165432Y-137275326D01*
X54226566Y-137503483D01*
X54226570Y-137503492D01*
X54326398Y-137717576D01*
X54385073Y-137801372D01*
X55017037Y-137169408D01*
X55034075Y-137232993D01*
X55099901Y-137347007D01*
X55192993Y-137440099D01*
X55307007Y-137505925D01*
X55370591Y-137522962D01*
X54738626Y-138154926D01*
X54815031Y-138208426D01*
X54858656Y-138263003D01*
X54865848Y-138332501D01*
X54834326Y-138394856D01*
X54815030Y-138411575D01*
X54738627Y-138465072D01*
X54738626Y-138465073D01*
X55370591Y-139097037D01*
X55307007Y-139114075D01*
X55192993Y-139179901D01*
X55099901Y-139272993D01*
X55034075Y-139387007D01*
X55017037Y-139450590D01*
X54385073Y-138818626D01*
X54385073Y-138818627D01*
X54326400Y-138902421D01*
X54326399Y-138902423D01*
X54226570Y-139116507D01*
X54226566Y-139116516D01*
X54165432Y-139344673D01*
X54165430Y-139344684D01*
X54144843Y-139579998D01*
X54144843Y-139580000D01*
X54165430Y-139815315D01*
X54165432Y-139815326D01*
X54226566Y-140043483D01*
X54226571Y-140043497D01*
X54273015Y-140143096D01*
X54283507Y-140212173D01*
X54254987Y-140275957D01*
X54196510Y-140314196D01*
X54160633Y-140319500D01*
X49755453Y-140319500D01*
X49688414Y-140299815D01*
X49667772Y-140283181D01*
X44024318Y-134639727D01*
X43990833Y-134578404D01*
X43987999Y-134552046D01*
X43987999Y-134213330D01*
X43987998Y-134213313D01*
X43977674Y-134112247D01*
X43952522Y-134036344D01*
X43923408Y-133948484D01*
X43832840Y-133801650D01*
X43710850Y-133679660D01*
X43564016Y-133589092D01*
X43400253Y-133534826D01*
X43400251Y-133534825D01*
X43299178Y-133524500D01*
X42700830Y-133524500D01*
X42700812Y-133524501D01*
X42599747Y-133534825D01*
X42435984Y-133589092D01*
X42435977Y-133589095D01*
X42364596Y-133633124D01*
X42297204Y-133651564D01*
X42230540Y-133630641D01*
X42185771Y-133576999D01*
X42175500Y-133527585D01*
X42175500Y-132962414D01*
X42195185Y-132895375D01*
X42247989Y-132849620D01*
X42317147Y-132839676D01*
X42364597Y-132856876D01*
X42435975Y-132900903D01*
X42435978Y-132900904D01*
X42435984Y-132900908D01*
X42599747Y-132955174D01*
X42700823Y-132965500D01*
X43299176Y-132965499D01*
X43299184Y-132965498D01*
X43299187Y-132965498D01*
X43354530Y-132959844D01*
X43400253Y-132955174D01*
X43564016Y-132900908D01*
X43710850Y-132810340D01*
X43832840Y-132688350D01*
X43841442Y-132674404D01*
X43893390Y-132627679D01*
X43946981Y-132615500D01*
X47571607Y-132615500D01*
X47632029Y-132603481D01*
X47692452Y-132591463D01*
X47692455Y-132591461D01*
X47692458Y-132591461D01*
X47725787Y-132577654D01*
X47725786Y-132577654D01*
X47725792Y-132577652D01*
X47806286Y-132544312D01*
X47857509Y-132510084D01*
X47908733Y-132475858D01*
X47995858Y-132388733D01*
X47995859Y-132388731D01*
X48002925Y-132381665D01*
X48002927Y-132381661D01*
X53993953Y-126390636D01*
X54055274Y-126357153D01*
X54124966Y-126362137D01*
G37*
%TD.AperFunction*%
%TA.AperFunction,Conductor*%
G36*
X57574075Y-137232993D02*
G01*
X57639901Y-137347007D01*
X57732993Y-137440099D01*
X57847007Y-137505925D01*
X57910589Y-137522962D01*
X57278626Y-138154926D01*
X57355031Y-138208426D01*
X57398656Y-138263003D01*
X57405848Y-138332501D01*
X57374326Y-138394856D01*
X57355030Y-138411575D01*
X57278627Y-138465072D01*
X57278626Y-138465073D01*
X57910590Y-139097037D01*
X57847007Y-139114075D01*
X57732993Y-139179901D01*
X57639901Y-139272993D01*
X57574075Y-139387007D01*
X57557037Y-139450590D01*
X56925073Y-138818626D01*
X56925073Y-138818627D01*
X56871575Y-138895031D01*
X56816999Y-138938656D01*
X56747500Y-138945850D01*
X56685145Y-138914327D01*
X56668425Y-138895032D01*
X56614925Y-138818626D01*
X55982962Y-139450589D01*
X55965925Y-139387007D01*
X55900099Y-139272993D01*
X55807007Y-139179901D01*
X55692993Y-139114075D01*
X55629409Y-139097037D01*
X56261372Y-138465073D01*
X56184969Y-138411575D01*
X56141344Y-138356998D01*
X56134152Y-138287499D01*
X56165674Y-138225144D01*
X56184968Y-138208426D01*
X56261371Y-138154925D01*
X55629408Y-137522962D01*
X55692993Y-137505925D01*
X55807007Y-137440099D01*
X55900099Y-137347007D01*
X55965925Y-137232993D01*
X55982962Y-137169408D01*
X56614925Y-137801371D01*
X56668426Y-137724968D01*
X56723004Y-137681344D01*
X56792502Y-137674152D01*
X56854856Y-137705675D01*
X56871575Y-137724969D01*
X56925073Y-137801372D01*
X57557037Y-137169408D01*
X57574075Y-137232993D01*
G37*
%TD.AperFunction*%
%TA.AperFunction,Conductor*%
G36*
X56854855Y-135166546D02*
G01*
X56871575Y-135185842D01*
X57001500Y-135371395D01*
X57001505Y-135371401D01*
X57168599Y-135538495D01*
X57341288Y-135659413D01*
X57354595Y-135668731D01*
X57398219Y-135723308D01*
X57405412Y-135792807D01*
X57373890Y-135855161D01*
X57354594Y-135871881D01*
X57278627Y-135925073D01*
X57278626Y-135925073D01*
X57910590Y-136557037D01*
X57847007Y-136574075D01*
X57732993Y-136639901D01*
X57639901Y-136732993D01*
X57574075Y-136847007D01*
X57557037Y-136910590D01*
X56925073Y-136278626D01*
X56925073Y-136278627D01*
X56871575Y-136355031D01*
X56816999Y-136398656D01*
X56747500Y-136405850D01*
X56685145Y-136374327D01*
X56668425Y-136355032D01*
X56614925Y-136278626D01*
X55982962Y-136910590D01*
X55965925Y-136847007D01*
X55900099Y-136732993D01*
X55807007Y-136639901D01*
X55692993Y-136574075D01*
X55629409Y-136557037D01*
X56261372Y-135925073D01*
X56261372Y-135925072D01*
X56185405Y-135871879D01*
X56141780Y-135817302D01*
X56134588Y-135747804D01*
X56166110Y-135685449D01*
X56185406Y-135668730D01*
X56371401Y-135538495D01*
X56538495Y-135371401D01*
X56668425Y-135185842D01*
X56723002Y-135142217D01*
X56792500Y-135135023D01*
X56854855Y-135166546D01*
G37*
%TD.AperFunction*%
%TA.AperFunction,Conductor*%
G36*
X57574075Y-132152993D02*
G01*
X57639901Y-132267007D01*
X57732993Y-132360099D01*
X57847007Y-132425925D01*
X57910589Y-132442962D01*
X57278627Y-133074925D01*
X57354595Y-133128119D01*
X57398219Y-133182696D01*
X57405412Y-133252195D01*
X57373890Y-133314549D01*
X57354595Y-133331269D01*
X57168594Y-133461508D01*
X57001505Y-133628597D01*
X56871575Y-133814158D01*
X56816998Y-133857783D01*
X56747500Y-133864977D01*
X56685145Y-133833454D01*
X56668425Y-133814158D01*
X56538494Y-133628597D01*
X56371402Y-133461506D01*
X56371401Y-133461505D01*
X56185405Y-133331269D01*
X56141781Y-133276692D01*
X56134588Y-133207193D01*
X56166110Y-133144839D01*
X56185404Y-133128120D01*
X56261371Y-133074925D01*
X55629408Y-132442962D01*
X55692993Y-132425925D01*
X55807007Y-132360099D01*
X55900099Y-132267007D01*
X55965925Y-132152993D01*
X55982962Y-132089408D01*
X56614925Y-132721371D01*
X56668426Y-132644968D01*
X56723004Y-132601344D01*
X56792502Y-132594152D01*
X56854856Y-132625675D01*
X56871575Y-132644969D01*
X56925073Y-132721372D01*
X57557037Y-132089408D01*
X57574075Y-132152993D01*
G37*
%TD.AperFunction*%
%TA.AperFunction,Conductor*%
G36*
X57574075Y-129612993D02*
G01*
X57639901Y-129727007D01*
X57732993Y-129820099D01*
X57847007Y-129885925D01*
X57910589Y-129902962D01*
X57278626Y-130534926D01*
X57355031Y-130588426D01*
X57398656Y-130643003D01*
X57405848Y-130712501D01*
X57374326Y-130774856D01*
X57355030Y-130791575D01*
X57278627Y-130845072D01*
X57278626Y-130845073D01*
X57910590Y-131477037D01*
X57847007Y-131494075D01*
X57732993Y-131559901D01*
X57639901Y-131652993D01*
X57574075Y-131767007D01*
X57557037Y-131830590D01*
X56925073Y-131198626D01*
X56925073Y-131198627D01*
X56871575Y-131275031D01*
X56816999Y-131318656D01*
X56747500Y-131325850D01*
X56685145Y-131294327D01*
X56668425Y-131275032D01*
X56614925Y-131198626D01*
X55982962Y-131830590D01*
X55965925Y-131767007D01*
X55900099Y-131652993D01*
X55807007Y-131559901D01*
X55692993Y-131494075D01*
X55629409Y-131477037D01*
X56261372Y-130845073D01*
X56184969Y-130791575D01*
X56141344Y-130736998D01*
X56134152Y-130667499D01*
X56165674Y-130605144D01*
X56184968Y-130588426D01*
X56261371Y-130534925D01*
X55629408Y-129902962D01*
X55692993Y-129885925D01*
X55807007Y-129820099D01*
X55900099Y-129727007D01*
X55965925Y-129612993D01*
X55982962Y-129549408D01*
X56614925Y-130181371D01*
X56668426Y-130104968D01*
X56723004Y-130061344D01*
X56792502Y-130054152D01*
X56854856Y-130085675D01*
X56871575Y-130104969D01*
X56925073Y-130181372D01*
X57557037Y-129549408D01*
X57574075Y-129612993D01*
G37*
%TD.AperFunction*%
%TA.AperFunction,Conductor*%
G36*
X57574075Y-127072993D02*
G01*
X57639901Y-127187007D01*
X57732993Y-127280099D01*
X57847007Y-127345925D01*
X57910589Y-127362962D01*
X57278626Y-127994926D01*
X57355031Y-128048426D01*
X57398656Y-128103003D01*
X57405848Y-128172501D01*
X57374326Y-128234856D01*
X57355030Y-128251575D01*
X57278627Y-128305072D01*
X57278626Y-128305073D01*
X57910590Y-128937037D01*
X57847007Y-128954075D01*
X57732993Y-129019901D01*
X57639901Y-129112993D01*
X57574075Y-129227007D01*
X57557037Y-129290590D01*
X56925073Y-128658626D01*
X56925073Y-128658627D01*
X56871575Y-128735031D01*
X56816999Y-128778656D01*
X56747500Y-128785850D01*
X56685145Y-128754327D01*
X56668425Y-128735032D01*
X56614925Y-128658626D01*
X55982962Y-129290590D01*
X55965925Y-129227007D01*
X55900099Y-129112993D01*
X55807007Y-129019901D01*
X55692993Y-128954075D01*
X55629409Y-128937037D01*
X56261372Y-128305073D01*
X56184969Y-128251575D01*
X56141344Y-128196998D01*
X56134152Y-128127499D01*
X56165674Y-128065144D01*
X56184968Y-128048426D01*
X56261371Y-127994925D01*
X55629408Y-127362962D01*
X55692993Y-127345925D01*
X55807007Y-127280099D01*
X55900099Y-127187007D01*
X55965925Y-127072993D01*
X55982962Y-127009408D01*
X56614925Y-127641371D01*
X56668426Y-127564968D01*
X56723004Y-127521344D01*
X56792502Y-127514152D01*
X56854856Y-127545675D01*
X56871575Y-127564969D01*
X56925073Y-127641372D01*
X57557037Y-127009408D01*
X57574075Y-127072993D01*
G37*
%TD.AperFunction*%
%TA.AperFunction,Conductor*%
G36*
X53776587Y-100645185D02*
G01*
X53797228Y-100661818D01*
X55713681Y-102578272D01*
X55747166Y-102639594D01*
X55750000Y-102665952D01*
X55750000Y-103586988D01*
X55692993Y-103554075D01*
X55565826Y-103520000D01*
X55434174Y-103520000D01*
X55307007Y-103554075D01*
X55250000Y-103586988D01*
X55250000Y-102670000D01*
X54850028Y-102670000D01*
X54850012Y-102670001D01*
X54747302Y-102680494D01*
X54580880Y-102735641D01*
X54580875Y-102735643D01*
X54431654Y-102827684D01*
X54307684Y-102951654D01*
X54215643Y-103100875D01*
X54215641Y-103100880D01*
X54160494Y-103267302D01*
X54160493Y-103267309D01*
X54150000Y-103370013D01*
X54150000Y-103770000D01*
X55066988Y-103770000D01*
X55034075Y-103827007D01*
X55000000Y-103954174D01*
X55000000Y-104085826D01*
X55034075Y-104212993D01*
X55066988Y-104270000D01*
X54150001Y-104270000D01*
X54150001Y-104669986D01*
X54160494Y-104772697D01*
X54215641Y-104939119D01*
X54215643Y-104939124D01*
X54307684Y-105088345D01*
X54431654Y-105212315D01*
X54580875Y-105304356D01*
X54580880Y-105304358D01*
X54653077Y-105328282D01*
X54710522Y-105368055D01*
X54737345Y-105432571D01*
X54737464Y-105443911D01*
X55370591Y-106077037D01*
X55307007Y-106094075D01*
X55192993Y-106159901D01*
X55099901Y-106252993D01*
X55034075Y-106367007D01*
X55017037Y-106430590D01*
X54385073Y-105798626D01*
X54385073Y-105798627D01*
X54326400Y-105882421D01*
X54326399Y-105882423D01*
X54226570Y-106096507D01*
X54226566Y-106096516D01*
X54165432Y-106324673D01*
X54165430Y-106324684D01*
X54144843Y-106559998D01*
X54144843Y-106560000D01*
X54165430Y-106795315D01*
X54165432Y-106795326D01*
X54226566Y-107023483D01*
X54226571Y-107023497D01*
X54273015Y-107123096D01*
X54283507Y-107192173D01*
X54254987Y-107255957D01*
X54196510Y-107294196D01*
X54160633Y-107299500D01*
X49433389Y-107299500D01*
X49372971Y-107311518D01*
X49312548Y-107323537D01*
X49312546Y-107323537D01*
X49312545Y-107323538D01*
X49312543Y-107323538D01*
X49294221Y-107331128D01*
X49198713Y-107370688D01*
X49198708Y-107370690D01*
X49096272Y-107439138D01*
X49096264Y-107439144D01*
X49009139Y-107526270D01*
X44194554Y-112340854D01*
X44133231Y-112374339D01*
X44063539Y-112369355D01*
X44007606Y-112327483D01*
X43983189Y-112262019D01*
X43983514Y-112240580D01*
X43988000Y-112196677D01*
X43987999Y-111623324D01*
X43985467Y-111598541D01*
X43977674Y-111522247D01*
X43923408Y-111358484D01*
X43832840Y-111211650D01*
X43710850Y-111089660D01*
X43710847Y-111089657D01*
X43684401Y-111073345D01*
X43637678Y-111021397D01*
X43625500Y-110967808D01*
X43625500Y-100749500D01*
X43645185Y-100682461D01*
X43697989Y-100636706D01*
X43749500Y-100625500D01*
X53709548Y-100625500D01*
X53776587Y-100645185D01*
G37*
%TD.AperFunction*%
%TA.AperFunction,Conductor*%
G36*
X56960346Y-104858331D02*
G01*
X56997568Y-104887681D01*
X56997677Y-104887573D01*
X56998590Y-104888486D01*
X56999976Y-104889579D01*
X57001505Y-104891401D01*
X57168597Y-105058493D01*
X57168603Y-105058498D01*
X57354158Y-105188425D01*
X57397783Y-105243002D01*
X57404977Y-105312500D01*
X57373454Y-105374855D01*
X57354158Y-105391575D01*
X57168597Y-105521505D01*
X57001508Y-105688594D01*
X56871269Y-105874595D01*
X56816692Y-105918219D01*
X56747193Y-105925412D01*
X56684839Y-105893890D01*
X56668119Y-105874595D01*
X56614925Y-105798626D01*
X55982962Y-106430589D01*
X55965925Y-106367007D01*
X55900099Y-106252993D01*
X55807007Y-106159901D01*
X55692993Y-106094075D01*
X55629409Y-106077037D01*
X56265604Y-105440841D01*
X56276165Y-105388295D01*
X56324780Y-105338112D01*
X56346922Y-105328282D01*
X56419119Y-105304358D01*
X56419124Y-105304356D01*
X56568345Y-105212315D01*
X56692315Y-105088345D01*
X56784356Y-104939124D01*
X56784357Y-104939120D01*
X56787284Y-104930289D01*
X56827055Y-104872843D01*
X56891570Y-104846018D01*
X56960346Y-104858331D01*
G37*
%TD.AperFunction*%
%TA.AperFunction,Conductor*%
G36*
X60797230Y-79160325D02*
G01*
X60851909Y-79203823D01*
X60874391Y-79269976D01*
X60874500Y-79275183D01*
X60874500Y-80797048D01*
X60854815Y-80864087D01*
X60838181Y-80884729D01*
X59605979Y-82116931D01*
X59544656Y-82150416D01*
X59518298Y-82153250D01*
X59459104Y-82153250D01*
X59426647Y-82160148D01*
X59273947Y-82192605D01*
X59273942Y-82192607D01*
X59101020Y-82269598D01*
X59101015Y-82269601D01*
X58947879Y-82380861D01*
X58821216Y-82521535D01*
X58726571Y-82685465D01*
X58726568Y-82685472D01*
X58668077Y-82865489D01*
X58668076Y-82865492D01*
X58668076Y-82865494D01*
X58660429Y-82938256D01*
X58660407Y-82938462D01*
X58633822Y-83003077D01*
X58576524Y-83043061D01*
X58537086Y-83049500D01*
X58233331Y-83049500D01*
X58233312Y-83049501D01*
X58132247Y-83059825D01*
X57968484Y-83114092D01*
X57968481Y-83114093D01*
X57821648Y-83204661D01*
X57699661Y-83326648D01*
X57609093Y-83473481D01*
X57609091Y-83473486D01*
X57587874Y-83537514D01*
X57554826Y-83637247D01*
X57554826Y-83637248D01*
X57554825Y-83637248D01*
X57544500Y-83738315D01*
X57544500Y-84436669D01*
X57544501Y-84436687D01*
X57554825Y-84537752D01*
X57579782Y-84613065D01*
X57607702Y-84697322D01*
X57609092Y-84701515D01*
X57609093Y-84701518D01*
X57643395Y-84757129D01*
X57699659Y-84848349D01*
X57699661Y-84848351D01*
X57713982Y-84862672D01*
X57747467Y-84923995D01*
X57742483Y-84993687D01*
X57713985Y-85038032D01*
X57700052Y-85051965D01*
X57609551Y-85198688D01*
X57609546Y-85198699D01*
X57555319Y-85362347D01*
X57545000Y-85463345D01*
X57545000Y-85562500D01*
X58396000Y-85562500D01*
X58463039Y-85582185D01*
X58508794Y-85634989D01*
X58520000Y-85686500D01*
X58520000Y-85812500D01*
X58646000Y-85812500D01*
X58713039Y-85832185D01*
X58758794Y-85884989D01*
X58770000Y-85936500D01*
X58770000Y-86849999D01*
X58778106Y-86858105D01*
X58817539Y-86869684D01*
X58863294Y-86922488D01*
X58874500Y-86973999D01*
X58874500Y-102724380D01*
X58854815Y-102791419D01*
X58802011Y-102837174D01*
X58732853Y-102847118D01*
X58698095Y-102836762D01*
X58600856Y-102791419D01*
X58503663Y-102746097D01*
X58503659Y-102746096D01*
X58503655Y-102746094D01*
X58275413Y-102684938D01*
X58275403Y-102684936D01*
X58040001Y-102664341D01*
X58039999Y-102664341D01*
X57804590Y-102684937D01*
X57804589Y-102684937D01*
X57704124Y-102711855D01*
X57634274Y-102710191D01*
X57584352Y-102679761D01*
X54512928Y-99608338D01*
X54512925Y-99608334D01*
X54512925Y-99608335D01*
X54505858Y-99601268D01*
X54505858Y-99601267D01*
X54418733Y-99514142D01*
X54418732Y-99514141D01*
X54418731Y-99514140D01*
X54367509Y-99479915D01*
X54316287Y-99445689D01*
X54316286Y-99445688D01*
X54316283Y-99445686D01*
X54316280Y-99445685D01*
X54235792Y-99412347D01*
X54202453Y-99398537D01*
X54192427Y-99396543D01*
X54142029Y-99386518D01*
X54081610Y-99374500D01*
X54081607Y-99374500D01*
X54081606Y-99374500D01*
X43061606Y-99374500D01*
X41810453Y-99374500D01*
X41743414Y-99354815D01*
X41722772Y-99338181D01*
X39841366Y-97456775D01*
X39807881Y-97395452D01*
X39812865Y-97325760D01*
X39854737Y-97269827D01*
X39890044Y-97251388D01*
X40051298Y-97197954D01*
X40051311Y-97197948D01*
X40198034Y-97107447D01*
X40198038Y-97107444D01*
X40319944Y-96985538D01*
X40319947Y-96985534D01*
X40410448Y-96838811D01*
X40410453Y-96838800D01*
X40464680Y-96675152D01*
X40474999Y-96574154D01*
X41025001Y-96574154D01*
X41035319Y-96675152D01*
X41089546Y-96838800D01*
X41089551Y-96838811D01*
X41180052Y-96985534D01*
X41180055Y-96985538D01*
X41301961Y-97107444D01*
X41301965Y-97107447D01*
X41448688Y-97197948D01*
X41448699Y-97197953D01*
X41612347Y-97252180D01*
X41713352Y-97262499D01*
X41750000Y-97262499D01*
X42250000Y-97262499D01*
X42286640Y-97262499D01*
X42286654Y-97262498D01*
X42387652Y-97252180D01*
X42551300Y-97197953D01*
X42551311Y-97197948D01*
X42698034Y-97107447D01*
X42698038Y-97107444D01*
X42819944Y-96985538D01*
X42819947Y-96985534D01*
X42910448Y-96838811D01*
X42910453Y-96838800D01*
X42964680Y-96675152D01*
X42974999Y-96574154D01*
X43525001Y-96574154D01*
X43535319Y-96675152D01*
X43589546Y-96838800D01*
X43589551Y-96838811D01*
X43680052Y-96985534D01*
X43680055Y-96985538D01*
X43801961Y-97107444D01*
X43801965Y-97107447D01*
X43948688Y-97197948D01*
X43948699Y-97197953D01*
X44112347Y-97252180D01*
X44213352Y-97262499D01*
X44250000Y-97262499D01*
X44750000Y-97262499D01*
X44786640Y-97262499D01*
X44786654Y-97262498D01*
X44887652Y-97252180D01*
X45051300Y-97197953D01*
X45051311Y-97197948D01*
X45198034Y-97107447D01*
X45198038Y-97107444D01*
X45319944Y-96985538D01*
X45319947Y-96985534D01*
X45410448Y-96838811D01*
X45410453Y-96838800D01*
X45464680Y-96675152D01*
X45474999Y-96574154D01*
X45475000Y-96574141D01*
X45475000Y-96475000D01*
X44750000Y-96475000D01*
X44750000Y-97262499D01*
X44250000Y-97262499D01*
X44250000Y-96475000D01*
X43525001Y-96475000D01*
X43525001Y-96574154D01*
X42974999Y-96574154D01*
X42975000Y-96574141D01*
X42975000Y-96475000D01*
X42250000Y-96475000D01*
X42250000Y-97262499D01*
X41750000Y-97262499D01*
X41750000Y-96475000D01*
X41025001Y-96475000D01*
X41025001Y-96574154D01*
X40474999Y-96574154D01*
X40475000Y-96574141D01*
X40475000Y-96475000D01*
X39624000Y-96475000D01*
X39556961Y-96455315D01*
X39511206Y-96402511D01*
X39500000Y-96351000D01*
X39500000Y-96099000D01*
X39519685Y-96031961D01*
X39572489Y-95986206D01*
X39624000Y-95975000D01*
X40474999Y-95975000D01*
X40474999Y-95875860D01*
X40474998Y-95875845D01*
X40464680Y-95774847D01*
X40410453Y-95611199D01*
X40410448Y-95611188D01*
X40319947Y-95464465D01*
X40319944Y-95464461D01*
X40306017Y-95450534D01*
X40272532Y-95389211D01*
X40277516Y-95319519D01*
X40306017Y-95275172D01*
X40320340Y-95260850D01*
X40410908Y-95114016D01*
X40465174Y-94950253D01*
X40475500Y-94849177D01*
X40475499Y-94460450D01*
X40495183Y-94393412D01*
X40511813Y-94372775D01*
X40812821Y-94071767D01*
X40874142Y-94038284D01*
X40943834Y-94043268D01*
X40999767Y-94085140D01*
X41024184Y-94150604D01*
X41024500Y-94159450D01*
X41024500Y-94849169D01*
X41024501Y-94849187D01*
X41034825Y-94950252D01*
X41071109Y-95059749D01*
X41089092Y-95114016D01*
X41179659Y-95260849D01*
X41179661Y-95260851D01*
X41193982Y-95275172D01*
X41227467Y-95336495D01*
X41222483Y-95406187D01*
X41193985Y-95450532D01*
X41180052Y-95464465D01*
X41089551Y-95611188D01*
X41089546Y-95611199D01*
X41035319Y-95774847D01*
X41025000Y-95875845D01*
X41025000Y-95975000D01*
X42974999Y-95975000D01*
X42974999Y-95875860D01*
X42974998Y-95875845D01*
X42964680Y-95774847D01*
X42910453Y-95611199D01*
X42910448Y-95611188D01*
X42819947Y-95464465D01*
X42819944Y-95464461D01*
X42806017Y-95450534D01*
X42772532Y-95389211D01*
X42777516Y-95319519D01*
X42806017Y-95275172D01*
X42820340Y-95260850D01*
X42910908Y-95114016D01*
X42965174Y-94950253D01*
X42975500Y-94849177D01*
X42975499Y-94150824D01*
X42965174Y-94049747D01*
X42965173Y-94049746D01*
X42964486Y-94043012D01*
X42965892Y-94042868D01*
X42970544Y-93980775D01*
X43012604Y-93924983D01*
X43078150Y-93900787D01*
X43086579Y-93900500D01*
X43094644Y-93900500D01*
X43094646Y-93900500D01*
X43279803Y-93861144D01*
X43395842Y-93809479D01*
X43465088Y-93800194D01*
X43528365Y-93829822D01*
X43565579Y-93888957D01*
X43564915Y-93958823D01*
X43563981Y-93961762D01*
X43534826Y-94049744D01*
X43534825Y-94049748D01*
X43524500Y-94150815D01*
X43524500Y-94849169D01*
X43524501Y-94849187D01*
X43534825Y-94950252D01*
X43571109Y-95059749D01*
X43589092Y-95114016D01*
X43679659Y-95260849D01*
X43679661Y-95260851D01*
X43693982Y-95275172D01*
X43727467Y-95336495D01*
X43722483Y-95406187D01*
X43693985Y-95450532D01*
X43680052Y-95464465D01*
X43589551Y-95611188D01*
X43589546Y-95611199D01*
X43535319Y-95774847D01*
X43525000Y-95875845D01*
X43525000Y-95975000D01*
X45474999Y-95975000D01*
X45474999Y-95875860D01*
X45474998Y-95875845D01*
X45464680Y-95774847D01*
X45410453Y-95611199D01*
X45410448Y-95611188D01*
X45319947Y-95464465D01*
X45319944Y-95464461D01*
X45306017Y-95450534D01*
X45272532Y-95389211D01*
X45277516Y-95319519D01*
X45306017Y-95275172D01*
X45320340Y-95260850D01*
X45410908Y-95114016D01*
X45465174Y-94950253D01*
X45465174Y-94950245D01*
X45465903Y-94946845D01*
X45466933Y-94944941D01*
X45467304Y-94943825D01*
X45467503Y-94943890D01*
X45499180Y-94885409D01*
X46947771Y-93436819D01*
X47009094Y-93403334D01*
X47035452Y-93400500D01*
X47094644Y-93400500D01*
X47094646Y-93400500D01*
X47279803Y-93361144D01*
X47452730Y-93284151D01*
X47605871Y-93172888D01*
X47732533Y-93032216D01*
X47827179Y-92868284D01*
X47885674Y-92688256D01*
X47905460Y-92500000D01*
X47885674Y-92311744D01*
X47827179Y-92131716D01*
X47732533Y-91967784D01*
X47605871Y-91827112D01*
X47605870Y-91827111D01*
X47452734Y-91715851D01*
X47452729Y-91715848D01*
X47279807Y-91638857D01*
X47279802Y-91638855D01*
X47134001Y-91607865D01*
X47094646Y-91599500D01*
X47094645Y-91599500D01*
X47035452Y-91599500D01*
X46968413Y-91579815D01*
X46947771Y-91563181D01*
X45661819Y-90277229D01*
X45628334Y-90215906D01*
X45625500Y-90189548D01*
X45625500Y-86808276D01*
X45645185Y-86741237D01*
X45697989Y-86695482D01*
X45767147Y-86685538D01*
X45814598Y-86702738D01*
X45948692Y-86785450D01*
X45948699Y-86785453D01*
X46112347Y-86839680D01*
X46213352Y-86849999D01*
X46250000Y-86849999D01*
X46250000Y-86062500D01*
X46750000Y-86062500D01*
X46750000Y-86849999D01*
X46786640Y-86849999D01*
X46786654Y-86849998D01*
X46887652Y-86839680D01*
X47051300Y-86785453D01*
X47051311Y-86785448D01*
X47198034Y-86694947D01*
X47198038Y-86694944D01*
X47319944Y-86573038D01*
X47319947Y-86573034D01*
X47410448Y-86426311D01*
X47410451Y-86426303D01*
X47412293Y-86420747D01*
X47452065Y-86363302D01*
X47516580Y-86336477D01*
X47585356Y-86348791D01*
X47636557Y-86396333D01*
X47647707Y-86420747D01*
X47649548Y-86426303D01*
X47649551Y-86426311D01*
X47740052Y-86573034D01*
X47740055Y-86573038D01*
X47861961Y-86694944D01*
X47861965Y-86694947D01*
X48008688Y-86785448D01*
X48008699Y-86785453D01*
X48172347Y-86839680D01*
X48273352Y-86849999D01*
X48310000Y-86849999D01*
X48810000Y-86849999D01*
X48846640Y-86849999D01*
X48846654Y-86849998D01*
X48947652Y-86839680D01*
X49111300Y-86785453D01*
X49111311Y-86785448D01*
X49258034Y-86694947D01*
X49258038Y-86694944D01*
X49379944Y-86573038D01*
X49379947Y-86573034D01*
X49470448Y-86426311D01*
X49470453Y-86426300D01*
X49524680Y-86262652D01*
X49534999Y-86161654D01*
X50095001Y-86161654D01*
X50105319Y-86262652D01*
X50159546Y-86426300D01*
X50159551Y-86426311D01*
X50250052Y-86573034D01*
X50250055Y-86573038D01*
X50371961Y-86694944D01*
X50371965Y-86694947D01*
X50518688Y-86785448D01*
X50518699Y-86785453D01*
X50682347Y-86839680D01*
X50783352Y-86849999D01*
X50820000Y-86849999D01*
X51320000Y-86849999D01*
X51356640Y-86849999D01*
X51356654Y-86849998D01*
X51457652Y-86839680D01*
X51621300Y-86785453D01*
X51621311Y-86785448D01*
X51768034Y-86694947D01*
X51768038Y-86694944D01*
X51889944Y-86573038D01*
X51889947Y-86573034D01*
X51980448Y-86426311D01*
X51980453Y-86426300D01*
X52034680Y-86262652D01*
X52044999Y-86161654D01*
X52605001Y-86161654D01*
X52615319Y-86262652D01*
X52669546Y-86426300D01*
X52669551Y-86426311D01*
X52760052Y-86573034D01*
X52760055Y-86573038D01*
X52881961Y-86694944D01*
X52881965Y-86694947D01*
X53028688Y-86785448D01*
X53028699Y-86785453D01*
X53192347Y-86839680D01*
X53293352Y-86849999D01*
X53330000Y-86849999D01*
X53830000Y-86849999D01*
X53866640Y-86849999D01*
X53866654Y-86849998D01*
X53967652Y-86839680D01*
X54131300Y-86785453D01*
X54131311Y-86785448D01*
X54278034Y-86694947D01*
X54278038Y-86694944D01*
X54399944Y-86573038D01*
X54399947Y-86573034D01*
X54490448Y-86426311D01*
X54490453Y-86426300D01*
X54544680Y-86262652D01*
X54554999Y-86161654D01*
X55035001Y-86161654D01*
X55045319Y-86262652D01*
X55099546Y-86426300D01*
X55099551Y-86426311D01*
X55190052Y-86573034D01*
X55190055Y-86573038D01*
X55311961Y-86694944D01*
X55311965Y-86694947D01*
X55458688Y-86785448D01*
X55458699Y-86785453D01*
X55622347Y-86839680D01*
X55723352Y-86849999D01*
X55760000Y-86849999D01*
X56260000Y-86849999D01*
X56296640Y-86849999D01*
X56296654Y-86849998D01*
X56397652Y-86839680D01*
X56561300Y-86785453D01*
X56561311Y-86785448D01*
X56708034Y-86694947D01*
X56708038Y-86694944D01*
X56829944Y-86573038D01*
X56829947Y-86573034D01*
X56920448Y-86426311D01*
X56920453Y-86426300D01*
X56974680Y-86262652D01*
X56984999Y-86161654D01*
X57545001Y-86161654D01*
X57555319Y-86262652D01*
X57609546Y-86426300D01*
X57609551Y-86426311D01*
X57700052Y-86573034D01*
X57700055Y-86573038D01*
X57821961Y-86694944D01*
X57821965Y-86694947D01*
X57968688Y-86785448D01*
X57968699Y-86785453D01*
X58132347Y-86839680D01*
X58233352Y-86849999D01*
X58270000Y-86849999D01*
X58270000Y-86062500D01*
X57545001Y-86062500D01*
X57545001Y-86161654D01*
X56984999Y-86161654D01*
X56985000Y-86161641D01*
X56985000Y-86062500D01*
X56260000Y-86062500D01*
X56260000Y-86849999D01*
X55760000Y-86849999D01*
X55760000Y-86062500D01*
X55035001Y-86062500D01*
X55035001Y-86161654D01*
X54554999Y-86161654D01*
X54555000Y-86161641D01*
X54555000Y-86062500D01*
X53830000Y-86062500D01*
X53830000Y-86849999D01*
X53330000Y-86849999D01*
X53330000Y-86062500D01*
X52605001Y-86062500D01*
X52605001Y-86161654D01*
X52044999Y-86161654D01*
X52045000Y-86161641D01*
X52045000Y-86062500D01*
X51320000Y-86062500D01*
X51320000Y-86849999D01*
X50820000Y-86849999D01*
X50820000Y-86062500D01*
X50095001Y-86062500D01*
X50095001Y-86161654D01*
X49534999Y-86161654D01*
X49535000Y-86161641D01*
X49535000Y-86062500D01*
X48810000Y-86062500D01*
X48810000Y-86849999D01*
X48310000Y-86849999D01*
X48310000Y-86062500D01*
X47557821Y-86062500D01*
X47556341Y-86063308D01*
X47545065Y-86062500D01*
X47533639Y-86062500D01*
X47533639Y-86061681D01*
X47526362Y-86061159D01*
X47526362Y-86062500D01*
X46750000Y-86062500D01*
X46250000Y-86062500D01*
X46250000Y-85936500D01*
X46269685Y-85869461D01*
X46322489Y-85823706D01*
X46374000Y-85812500D01*
X46500000Y-85812500D01*
X46500000Y-85686500D01*
X46519685Y-85619461D01*
X46572489Y-85573706D01*
X46624000Y-85562500D01*
X47502156Y-85562500D01*
X47503624Y-85561698D01*
X47514859Y-85562500D01*
X47526361Y-85562500D01*
X47526361Y-85563321D01*
X47533638Y-85563840D01*
X47533638Y-85562500D01*
X49534999Y-85562500D01*
X49534999Y-85463360D01*
X49534998Y-85463345D01*
X49524680Y-85362347D01*
X49470453Y-85198699D01*
X49470448Y-85198688D01*
X49379947Y-85051965D01*
X49379944Y-85051961D01*
X49366017Y-85038034D01*
X49332532Y-84976711D01*
X49337516Y-84907019D01*
X49366017Y-84862672D01*
X49380340Y-84848350D01*
X49470908Y-84701516D01*
X49525174Y-84537753D01*
X49535500Y-84436677D01*
X49535499Y-84047950D01*
X49555183Y-83980912D01*
X49571813Y-83960275D01*
X49882819Y-83649269D01*
X49944142Y-83615785D01*
X50013834Y-83620769D01*
X50069767Y-83662641D01*
X50094184Y-83728105D01*
X50094500Y-83736951D01*
X50094500Y-84436669D01*
X50094501Y-84436687D01*
X50104825Y-84537752D01*
X50129782Y-84613065D01*
X50157702Y-84697322D01*
X50159092Y-84701515D01*
X50159093Y-84701518D01*
X50193395Y-84757129D01*
X50249659Y-84848349D01*
X50249661Y-84848351D01*
X50263982Y-84862672D01*
X50297467Y-84923995D01*
X50292483Y-84993687D01*
X50263985Y-85038032D01*
X50250052Y-85051965D01*
X50159551Y-85198688D01*
X50159546Y-85198699D01*
X50105319Y-85362347D01*
X50095000Y-85463345D01*
X50095000Y-85562500D01*
X52044999Y-85562500D01*
X52044999Y-85463360D01*
X52044998Y-85463345D01*
X52034680Y-85362347D01*
X51980453Y-85198699D01*
X51980448Y-85198688D01*
X51889947Y-85051965D01*
X51889944Y-85051961D01*
X51876017Y-85038034D01*
X51842532Y-84976711D01*
X51847516Y-84907019D01*
X51876017Y-84862672D01*
X51890340Y-84848350D01*
X51980908Y-84701516D01*
X52035174Y-84537753D01*
X52045500Y-84436677D01*
X52045499Y-83738324D01*
X52042875Y-83712641D01*
X52035174Y-83637247D01*
X52034466Y-83635111D01*
X51987591Y-83493654D01*
X51985190Y-83423828D01*
X52017614Y-83366975D01*
X52447773Y-82936816D01*
X52509095Y-82903334D01*
X52535453Y-82900500D01*
X52594644Y-82900500D01*
X52594646Y-82900500D01*
X52779803Y-82861144D01*
X52780057Y-82861031D01*
X52780217Y-82861009D01*
X52785987Y-82859135D01*
X52786329Y-82860189D01*
X52849307Y-82851742D01*
X52912585Y-82881366D01*
X52949802Y-82940499D01*
X52954500Y-82974307D01*
X52954500Y-83090518D01*
X52934815Y-83157557D01*
X52895600Y-83196055D01*
X52881650Y-83204660D01*
X52881649Y-83204660D01*
X52759661Y-83326648D01*
X52669093Y-83473481D01*
X52669091Y-83473486D01*
X52647874Y-83537514D01*
X52614826Y-83637247D01*
X52614826Y-83637248D01*
X52614825Y-83637248D01*
X52604500Y-83738315D01*
X52604500Y-84436669D01*
X52604501Y-84436687D01*
X52614825Y-84537752D01*
X52639782Y-84613065D01*
X52667702Y-84697322D01*
X52669092Y-84701515D01*
X52669093Y-84701518D01*
X52703395Y-84757129D01*
X52759659Y-84848349D01*
X52759661Y-84848351D01*
X52773982Y-84862672D01*
X52807467Y-84923995D01*
X52802483Y-84993687D01*
X52773985Y-85038032D01*
X52760052Y-85051965D01*
X52669551Y-85198688D01*
X52669546Y-85198699D01*
X52615319Y-85362347D01*
X52605000Y-85463345D01*
X52605000Y-85562500D01*
X54554999Y-85562500D01*
X54554999Y-85463360D01*
X54554998Y-85463345D01*
X54544680Y-85362347D01*
X54490453Y-85198699D01*
X54490448Y-85198688D01*
X54399947Y-85051965D01*
X54399944Y-85051961D01*
X54386017Y-85038034D01*
X54352532Y-84976711D01*
X54357516Y-84907019D01*
X54386017Y-84862672D01*
X54400340Y-84848350D01*
X54490908Y-84701516D01*
X54545174Y-84537753D01*
X54555500Y-84436677D01*
X54555499Y-83738324D01*
X54552875Y-83712641D01*
X54545174Y-83637247D01*
X54544466Y-83635111D01*
X54490908Y-83473484D01*
X54400340Y-83326650D01*
X54316821Y-83243131D01*
X54283336Y-83181808D01*
X54288320Y-83112116D01*
X54316818Y-83067771D01*
X54447773Y-82936816D01*
X54509095Y-82903334D01*
X54535453Y-82900500D01*
X54594644Y-82900500D01*
X54594646Y-82900500D01*
X54779803Y-82861144D01*
X54952730Y-82784151D01*
X55105871Y-82672888D01*
X55168350Y-82603497D01*
X55227837Y-82566849D01*
X55297694Y-82568180D01*
X55355742Y-82607066D01*
X55383552Y-82671163D01*
X55384500Y-82686470D01*
X55384500Y-83090518D01*
X55364815Y-83157557D01*
X55325600Y-83196055D01*
X55311650Y-83204660D01*
X55311649Y-83204660D01*
X55189661Y-83326648D01*
X55099093Y-83473481D01*
X55099091Y-83473486D01*
X55077874Y-83537514D01*
X55044826Y-83637247D01*
X55044826Y-83637248D01*
X55044825Y-83637248D01*
X55034500Y-83738315D01*
X55034500Y-84436669D01*
X55034501Y-84436687D01*
X55044825Y-84537752D01*
X55069782Y-84613065D01*
X55097702Y-84697322D01*
X55099092Y-84701515D01*
X55099093Y-84701518D01*
X55133395Y-84757129D01*
X55189659Y-84848349D01*
X55189661Y-84848351D01*
X55203982Y-84862672D01*
X55237467Y-84923995D01*
X55232483Y-84993687D01*
X55203985Y-85038032D01*
X55190052Y-85051965D01*
X55099551Y-85198688D01*
X55099546Y-85198699D01*
X55045319Y-85362347D01*
X55035000Y-85463345D01*
X55035000Y-85562500D01*
X56984999Y-85562500D01*
X56984999Y-85463360D01*
X56984998Y-85463345D01*
X56974680Y-85362347D01*
X56920453Y-85198699D01*
X56920448Y-85198688D01*
X56829947Y-85051965D01*
X56829944Y-85051961D01*
X56816017Y-85038034D01*
X56782532Y-84976711D01*
X56787516Y-84907019D01*
X56816017Y-84862672D01*
X56830340Y-84848350D01*
X56920908Y-84701516D01*
X56975174Y-84537753D01*
X56985500Y-84436677D01*
X56985499Y-83738324D01*
X56982875Y-83712641D01*
X56975174Y-83637247D01*
X56974466Y-83635111D01*
X56920908Y-83473484D01*
X56830340Y-83326650D01*
X56708350Y-83204660D01*
X56706808Y-83203709D01*
X56694400Y-83196055D01*
X56647677Y-83144105D01*
X56635500Y-83090518D01*
X56635500Y-82992229D01*
X56655185Y-82925190D01*
X56707989Y-82879435D01*
X56733710Y-82870940D01*
X56779803Y-82861144D01*
X56952730Y-82784151D01*
X57105871Y-82672888D01*
X57232533Y-82532216D01*
X57327179Y-82368284D01*
X57385674Y-82188256D01*
X57403321Y-82020345D01*
X57429905Y-81955732D01*
X57438952Y-81945636D01*
X60191534Y-79193054D01*
X60252855Y-79159571D01*
X60301993Y-79158848D01*
X60391074Y-79175500D01*
X60391076Y-79175500D01*
X60608924Y-79175500D01*
X60608926Y-79175500D01*
X60727717Y-79153294D01*
X60797230Y-79160325D01*
G37*
%TD.AperFunction*%
%TA.AperFunction,Conductor*%
G36*
X61623039Y-85882185D02*
G01*
X61668794Y-85934989D01*
X61680000Y-85986500D01*
X61680000Y-86899999D01*
X61716640Y-86899999D01*
X61716654Y-86899998D01*
X61737898Y-86897828D01*
X61806591Y-86910597D01*
X61857475Y-86958478D01*
X61874500Y-87021186D01*
X61874500Y-87689548D01*
X61854815Y-87756587D01*
X61838181Y-87777229D01*
X60337181Y-89278229D01*
X60275858Y-89311714D01*
X60206166Y-89306730D01*
X60150233Y-89264858D01*
X60125816Y-89199394D01*
X60125500Y-89190548D01*
X60125500Y-86763375D01*
X60145185Y-86696336D01*
X60161809Y-86675704D01*
X60348257Y-86489256D01*
X60409572Y-86455776D01*
X60479264Y-86460760D01*
X60535198Y-86502631D01*
X60541469Y-86511845D01*
X60610052Y-86623034D01*
X60610055Y-86623038D01*
X60731961Y-86744944D01*
X60731965Y-86744947D01*
X60878688Y-86835448D01*
X60878699Y-86835453D01*
X61042347Y-86889680D01*
X61143352Y-86899999D01*
X61180000Y-86899999D01*
X61180000Y-85986500D01*
X61199685Y-85919461D01*
X61252489Y-85873706D01*
X61304000Y-85862500D01*
X61556000Y-85862500D01*
X61623039Y-85882185D01*
G37*
%TD.AperFunction*%
%TA.AperFunction,Conductor*%
G36*
X80394087Y-84782685D02*
G01*
X80414729Y-84799319D01*
X80838181Y-85222771D01*
X80871666Y-85284094D01*
X80874500Y-85310452D01*
X80874500Y-88750500D01*
X80854815Y-88817539D01*
X80802011Y-88863294D01*
X80750500Y-88874500D01*
X77809453Y-88874500D01*
X77742414Y-88854815D01*
X77696659Y-88802011D01*
X77686715Y-88732853D01*
X77715740Y-88669297D01*
X77721772Y-88662819D01*
X77985855Y-88398736D01*
X77985858Y-88398733D01*
X78054312Y-88296285D01*
X78101463Y-88182451D01*
X78125501Y-88061606D01*
X78125501Y-87938393D01*
X78125501Y-87933283D01*
X78125500Y-87933257D01*
X78125500Y-86858276D01*
X78145185Y-86791237D01*
X78197989Y-86745482D01*
X78267147Y-86735538D01*
X78314598Y-86752738D01*
X78448692Y-86835450D01*
X78448699Y-86835453D01*
X78612347Y-86889680D01*
X78713352Y-86899999D01*
X78750000Y-86899999D01*
X79250000Y-86899999D01*
X79286640Y-86899999D01*
X79286654Y-86899998D01*
X79387652Y-86889680D01*
X79551300Y-86835453D01*
X79551311Y-86835448D01*
X79698034Y-86744947D01*
X79698038Y-86744944D01*
X79819944Y-86623038D01*
X79819947Y-86623034D01*
X79910448Y-86476311D01*
X79910453Y-86476300D01*
X79964680Y-86312652D01*
X79974999Y-86211654D01*
X79975000Y-86211641D01*
X79975000Y-86112500D01*
X79250000Y-86112500D01*
X79250000Y-86899999D01*
X78750000Y-86899999D01*
X78750000Y-85986500D01*
X78769685Y-85919461D01*
X78822489Y-85873706D01*
X78874000Y-85862500D01*
X79000000Y-85862500D01*
X79000000Y-85736500D01*
X79019685Y-85669461D01*
X79072489Y-85623706D01*
X79124000Y-85612500D01*
X79974999Y-85612500D01*
X79974999Y-85513360D01*
X79974998Y-85513345D01*
X79964680Y-85412347D01*
X79910453Y-85248699D01*
X79910448Y-85248688D01*
X79819947Y-85101965D01*
X79819944Y-85101961D01*
X79806017Y-85088034D01*
X79772532Y-85026711D01*
X79777516Y-84957019D01*
X79806017Y-84912672D01*
X79820340Y-84898350D01*
X79820342Y-84898347D01*
X79867494Y-84821903D01*
X79919442Y-84775178D01*
X79973032Y-84763000D01*
X80327048Y-84763000D01*
X80394087Y-84782685D01*
G37*
%TD.AperFunction*%
%TA.AperFunction,Conductor*%
G36*
X66643039Y-85882185D02*
G01*
X66688794Y-85934989D01*
X66700000Y-85986500D01*
X66700000Y-86926122D01*
X66680315Y-86993161D01*
X66663681Y-87013803D01*
X65339305Y-88338181D01*
X65277982Y-88371666D01*
X65251624Y-88374500D01*
X64938389Y-88374500D01*
X64877971Y-88386518D01*
X64834571Y-88395150D01*
X64817541Y-88398538D01*
X64815428Y-88399180D01*
X64814265Y-88399190D01*
X64811573Y-88399726D01*
X64811471Y-88399215D01*
X64745561Y-88399805D01*
X64686447Y-88362557D01*
X64656856Y-88299263D01*
X64666181Y-88230018D01*
X64691750Y-88192839D01*
X64894679Y-87989910D01*
X65173729Y-87710860D01*
X65173733Y-87710858D01*
X65260858Y-87623733D01*
X65295084Y-87572509D01*
X65305039Y-87557609D01*
X65320447Y-87538836D01*
X65398729Y-87460555D01*
X65398733Y-87460553D01*
X65485858Y-87373428D01*
X65520084Y-87322204D01*
X65554312Y-87270981D01*
X65587652Y-87190487D01*
X65601463Y-87157147D01*
X65608120Y-87123684D01*
X65616824Y-87079923D01*
X65625500Y-87036302D01*
X65625500Y-86889117D01*
X65645185Y-86822078D01*
X65697989Y-86776323D01*
X65767147Y-86766379D01*
X65814598Y-86783579D01*
X65898692Y-86835450D01*
X65898699Y-86835453D01*
X66062347Y-86889680D01*
X66163352Y-86899999D01*
X66200000Y-86899999D01*
X66200000Y-85986500D01*
X66219685Y-85919461D01*
X66272489Y-85873706D01*
X66324000Y-85862500D01*
X66576000Y-85862500D01*
X66643039Y-85882185D01*
G37*
%TD.AperFunction*%
%TA.AperFunction,Conductor*%
G36*
X72330703Y-80215739D02*
G01*
X72337181Y-80221771D01*
X75539893Y-83424483D01*
X75573378Y-83485806D01*
X75569918Y-83551168D01*
X75524826Y-83687247D01*
X75524825Y-83687248D01*
X75514500Y-83788315D01*
X75514500Y-84486669D01*
X75514501Y-84486687D01*
X75524825Y-84587752D01*
X75579092Y-84751515D01*
X75579093Y-84751518D01*
X75583898Y-84759308D01*
X75669659Y-84898349D01*
X75669661Y-84898351D01*
X75683982Y-84912672D01*
X75717467Y-84973995D01*
X75712483Y-85043687D01*
X75683985Y-85088032D01*
X75670052Y-85101965D01*
X75579551Y-85248688D01*
X75579546Y-85248699D01*
X75525319Y-85412347D01*
X75515000Y-85513345D01*
X75515000Y-85612500D01*
X76366000Y-85612500D01*
X76433039Y-85632185D01*
X76478794Y-85684989D01*
X76490000Y-85736500D01*
X76490000Y-85862500D01*
X76616000Y-85862500D01*
X76683039Y-85882185D01*
X76728794Y-85934989D01*
X76740000Y-85986500D01*
X76740000Y-86899999D01*
X76750500Y-86899999D01*
X76817539Y-86919684D01*
X76863294Y-86972488D01*
X76874500Y-87023999D01*
X76874500Y-87689547D01*
X76854815Y-87756586D01*
X76838181Y-87777228D01*
X76277229Y-88338181D01*
X76215906Y-88371666D01*
X76189548Y-88374500D01*
X70707493Y-88374500D01*
X70640454Y-88354815D01*
X70594699Y-88302011D01*
X70584755Y-88232853D01*
X70592931Y-88203050D01*
X70597160Y-88192839D01*
X70601463Y-88182451D01*
X70625500Y-88061607D01*
X70625500Y-87938393D01*
X70625500Y-86876781D01*
X70645185Y-86809742D01*
X70697989Y-86763987D01*
X70767147Y-86754043D01*
X70814598Y-86771243D01*
X70918692Y-86835450D01*
X70918699Y-86835453D01*
X71082347Y-86889680D01*
X71183352Y-86899999D01*
X71220000Y-86899999D01*
X71720000Y-86899999D01*
X71756640Y-86899999D01*
X71756654Y-86899998D01*
X71857652Y-86889680D01*
X72021300Y-86835453D01*
X72021311Y-86835448D01*
X72168034Y-86744947D01*
X72168038Y-86744944D01*
X72289944Y-86623038D01*
X72289947Y-86623034D01*
X72380448Y-86476311D01*
X72380453Y-86476300D01*
X72434680Y-86312652D01*
X72444999Y-86211654D01*
X73005001Y-86211654D01*
X73015319Y-86312652D01*
X73069546Y-86476300D01*
X73069551Y-86476311D01*
X73160052Y-86623034D01*
X73160055Y-86623038D01*
X73281961Y-86744944D01*
X73281965Y-86744947D01*
X73428688Y-86835448D01*
X73428699Y-86835453D01*
X73592347Y-86889680D01*
X73693352Y-86899999D01*
X73730000Y-86899999D01*
X74230000Y-86899999D01*
X74266640Y-86899999D01*
X74266654Y-86899998D01*
X74367652Y-86889680D01*
X74531300Y-86835453D01*
X74531311Y-86835448D01*
X74678034Y-86744947D01*
X74678038Y-86744944D01*
X74799944Y-86623038D01*
X74799947Y-86623034D01*
X74890448Y-86476311D01*
X74890453Y-86476300D01*
X74944680Y-86312652D01*
X74954999Y-86211654D01*
X75515001Y-86211654D01*
X75525319Y-86312652D01*
X75579546Y-86476300D01*
X75579551Y-86476311D01*
X75670052Y-86623034D01*
X75670055Y-86623038D01*
X75791961Y-86744944D01*
X75791965Y-86744947D01*
X75938688Y-86835448D01*
X75938699Y-86835453D01*
X76102347Y-86889680D01*
X76203352Y-86899999D01*
X76240000Y-86899999D01*
X76240000Y-86112500D01*
X75515001Y-86112500D01*
X75515001Y-86211654D01*
X74954999Y-86211654D01*
X74955000Y-86211641D01*
X74955000Y-86112500D01*
X74230000Y-86112500D01*
X74230000Y-86899999D01*
X73730000Y-86899999D01*
X73730000Y-86112500D01*
X73005001Y-86112500D01*
X73005001Y-86211654D01*
X72444999Y-86211654D01*
X72445000Y-86211641D01*
X72445000Y-86112500D01*
X71720000Y-86112500D01*
X71720000Y-86899999D01*
X71220000Y-86899999D01*
X71220000Y-85986500D01*
X71239685Y-85919461D01*
X71292489Y-85873706D01*
X71344000Y-85862500D01*
X71470000Y-85862500D01*
X71470000Y-85736500D01*
X71489685Y-85669461D01*
X71542489Y-85623706D01*
X71594000Y-85612500D01*
X72444999Y-85612500D01*
X72444999Y-85513360D01*
X72444998Y-85513345D01*
X72434680Y-85412347D01*
X72380453Y-85248699D01*
X72380448Y-85248688D01*
X72289947Y-85101965D01*
X72289944Y-85101961D01*
X72276017Y-85088034D01*
X72242532Y-85026711D01*
X72247516Y-84957019D01*
X72276017Y-84912672D01*
X72290340Y-84898350D01*
X72380908Y-84751516D01*
X72435174Y-84587753D01*
X72445500Y-84486677D01*
X72445499Y-83788324D01*
X72443741Y-83771115D01*
X72456507Y-83702423D01*
X72504386Y-83651537D01*
X72572175Y-83634614D01*
X72592870Y-83637218D01*
X72655354Y-83650500D01*
X72714548Y-83650500D01*
X72781587Y-83670185D01*
X72802229Y-83686819D01*
X72968181Y-83852771D01*
X73001666Y-83914094D01*
X73004500Y-83940452D01*
X73004500Y-84486669D01*
X73004501Y-84486687D01*
X73014825Y-84587752D01*
X73069092Y-84751515D01*
X73069093Y-84751518D01*
X73073898Y-84759308D01*
X73159659Y-84898349D01*
X73159661Y-84898351D01*
X73173982Y-84912672D01*
X73207467Y-84973995D01*
X73202483Y-85043687D01*
X73173985Y-85088032D01*
X73160052Y-85101965D01*
X73069551Y-85248688D01*
X73069546Y-85248699D01*
X73015319Y-85412347D01*
X73005000Y-85513345D01*
X73005000Y-85612500D01*
X74954999Y-85612500D01*
X74954999Y-85513360D01*
X74954998Y-85513345D01*
X74944680Y-85412347D01*
X74890453Y-85248699D01*
X74890448Y-85248688D01*
X74799947Y-85101965D01*
X74799944Y-85101961D01*
X74786017Y-85088034D01*
X74752532Y-85026711D01*
X74757516Y-84957019D01*
X74786017Y-84912672D01*
X74800340Y-84898350D01*
X74890908Y-84751516D01*
X74945174Y-84587753D01*
X74955500Y-84486677D01*
X74955499Y-83788324D01*
X74954455Y-83778107D01*
X74945174Y-83687247D01*
X74938062Y-83665785D01*
X74890908Y-83523484D01*
X74800340Y-83376650D01*
X74678350Y-83254660D01*
X74531516Y-83164092D01*
X74367753Y-83109826D01*
X74367751Y-83109825D01*
X74266684Y-83099500D01*
X74266677Y-83099500D01*
X74035452Y-83099500D01*
X73968413Y-83079815D01*
X73947771Y-83063181D01*
X73688960Y-82804370D01*
X73655475Y-82743047D01*
X73653323Y-82729671D01*
X73635674Y-82561744D01*
X73577179Y-82381716D01*
X73482533Y-82217784D01*
X73355871Y-82077112D01*
X73355870Y-82077111D01*
X73202734Y-81965851D01*
X73202729Y-81965848D01*
X73029807Y-81888857D01*
X73029802Y-81888855D01*
X72884001Y-81857865D01*
X72844646Y-81849500D01*
X72844645Y-81849500D01*
X72785452Y-81849500D01*
X72718413Y-81829815D01*
X72697771Y-81813181D01*
X72161819Y-81277229D01*
X72128334Y-81215906D01*
X72125500Y-81189548D01*
X72125500Y-80309452D01*
X72145185Y-80242413D01*
X72197989Y-80196658D01*
X72267147Y-80186714D01*
X72330703Y-80215739D01*
G37*
%TD.AperFunction*%
%TA.AperFunction,Conductor*%
G36*
X69153039Y-85882185D02*
G01*
X69198794Y-85934989D01*
X69210000Y-85986500D01*
X69210000Y-86899999D01*
X69249802Y-86899999D01*
X69249802Y-86901484D01*
X69312077Y-86916333D01*
X69360491Y-86966710D01*
X69374500Y-87023963D01*
X69374500Y-87689548D01*
X69354815Y-87756587D01*
X69338181Y-87777229D01*
X69277229Y-87838181D01*
X69215906Y-87871666D01*
X69189548Y-87874500D01*
X67871530Y-87874500D01*
X67804491Y-87854815D01*
X67758736Y-87802011D01*
X67748792Y-87732853D01*
X67777817Y-87669297D01*
X67783849Y-87662819D01*
X67985853Y-87460814D01*
X67985857Y-87460810D01*
X67995962Y-87445688D01*
X68054311Y-87358362D01*
X68101463Y-87244528D01*
X68118844Y-87157146D01*
X68125500Y-87123683D01*
X68125500Y-87000470D01*
X68125500Y-86882949D01*
X68145185Y-86815910D01*
X68197989Y-86770155D01*
X68267147Y-86760211D01*
X68314598Y-86777411D01*
X68408692Y-86835450D01*
X68408699Y-86835453D01*
X68572347Y-86889680D01*
X68673352Y-86899999D01*
X68710000Y-86899999D01*
X68710000Y-85986500D01*
X68729685Y-85919461D01*
X68782489Y-85873706D01*
X68834000Y-85862500D01*
X69086000Y-85862500D01*
X69153039Y-85882185D01*
G37*
%TD.AperFunction*%
%TA.AperFunction,Conductor*%
G36*
X64133039Y-85882185D02*
G01*
X64178794Y-85934989D01*
X64190000Y-85986500D01*
X64190000Y-86874047D01*
X64170315Y-86941086D01*
X64153681Y-86961728D01*
X63337181Y-87778228D01*
X63275858Y-87811713D01*
X63206166Y-87806729D01*
X63150233Y-87764857D01*
X63125816Y-87699393D01*
X63125500Y-87690547D01*
X63125500Y-86895285D01*
X63145185Y-86828246D01*
X63197989Y-86782491D01*
X63267147Y-86772547D01*
X63314598Y-86789747D01*
X63388692Y-86835450D01*
X63388699Y-86835453D01*
X63552347Y-86889680D01*
X63653352Y-86899999D01*
X63690000Y-86899999D01*
X63690000Y-85986500D01*
X63709685Y-85919461D01*
X63762489Y-85873706D01*
X63814000Y-85862500D01*
X64066000Y-85862500D01*
X64133039Y-85882185D01*
G37*
%TD.AperFunction*%
%TA.AperFunction,Conductor*%
G36*
X58179920Y-75754394D02*
G01*
X58127259Y-75845606D01*
X58100000Y-75947339D01*
X58100000Y-76052661D01*
X58127259Y-76154394D01*
X58179920Y-76245606D01*
X58184314Y-76250000D01*
X56815686Y-76250000D01*
X56820080Y-76245606D01*
X56872741Y-76154394D01*
X56900000Y-76052661D01*
X56900000Y-75947339D01*
X56872741Y-75845606D01*
X56820080Y-75754394D01*
X56815686Y-75750000D01*
X58184314Y-75750000D01*
X58179920Y-75754394D01*
G37*
%TD.AperFunction*%
%TA.AperFunction,Conductor*%
G36*
X60179920Y-75754394D02*
G01*
X60127259Y-75845606D01*
X60100000Y-75947339D01*
X60100000Y-76052661D01*
X60127259Y-76154394D01*
X60179920Y-76245606D01*
X60184314Y-76250000D01*
X58815686Y-76250000D01*
X58820080Y-76245606D01*
X58872741Y-76154394D01*
X58900000Y-76052661D01*
X58900000Y-75947339D01*
X58872741Y-75845606D01*
X58820080Y-75754394D01*
X58815686Y-75750000D01*
X60184314Y-75750000D01*
X60179920Y-75754394D01*
G37*
%TD.AperFunction*%
%TA.AperFunction,Conductor*%
G36*
X74179920Y-75754394D02*
G01*
X74127259Y-75845606D01*
X74100000Y-75947339D01*
X74100000Y-76052661D01*
X74127259Y-76154394D01*
X74179920Y-76245606D01*
X74184314Y-76250000D01*
X72815686Y-76250000D01*
X72820080Y-76245606D01*
X72872741Y-76154394D01*
X72900000Y-76052661D01*
X72900000Y-75947339D01*
X72872741Y-75845606D01*
X72820080Y-75754394D01*
X72815686Y-75750000D01*
X74184314Y-75750000D01*
X74179920Y-75754394D01*
G37*
%TD.AperFunction*%
%TD*%
M02*
