%TF.GenerationSoftware,KiCad,Pcbnew,8.0.8*%
%TF.CreationDate,2025-01-30T20:37:13+01:00*%
%TF.ProjectId,x68030_scsi,78363830-3330-45f7-9363-73692e6b6963,rev?*%
%TF.SameCoordinates,Original*%
%TF.FileFunction,Legend,Top*%
%TF.FilePolarity,Positive*%
%FSLAX46Y46*%
G04 Gerber Fmt 4.6, Leading zero omitted, Abs format (unit mm)*
G04 Created by KiCad (PCBNEW 8.0.8) date 2025-01-30 20:37:13*
%MOMM*%
%LPD*%
G01*
G04 APERTURE LIST*
%ADD10C,0.150000*%
%ADD11C,0.120000*%
G04 APERTURE END LIST*
D10*
X32027255Y-145369819D02*
X32122493Y-145369819D01*
X32122493Y-145369819D02*
X32217731Y-145417438D01*
X32217731Y-145417438D02*
X32265350Y-145465057D01*
X32265350Y-145465057D02*
X32312969Y-145560295D01*
X32312969Y-145560295D02*
X32360588Y-145750771D01*
X32360588Y-145750771D02*
X32360588Y-145988866D01*
X32360588Y-145988866D02*
X32312969Y-146179342D01*
X32312969Y-146179342D02*
X32265350Y-146274580D01*
X32265350Y-146274580D02*
X32217731Y-146322200D01*
X32217731Y-146322200D02*
X32122493Y-146369819D01*
X32122493Y-146369819D02*
X32027255Y-146369819D01*
X32027255Y-146369819D02*
X31932017Y-146322200D01*
X31932017Y-146322200D02*
X31884398Y-146274580D01*
X31884398Y-146274580D02*
X31836779Y-146179342D01*
X31836779Y-146179342D02*
X31789160Y-145988866D01*
X31789160Y-145988866D02*
X31789160Y-145750771D01*
X31789160Y-145750771D02*
X31836779Y-145560295D01*
X31836779Y-145560295D02*
X31884398Y-145465057D01*
X31884398Y-145465057D02*
X31932017Y-145417438D01*
X31932017Y-145417438D02*
X32027255Y-145369819D01*
X32360588Y-143869819D02*
X31789160Y-143869819D01*
X32074874Y-143869819D02*
X32074874Y-142869819D01*
X32074874Y-142869819D02*
X31979636Y-143012676D01*
X31979636Y-143012676D02*
X31884398Y-143107914D01*
X31884398Y-143107914D02*
X31789160Y-143155533D01*
X35836779Y-162369819D02*
X35836779Y-161369819D01*
X35836779Y-161750771D02*
X35932017Y-161703152D01*
X35932017Y-161703152D02*
X36122493Y-161703152D01*
X36122493Y-161703152D02*
X36217731Y-161750771D01*
X36217731Y-161750771D02*
X36265350Y-161798390D01*
X36265350Y-161798390D02*
X36312969Y-161893628D01*
X36312969Y-161893628D02*
X36312969Y-162179342D01*
X36312969Y-162179342D02*
X36265350Y-162274580D01*
X36265350Y-162274580D02*
X36217731Y-162322200D01*
X36217731Y-162322200D02*
X36122493Y-162369819D01*
X36122493Y-162369819D02*
X35932017Y-162369819D01*
X35932017Y-162369819D02*
X35836779Y-162322200D01*
X37170112Y-161703152D02*
X37170112Y-162369819D01*
X36741541Y-161703152D02*
X36741541Y-162226961D01*
X36741541Y-162226961D02*
X36789160Y-162322200D01*
X36789160Y-162322200D02*
X36884398Y-162369819D01*
X36884398Y-162369819D02*
X37027255Y-162369819D01*
X37027255Y-162369819D02*
X37122493Y-162322200D01*
X37122493Y-162322200D02*
X37170112Y-162274580D01*
X37503446Y-161703152D02*
X37884398Y-161703152D01*
X37646303Y-162369819D02*
X37646303Y-161512676D01*
X37646303Y-161512676D02*
X37693922Y-161417438D01*
X37693922Y-161417438D02*
X37789160Y-161369819D01*
X37789160Y-161369819D02*
X37884398Y-161369819D01*
X38074875Y-161703152D02*
X38455827Y-161703152D01*
X38217732Y-162369819D02*
X38217732Y-161512676D01*
X38217732Y-161512676D02*
X38265351Y-161417438D01*
X38265351Y-161417438D02*
X38360589Y-161369819D01*
X38360589Y-161369819D02*
X38455827Y-161369819D01*
X38789161Y-162369819D02*
X38789161Y-161703152D01*
X38789161Y-161369819D02*
X38741542Y-161417438D01*
X38741542Y-161417438D02*
X38789161Y-161465057D01*
X38789161Y-161465057D02*
X38836780Y-161417438D01*
X38836780Y-161417438D02*
X38789161Y-161369819D01*
X38789161Y-161369819D02*
X38789161Y-161465057D01*
X39979637Y-161465057D02*
X40027256Y-161417438D01*
X40027256Y-161417438D02*
X40122494Y-161369819D01*
X40122494Y-161369819D02*
X40360589Y-161369819D01*
X40360589Y-161369819D02*
X40455827Y-161417438D01*
X40455827Y-161417438D02*
X40503446Y-161465057D01*
X40503446Y-161465057D02*
X40551065Y-161560295D01*
X40551065Y-161560295D02*
X40551065Y-161655533D01*
X40551065Y-161655533D02*
X40503446Y-161798390D01*
X40503446Y-161798390D02*
X39932018Y-162369819D01*
X39932018Y-162369819D02*
X40551065Y-162369819D01*
X41170113Y-161369819D02*
X41265351Y-161369819D01*
X41265351Y-161369819D02*
X41360589Y-161417438D01*
X41360589Y-161417438D02*
X41408208Y-161465057D01*
X41408208Y-161465057D02*
X41455827Y-161560295D01*
X41455827Y-161560295D02*
X41503446Y-161750771D01*
X41503446Y-161750771D02*
X41503446Y-161988866D01*
X41503446Y-161988866D02*
X41455827Y-162179342D01*
X41455827Y-162179342D02*
X41408208Y-162274580D01*
X41408208Y-162274580D02*
X41360589Y-162322200D01*
X41360589Y-162322200D02*
X41265351Y-162369819D01*
X41265351Y-162369819D02*
X41170113Y-162369819D01*
X41170113Y-162369819D02*
X41074875Y-162322200D01*
X41074875Y-162322200D02*
X41027256Y-162274580D01*
X41027256Y-162274580D02*
X40979637Y-162179342D01*
X40979637Y-162179342D02*
X40932018Y-161988866D01*
X40932018Y-161988866D02*
X40932018Y-161750771D01*
X40932018Y-161750771D02*
X40979637Y-161560295D01*
X40979637Y-161560295D02*
X41027256Y-161465057D01*
X41027256Y-161465057D02*
X41074875Y-161417438D01*
X41074875Y-161417438D02*
X41170113Y-161369819D01*
X41884399Y-161465057D02*
X41932018Y-161417438D01*
X41932018Y-161417438D02*
X42027256Y-161369819D01*
X42027256Y-161369819D02*
X42265351Y-161369819D01*
X42265351Y-161369819D02*
X42360589Y-161417438D01*
X42360589Y-161417438D02*
X42408208Y-161465057D01*
X42408208Y-161465057D02*
X42455827Y-161560295D01*
X42455827Y-161560295D02*
X42455827Y-161655533D01*
X42455827Y-161655533D02*
X42408208Y-161798390D01*
X42408208Y-161798390D02*
X41836780Y-162369819D01*
X41836780Y-162369819D02*
X42455827Y-162369819D01*
X43360589Y-161369819D02*
X42884399Y-161369819D01*
X42884399Y-161369819D02*
X42836780Y-161846009D01*
X42836780Y-161846009D02*
X42884399Y-161798390D01*
X42884399Y-161798390D02*
X42979637Y-161750771D01*
X42979637Y-161750771D02*
X43217732Y-161750771D01*
X43217732Y-161750771D02*
X43312970Y-161798390D01*
X43312970Y-161798390D02*
X43360589Y-161846009D01*
X43360589Y-161846009D02*
X43408208Y-161941247D01*
X43408208Y-161941247D02*
X43408208Y-162179342D01*
X43408208Y-162179342D02*
X43360589Y-162274580D01*
X43360589Y-162274580D02*
X43312970Y-162322200D01*
X43312970Y-162322200D02*
X43217732Y-162369819D01*
X43217732Y-162369819D02*
X42979637Y-162369819D01*
X42979637Y-162369819D02*
X42884399Y-162322200D01*
X42884399Y-162322200D02*
X42836780Y-162274580D01*
X34336779Y-138369819D02*
X34336779Y-137369819D01*
X34812969Y-138369819D02*
X34812969Y-137369819D01*
X34812969Y-137369819D02*
X35051064Y-137369819D01*
X35051064Y-137369819D02*
X35193921Y-137417438D01*
X35193921Y-137417438D02*
X35289159Y-137512676D01*
X35289159Y-137512676D02*
X35336778Y-137607914D01*
X35336778Y-137607914D02*
X35384397Y-137798390D01*
X35384397Y-137798390D02*
X35384397Y-137941247D01*
X35384397Y-137941247D02*
X35336778Y-138131723D01*
X35336778Y-138131723D02*
X35289159Y-138226961D01*
X35289159Y-138226961D02*
X35193921Y-138322200D01*
X35193921Y-138322200D02*
X35051064Y-138369819D01*
X35051064Y-138369819D02*
X34812969Y-138369819D01*
X35765350Y-138322200D02*
X35908207Y-138369819D01*
X35908207Y-138369819D02*
X36146302Y-138369819D01*
X36146302Y-138369819D02*
X36241540Y-138322200D01*
X36241540Y-138322200D02*
X36289159Y-138274580D01*
X36289159Y-138274580D02*
X36336778Y-138179342D01*
X36336778Y-138179342D02*
X36336778Y-138084104D01*
X36336778Y-138084104D02*
X36289159Y-137988866D01*
X36289159Y-137988866D02*
X36241540Y-137941247D01*
X36241540Y-137941247D02*
X36146302Y-137893628D01*
X36146302Y-137893628D02*
X35955826Y-137846009D01*
X35955826Y-137846009D02*
X35860588Y-137798390D01*
X35860588Y-137798390D02*
X35812969Y-137750771D01*
X35812969Y-137750771D02*
X35765350Y-137655533D01*
X35765350Y-137655533D02*
X35765350Y-137560295D01*
X35765350Y-137560295D02*
X35812969Y-137465057D01*
X35812969Y-137465057D02*
X35860588Y-137417438D01*
X35860588Y-137417438D02*
X35955826Y-137369819D01*
X35955826Y-137369819D02*
X36193921Y-137369819D01*
X36193921Y-137369819D02*
X36336778Y-137417438D01*
X36670112Y-137369819D02*
X36908207Y-138369819D01*
X36908207Y-138369819D02*
X37098683Y-137655533D01*
X37098683Y-137655533D02*
X37289159Y-138369819D01*
X37289159Y-138369819D02*
X37527255Y-137369819D01*
X31789160Y-140465057D02*
X31836779Y-140417438D01*
X31836779Y-140417438D02*
X31932017Y-140369819D01*
X31932017Y-140369819D02*
X32170112Y-140369819D01*
X32170112Y-140369819D02*
X32265350Y-140417438D01*
X32265350Y-140417438D02*
X32312969Y-140465057D01*
X32312969Y-140465057D02*
X32360588Y-140560295D01*
X32360588Y-140560295D02*
X32360588Y-140655533D01*
X32360588Y-140655533D02*
X32312969Y-140798390D01*
X32312969Y-140798390D02*
X31741541Y-141369819D01*
X31741541Y-141369819D02*
X32360588Y-141369819D01*
X31741541Y-159369819D02*
X32408207Y-160369819D01*
X32408207Y-159369819D02*
X31741541Y-160369819D01*
X33217731Y-159369819D02*
X33027255Y-159369819D01*
X33027255Y-159369819D02*
X32932017Y-159417438D01*
X32932017Y-159417438D02*
X32884398Y-159465057D01*
X32884398Y-159465057D02*
X32789160Y-159607914D01*
X32789160Y-159607914D02*
X32741541Y-159798390D01*
X32741541Y-159798390D02*
X32741541Y-160179342D01*
X32741541Y-160179342D02*
X32789160Y-160274580D01*
X32789160Y-160274580D02*
X32836779Y-160322200D01*
X32836779Y-160322200D02*
X32932017Y-160369819D01*
X32932017Y-160369819D02*
X33122493Y-160369819D01*
X33122493Y-160369819D02*
X33217731Y-160322200D01*
X33217731Y-160322200D02*
X33265350Y-160274580D01*
X33265350Y-160274580D02*
X33312969Y-160179342D01*
X33312969Y-160179342D02*
X33312969Y-159941247D01*
X33312969Y-159941247D02*
X33265350Y-159846009D01*
X33265350Y-159846009D02*
X33217731Y-159798390D01*
X33217731Y-159798390D02*
X33122493Y-159750771D01*
X33122493Y-159750771D02*
X32932017Y-159750771D01*
X32932017Y-159750771D02*
X32836779Y-159798390D01*
X32836779Y-159798390D02*
X32789160Y-159846009D01*
X32789160Y-159846009D02*
X32741541Y-159941247D01*
X33884398Y-159798390D02*
X33789160Y-159750771D01*
X33789160Y-159750771D02*
X33741541Y-159703152D01*
X33741541Y-159703152D02*
X33693922Y-159607914D01*
X33693922Y-159607914D02*
X33693922Y-159560295D01*
X33693922Y-159560295D02*
X33741541Y-159465057D01*
X33741541Y-159465057D02*
X33789160Y-159417438D01*
X33789160Y-159417438D02*
X33884398Y-159369819D01*
X33884398Y-159369819D02*
X34074874Y-159369819D01*
X34074874Y-159369819D02*
X34170112Y-159417438D01*
X34170112Y-159417438D02*
X34217731Y-159465057D01*
X34217731Y-159465057D02*
X34265350Y-159560295D01*
X34265350Y-159560295D02*
X34265350Y-159607914D01*
X34265350Y-159607914D02*
X34217731Y-159703152D01*
X34217731Y-159703152D02*
X34170112Y-159750771D01*
X34170112Y-159750771D02*
X34074874Y-159798390D01*
X34074874Y-159798390D02*
X33884398Y-159798390D01*
X33884398Y-159798390D02*
X33789160Y-159846009D01*
X33789160Y-159846009D02*
X33741541Y-159893628D01*
X33741541Y-159893628D02*
X33693922Y-159988866D01*
X33693922Y-159988866D02*
X33693922Y-160179342D01*
X33693922Y-160179342D02*
X33741541Y-160274580D01*
X33741541Y-160274580D02*
X33789160Y-160322200D01*
X33789160Y-160322200D02*
X33884398Y-160369819D01*
X33884398Y-160369819D02*
X34074874Y-160369819D01*
X34074874Y-160369819D02*
X34170112Y-160322200D01*
X34170112Y-160322200D02*
X34217731Y-160274580D01*
X34217731Y-160274580D02*
X34265350Y-160179342D01*
X34265350Y-160179342D02*
X34265350Y-159988866D01*
X34265350Y-159988866D02*
X34217731Y-159893628D01*
X34217731Y-159893628D02*
X34170112Y-159846009D01*
X34170112Y-159846009D02*
X34074874Y-159798390D01*
X34884398Y-159369819D02*
X34979636Y-159369819D01*
X34979636Y-159369819D02*
X35074874Y-159417438D01*
X35074874Y-159417438D02*
X35122493Y-159465057D01*
X35122493Y-159465057D02*
X35170112Y-159560295D01*
X35170112Y-159560295D02*
X35217731Y-159750771D01*
X35217731Y-159750771D02*
X35217731Y-159988866D01*
X35217731Y-159988866D02*
X35170112Y-160179342D01*
X35170112Y-160179342D02*
X35122493Y-160274580D01*
X35122493Y-160274580D02*
X35074874Y-160322200D01*
X35074874Y-160322200D02*
X34979636Y-160369819D01*
X34979636Y-160369819D02*
X34884398Y-160369819D01*
X34884398Y-160369819D02*
X34789160Y-160322200D01*
X34789160Y-160322200D02*
X34741541Y-160274580D01*
X34741541Y-160274580D02*
X34693922Y-160179342D01*
X34693922Y-160179342D02*
X34646303Y-159988866D01*
X34646303Y-159988866D02*
X34646303Y-159750771D01*
X34646303Y-159750771D02*
X34693922Y-159560295D01*
X34693922Y-159560295D02*
X34741541Y-159465057D01*
X34741541Y-159465057D02*
X34789160Y-159417438D01*
X34789160Y-159417438D02*
X34884398Y-159369819D01*
X35551065Y-159369819D02*
X36170112Y-159369819D01*
X36170112Y-159369819D02*
X35836779Y-159750771D01*
X35836779Y-159750771D02*
X35979636Y-159750771D01*
X35979636Y-159750771D02*
X36074874Y-159798390D01*
X36074874Y-159798390D02*
X36122493Y-159846009D01*
X36122493Y-159846009D02*
X36170112Y-159941247D01*
X36170112Y-159941247D02*
X36170112Y-160179342D01*
X36170112Y-160179342D02*
X36122493Y-160274580D01*
X36122493Y-160274580D02*
X36074874Y-160322200D01*
X36074874Y-160322200D02*
X35979636Y-160369819D01*
X35979636Y-160369819D02*
X35693922Y-160369819D01*
X35693922Y-160369819D02*
X35598684Y-160322200D01*
X35598684Y-160322200D02*
X35551065Y-160274580D01*
X36789160Y-159369819D02*
X36884398Y-159369819D01*
X36884398Y-159369819D02*
X36979636Y-159417438D01*
X36979636Y-159417438D02*
X37027255Y-159465057D01*
X37027255Y-159465057D02*
X37074874Y-159560295D01*
X37074874Y-159560295D02*
X37122493Y-159750771D01*
X37122493Y-159750771D02*
X37122493Y-159988866D01*
X37122493Y-159988866D02*
X37074874Y-160179342D01*
X37074874Y-160179342D02*
X37027255Y-160274580D01*
X37027255Y-160274580D02*
X36979636Y-160322200D01*
X36979636Y-160322200D02*
X36884398Y-160369819D01*
X36884398Y-160369819D02*
X36789160Y-160369819D01*
X36789160Y-160369819D02*
X36693922Y-160322200D01*
X36693922Y-160322200D02*
X36646303Y-160274580D01*
X36646303Y-160274580D02*
X36598684Y-160179342D01*
X36598684Y-160179342D02*
X36551065Y-159988866D01*
X36551065Y-159988866D02*
X36551065Y-159750771D01*
X36551065Y-159750771D02*
X36598684Y-159560295D01*
X36598684Y-159560295D02*
X36646303Y-159465057D01*
X36646303Y-159465057D02*
X36693922Y-159417438D01*
X36693922Y-159417438D02*
X36789160Y-159369819D01*
X38265351Y-160322200D02*
X38408208Y-160369819D01*
X38408208Y-160369819D02*
X38646303Y-160369819D01*
X38646303Y-160369819D02*
X38741541Y-160322200D01*
X38741541Y-160322200D02*
X38789160Y-160274580D01*
X38789160Y-160274580D02*
X38836779Y-160179342D01*
X38836779Y-160179342D02*
X38836779Y-160084104D01*
X38836779Y-160084104D02*
X38789160Y-159988866D01*
X38789160Y-159988866D02*
X38741541Y-159941247D01*
X38741541Y-159941247D02*
X38646303Y-159893628D01*
X38646303Y-159893628D02*
X38455827Y-159846009D01*
X38455827Y-159846009D02*
X38360589Y-159798390D01*
X38360589Y-159798390D02*
X38312970Y-159750771D01*
X38312970Y-159750771D02*
X38265351Y-159655533D01*
X38265351Y-159655533D02*
X38265351Y-159560295D01*
X38265351Y-159560295D02*
X38312970Y-159465057D01*
X38312970Y-159465057D02*
X38360589Y-159417438D01*
X38360589Y-159417438D02*
X38455827Y-159369819D01*
X38455827Y-159369819D02*
X38693922Y-159369819D01*
X38693922Y-159369819D02*
X38836779Y-159417438D01*
X39836779Y-160274580D02*
X39789160Y-160322200D01*
X39789160Y-160322200D02*
X39646303Y-160369819D01*
X39646303Y-160369819D02*
X39551065Y-160369819D01*
X39551065Y-160369819D02*
X39408208Y-160322200D01*
X39408208Y-160322200D02*
X39312970Y-160226961D01*
X39312970Y-160226961D02*
X39265351Y-160131723D01*
X39265351Y-160131723D02*
X39217732Y-159941247D01*
X39217732Y-159941247D02*
X39217732Y-159798390D01*
X39217732Y-159798390D02*
X39265351Y-159607914D01*
X39265351Y-159607914D02*
X39312970Y-159512676D01*
X39312970Y-159512676D02*
X39408208Y-159417438D01*
X39408208Y-159417438D02*
X39551065Y-159369819D01*
X39551065Y-159369819D02*
X39646303Y-159369819D01*
X39646303Y-159369819D02*
X39789160Y-159417438D01*
X39789160Y-159417438D02*
X39836779Y-159465057D01*
X40217732Y-160322200D02*
X40360589Y-160369819D01*
X40360589Y-160369819D02*
X40598684Y-160369819D01*
X40598684Y-160369819D02*
X40693922Y-160322200D01*
X40693922Y-160322200D02*
X40741541Y-160274580D01*
X40741541Y-160274580D02*
X40789160Y-160179342D01*
X40789160Y-160179342D02*
X40789160Y-160084104D01*
X40789160Y-160084104D02*
X40741541Y-159988866D01*
X40741541Y-159988866D02*
X40693922Y-159941247D01*
X40693922Y-159941247D02*
X40598684Y-159893628D01*
X40598684Y-159893628D02*
X40408208Y-159846009D01*
X40408208Y-159846009D02*
X40312970Y-159798390D01*
X40312970Y-159798390D02*
X40265351Y-159750771D01*
X40265351Y-159750771D02*
X40217732Y-159655533D01*
X40217732Y-159655533D02*
X40217732Y-159560295D01*
X40217732Y-159560295D02*
X40265351Y-159465057D01*
X40265351Y-159465057D02*
X40312970Y-159417438D01*
X40312970Y-159417438D02*
X40408208Y-159369819D01*
X40408208Y-159369819D02*
X40646303Y-159369819D01*
X40646303Y-159369819D02*
X40789160Y-159417438D01*
X41217732Y-160369819D02*
X41217732Y-159369819D01*
X42408208Y-160084104D02*
X42884398Y-160084104D01*
X42312970Y-160369819D02*
X42646303Y-159369819D01*
X42646303Y-159369819D02*
X42979636Y-160369819D01*
X43312970Y-160369819D02*
X43312970Y-159369819D01*
X43312970Y-159369819D02*
X43551065Y-159369819D01*
X43551065Y-159369819D02*
X43693922Y-159417438D01*
X43693922Y-159417438D02*
X43789160Y-159512676D01*
X43789160Y-159512676D02*
X43836779Y-159607914D01*
X43836779Y-159607914D02*
X43884398Y-159798390D01*
X43884398Y-159798390D02*
X43884398Y-159941247D01*
X43884398Y-159941247D02*
X43836779Y-160131723D01*
X43836779Y-160131723D02*
X43789160Y-160226961D01*
X43789160Y-160226961D02*
X43693922Y-160322200D01*
X43693922Y-160322200D02*
X43551065Y-160369819D01*
X43551065Y-160369819D02*
X43312970Y-160369819D01*
X44265351Y-160084104D02*
X44741541Y-160084104D01*
X44170113Y-160369819D02*
X44503446Y-159369819D01*
X44503446Y-159369819D02*
X44836779Y-160369819D01*
X45170113Y-160369819D02*
X45170113Y-159369819D01*
X45170113Y-159369819D02*
X45551065Y-159369819D01*
X45551065Y-159369819D02*
X45646303Y-159417438D01*
X45646303Y-159417438D02*
X45693922Y-159465057D01*
X45693922Y-159465057D02*
X45741541Y-159560295D01*
X45741541Y-159560295D02*
X45741541Y-159703152D01*
X45741541Y-159703152D02*
X45693922Y-159798390D01*
X45693922Y-159798390D02*
X45646303Y-159846009D01*
X45646303Y-159846009D02*
X45551065Y-159893628D01*
X45551065Y-159893628D02*
X45170113Y-159893628D01*
X46027256Y-159369819D02*
X46598684Y-159369819D01*
X46312970Y-160369819D02*
X46312970Y-159369819D01*
X46932018Y-159846009D02*
X47265351Y-159846009D01*
X47408208Y-160369819D02*
X46932018Y-160369819D01*
X46932018Y-160369819D02*
X46932018Y-159369819D01*
X46932018Y-159369819D02*
X47408208Y-159369819D01*
X48408208Y-160369819D02*
X48074875Y-159893628D01*
X47836780Y-160369819D02*
X47836780Y-159369819D01*
X47836780Y-159369819D02*
X48217732Y-159369819D01*
X48217732Y-159369819D02*
X48312970Y-159417438D01*
X48312970Y-159417438D02*
X48360589Y-159465057D01*
X48360589Y-159465057D02*
X48408208Y-159560295D01*
X48408208Y-159560295D02*
X48408208Y-159703152D01*
X48408208Y-159703152D02*
X48360589Y-159798390D01*
X48360589Y-159798390D02*
X48312970Y-159846009D01*
X48312970Y-159846009D02*
X48217732Y-159893628D01*
X48217732Y-159893628D02*
X47836780Y-159893628D01*
X45333333Y-127454819D02*
X45000000Y-126978628D01*
X44761905Y-127454819D02*
X44761905Y-126454819D01*
X44761905Y-126454819D02*
X45142857Y-126454819D01*
X45142857Y-126454819D02*
X45238095Y-126502438D01*
X45238095Y-126502438D02*
X45285714Y-126550057D01*
X45285714Y-126550057D02*
X45333333Y-126645295D01*
X45333333Y-126645295D02*
X45333333Y-126788152D01*
X45333333Y-126788152D02*
X45285714Y-126883390D01*
X45285714Y-126883390D02*
X45238095Y-126931009D01*
X45238095Y-126931009D02*
X45142857Y-126978628D01*
X45142857Y-126978628D02*
X44761905Y-126978628D01*
X45666667Y-126454819D02*
X46333333Y-126454819D01*
X46333333Y-126454819D02*
X45904762Y-127454819D01*
X74359580Y-82142857D02*
X74407200Y-82190476D01*
X74407200Y-82190476D02*
X74454819Y-82333333D01*
X74454819Y-82333333D02*
X74454819Y-82428571D01*
X74454819Y-82428571D02*
X74407200Y-82571428D01*
X74407200Y-82571428D02*
X74311961Y-82666666D01*
X74311961Y-82666666D02*
X74216723Y-82714285D01*
X74216723Y-82714285D02*
X74026247Y-82761904D01*
X74026247Y-82761904D02*
X73883390Y-82761904D01*
X73883390Y-82761904D02*
X73692914Y-82714285D01*
X73692914Y-82714285D02*
X73597676Y-82666666D01*
X73597676Y-82666666D02*
X73502438Y-82571428D01*
X73502438Y-82571428D02*
X73454819Y-82428571D01*
X73454819Y-82428571D02*
X73454819Y-82333333D01*
X73454819Y-82333333D02*
X73502438Y-82190476D01*
X73502438Y-82190476D02*
X73550057Y-82142857D01*
X74454819Y-81190476D02*
X74454819Y-81761904D01*
X74454819Y-81476190D02*
X73454819Y-81476190D01*
X73454819Y-81476190D02*
X73597676Y-81571428D01*
X73597676Y-81571428D02*
X73692914Y-81666666D01*
X73692914Y-81666666D02*
X73740533Y-81761904D01*
X73454819Y-80333333D02*
X73454819Y-80523809D01*
X73454819Y-80523809D02*
X73502438Y-80619047D01*
X73502438Y-80619047D02*
X73550057Y-80666666D01*
X73550057Y-80666666D02*
X73692914Y-80761904D01*
X73692914Y-80761904D02*
X73883390Y-80809523D01*
X73883390Y-80809523D02*
X74264342Y-80809523D01*
X74264342Y-80809523D02*
X74359580Y-80761904D01*
X74359580Y-80761904D02*
X74407200Y-80714285D01*
X74407200Y-80714285D02*
X74454819Y-80619047D01*
X74454819Y-80619047D02*
X74454819Y-80428571D01*
X74454819Y-80428571D02*
X74407200Y-80333333D01*
X74407200Y-80333333D02*
X74359580Y-80285714D01*
X74359580Y-80285714D02*
X74264342Y-80238095D01*
X74264342Y-80238095D02*
X74026247Y-80238095D01*
X74026247Y-80238095D02*
X73931009Y-80285714D01*
X73931009Y-80285714D02*
X73883390Y-80333333D01*
X73883390Y-80333333D02*
X73835771Y-80428571D01*
X73835771Y-80428571D02*
X73835771Y-80619047D01*
X73835771Y-80619047D02*
X73883390Y-80714285D01*
X73883390Y-80714285D02*
X73931009Y-80761904D01*
X73931009Y-80761904D02*
X74026247Y-80809523D01*
X45357142Y-144954819D02*
X45023809Y-144478628D01*
X44785714Y-144954819D02*
X44785714Y-143954819D01*
X44785714Y-143954819D02*
X45166666Y-143954819D01*
X45166666Y-143954819D02*
X45261904Y-144002438D01*
X45261904Y-144002438D02*
X45309523Y-144050057D01*
X45309523Y-144050057D02*
X45357142Y-144145295D01*
X45357142Y-144145295D02*
X45357142Y-144288152D01*
X45357142Y-144288152D02*
X45309523Y-144383390D01*
X45309523Y-144383390D02*
X45261904Y-144431009D01*
X45261904Y-144431009D02*
X45166666Y-144478628D01*
X45166666Y-144478628D02*
X44785714Y-144478628D01*
X46309523Y-144954819D02*
X45738095Y-144954819D01*
X46023809Y-144954819D02*
X46023809Y-143954819D01*
X46023809Y-143954819D02*
X45928571Y-144097676D01*
X45928571Y-144097676D02*
X45833333Y-144192914D01*
X45833333Y-144192914D02*
X45738095Y-144240533D01*
X47166666Y-144288152D02*
X47166666Y-144954819D01*
X46928571Y-143907200D02*
X46690476Y-144621485D01*
X46690476Y-144621485D02*
X47309523Y-144621485D01*
X45333333Y-112454819D02*
X45000000Y-111978628D01*
X44761905Y-112454819D02*
X44761905Y-111454819D01*
X44761905Y-111454819D02*
X45142857Y-111454819D01*
X45142857Y-111454819D02*
X45238095Y-111502438D01*
X45238095Y-111502438D02*
X45285714Y-111550057D01*
X45285714Y-111550057D02*
X45333333Y-111645295D01*
X45333333Y-111645295D02*
X45333333Y-111788152D01*
X45333333Y-111788152D02*
X45285714Y-111883390D01*
X45285714Y-111883390D02*
X45238095Y-111931009D01*
X45238095Y-111931009D02*
X45142857Y-111978628D01*
X45142857Y-111978628D02*
X44761905Y-111978628D01*
X46285714Y-112454819D02*
X45714286Y-112454819D01*
X46000000Y-112454819D02*
X46000000Y-111454819D01*
X46000000Y-111454819D02*
X45904762Y-111597676D01*
X45904762Y-111597676D02*
X45809524Y-111692914D01*
X45809524Y-111692914D02*
X45714286Y-111740533D01*
X37291666Y-109431009D02*
X36958333Y-109431009D01*
X36958333Y-109954819D02*
X36958333Y-108954819D01*
X36958333Y-108954819D02*
X37434523Y-108954819D01*
X38339285Y-109954819D02*
X37767857Y-109954819D01*
X38053571Y-109954819D02*
X38053571Y-108954819D01*
X38053571Y-108954819D02*
X37958333Y-109097676D01*
X37958333Y-109097676D02*
X37863095Y-109192914D01*
X37863095Y-109192914D02*
X37767857Y-109240533D01*
X45333333Y-114954819D02*
X45000000Y-114478628D01*
X44761905Y-114954819D02*
X44761905Y-113954819D01*
X44761905Y-113954819D02*
X45142857Y-113954819D01*
X45142857Y-113954819D02*
X45238095Y-114002438D01*
X45238095Y-114002438D02*
X45285714Y-114050057D01*
X45285714Y-114050057D02*
X45333333Y-114145295D01*
X45333333Y-114145295D02*
X45333333Y-114288152D01*
X45333333Y-114288152D02*
X45285714Y-114383390D01*
X45285714Y-114383390D02*
X45238095Y-114431009D01*
X45238095Y-114431009D02*
X45142857Y-114478628D01*
X45142857Y-114478628D02*
X44761905Y-114478628D01*
X45714286Y-114050057D02*
X45761905Y-114002438D01*
X45761905Y-114002438D02*
X45857143Y-113954819D01*
X45857143Y-113954819D02*
X46095238Y-113954819D01*
X46095238Y-113954819D02*
X46190476Y-114002438D01*
X46190476Y-114002438D02*
X46238095Y-114050057D01*
X46238095Y-114050057D02*
X46285714Y-114145295D01*
X46285714Y-114145295D02*
X46285714Y-114240533D01*
X46285714Y-114240533D02*
X46238095Y-114383390D01*
X46238095Y-114383390D02*
X45666667Y-114954819D01*
X45666667Y-114954819D02*
X46285714Y-114954819D01*
X66859580Y-82142857D02*
X66907200Y-82190476D01*
X66907200Y-82190476D02*
X66954819Y-82333333D01*
X66954819Y-82333333D02*
X66954819Y-82428571D01*
X66954819Y-82428571D02*
X66907200Y-82571428D01*
X66907200Y-82571428D02*
X66811961Y-82666666D01*
X66811961Y-82666666D02*
X66716723Y-82714285D01*
X66716723Y-82714285D02*
X66526247Y-82761904D01*
X66526247Y-82761904D02*
X66383390Y-82761904D01*
X66383390Y-82761904D02*
X66192914Y-82714285D01*
X66192914Y-82714285D02*
X66097676Y-82666666D01*
X66097676Y-82666666D02*
X66002438Y-82571428D01*
X66002438Y-82571428D02*
X65954819Y-82428571D01*
X65954819Y-82428571D02*
X65954819Y-82333333D01*
X65954819Y-82333333D02*
X66002438Y-82190476D01*
X66002438Y-82190476D02*
X66050057Y-82142857D01*
X66954819Y-81190476D02*
X66954819Y-81761904D01*
X66954819Y-81476190D02*
X65954819Y-81476190D01*
X65954819Y-81476190D02*
X66097676Y-81571428D01*
X66097676Y-81571428D02*
X66192914Y-81666666D01*
X66192914Y-81666666D02*
X66240533Y-81761904D01*
X65954819Y-80857142D02*
X65954819Y-80238095D01*
X65954819Y-80238095D02*
X66335771Y-80571428D01*
X66335771Y-80571428D02*
X66335771Y-80428571D01*
X66335771Y-80428571D02*
X66383390Y-80333333D01*
X66383390Y-80333333D02*
X66431009Y-80285714D01*
X66431009Y-80285714D02*
X66526247Y-80238095D01*
X66526247Y-80238095D02*
X66764342Y-80238095D01*
X66764342Y-80238095D02*
X66859580Y-80285714D01*
X66859580Y-80285714D02*
X66907200Y-80333333D01*
X66907200Y-80333333D02*
X66954819Y-80428571D01*
X66954819Y-80428571D02*
X66954819Y-80714285D01*
X66954819Y-80714285D02*
X66907200Y-80809523D01*
X66907200Y-80809523D02*
X66859580Y-80857142D01*
X46809580Y-88166666D02*
X46857200Y-88214285D01*
X46857200Y-88214285D02*
X46904819Y-88357142D01*
X46904819Y-88357142D02*
X46904819Y-88452380D01*
X46904819Y-88452380D02*
X46857200Y-88595237D01*
X46857200Y-88595237D02*
X46761961Y-88690475D01*
X46761961Y-88690475D02*
X46666723Y-88738094D01*
X46666723Y-88738094D02*
X46476247Y-88785713D01*
X46476247Y-88785713D02*
X46333390Y-88785713D01*
X46333390Y-88785713D02*
X46142914Y-88738094D01*
X46142914Y-88738094D02*
X46047676Y-88690475D01*
X46047676Y-88690475D02*
X45952438Y-88595237D01*
X45952438Y-88595237D02*
X45904819Y-88452380D01*
X45904819Y-88452380D02*
X45904819Y-88357142D01*
X45904819Y-88357142D02*
X45952438Y-88214285D01*
X45952438Y-88214285D02*
X46000057Y-88166666D01*
X45904819Y-87261904D02*
X45904819Y-87738094D01*
X45904819Y-87738094D02*
X46381009Y-87785713D01*
X46381009Y-87785713D02*
X46333390Y-87738094D01*
X46333390Y-87738094D02*
X46285771Y-87642856D01*
X46285771Y-87642856D02*
X46285771Y-87404761D01*
X46285771Y-87404761D02*
X46333390Y-87309523D01*
X46333390Y-87309523D02*
X46381009Y-87261904D01*
X46381009Y-87261904D02*
X46476247Y-87214285D01*
X46476247Y-87214285D02*
X46714342Y-87214285D01*
X46714342Y-87214285D02*
X46809580Y-87261904D01*
X46809580Y-87261904D02*
X46857200Y-87309523D01*
X46857200Y-87309523D02*
X46904819Y-87404761D01*
X46904819Y-87404761D02*
X46904819Y-87642856D01*
X46904819Y-87642856D02*
X46857200Y-87738094D01*
X46857200Y-87738094D02*
X46809580Y-87785713D01*
X71859580Y-82142857D02*
X71907200Y-82190476D01*
X71907200Y-82190476D02*
X71954819Y-82333333D01*
X71954819Y-82333333D02*
X71954819Y-82428571D01*
X71954819Y-82428571D02*
X71907200Y-82571428D01*
X71907200Y-82571428D02*
X71811961Y-82666666D01*
X71811961Y-82666666D02*
X71716723Y-82714285D01*
X71716723Y-82714285D02*
X71526247Y-82761904D01*
X71526247Y-82761904D02*
X71383390Y-82761904D01*
X71383390Y-82761904D02*
X71192914Y-82714285D01*
X71192914Y-82714285D02*
X71097676Y-82666666D01*
X71097676Y-82666666D02*
X71002438Y-82571428D01*
X71002438Y-82571428D02*
X70954819Y-82428571D01*
X70954819Y-82428571D02*
X70954819Y-82333333D01*
X70954819Y-82333333D02*
X71002438Y-82190476D01*
X71002438Y-82190476D02*
X71050057Y-82142857D01*
X71954819Y-81190476D02*
X71954819Y-81761904D01*
X71954819Y-81476190D02*
X70954819Y-81476190D01*
X70954819Y-81476190D02*
X71097676Y-81571428D01*
X71097676Y-81571428D02*
X71192914Y-81666666D01*
X71192914Y-81666666D02*
X71240533Y-81761904D01*
X70954819Y-80285714D02*
X70954819Y-80761904D01*
X70954819Y-80761904D02*
X71431009Y-80809523D01*
X71431009Y-80809523D02*
X71383390Y-80761904D01*
X71383390Y-80761904D02*
X71335771Y-80666666D01*
X71335771Y-80666666D02*
X71335771Y-80428571D01*
X71335771Y-80428571D02*
X71383390Y-80333333D01*
X71383390Y-80333333D02*
X71431009Y-80285714D01*
X71431009Y-80285714D02*
X71526247Y-80238095D01*
X71526247Y-80238095D02*
X71764342Y-80238095D01*
X71764342Y-80238095D02*
X71859580Y-80285714D01*
X71859580Y-80285714D02*
X71907200Y-80333333D01*
X71907200Y-80333333D02*
X71954819Y-80428571D01*
X71954819Y-80428571D02*
X71954819Y-80666666D01*
X71954819Y-80666666D02*
X71907200Y-80761904D01*
X71907200Y-80761904D02*
X71859580Y-80809523D01*
X44819580Y-98579166D02*
X44867200Y-98626785D01*
X44867200Y-98626785D02*
X44914819Y-98769642D01*
X44914819Y-98769642D02*
X44914819Y-98864880D01*
X44914819Y-98864880D02*
X44867200Y-99007737D01*
X44867200Y-99007737D02*
X44771961Y-99102975D01*
X44771961Y-99102975D02*
X44676723Y-99150594D01*
X44676723Y-99150594D02*
X44486247Y-99198213D01*
X44486247Y-99198213D02*
X44343390Y-99198213D01*
X44343390Y-99198213D02*
X44152914Y-99150594D01*
X44152914Y-99150594D02*
X44057676Y-99102975D01*
X44057676Y-99102975D02*
X43962438Y-99007737D01*
X43962438Y-99007737D02*
X43914819Y-98864880D01*
X43914819Y-98864880D02*
X43914819Y-98769642D01*
X43914819Y-98769642D02*
X43962438Y-98626785D01*
X43962438Y-98626785D02*
X44010057Y-98579166D01*
X44248152Y-97722023D02*
X44914819Y-97722023D01*
X43867200Y-97960118D02*
X44581485Y-98198213D01*
X44581485Y-98198213D02*
X44581485Y-97579166D01*
X45357142Y-142454819D02*
X45023809Y-141978628D01*
X44785714Y-142454819D02*
X44785714Y-141454819D01*
X44785714Y-141454819D02*
X45166666Y-141454819D01*
X45166666Y-141454819D02*
X45261904Y-141502438D01*
X45261904Y-141502438D02*
X45309523Y-141550057D01*
X45309523Y-141550057D02*
X45357142Y-141645295D01*
X45357142Y-141645295D02*
X45357142Y-141788152D01*
X45357142Y-141788152D02*
X45309523Y-141883390D01*
X45309523Y-141883390D02*
X45261904Y-141931009D01*
X45261904Y-141931009D02*
X45166666Y-141978628D01*
X45166666Y-141978628D02*
X44785714Y-141978628D01*
X46309523Y-142454819D02*
X45738095Y-142454819D01*
X46023809Y-142454819D02*
X46023809Y-141454819D01*
X46023809Y-141454819D02*
X45928571Y-141597676D01*
X45928571Y-141597676D02*
X45833333Y-141692914D01*
X45833333Y-141692914D02*
X45738095Y-141740533D01*
X46642857Y-141454819D02*
X47261904Y-141454819D01*
X47261904Y-141454819D02*
X46928571Y-141835771D01*
X46928571Y-141835771D02*
X47071428Y-141835771D01*
X47071428Y-141835771D02*
X47166666Y-141883390D01*
X47166666Y-141883390D02*
X47214285Y-141931009D01*
X47214285Y-141931009D02*
X47261904Y-142026247D01*
X47261904Y-142026247D02*
X47261904Y-142264342D01*
X47261904Y-142264342D02*
X47214285Y-142359580D01*
X47214285Y-142359580D02*
X47166666Y-142407200D01*
X47166666Y-142407200D02*
X47071428Y-142454819D01*
X47071428Y-142454819D02*
X46785714Y-142454819D01*
X46785714Y-142454819D02*
X46690476Y-142407200D01*
X46690476Y-142407200D02*
X46642857Y-142359580D01*
X45357142Y-152454819D02*
X45023809Y-151978628D01*
X44785714Y-152454819D02*
X44785714Y-151454819D01*
X44785714Y-151454819D02*
X45166666Y-151454819D01*
X45166666Y-151454819D02*
X45261904Y-151502438D01*
X45261904Y-151502438D02*
X45309523Y-151550057D01*
X45309523Y-151550057D02*
X45357142Y-151645295D01*
X45357142Y-151645295D02*
X45357142Y-151788152D01*
X45357142Y-151788152D02*
X45309523Y-151883390D01*
X45309523Y-151883390D02*
X45261904Y-151931009D01*
X45261904Y-151931009D02*
X45166666Y-151978628D01*
X45166666Y-151978628D02*
X44785714Y-151978628D01*
X46309523Y-152454819D02*
X45738095Y-152454819D01*
X46023809Y-152454819D02*
X46023809Y-151454819D01*
X46023809Y-151454819D02*
X45928571Y-151597676D01*
X45928571Y-151597676D02*
X45833333Y-151692914D01*
X45833333Y-151692914D02*
X45738095Y-151740533D01*
X46642857Y-151454819D02*
X47309523Y-151454819D01*
X47309523Y-151454819D02*
X46880952Y-152454819D01*
X39839580Y-98579166D02*
X39887200Y-98626785D01*
X39887200Y-98626785D02*
X39934819Y-98769642D01*
X39934819Y-98769642D02*
X39934819Y-98864880D01*
X39934819Y-98864880D02*
X39887200Y-99007737D01*
X39887200Y-99007737D02*
X39791961Y-99102975D01*
X39791961Y-99102975D02*
X39696723Y-99150594D01*
X39696723Y-99150594D02*
X39506247Y-99198213D01*
X39506247Y-99198213D02*
X39363390Y-99198213D01*
X39363390Y-99198213D02*
X39172914Y-99150594D01*
X39172914Y-99150594D02*
X39077676Y-99102975D01*
X39077676Y-99102975D02*
X38982438Y-99007737D01*
X38982438Y-99007737D02*
X38934819Y-98864880D01*
X38934819Y-98864880D02*
X38934819Y-98769642D01*
X38934819Y-98769642D02*
X38982438Y-98626785D01*
X38982438Y-98626785D02*
X39030057Y-98579166D01*
X39030057Y-98198213D02*
X38982438Y-98150594D01*
X38982438Y-98150594D02*
X38934819Y-98055356D01*
X38934819Y-98055356D02*
X38934819Y-97817261D01*
X38934819Y-97817261D02*
X38982438Y-97722023D01*
X38982438Y-97722023D02*
X39030057Y-97674404D01*
X39030057Y-97674404D02*
X39125295Y-97626785D01*
X39125295Y-97626785D02*
X39220533Y-97626785D01*
X39220533Y-97626785D02*
X39363390Y-97674404D01*
X39363390Y-97674404D02*
X39934819Y-98245832D01*
X39934819Y-98245832D02*
X39934819Y-97626785D01*
X42329580Y-98579166D02*
X42377200Y-98626785D01*
X42377200Y-98626785D02*
X42424819Y-98769642D01*
X42424819Y-98769642D02*
X42424819Y-98864880D01*
X42424819Y-98864880D02*
X42377200Y-99007737D01*
X42377200Y-99007737D02*
X42281961Y-99102975D01*
X42281961Y-99102975D02*
X42186723Y-99150594D01*
X42186723Y-99150594D02*
X41996247Y-99198213D01*
X41996247Y-99198213D02*
X41853390Y-99198213D01*
X41853390Y-99198213D02*
X41662914Y-99150594D01*
X41662914Y-99150594D02*
X41567676Y-99102975D01*
X41567676Y-99102975D02*
X41472438Y-99007737D01*
X41472438Y-99007737D02*
X41424819Y-98864880D01*
X41424819Y-98864880D02*
X41424819Y-98769642D01*
X41424819Y-98769642D02*
X41472438Y-98626785D01*
X41472438Y-98626785D02*
X41520057Y-98579166D01*
X41424819Y-98245832D02*
X41424819Y-97626785D01*
X41424819Y-97626785D02*
X41805771Y-97960118D01*
X41805771Y-97960118D02*
X41805771Y-97817261D01*
X41805771Y-97817261D02*
X41853390Y-97722023D01*
X41853390Y-97722023D02*
X41901009Y-97674404D01*
X41901009Y-97674404D02*
X41996247Y-97626785D01*
X41996247Y-97626785D02*
X42234342Y-97626785D01*
X42234342Y-97626785D02*
X42329580Y-97674404D01*
X42329580Y-97674404D02*
X42377200Y-97722023D01*
X42377200Y-97722023D02*
X42424819Y-97817261D01*
X42424819Y-97817261D02*
X42424819Y-98102975D01*
X42424819Y-98102975D02*
X42377200Y-98198213D01*
X42377200Y-98198213D02*
X42329580Y-98245832D01*
X35894819Y-77333333D02*
X36609104Y-77333333D01*
X36609104Y-77333333D02*
X36751961Y-77380952D01*
X36751961Y-77380952D02*
X36847200Y-77476190D01*
X36847200Y-77476190D02*
X36894819Y-77619047D01*
X36894819Y-77619047D02*
X36894819Y-77714285D01*
X35990057Y-76904761D02*
X35942438Y-76857142D01*
X35942438Y-76857142D02*
X35894819Y-76761904D01*
X35894819Y-76761904D02*
X35894819Y-76523809D01*
X35894819Y-76523809D02*
X35942438Y-76428571D01*
X35942438Y-76428571D02*
X35990057Y-76380952D01*
X35990057Y-76380952D02*
X36085295Y-76333333D01*
X36085295Y-76333333D02*
X36180533Y-76333333D01*
X36180533Y-76333333D02*
X36323390Y-76380952D01*
X36323390Y-76380952D02*
X36894819Y-76952380D01*
X36894819Y-76952380D02*
X36894819Y-76333333D01*
X45333333Y-122454819D02*
X45000000Y-121978628D01*
X44761905Y-122454819D02*
X44761905Y-121454819D01*
X44761905Y-121454819D02*
X45142857Y-121454819D01*
X45142857Y-121454819D02*
X45238095Y-121502438D01*
X45238095Y-121502438D02*
X45285714Y-121550057D01*
X45285714Y-121550057D02*
X45333333Y-121645295D01*
X45333333Y-121645295D02*
X45333333Y-121788152D01*
X45333333Y-121788152D02*
X45285714Y-121883390D01*
X45285714Y-121883390D02*
X45238095Y-121931009D01*
X45238095Y-121931009D02*
X45142857Y-121978628D01*
X45142857Y-121978628D02*
X44761905Y-121978628D01*
X46238095Y-121454819D02*
X45761905Y-121454819D01*
X45761905Y-121454819D02*
X45714286Y-121931009D01*
X45714286Y-121931009D02*
X45761905Y-121883390D01*
X45761905Y-121883390D02*
X45857143Y-121835771D01*
X45857143Y-121835771D02*
X46095238Y-121835771D01*
X46095238Y-121835771D02*
X46190476Y-121883390D01*
X46190476Y-121883390D02*
X46238095Y-121931009D01*
X46238095Y-121931009D02*
X46285714Y-122026247D01*
X46285714Y-122026247D02*
X46285714Y-122264342D01*
X46285714Y-122264342D02*
X46238095Y-122359580D01*
X46238095Y-122359580D02*
X46190476Y-122407200D01*
X46190476Y-122407200D02*
X46095238Y-122454819D01*
X46095238Y-122454819D02*
X45857143Y-122454819D01*
X45857143Y-122454819D02*
X45761905Y-122407200D01*
X45761905Y-122407200D02*
X45714286Y-122359580D01*
X51359580Y-88166666D02*
X51407200Y-88214285D01*
X51407200Y-88214285D02*
X51454819Y-88357142D01*
X51454819Y-88357142D02*
X51454819Y-88452380D01*
X51454819Y-88452380D02*
X51407200Y-88595237D01*
X51407200Y-88595237D02*
X51311961Y-88690475D01*
X51311961Y-88690475D02*
X51216723Y-88738094D01*
X51216723Y-88738094D02*
X51026247Y-88785713D01*
X51026247Y-88785713D02*
X50883390Y-88785713D01*
X50883390Y-88785713D02*
X50692914Y-88738094D01*
X50692914Y-88738094D02*
X50597676Y-88690475D01*
X50597676Y-88690475D02*
X50502438Y-88595237D01*
X50502438Y-88595237D02*
X50454819Y-88452380D01*
X50454819Y-88452380D02*
X50454819Y-88357142D01*
X50454819Y-88357142D02*
X50502438Y-88214285D01*
X50502438Y-88214285D02*
X50550057Y-88166666D01*
X50454819Y-87833332D02*
X50454819Y-87166666D01*
X50454819Y-87166666D02*
X51454819Y-87595237D01*
X45333333Y-117454819D02*
X45000000Y-116978628D01*
X44761905Y-117454819D02*
X44761905Y-116454819D01*
X44761905Y-116454819D02*
X45142857Y-116454819D01*
X45142857Y-116454819D02*
X45238095Y-116502438D01*
X45238095Y-116502438D02*
X45285714Y-116550057D01*
X45285714Y-116550057D02*
X45333333Y-116645295D01*
X45333333Y-116645295D02*
X45333333Y-116788152D01*
X45333333Y-116788152D02*
X45285714Y-116883390D01*
X45285714Y-116883390D02*
X45238095Y-116931009D01*
X45238095Y-116931009D02*
X45142857Y-116978628D01*
X45142857Y-116978628D02*
X44761905Y-116978628D01*
X45666667Y-116454819D02*
X46285714Y-116454819D01*
X46285714Y-116454819D02*
X45952381Y-116835771D01*
X45952381Y-116835771D02*
X46095238Y-116835771D01*
X46095238Y-116835771D02*
X46190476Y-116883390D01*
X46190476Y-116883390D02*
X46238095Y-116931009D01*
X46238095Y-116931009D02*
X46285714Y-117026247D01*
X46285714Y-117026247D02*
X46285714Y-117264342D01*
X46285714Y-117264342D02*
X46238095Y-117359580D01*
X46238095Y-117359580D02*
X46190476Y-117407200D01*
X46190476Y-117407200D02*
X46095238Y-117454819D01*
X46095238Y-117454819D02*
X45809524Y-117454819D01*
X45809524Y-117454819D02*
X45714286Y-117407200D01*
X45714286Y-117407200D02*
X45666667Y-117359580D01*
X45333333Y-129954819D02*
X45000000Y-129478628D01*
X44761905Y-129954819D02*
X44761905Y-128954819D01*
X44761905Y-128954819D02*
X45142857Y-128954819D01*
X45142857Y-128954819D02*
X45238095Y-129002438D01*
X45238095Y-129002438D02*
X45285714Y-129050057D01*
X45285714Y-129050057D02*
X45333333Y-129145295D01*
X45333333Y-129145295D02*
X45333333Y-129288152D01*
X45333333Y-129288152D02*
X45285714Y-129383390D01*
X45285714Y-129383390D02*
X45238095Y-129431009D01*
X45238095Y-129431009D02*
X45142857Y-129478628D01*
X45142857Y-129478628D02*
X44761905Y-129478628D01*
X45904762Y-129383390D02*
X45809524Y-129335771D01*
X45809524Y-129335771D02*
X45761905Y-129288152D01*
X45761905Y-129288152D02*
X45714286Y-129192914D01*
X45714286Y-129192914D02*
X45714286Y-129145295D01*
X45714286Y-129145295D02*
X45761905Y-129050057D01*
X45761905Y-129050057D02*
X45809524Y-129002438D01*
X45809524Y-129002438D02*
X45904762Y-128954819D01*
X45904762Y-128954819D02*
X46095238Y-128954819D01*
X46095238Y-128954819D02*
X46190476Y-129002438D01*
X46190476Y-129002438D02*
X46238095Y-129050057D01*
X46238095Y-129050057D02*
X46285714Y-129145295D01*
X46285714Y-129145295D02*
X46285714Y-129192914D01*
X46285714Y-129192914D02*
X46238095Y-129288152D01*
X46238095Y-129288152D02*
X46190476Y-129335771D01*
X46190476Y-129335771D02*
X46095238Y-129383390D01*
X46095238Y-129383390D02*
X45904762Y-129383390D01*
X45904762Y-129383390D02*
X45809524Y-129431009D01*
X45809524Y-129431009D02*
X45761905Y-129478628D01*
X45761905Y-129478628D02*
X45714286Y-129573866D01*
X45714286Y-129573866D02*
X45714286Y-129764342D01*
X45714286Y-129764342D02*
X45761905Y-129859580D01*
X45761905Y-129859580D02*
X45809524Y-129907200D01*
X45809524Y-129907200D02*
X45904762Y-129954819D01*
X45904762Y-129954819D02*
X46095238Y-129954819D01*
X46095238Y-129954819D02*
X46190476Y-129907200D01*
X46190476Y-129907200D02*
X46238095Y-129859580D01*
X46238095Y-129859580D02*
X46285714Y-129764342D01*
X46285714Y-129764342D02*
X46285714Y-129573866D01*
X46285714Y-129573866D02*
X46238095Y-129478628D01*
X46238095Y-129478628D02*
X46190476Y-129431009D01*
X46190476Y-129431009D02*
X46095238Y-129383390D01*
X45333333Y-124954819D02*
X45000000Y-124478628D01*
X44761905Y-124954819D02*
X44761905Y-123954819D01*
X44761905Y-123954819D02*
X45142857Y-123954819D01*
X45142857Y-123954819D02*
X45238095Y-124002438D01*
X45238095Y-124002438D02*
X45285714Y-124050057D01*
X45285714Y-124050057D02*
X45333333Y-124145295D01*
X45333333Y-124145295D02*
X45333333Y-124288152D01*
X45333333Y-124288152D02*
X45285714Y-124383390D01*
X45285714Y-124383390D02*
X45238095Y-124431009D01*
X45238095Y-124431009D02*
X45142857Y-124478628D01*
X45142857Y-124478628D02*
X44761905Y-124478628D01*
X46190476Y-123954819D02*
X46000000Y-123954819D01*
X46000000Y-123954819D02*
X45904762Y-124002438D01*
X45904762Y-124002438D02*
X45857143Y-124050057D01*
X45857143Y-124050057D02*
X45761905Y-124192914D01*
X45761905Y-124192914D02*
X45714286Y-124383390D01*
X45714286Y-124383390D02*
X45714286Y-124764342D01*
X45714286Y-124764342D02*
X45761905Y-124859580D01*
X45761905Y-124859580D02*
X45809524Y-124907200D01*
X45809524Y-124907200D02*
X45904762Y-124954819D01*
X45904762Y-124954819D02*
X46095238Y-124954819D01*
X46095238Y-124954819D02*
X46190476Y-124907200D01*
X46190476Y-124907200D02*
X46238095Y-124859580D01*
X46238095Y-124859580D02*
X46285714Y-124764342D01*
X46285714Y-124764342D02*
X46285714Y-124526247D01*
X46285714Y-124526247D02*
X46238095Y-124431009D01*
X46238095Y-124431009D02*
X46190476Y-124383390D01*
X46190476Y-124383390D02*
X46095238Y-124335771D01*
X46095238Y-124335771D02*
X45904762Y-124335771D01*
X45904762Y-124335771D02*
X45809524Y-124383390D01*
X45809524Y-124383390D02*
X45761905Y-124431009D01*
X45761905Y-124431009D02*
X45714286Y-124526247D01*
X48859580Y-88166666D02*
X48907200Y-88214285D01*
X48907200Y-88214285D02*
X48954819Y-88357142D01*
X48954819Y-88357142D02*
X48954819Y-88452380D01*
X48954819Y-88452380D02*
X48907200Y-88595237D01*
X48907200Y-88595237D02*
X48811961Y-88690475D01*
X48811961Y-88690475D02*
X48716723Y-88738094D01*
X48716723Y-88738094D02*
X48526247Y-88785713D01*
X48526247Y-88785713D02*
X48383390Y-88785713D01*
X48383390Y-88785713D02*
X48192914Y-88738094D01*
X48192914Y-88738094D02*
X48097676Y-88690475D01*
X48097676Y-88690475D02*
X48002438Y-88595237D01*
X48002438Y-88595237D02*
X47954819Y-88452380D01*
X47954819Y-88452380D02*
X47954819Y-88357142D01*
X47954819Y-88357142D02*
X48002438Y-88214285D01*
X48002438Y-88214285D02*
X48050057Y-88166666D01*
X47954819Y-87309523D02*
X47954819Y-87499999D01*
X47954819Y-87499999D02*
X48002438Y-87595237D01*
X48002438Y-87595237D02*
X48050057Y-87642856D01*
X48050057Y-87642856D02*
X48192914Y-87738094D01*
X48192914Y-87738094D02*
X48383390Y-87785713D01*
X48383390Y-87785713D02*
X48764342Y-87785713D01*
X48764342Y-87785713D02*
X48859580Y-87738094D01*
X48859580Y-87738094D02*
X48907200Y-87690475D01*
X48907200Y-87690475D02*
X48954819Y-87595237D01*
X48954819Y-87595237D02*
X48954819Y-87404761D01*
X48954819Y-87404761D02*
X48907200Y-87309523D01*
X48907200Y-87309523D02*
X48859580Y-87261904D01*
X48859580Y-87261904D02*
X48764342Y-87214285D01*
X48764342Y-87214285D02*
X48526247Y-87214285D01*
X48526247Y-87214285D02*
X48431009Y-87261904D01*
X48431009Y-87261904D02*
X48383390Y-87309523D01*
X48383390Y-87309523D02*
X48335771Y-87404761D01*
X48335771Y-87404761D02*
X48335771Y-87595237D01*
X48335771Y-87595237D02*
X48383390Y-87690475D01*
X48383390Y-87690475D02*
X48431009Y-87738094D01*
X48431009Y-87738094D02*
X48526247Y-87785713D01*
X53859580Y-88166666D02*
X53907200Y-88214285D01*
X53907200Y-88214285D02*
X53954819Y-88357142D01*
X53954819Y-88357142D02*
X53954819Y-88452380D01*
X53954819Y-88452380D02*
X53907200Y-88595237D01*
X53907200Y-88595237D02*
X53811961Y-88690475D01*
X53811961Y-88690475D02*
X53716723Y-88738094D01*
X53716723Y-88738094D02*
X53526247Y-88785713D01*
X53526247Y-88785713D02*
X53383390Y-88785713D01*
X53383390Y-88785713D02*
X53192914Y-88738094D01*
X53192914Y-88738094D02*
X53097676Y-88690475D01*
X53097676Y-88690475D02*
X53002438Y-88595237D01*
X53002438Y-88595237D02*
X52954819Y-88452380D01*
X52954819Y-88452380D02*
X52954819Y-88357142D01*
X52954819Y-88357142D02*
X53002438Y-88214285D01*
X53002438Y-88214285D02*
X53050057Y-88166666D01*
X53383390Y-87595237D02*
X53335771Y-87690475D01*
X53335771Y-87690475D02*
X53288152Y-87738094D01*
X53288152Y-87738094D02*
X53192914Y-87785713D01*
X53192914Y-87785713D02*
X53145295Y-87785713D01*
X53145295Y-87785713D02*
X53050057Y-87738094D01*
X53050057Y-87738094D02*
X53002438Y-87690475D01*
X53002438Y-87690475D02*
X52954819Y-87595237D01*
X52954819Y-87595237D02*
X52954819Y-87404761D01*
X52954819Y-87404761D02*
X53002438Y-87309523D01*
X53002438Y-87309523D02*
X53050057Y-87261904D01*
X53050057Y-87261904D02*
X53145295Y-87214285D01*
X53145295Y-87214285D02*
X53192914Y-87214285D01*
X53192914Y-87214285D02*
X53288152Y-87261904D01*
X53288152Y-87261904D02*
X53335771Y-87309523D01*
X53335771Y-87309523D02*
X53383390Y-87404761D01*
X53383390Y-87404761D02*
X53383390Y-87595237D01*
X53383390Y-87595237D02*
X53431009Y-87690475D01*
X53431009Y-87690475D02*
X53478628Y-87738094D01*
X53478628Y-87738094D02*
X53573866Y-87785713D01*
X53573866Y-87785713D02*
X53764342Y-87785713D01*
X53764342Y-87785713D02*
X53859580Y-87738094D01*
X53859580Y-87738094D02*
X53907200Y-87690475D01*
X53907200Y-87690475D02*
X53954819Y-87595237D01*
X53954819Y-87595237D02*
X53954819Y-87404761D01*
X53954819Y-87404761D02*
X53907200Y-87309523D01*
X53907200Y-87309523D02*
X53859580Y-87261904D01*
X53859580Y-87261904D02*
X53764342Y-87214285D01*
X53764342Y-87214285D02*
X53573866Y-87214285D01*
X53573866Y-87214285D02*
X53478628Y-87261904D01*
X53478628Y-87261904D02*
X53431009Y-87309523D01*
X53431009Y-87309523D02*
X53383390Y-87404761D01*
X45357142Y-139954819D02*
X45023809Y-139478628D01*
X44785714Y-139954819D02*
X44785714Y-138954819D01*
X44785714Y-138954819D02*
X45166666Y-138954819D01*
X45166666Y-138954819D02*
X45261904Y-139002438D01*
X45261904Y-139002438D02*
X45309523Y-139050057D01*
X45309523Y-139050057D02*
X45357142Y-139145295D01*
X45357142Y-139145295D02*
X45357142Y-139288152D01*
X45357142Y-139288152D02*
X45309523Y-139383390D01*
X45309523Y-139383390D02*
X45261904Y-139431009D01*
X45261904Y-139431009D02*
X45166666Y-139478628D01*
X45166666Y-139478628D02*
X44785714Y-139478628D01*
X46309523Y-139954819D02*
X45738095Y-139954819D01*
X46023809Y-139954819D02*
X46023809Y-138954819D01*
X46023809Y-138954819D02*
X45928571Y-139097676D01*
X45928571Y-139097676D02*
X45833333Y-139192914D01*
X45833333Y-139192914D02*
X45738095Y-139240533D01*
X46690476Y-139050057D02*
X46738095Y-139002438D01*
X46738095Y-139002438D02*
X46833333Y-138954819D01*
X46833333Y-138954819D02*
X47071428Y-138954819D01*
X47071428Y-138954819D02*
X47166666Y-139002438D01*
X47166666Y-139002438D02*
X47214285Y-139050057D01*
X47214285Y-139050057D02*
X47261904Y-139145295D01*
X47261904Y-139145295D02*
X47261904Y-139240533D01*
X47261904Y-139240533D02*
X47214285Y-139383390D01*
X47214285Y-139383390D02*
X46642857Y-139954819D01*
X46642857Y-139954819D02*
X47261904Y-139954819D01*
X45357142Y-134954819D02*
X45023809Y-134478628D01*
X44785714Y-134954819D02*
X44785714Y-133954819D01*
X44785714Y-133954819D02*
X45166666Y-133954819D01*
X45166666Y-133954819D02*
X45261904Y-134002438D01*
X45261904Y-134002438D02*
X45309523Y-134050057D01*
X45309523Y-134050057D02*
X45357142Y-134145295D01*
X45357142Y-134145295D02*
X45357142Y-134288152D01*
X45357142Y-134288152D02*
X45309523Y-134383390D01*
X45309523Y-134383390D02*
X45261904Y-134431009D01*
X45261904Y-134431009D02*
X45166666Y-134478628D01*
X45166666Y-134478628D02*
X44785714Y-134478628D01*
X46309523Y-134954819D02*
X45738095Y-134954819D01*
X46023809Y-134954819D02*
X46023809Y-133954819D01*
X46023809Y-133954819D02*
X45928571Y-134097676D01*
X45928571Y-134097676D02*
X45833333Y-134192914D01*
X45833333Y-134192914D02*
X45738095Y-134240533D01*
X46928571Y-133954819D02*
X47023809Y-133954819D01*
X47023809Y-133954819D02*
X47119047Y-134002438D01*
X47119047Y-134002438D02*
X47166666Y-134050057D01*
X47166666Y-134050057D02*
X47214285Y-134145295D01*
X47214285Y-134145295D02*
X47261904Y-134335771D01*
X47261904Y-134335771D02*
X47261904Y-134573866D01*
X47261904Y-134573866D02*
X47214285Y-134764342D01*
X47214285Y-134764342D02*
X47166666Y-134859580D01*
X47166666Y-134859580D02*
X47119047Y-134907200D01*
X47119047Y-134907200D02*
X47023809Y-134954819D01*
X47023809Y-134954819D02*
X46928571Y-134954819D01*
X46928571Y-134954819D02*
X46833333Y-134907200D01*
X46833333Y-134907200D02*
X46785714Y-134859580D01*
X46785714Y-134859580D02*
X46738095Y-134764342D01*
X46738095Y-134764342D02*
X46690476Y-134573866D01*
X46690476Y-134573866D02*
X46690476Y-134335771D01*
X46690476Y-134335771D02*
X46738095Y-134145295D01*
X46738095Y-134145295D02*
X46785714Y-134050057D01*
X46785714Y-134050057D02*
X46833333Y-134002438D01*
X46833333Y-134002438D02*
X46928571Y-133954819D01*
X45357142Y-147454819D02*
X45023809Y-146978628D01*
X44785714Y-147454819D02*
X44785714Y-146454819D01*
X44785714Y-146454819D02*
X45166666Y-146454819D01*
X45166666Y-146454819D02*
X45261904Y-146502438D01*
X45261904Y-146502438D02*
X45309523Y-146550057D01*
X45309523Y-146550057D02*
X45357142Y-146645295D01*
X45357142Y-146645295D02*
X45357142Y-146788152D01*
X45357142Y-146788152D02*
X45309523Y-146883390D01*
X45309523Y-146883390D02*
X45261904Y-146931009D01*
X45261904Y-146931009D02*
X45166666Y-146978628D01*
X45166666Y-146978628D02*
X44785714Y-146978628D01*
X46309523Y-147454819D02*
X45738095Y-147454819D01*
X46023809Y-147454819D02*
X46023809Y-146454819D01*
X46023809Y-146454819D02*
X45928571Y-146597676D01*
X45928571Y-146597676D02*
X45833333Y-146692914D01*
X45833333Y-146692914D02*
X45738095Y-146740533D01*
X47214285Y-146454819D02*
X46738095Y-146454819D01*
X46738095Y-146454819D02*
X46690476Y-146931009D01*
X46690476Y-146931009D02*
X46738095Y-146883390D01*
X46738095Y-146883390D02*
X46833333Y-146835771D01*
X46833333Y-146835771D02*
X47071428Y-146835771D01*
X47071428Y-146835771D02*
X47166666Y-146883390D01*
X47166666Y-146883390D02*
X47214285Y-146931009D01*
X47214285Y-146931009D02*
X47261904Y-147026247D01*
X47261904Y-147026247D02*
X47261904Y-147264342D01*
X47261904Y-147264342D02*
X47214285Y-147359580D01*
X47214285Y-147359580D02*
X47166666Y-147407200D01*
X47166666Y-147407200D02*
X47071428Y-147454819D01*
X47071428Y-147454819D02*
X46833333Y-147454819D01*
X46833333Y-147454819D02*
X46738095Y-147407200D01*
X46738095Y-147407200D02*
X46690476Y-147359580D01*
X45357142Y-137454819D02*
X45023809Y-136978628D01*
X44785714Y-137454819D02*
X44785714Y-136454819D01*
X44785714Y-136454819D02*
X45166666Y-136454819D01*
X45166666Y-136454819D02*
X45261904Y-136502438D01*
X45261904Y-136502438D02*
X45309523Y-136550057D01*
X45309523Y-136550057D02*
X45357142Y-136645295D01*
X45357142Y-136645295D02*
X45357142Y-136788152D01*
X45357142Y-136788152D02*
X45309523Y-136883390D01*
X45309523Y-136883390D02*
X45261904Y-136931009D01*
X45261904Y-136931009D02*
X45166666Y-136978628D01*
X45166666Y-136978628D02*
X44785714Y-136978628D01*
X46309523Y-137454819D02*
X45738095Y-137454819D01*
X46023809Y-137454819D02*
X46023809Y-136454819D01*
X46023809Y-136454819D02*
X45928571Y-136597676D01*
X45928571Y-136597676D02*
X45833333Y-136692914D01*
X45833333Y-136692914D02*
X45738095Y-136740533D01*
X47261904Y-137454819D02*
X46690476Y-137454819D01*
X46976190Y-137454819D02*
X46976190Y-136454819D01*
X46976190Y-136454819D02*
X46880952Y-136597676D01*
X46880952Y-136597676D02*
X46785714Y-136692914D01*
X46785714Y-136692914D02*
X46690476Y-136740533D01*
X79166666Y-73954819D02*
X79166666Y-74669104D01*
X79166666Y-74669104D02*
X79119047Y-74811961D01*
X79119047Y-74811961D02*
X79023809Y-74907200D01*
X79023809Y-74907200D02*
X78880952Y-74954819D01*
X78880952Y-74954819D02*
X78785714Y-74954819D01*
X79642857Y-74954819D02*
X79642857Y-73954819D01*
X79642857Y-73954819D02*
X80023809Y-73954819D01*
X80023809Y-73954819D02*
X80119047Y-74002438D01*
X80119047Y-74002438D02*
X80166666Y-74050057D01*
X80166666Y-74050057D02*
X80214285Y-74145295D01*
X80214285Y-74145295D02*
X80214285Y-74288152D01*
X80214285Y-74288152D02*
X80166666Y-74383390D01*
X80166666Y-74383390D02*
X80119047Y-74431009D01*
X80119047Y-74431009D02*
X80023809Y-74478628D01*
X80023809Y-74478628D02*
X79642857Y-74478628D01*
X81166666Y-74954819D02*
X80595238Y-74954819D01*
X80880952Y-74954819D02*
X80880952Y-73954819D01*
X80880952Y-73954819D02*
X80785714Y-74097676D01*
X80785714Y-74097676D02*
X80690476Y-74192914D01*
X80690476Y-74192914D02*
X80595238Y-74240533D01*
X76859580Y-82142857D02*
X76907200Y-82190476D01*
X76907200Y-82190476D02*
X76954819Y-82333333D01*
X76954819Y-82333333D02*
X76954819Y-82428571D01*
X76954819Y-82428571D02*
X76907200Y-82571428D01*
X76907200Y-82571428D02*
X76811961Y-82666666D01*
X76811961Y-82666666D02*
X76716723Y-82714285D01*
X76716723Y-82714285D02*
X76526247Y-82761904D01*
X76526247Y-82761904D02*
X76383390Y-82761904D01*
X76383390Y-82761904D02*
X76192914Y-82714285D01*
X76192914Y-82714285D02*
X76097676Y-82666666D01*
X76097676Y-82666666D02*
X76002438Y-82571428D01*
X76002438Y-82571428D02*
X75954819Y-82428571D01*
X75954819Y-82428571D02*
X75954819Y-82333333D01*
X75954819Y-82333333D02*
X76002438Y-82190476D01*
X76002438Y-82190476D02*
X76050057Y-82142857D01*
X76954819Y-81190476D02*
X76954819Y-81761904D01*
X76954819Y-81476190D02*
X75954819Y-81476190D01*
X75954819Y-81476190D02*
X76097676Y-81571428D01*
X76097676Y-81571428D02*
X76192914Y-81666666D01*
X76192914Y-81666666D02*
X76240533Y-81761904D01*
X75954819Y-80857142D02*
X75954819Y-80190476D01*
X75954819Y-80190476D02*
X76954819Y-80619047D01*
X58859580Y-89142857D02*
X58907200Y-89190476D01*
X58907200Y-89190476D02*
X58954819Y-89333333D01*
X58954819Y-89333333D02*
X58954819Y-89428571D01*
X58954819Y-89428571D02*
X58907200Y-89571428D01*
X58907200Y-89571428D02*
X58811961Y-89666666D01*
X58811961Y-89666666D02*
X58716723Y-89714285D01*
X58716723Y-89714285D02*
X58526247Y-89761904D01*
X58526247Y-89761904D02*
X58383390Y-89761904D01*
X58383390Y-89761904D02*
X58192914Y-89714285D01*
X58192914Y-89714285D02*
X58097676Y-89666666D01*
X58097676Y-89666666D02*
X58002438Y-89571428D01*
X58002438Y-89571428D02*
X57954819Y-89428571D01*
X57954819Y-89428571D02*
X57954819Y-89333333D01*
X57954819Y-89333333D02*
X58002438Y-89190476D01*
X58002438Y-89190476D02*
X58050057Y-89142857D01*
X58954819Y-88190476D02*
X58954819Y-88761904D01*
X58954819Y-88476190D02*
X57954819Y-88476190D01*
X57954819Y-88476190D02*
X58097676Y-88571428D01*
X58097676Y-88571428D02*
X58192914Y-88666666D01*
X58192914Y-88666666D02*
X58240533Y-88761904D01*
X57954819Y-87571428D02*
X57954819Y-87476190D01*
X57954819Y-87476190D02*
X58002438Y-87380952D01*
X58002438Y-87380952D02*
X58050057Y-87333333D01*
X58050057Y-87333333D02*
X58145295Y-87285714D01*
X58145295Y-87285714D02*
X58335771Y-87238095D01*
X58335771Y-87238095D02*
X58573866Y-87238095D01*
X58573866Y-87238095D02*
X58764342Y-87285714D01*
X58764342Y-87285714D02*
X58859580Y-87333333D01*
X58859580Y-87333333D02*
X58907200Y-87380952D01*
X58907200Y-87380952D02*
X58954819Y-87476190D01*
X58954819Y-87476190D02*
X58954819Y-87571428D01*
X58954819Y-87571428D02*
X58907200Y-87666666D01*
X58907200Y-87666666D02*
X58859580Y-87714285D01*
X58859580Y-87714285D02*
X58764342Y-87761904D01*
X58764342Y-87761904D02*
X58573866Y-87809523D01*
X58573866Y-87809523D02*
X58335771Y-87809523D01*
X58335771Y-87809523D02*
X58145295Y-87761904D01*
X58145295Y-87761904D02*
X58050057Y-87714285D01*
X58050057Y-87714285D02*
X58002438Y-87666666D01*
X58002438Y-87666666D02*
X57954819Y-87571428D01*
X45357142Y-149954819D02*
X45023809Y-149478628D01*
X44785714Y-149954819D02*
X44785714Y-148954819D01*
X44785714Y-148954819D02*
X45166666Y-148954819D01*
X45166666Y-148954819D02*
X45261904Y-149002438D01*
X45261904Y-149002438D02*
X45309523Y-149050057D01*
X45309523Y-149050057D02*
X45357142Y-149145295D01*
X45357142Y-149145295D02*
X45357142Y-149288152D01*
X45357142Y-149288152D02*
X45309523Y-149383390D01*
X45309523Y-149383390D02*
X45261904Y-149431009D01*
X45261904Y-149431009D02*
X45166666Y-149478628D01*
X45166666Y-149478628D02*
X44785714Y-149478628D01*
X46309523Y-149954819D02*
X45738095Y-149954819D01*
X46023809Y-149954819D02*
X46023809Y-148954819D01*
X46023809Y-148954819D02*
X45928571Y-149097676D01*
X45928571Y-149097676D02*
X45833333Y-149192914D01*
X45833333Y-149192914D02*
X45738095Y-149240533D01*
X47166666Y-148954819D02*
X46976190Y-148954819D01*
X46976190Y-148954819D02*
X46880952Y-149002438D01*
X46880952Y-149002438D02*
X46833333Y-149050057D01*
X46833333Y-149050057D02*
X46738095Y-149192914D01*
X46738095Y-149192914D02*
X46690476Y-149383390D01*
X46690476Y-149383390D02*
X46690476Y-149764342D01*
X46690476Y-149764342D02*
X46738095Y-149859580D01*
X46738095Y-149859580D02*
X46785714Y-149907200D01*
X46785714Y-149907200D02*
X46880952Y-149954819D01*
X46880952Y-149954819D02*
X47071428Y-149954819D01*
X47071428Y-149954819D02*
X47166666Y-149907200D01*
X47166666Y-149907200D02*
X47214285Y-149859580D01*
X47214285Y-149859580D02*
X47261904Y-149764342D01*
X47261904Y-149764342D02*
X47261904Y-149526247D01*
X47261904Y-149526247D02*
X47214285Y-149431009D01*
X47214285Y-149431009D02*
X47166666Y-149383390D01*
X47166666Y-149383390D02*
X47071428Y-149335771D01*
X47071428Y-149335771D02*
X46880952Y-149335771D01*
X46880952Y-149335771D02*
X46785714Y-149383390D01*
X46785714Y-149383390D02*
X46738095Y-149431009D01*
X46738095Y-149431009D02*
X46690476Y-149526247D01*
X45333333Y-119954819D02*
X45000000Y-119478628D01*
X44761905Y-119954819D02*
X44761905Y-118954819D01*
X44761905Y-118954819D02*
X45142857Y-118954819D01*
X45142857Y-118954819D02*
X45238095Y-119002438D01*
X45238095Y-119002438D02*
X45285714Y-119050057D01*
X45285714Y-119050057D02*
X45333333Y-119145295D01*
X45333333Y-119145295D02*
X45333333Y-119288152D01*
X45333333Y-119288152D02*
X45285714Y-119383390D01*
X45285714Y-119383390D02*
X45238095Y-119431009D01*
X45238095Y-119431009D02*
X45142857Y-119478628D01*
X45142857Y-119478628D02*
X44761905Y-119478628D01*
X46190476Y-119288152D02*
X46190476Y-119954819D01*
X45952381Y-118907200D02*
X45714286Y-119621485D01*
X45714286Y-119621485D02*
X46333333Y-119621485D01*
X64359580Y-82142857D02*
X64407200Y-82190476D01*
X64407200Y-82190476D02*
X64454819Y-82333333D01*
X64454819Y-82333333D02*
X64454819Y-82428571D01*
X64454819Y-82428571D02*
X64407200Y-82571428D01*
X64407200Y-82571428D02*
X64311961Y-82666666D01*
X64311961Y-82666666D02*
X64216723Y-82714285D01*
X64216723Y-82714285D02*
X64026247Y-82761904D01*
X64026247Y-82761904D02*
X63883390Y-82761904D01*
X63883390Y-82761904D02*
X63692914Y-82714285D01*
X63692914Y-82714285D02*
X63597676Y-82666666D01*
X63597676Y-82666666D02*
X63502438Y-82571428D01*
X63502438Y-82571428D02*
X63454819Y-82428571D01*
X63454819Y-82428571D02*
X63454819Y-82333333D01*
X63454819Y-82333333D02*
X63502438Y-82190476D01*
X63502438Y-82190476D02*
X63550057Y-82142857D01*
X64454819Y-81190476D02*
X64454819Y-81761904D01*
X64454819Y-81476190D02*
X63454819Y-81476190D01*
X63454819Y-81476190D02*
X63597676Y-81571428D01*
X63597676Y-81571428D02*
X63692914Y-81666666D01*
X63692914Y-81666666D02*
X63740533Y-81761904D01*
X63550057Y-80809523D02*
X63502438Y-80761904D01*
X63502438Y-80761904D02*
X63454819Y-80666666D01*
X63454819Y-80666666D02*
X63454819Y-80428571D01*
X63454819Y-80428571D02*
X63502438Y-80333333D01*
X63502438Y-80333333D02*
X63550057Y-80285714D01*
X63550057Y-80285714D02*
X63645295Y-80238095D01*
X63645295Y-80238095D02*
X63740533Y-80238095D01*
X63740533Y-80238095D02*
X63883390Y-80285714D01*
X63883390Y-80285714D02*
X64454819Y-80857142D01*
X64454819Y-80857142D02*
X64454819Y-80238095D01*
X56359580Y-88166666D02*
X56407200Y-88214285D01*
X56407200Y-88214285D02*
X56454819Y-88357142D01*
X56454819Y-88357142D02*
X56454819Y-88452380D01*
X56454819Y-88452380D02*
X56407200Y-88595237D01*
X56407200Y-88595237D02*
X56311961Y-88690475D01*
X56311961Y-88690475D02*
X56216723Y-88738094D01*
X56216723Y-88738094D02*
X56026247Y-88785713D01*
X56026247Y-88785713D02*
X55883390Y-88785713D01*
X55883390Y-88785713D02*
X55692914Y-88738094D01*
X55692914Y-88738094D02*
X55597676Y-88690475D01*
X55597676Y-88690475D02*
X55502438Y-88595237D01*
X55502438Y-88595237D02*
X55454819Y-88452380D01*
X55454819Y-88452380D02*
X55454819Y-88357142D01*
X55454819Y-88357142D02*
X55502438Y-88214285D01*
X55502438Y-88214285D02*
X55550057Y-88166666D01*
X56454819Y-87690475D02*
X56454819Y-87499999D01*
X56454819Y-87499999D02*
X56407200Y-87404761D01*
X56407200Y-87404761D02*
X56359580Y-87357142D01*
X56359580Y-87357142D02*
X56216723Y-87261904D01*
X56216723Y-87261904D02*
X56026247Y-87214285D01*
X56026247Y-87214285D02*
X55645295Y-87214285D01*
X55645295Y-87214285D02*
X55550057Y-87261904D01*
X55550057Y-87261904D02*
X55502438Y-87309523D01*
X55502438Y-87309523D02*
X55454819Y-87404761D01*
X55454819Y-87404761D02*
X55454819Y-87595237D01*
X55454819Y-87595237D02*
X55502438Y-87690475D01*
X55502438Y-87690475D02*
X55550057Y-87738094D01*
X55550057Y-87738094D02*
X55645295Y-87785713D01*
X55645295Y-87785713D02*
X55883390Y-87785713D01*
X55883390Y-87785713D02*
X55978628Y-87738094D01*
X55978628Y-87738094D02*
X56026247Y-87690475D01*
X56026247Y-87690475D02*
X56073866Y-87595237D01*
X56073866Y-87595237D02*
X56073866Y-87404761D01*
X56073866Y-87404761D02*
X56026247Y-87309523D01*
X56026247Y-87309523D02*
X55978628Y-87261904D01*
X55978628Y-87261904D02*
X55883390Y-87214285D01*
X37349580Y-98579166D02*
X37397200Y-98626785D01*
X37397200Y-98626785D02*
X37444819Y-98769642D01*
X37444819Y-98769642D02*
X37444819Y-98864880D01*
X37444819Y-98864880D02*
X37397200Y-99007737D01*
X37397200Y-99007737D02*
X37301961Y-99102975D01*
X37301961Y-99102975D02*
X37206723Y-99150594D01*
X37206723Y-99150594D02*
X37016247Y-99198213D01*
X37016247Y-99198213D02*
X36873390Y-99198213D01*
X36873390Y-99198213D02*
X36682914Y-99150594D01*
X36682914Y-99150594D02*
X36587676Y-99102975D01*
X36587676Y-99102975D02*
X36492438Y-99007737D01*
X36492438Y-99007737D02*
X36444819Y-98864880D01*
X36444819Y-98864880D02*
X36444819Y-98769642D01*
X36444819Y-98769642D02*
X36492438Y-98626785D01*
X36492438Y-98626785D02*
X36540057Y-98579166D01*
X37444819Y-97626785D02*
X37444819Y-98198213D01*
X37444819Y-97912499D02*
X36444819Y-97912499D01*
X36444819Y-97912499D02*
X36587676Y-98007737D01*
X36587676Y-98007737D02*
X36682914Y-98102975D01*
X36682914Y-98102975D02*
X36730533Y-98198213D01*
X61859580Y-82142857D02*
X61907200Y-82190476D01*
X61907200Y-82190476D02*
X61954819Y-82333333D01*
X61954819Y-82333333D02*
X61954819Y-82428571D01*
X61954819Y-82428571D02*
X61907200Y-82571428D01*
X61907200Y-82571428D02*
X61811961Y-82666666D01*
X61811961Y-82666666D02*
X61716723Y-82714285D01*
X61716723Y-82714285D02*
X61526247Y-82761904D01*
X61526247Y-82761904D02*
X61383390Y-82761904D01*
X61383390Y-82761904D02*
X61192914Y-82714285D01*
X61192914Y-82714285D02*
X61097676Y-82666666D01*
X61097676Y-82666666D02*
X61002438Y-82571428D01*
X61002438Y-82571428D02*
X60954819Y-82428571D01*
X60954819Y-82428571D02*
X60954819Y-82333333D01*
X60954819Y-82333333D02*
X61002438Y-82190476D01*
X61002438Y-82190476D02*
X61050057Y-82142857D01*
X61954819Y-81190476D02*
X61954819Y-81761904D01*
X61954819Y-81476190D02*
X60954819Y-81476190D01*
X60954819Y-81476190D02*
X61097676Y-81571428D01*
X61097676Y-81571428D02*
X61192914Y-81666666D01*
X61192914Y-81666666D02*
X61240533Y-81761904D01*
X61954819Y-80238095D02*
X61954819Y-80809523D01*
X61954819Y-80523809D02*
X60954819Y-80523809D01*
X60954819Y-80523809D02*
X61097676Y-80619047D01*
X61097676Y-80619047D02*
X61192914Y-80714285D01*
X61192914Y-80714285D02*
X61240533Y-80809523D01*
X45357142Y-154954819D02*
X45023809Y-154478628D01*
X44785714Y-154954819D02*
X44785714Y-153954819D01*
X44785714Y-153954819D02*
X45166666Y-153954819D01*
X45166666Y-153954819D02*
X45261904Y-154002438D01*
X45261904Y-154002438D02*
X45309523Y-154050057D01*
X45309523Y-154050057D02*
X45357142Y-154145295D01*
X45357142Y-154145295D02*
X45357142Y-154288152D01*
X45357142Y-154288152D02*
X45309523Y-154383390D01*
X45309523Y-154383390D02*
X45261904Y-154431009D01*
X45261904Y-154431009D02*
X45166666Y-154478628D01*
X45166666Y-154478628D02*
X44785714Y-154478628D01*
X46309523Y-154954819D02*
X45738095Y-154954819D01*
X46023809Y-154954819D02*
X46023809Y-153954819D01*
X46023809Y-153954819D02*
X45928571Y-154097676D01*
X45928571Y-154097676D02*
X45833333Y-154192914D01*
X45833333Y-154192914D02*
X45738095Y-154240533D01*
X46880952Y-154383390D02*
X46785714Y-154335771D01*
X46785714Y-154335771D02*
X46738095Y-154288152D01*
X46738095Y-154288152D02*
X46690476Y-154192914D01*
X46690476Y-154192914D02*
X46690476Y-154145295D01*
X46690476Y-154145295D02*
X46738095Y-154050057D01*
X46738095Y-154050057D02*
X46785714Y-154002438D01*
X46785714Y-154002438D02*
X46880952Y-153954819D01*
X46880952Y-153954819D02*
X47071428Y-153954819D01*
X47071428Y-153954819D02*
X47166666Y-154002438D01*
X47166666Y-154002438D02*
X47214285Y-154050057D01*
X47214285Y-154050057D02*
X47261904Y-154145295D01*
X47261904Y-154145295D02*
X47261904Y-154192914D01*
X47261904Y-154192914D02*
X47214285Y-154288152D01*
X47214285Y-154288152D02*
X47166666Y-154335771D01*
X47166666Y-154335771D02*
X47071428Y-154383390D01*
X47071428Y-154383390D02*
X46880952Y-154383390D01*
X46880952Y-154383390D02*
X46785714Y-154431009D01*
X46785714Y-154431009D02*
X46738095Y-154478628D01*
X46738095Y-154478628D02*
X46690476Y-154573866D01*
X46690476Y-154573866D02*
X46690476Y-154764342D01*
X46690476Y-154764342D02*
X46738095Y-154859580D01*
X46738095Y-154859580D02*
X46785714Y-154907200D01*
X46785714Y-154907200D02*
X46880952Y-154954819D01*
X46880952Y-154954819D02*
X47071428Y-154954819D01*
X47071428Y-154954819D02*
X47166666Y-154907200D01*
X47166666Y-154907200D02*
X47214285Y-154859580D01*
X47214285Y-154859580D02*
X47261904Y-154764342D01*
X47261904Y-154764342D02*
X47261904Y-154573866D01*
X47261904Y-154573866D02*
X47214285Y-154478628D01*
X47214285Y-154478628D02*
X47166666Y-154431009D01*
X47166666Y-154431009D02*
X47071428Y-154383390D01*
X45333333Y-132454819D02*
X45000000Y-131978628D01*
X44761905Y-132454819D02*
X44761905Y-131454819D01*
X44761905Y-131454819D02*
X45142857Y-131454819D01*
X45142857Y-131454819D02*
X45238095Y-131502438D01*
X45238095Y-131502438D02*
X45285714Y-131550057D01*
X45285714Y-131550057D02*
X45333333Y-131645295D01*
X45333333Y-131645295D02*
X45333333Y-131788152D01*
X45333333Y-131788152D02*
X45285714Y-131883390D01*
X45285714Y-131883390D02*
X45238095Y-131931009D01*
X45238095Y-131931009D02*
X45142857Y-131978628D01*
X45142857Y-131978628D02*
X44761905Y-131978628D01*
X45809524Y-132454819D02*
X46000000Y-132454819D01*
X46000000Y-132454819D02*
X46095238Y-132407200D01*
X46095238Y-132407200D02*
X46142857Y-132359580D01*
X46142857Y-132359580D02*
X46238095Y-132216723D01*
X46238095Y-132216723D02*
X46285714Y-132026247D01*
X46285714Y-132026247D02*
X46285714Y-131645295D01*
X46285714Y-131645295D02*
X46238095Y-131550057D01*
X46238095Y-131550057D02*
X46190476Y-131502438D01*
X46190476Y-131502438D02*
X46095238Y-131454819D01*
X46095238Y-131454819D02*
X45904762Y-131454819D01*
X45904762Y-131454819D02*
X45809524Y-131502438D01*
X45809524Y-131502438D02*
X45761905Y-131550057D01*
X45761905Y-131550057D02*
X45714286Y-131645295D01*
X45714286Y-131645295D02*
X45714286Y-131883390D01*
X45714286Y-131883390D02*
X45761905Y-131978628D01*
X45761905Y-131978628D02*
X45809524Y-132026247D01*
X45809524Y-132026247D02*
X45904762Y-132073866D01*
X45904762Y-132073866D02*
X46095238Y-132073866D01*
X46095238Y-132073866D02*
X46190476Y-132026247D01*
X46190476Y-132026247D02*
X46238095Y-131978628D01*
X46238095Y-131978628D02*
X46285714Y-131883390D01*
X69359580Y-82142857D02*
X69407200Y-82190476D01*
X69407200Y-82190476D02*
X69454819Y-82333333D01*
X69454819Y-82333333D02*
X69454819Y-82428571D01*
X69454819Y-82428571D02*
X69407200Y-82571428D01*
X69407200Y-82571428D02*
X69311961Y-82666666D01*
X69311961Y-82666666D02*
X69216723Y-82714285D01*
X69216723Y-82714285D02*
X69026247Y-82761904D01*
X69026247Y-82761904D02*
X68883390Y-82761904D01*
X68883390Y-82761904D02*
X68692914Y-82714285D01*
X68692914Y-82714285D02*
X68597676Y-82666666D01*
X68597676Y-82666666D02*
X68502438Y-82571428D01*
X68502438Y-82571428D02*
X68454819Y-82428571D01*
X68454819Y-82428571D02*
X68454819Y-82333333D01*
X68454819Y-82333333D02*
X68502438Y-82190476D01*
X68502438Y-82190476D02*
X68550057Y-82142857D01*
X69454819Y-81190476D02*
X69454819Y-81761904D01*
X69454819Y-81476190D02*
X68454819Y-81476190D01*
X68454819Y-81476190D02*
X68597676Y-81571428D01*
X68597676Y-81571428D02*
X68692914Y-81666666D01*
X68692914Y-81666666D02*
X68740533Y-81761904D01*
X68788152Y-80333333D02*
X69454819Y-80333333D01*
X68407200Y-80571428D02*
X69121485Y-80809523D01*
X69121485Y-80809523D02*
X69121485Y-80190476D01*
X56436666Y-97374819D02*
X56436666Y-98089104D01*
X56436666Y-98089104D02*
X56389047Y-98231961D01*
X56389047Y-98231961D02*
X56293809Y-98327200D01*
X56293809Y-98327200D02*
X56150952Y-98374819D01*
X56150952Y-98374819D02*
X56055714Y-98374819D01*
X57436666Y-98374819D02*
X56865238Y-98374819D01*
X57150952Y-98374819D02*
X57150952Y-97374819D01*
X57150952Y-97374819D02*
X57055714Y-97517676D01*
X57055714Y-97517676D02*
X56960476Y-97612914D01*
X56960476Y-97612914D02*
X56865238Y-97660533D01*
X79359580Y-82142857D02*
X79407200Y-82190476D01*
X79407200Y-82190476D02*
X79454819Y-82333333D01*
X79454819Y-82333333D02*
X79454819Y-82428571D01*
X79454819Y-82428571D02*
X79407200Y-82571428D01*
X79407200Y-82571428D02*
X79311961Y-82666666D01*
X79311961Y-82666666D02*
X79216723Y-82714285D01*
X79216723Y-82714285D02*
X79026247Y-82761904D01*
X79026247Y-82761904D02*
X78883390Y-82761904D01*
X78883390Y-82761904D02*
X78692914Y-82714285D01*
X78692914Y-82714285D02*
X78597676Y-82666666D01*
X78597676Y-82666666D02*
X78502438Y-82571428D01*
X78502438Y-82571428D02*
X78454819Y-82428571D01*
X78454819Y-82428571D02*
X78454819Y-82333333D01*
X78454819Y-82333333D02*
X78502438Y-82190476D01*
X78502438Y-82190476D02*
X78550057Y-82142857D01*
X79454819Y-81190476D02*
X79454819Y-81761904D01*
X79454819Y-81476190D02*
X78454819Y-81476190D01*
X78454819Y-81476190D02*
X78597676Y-81571428D01*
X78597676Y-81571428D02*
X78692914Y-81666666D01*
X78692914Y-81666666D02*
X78740533Y-81761904D01*
X78883390Y-80619047D02*
X78835771Y-80714285D01*
X78835771Y-80714285D02*
X78788152Y-80761904D01*
X78788152Y-80761904D02*
X78692914Y-80809523D01*
X78692914Y-80809523D02*
X78645295Y-80809523D01*
X78645295Y-80809523D02*
X78550057Y-80761904D01*
X78550057Y-80761904D02*
X78502438Y-80714285D01*
X78502438Y-80714285D02*
X78454819Y-80619047D01*
X78454819Y-80619047D02*
X78454819Y-80428571D01*
X78454819Y-80428571D02*
X78502438Y-80333333D01*
X78502438Y-80333333D02*
X78550057Y-80285714D01*
X78550057Y-80285714D02*
X78645295Y-80238095D01*
X78645295Y-80238095D02*
X78692914Y-80238095D01*
X78692914Y-80238095D02*
X78788152Y-80285714D01*
X78788152Y-80285714D02*
X78835771Y-80333333D01*
X78835771Y-80333333D02*
X78883390Y-80428571D01*
X78883390Y-80428571D02*
X78883390Y-80619047D01*
X78883390Y-80619047D02*
X78931009Y-80714285D01*
X78931009Y-80714285D02*
X78978628Y-80761904D01*
X78978628Y-80761904D02*
X79073866Y-80809523D01*
X79073866Y-80809523D02*
X79264342Y-80809523D01*
X79264342Y-80809523D02*
X79359580Y-80761904D01*
X79359580Y-80761904D02*
X79407200Y-80714285D01*
X79407200Y-80714285D02*
X79454819Y-80619047D01*
X79454819Y-80619047D02*
X79454819Y-80428571D01*
X79454819Y-80428571D02*
X79407200Y-80333333D01*
X79407200Y-80333333D02*
X79359580Y-80285714D01*
X79359580Y-80285714D02*
X79264342Y-80238095D01*
X79264342Y-80238095D02*
X79073866Y-80238095D01*
X79073866Y-80238095D02*
X78978628Y-80285714D01*
X78978628Y-80285714D02*
X78931009Y-80333333D01*
X78931009Y-80333333D02*
X78883390Y-80428571D01*
D11*
%TO.C,R7*%
X41832776Y-126447500D02*
X42342224Y-126447500D01*
X41832776Y-127492500D02*
X42342224Y-127492500D01*
%TO.C,C16*%
X73470000Y-84853733D02*
X73470000Y-85146267D01*
X74490000Y-84853733D02*
X74490000Y-85146267D01*
%TO.C,R14*%
X41832776Y-143937500D02*
X42342224Y-143937500D01*
X41832776Y-144982500D02*
X42342224Y-144982500D01*
%TO.C,R1*%
X41832776Y-111387500D02*
X42342224Y-111387500D01*
X41832776Y-112432500D02*
X42342224Y-112432500D01*
%TO.C,F1*%
X37453733Y-110990000D02*
X37796267Y-110990000D01*
X37453733Y-112010000D02*
X37796267Y-112010000D01*
%TO.C,R2*%
X41832776Y-113897500D02*
X42342224Y-113897500D01*
X41832776Y-114942500D02*
X42342224Y-114942500D01*
%TO.C,C13*%
X65940000Y-84853733D02*
X65940000Y-85146267D01*
X66960000Y-84853733D02*
X66960000Y-85146267D01*
%TO.C,C5*%
X45990000Y-84803733D02*
X45990000Y-85096267D01*
X47010000Y-84803733D02*
X47010000Y-85096267D01*
%TO.C,C15*%
X70960000Y-84853733D02*
X70960000Y-85146267D01*
X71980000Y-84853733D02*
X71980000Y-85146267D01*
%TO.C,C4*%
X43990000Y-95216233D02*
X43990000Y-95508767D01*
X45010000Y-95216233D02*
X45010000Y-95508767D01*
%TO.C,R13*%
X41832776Y-141427500D02*
X42342224Y-141427500D01*
X41832776Y-142472500D02*
X42342224Y-142472500D01*
%TO.C,R17*%
X41832776Y-151467500D02*
X42342224Y-151467500D01*
X41832776Y-152512500D02*
X42342224Y-152512500D01*
%TO.C,C2*%
X38990000Y-95216233D02*
X38990000Y-95508767D01*
X40010000Y-95216233D02*
X40010000Y-95508767D01*
%TO.C,C3*%
X41490000Y-95216233D02*
X41490000Y-95508767D01*
X42510000Y-95216233D02*
X42510000Y-95508767D01*
%TO.C,J2*%
X37440000Y-74940000D02*
X77560000Y-74940000D01*
X37440000Y-77000000D02*
X37440000Y-74940000D01*
X37440000Y-79060000D02*
X37440000Y-78000000D01*
X38500000Y-79060000D02*
X37440000Y-79060000D01*
X39500000Y-77000000D02*
X37440000Y-77000000D01*
X39500000Y-79060000D02*
X39500000Y-77000000D01*
X39500000Y-79060000D02*
X77560000Y-79060000D01*
X77560000Y-79060000D02*
X77560000Y-74940000D01*
%TO.C,R5*%
X41832776Y-121427500D02*
X42342224Y-121427500D01*
X41832776Y-122472500D02*
X42342224Y-122472500D01*
%TO.C,C7*%
X50560000Y-84803733D02*
X50560000Y-85096267D01*
X51580000Y-84803733D02*
X51580000Y-85096267D01*
%TO.C,R3*%
X41832776Y-116407500D02*
X42342224Y-116407500D01*
X41832776Y-117452500D02*
X42342224Y-117452500D01*
%TO.C,R8*%
X41832776Y-128957500D02*
X42342224Y-128957500D01*
X41832776Y-130002500D02*
X42342224Y-130002500D01*
%TO.C,R6*%
X41832776Y-123937500D02*
X42342224Y-123937500D01*
X41832776Y-124982500D02*
X42342224Y-124982500D01*
%TO.C,C6*%
X48050000Y-84803733D02*
X48050000Y-85096267D01*
X49070000Y-84803733D02*
X49070000Y-85096267D01*
%TO.C,J3*%
X33130000Y-147330000D02*
X33130000Y-139590000D01*
X35730000Y-144730000D02*
X35730000Y-147330000D01*
X35730000Y-147330000D02*
X33130000Y-147330000D01*
X38330000Y-139590000D02*
X33130000Y-139590000D01*
X38330000Y-144730000D02*
X35730000Y-144730000D01*
X38330000Y-144730000D02*
X38330000Y-139590000D01*
X38330000Y-146000000D02*
X38330000Y-147330000D01*
X38330000Y-147330000D02*
X37000000Y-147330000D01*
%TO.C,C8*%
X53070000Y-84803733D02*
X53070000Y-85096267D01*
X54090000Y-84803733D02*
X54090000Y-85096267D01*
%TO.C,R12*%
X41832776Y-138917500D02*
X42342224Y-138917500D01*
X41832776Y-139962500D02*
X42342224Y-139962500D01*
%TO.C,R10*%
X41832776Y-133977500D02*
X42342224Y-133977500D01*
X41832776Y-135022500D02*
X42342224Y-135022500D01*
%TO.C,R15*%
X41832776Y-146447500D02*
X42342224Y-146447500D01*
X41832776Y-147492500D02*
X42342224Y-147492500D01*
%TO.C,R11*%
X41832776Y-136407500D02*
X42342224Y-136407500D01*
X41832776Y-137452500D02*
X42342224Y-137452500D01*
%TO.C,JP1*%
X79477500Y-77167224D02*
X79477500Y-76657776D01*
X80522500Y-77167224D02*
X80522500Y-76657776D01*
%TO.C,C17*%
X75980000Y-84853733D02*
X75980000Y-85146267D01*
X77000000Y-84853733D02*
X77000000Y-85146267D01*
%TO.C,C10*%
X58010000Y-84803733D02*
X58010000Y-85096267D01*
X59030000Y-84803733D02*
X59030000Y-85096267D01*
%TO.C,R16*%
X41832776Y-148957500D02*
X42342224Y-148957500D01*
X41832776Y-150002500D02*
X42342224Y-150002500D01*
%TO.C,R4*%
X41832776Y-118917500D02*
X42342224Y-118917500D01*
X41832776Y-119962500D02*
X42342224Y-119962500D01*
%TO.C,C12*%
X63430000Y-84853733D02*
X63430000Y-85146267D01*
X64450000Y-84853733D02*
X64450000Y-85146267D01*
%TO.C,C9*%
X55500000Y-84803733D02*
X55500000Y-85096267D01*
X56520000Y-84803733D02*
X56520000Y-85096267D01*
%TO.C,C1*%
X36490000Y-95216233D02*
X36490000Y-95508767D01*
X37510000Y-95216233D02*
X37510000Y-95508767D01*
%TO.C,C11*%
X60920000Y-84853733D02*
X60920000Y-85146267D01*
X61940000Y-84853733D02*
X61940000Y-85146267D01*
%TO.C,R18*%
X41832776Y-153977500D02*
X42342224Y-153977500D01*
X41832776Y-155022500D02*
X42342224Y-155022500D01*
%TO.C,R9*%
X41832776Y-131467500D02*
X42342224Y-131467500D01*
X41832776Y-132512500D02*
X42342224Y-132512500D01*
%TO.C,C14*%
X68450000Y-84853733D02*
X68450000Y-85146267D01*
X69470000Y-84853733D02*
X69470000Y-85146267D01*
%TO.C,J1*%
X50820000Y-103520000D02*
X50820000Y-104520000D01*
X50820000Y-104520000D02*
X51820000Y-104020000D01*
X51820000Y-104020000D02*
X50820000Y-103520000D01*
X52210000Y-98810000D02*
X61330000Y-98810000D01*
X52210000Y-132450000D02*
X53520000Y-132450000D01*
X52210000Y-170190000D02*
X52210000Y-98810000D01*
X53520000Y-100110000D02*
X60020000Y-100110000D01*
X53520000Y-132450000D02*
X53520000Y-100110000D01*
X53520000Y-136550000D02*
X52210000Y-136550000D01*
X53520000Y-136550000D02*
X53520000Y-136550000D01*
X53520000Y-168890000D02*
X53520000Y-136550000D01*
X60020000Y-100110000D02*
X60020000Y-168890000D01*
X60020000Y-168890000D02*
X53520000Y-168890000D01*
X61330000Y-98810000D02*
X61330000Y-170190000D01*
X61330000Y-170190000D02*
X52210000Y-170190000D01*
%TO.C,C18*%
X78490000Y-84853733D02*
X78490000Y-85146267D01*
X79510000Y-84853733D02*
X79510000Y-85146267D01*
%TD*%
M02*
