%TF.GenerationSoftware,KiCad,Pcbnew,8.0.8*%
%TF.CreationDate,2025-01-30T20:37:13+01:00*%
%TF.ProjectId,x68030_scsi,78363830-3330-45f7-9363-73692e6b6963,rev?*%
%TF.SameCoordinates,Original*%
%TF.FileFunction,Paste,Top*%
%TF.FilePolarity,Positive*%
%FSLAX46Y46*%
G04 Gerber Fmt 4.6, Leading zero omitted, Abs format (unit mm)*
G04 Created by KiCad (PCBNEW 8.0.8) date 2025-01-30 20:37:13*
%MOMM*%
%LPD*%
G01*
G04 APERTURE LIST*
G04 Aperture macros list*
%AMRoundRect*
0 Rectangle with rounded corners*
0 $1 Rounding radius*
0 $2 $3 $4 $5 $6 $7 $8 $9 X,Y pos of 4 corners*
0 Add a 4 corners polygon primitive as box body*
4,1,4,$2,$3,$4,$5,$6,$7,$8,$9,$2,$3,0*
0 Add four circle primitives for the rounded corners*
1,1,$1+$1,$2,$3*
1,1,$1+$1,$4,$5*
1,1,$1+$1,$6,$7*
1,1,$1+$1,$8,$9*
0 Add four rect primitives between the rounded corners*
20,1,$1+$1,$2,$3,$4,$5,0*
20,1,$1+$1,$4,$5,$6,$7,0*
20,1,$1+$1,$6,$7,$8,$9,0*
20,1,$1+$1,$8,$9,$2,$3,0*%
G04 Aperture macros list end*
%ADD10RoundRect,0.237500X-0.250000X-0.237500X0.250000X-0.237500X0.250000X0.237500X-0.250000X0.237500X0*%
%ADD11RoundRect,0.237500X-0.237500X0.300000X-0.237500X-0.300000X0.237500X-0.300000X0.237500X0.300000X0*%
%ADD12RoundRect,0.237500X-0.287500X-0.237500X0.287500X-0.237500X0.287500X0.237500X-0.287500X0.237500X0*%
%ADD13RoundRect,0.237500X0.237500X-0.250000X0.237500X0.250000X-0.237500X0.250000X-0.237500X-0.250000X0*%
G04 APERTURE END LIST*
D10*
%TO.C,R7*%
X41175000Y-126970000D03*
X43000000Y-126970000D03*
%TD*%
D11*
%TO.C,C16*%
X73980000Y-84137500D03*
X73980000Y-85862500D03*
%TD*%
D10*
%TO.C,R14*%
X41175000Y-144460000D03*
X43000000Y-144460000D03*
%TD*%
%TO.C,R1*%
X41175000Y-111910000D03*
X43000000Y-111910000D03*
%TD*%
D12*
%TO.C,F1*%
X36750000Y-111500000D03*
X38500000Y-111500000D03*
%TD*%
D10*
%TO.C,R2*%
X41175000Y-114420000D03*
X43000000Y-114420000D03*
%TD*%
D11*
%TO.C,C13*%
X66450000Y-84137500D03*
X66450000Y-85862500D03*
%TD*%
%TO.C,C5*%
X46500000Y-84087500D03*
X46500000Y-85812500D03*
%TD*%
%TO.C,C15*%
X71470000Y-84137500D03*
X71470000Y-85862500D03*
%TD*%
%TO.C,C4*%
X44500000Y-94500000D03*
X44500000Y-96225000D03*
%TD*%
D10*
%TO.C,R13*%
X41175000Y-141950000D03*
X43000000Y-141950000D03*
%TD*%
%TO.C,R17*%
X41175000Y-151990000D03*
X43000000Y-151990000D03*
%TD*%
D11*
%TO.C,C2*%
X39500000Y-94500000D03*
X39500000Y-96225000D03*
%TD*%
%TO.C,C3*%
X42000000Y-94500000D03*
X42000000Y-96225000D03*
%TD*%
D10*
%TO.C,R5*%
X41175000Y-121950000D03*
X43000000Y-121950000D03*
%TD*%
D11*
%TO.C,C7*%
X51070000Y-84087500D03*
X51070000Y-85812500D03*
%TD*%
D10*
%TO.C,R3*%
X41175000Y-116930000D03*
X43000000Y-116930000D03*
%TD*%
%TO.C,R8*%
X41175000Y-129480000D03*
X43000000Y-129480000D03*
%TD*%
%TO.C,R6*%
X41175000Y-124460000D03*
X43000000Y-124460000D03*
%TD*%
D11*
%TO.C,C6*%
X48560000Y-84087500D03*
X48560000Y-85812500D03*
%TD*%
%TO.C,C8*%
X53580000Y-84087500D03*
X53580000Y-85812500D03*
%TD*%
D10*
%TO.C,R12*%
X41175000Y-139440000D03*
X43000000Y-139440000D03*
%TD*%
%TO.C,R10*%
X41175000Y-134500000D03*
X43000000Y-134500000D03*
%TD*%
%TO.C,R15*%
X41175000Y-146970000D03*
X43000000Y-146970000D03*
%TD*%
%TO.C,R11*%
X41175000Y-136930000D03*
X43000000Y-136930000D03*
%TD*%
D13*
%TO.C,JP1*%
X80000000Y-77825000D03*
X80000000Y-76000000D03*
%TD*%
D11*
%TO.C,C17*%
X76490000Y-84137500D03*
X76490000Y-85862500D03*
%TD*%
%TO.C,C10*%
X58520000Y-84087500D03*
X58520000Y-85812500D03*
%TD*%
D10*
%TO.C,R16*%
X41175000Y-149480000D03*
X43000000Y-149480000D03*
%TD*%
%TO.C,R4*%
X41175000Y-119440000D03*
X43000000Y-119440000D03*
%TD*%
D11*
%TO.C,C12*%
X63940000Y-84137500D03*
X63940000Y-85862500D03*
%TD*%
%TO.C,C9*%
X56010000Y-84087500D03*
X56010000Y-85812500D03*
%TD*%
%TO.C,C1*%
X37000000Y-94500000D03*
X37000000Y-96225000D03*
%TD*%
%TO.C,C11*%
X61430000Y-84137500D03*
X61430000Y-85862500D03*
%TD*%
D10*
%TO.C,R18*%
X41175000Y-154500000D03*
X43000000Y-154500000D03*
%TD*%
%TO.C,R9*%
X41175000Y-131990000D03*
X43000000Y-131990000D03*
%TD*%
D11*
%TO.C,C14*%
X68960000Y-84137500D03*
X68960000Y-85862500D03*
%TD*%
%TO.C,C18*%
X79000000Y-84137500D03*
X79000000Y-85862500D03*
%TD*%
M02*
