%TF.GenerationSoftware,KiCad,Pcbnew,8.0.8*%
%TF.CreationDate,2025-02-19T21:26:12+01:00*%
%TF.ProjectId,x68030_scsi,78363830-3330-45f7-9363-73692e6b6963,rev?*%
%TF.SameCoordinates,Original*%
%TF.FileFunction,Legend,Bot*%
%TF.FilePolarity,Positive*%
%FSLAX46Y46*%
G04 Gerber Fmt 4.6, Leading zero omitted, Abs format (unit mm)*
G04 Created by KiCad (PCBNEW 8.0.8) date 2025-02-19 21:26:12*
%MOMM*%
%LPD*%
G01*
G04 APERTURE LIST*
%ADD10C,0.150000*%
%ADD11C,0.120000*%
G04 APERTURE END LIST*
D10*
X83197506Y-72021819D02*
X83197506Y-72736104D01*
X83197506Y-72736104D02*
X83245125Y-72878961D01*
X83245125Y-72878961D02*
X83340363Y-72974200D01*
X83340363Y-72974200D02*
X83483220Y-73021819D01*
X83483220Y-73021819D02*
X83578458Y-73021819D01*
X82245125Y-73021819D02*
X82721315Y-73021819D01*
X82721315Y-73021819D02*
X82721315Y-72021819D01*
X81340363Y-72926580D02*
X81387982Y-72974200D01*
X81387982Y-72974200D02*
X81530839Y-73021819D01*
X81530839Y-73021819D02*
X81626077Y-73021819D01*
X81626077Y-73021819D02*
X81768934Y-72974200D01*
X81768934Y-72974200D02*
X81864172Y-72878961D01*
X81864172Y-72878961D02*
X81911791Y-72783723D01*
X81911791Y-72783723D02*
X81959410Y-72593247D01*
X81959410Y-72593247D02*
X81959410Y-72450390D01*
X81959410Y-72450390D02*
X81911791Y-72259914D01*
X81911791Y-72259914D02*
X81864172Y-72164676D01*
X81864172Y-72164676D02*
X81768934Y-72069438D01*
X81768934Y-72069438D02*
X81626077Y-72021819D01*
X81626077Y-72021819D02*
X81530839Y-72021819D01*
X81530839Y-72021819D02*
X81387982Y-72069438D01*
X81387982Y-72069438D02*
X81340363Y-72117057D01*
X80626077Y-72021819D02*
X80626077Y-72736104D01*
X80626077Y-72736104D02*
X80673696Y-72878961D01*
X80673696Y-72878961D02*
X80768934Y-72974200D01*
X80768934Y-72974200D02*
X80911791Y-73021819D01*
X80911791Y-73021819D02*
X81007029Y-73021819D01*
X79673696Y-73021819D02*
X80149886Y-73021819D01*
X80149886Y-73021819D02*
X80149886Y-72021819D01*
X78768934Y-72926580D02*
X78816553Y-72974200D01*
X78816553Y-72974200D02*
X78959410Y-73021819D01*
X78959410Y-73021819D02*
X79054648Y-73021819D01*
X79054648Y-73021819D02*
X79197505Y-72974200D01*
X79197505Y-72974200D02*
X79292743Y-72878961D01*
X79292743Y-72878961D02*
X79340362Y-72783723D01*
X79340362Y-72783723D02*
X79387981Y-72593247D01*
X79387981Y-72593247D02*
X79387981Y-72450390D01*
X79387981Y-72450390D02*
X79340362Y-72259914D01*
X79340362Y-72259914D02*
X79292743Y-72164676D01*
X79292743Y-72164676D02*
X79197505Y-72069438D01*
X79197505Y-72069438D02*
X79054648Y-72021819D01*
X79054648Y-72021819D02*
X78959410Y-72021819D01*
X78959410Y-72021819D02*
X78816553Y-72069438D01*
X78816553Y-72069438D02*
X78768934Y-72117057D01*
X78054648Y-72021819D02*
X78054648Y-72736104D01*
X78054648Y-72736104D02*
X78102267Y-72878961D01*
X78102267Y-72878961D02*
X78197505Y-72974200D01*
X78197505Y-72974200D02*
X78340362Y-73021819D01*
X78340362Y-73021819D02*
X78435600Y-73021819D01*
X77102267Y-73021819D02*
X77578457Y-73021819D01*
X77578457Y-73021819D02*
X77578457Y-72021819D01*
X76197505Y-72926580D02*
X76245124Y-72974200D01*
X76245124Y-72974200D02*
X76387981Y-73021819D01*
X76387981Y-73021819D02*
X76483219Y-73021819D01*
X76483219Y-73021819D02*
X76626076Y-72974200D01*
X76626076Y-72974200D02*
X76721314Y-72878961D01*
X76721314Y-72878961D02*
X76768933Y-72783723D01*
X76768933Y-72783723D02*
X76816552Y-72593247D01*
X76816552Y-72593247D02*
X76816552Y-72450390D01*
X76816552Y-72450390D02*
X76768933Y-72259914D01*
X76768933Y-72259914D02*
X76721314Y-72164676D01*
X76721314Y-72164676D02*
X76626076Y-72069438D01*
X76626076Y-72069438D02*
X76483219Y-72021819D01*
X76483219Y-72021819D02*
X76387981Y-72021819D01*
X76387981Y-72021819D02*
X76245124Y-72069438D01*
X76245124Y-72069438D02*
X76197505Y-72117057D01*
X75483219Y-72021819D02*
X75483219Y-72736104D01*
X75483219Y-72736104D02*
X75530838Y-72878961D01*
X75530838Y-72878961D02*
X75626076Y-72974200D01*
X75626076Y-72974200D02*
X75768933Y-73021819D01*
X75768933Y-73021819D02*
X75864171Y-73021819D01*
X74530838Y-73021819D02*
X75007028Y-73021819D01*
X75007028Y-73021819D02*
X75007028Y-72021819D01*
X73626076Y-72926580D02*
X73673695Y-72974200D01*
X73673695Y-72974200D02*
X73816552Y-73021819D01*
X73816552Y-73021819D02*
X73911790Y-73021819D01*
X73911790Y-73021819D02*
X74054647Y-72974200D01*
X74054647Y-72974200D02*
X74149885Y-72878961D01*
X74149885Y-72878961D02*
X74197504Y-72783723D01*
X74197504Y-72783723D02*
X74245123Y-72593247D01*
X74245123Y-72593247D02*
X74245123Y-72450390D01*
X74245123Y-72450390D02*
X74197504Y-72259914D01*
X74197504Y-72259914D02*
X74149885Y-72164676D01*
X74149885Y-72164676D02*
X74054647Y-72069438D01*
X74054647Y-72069438D02*
X73911790Y-72021819D01*
X73911790Y-72021819D02*
X73816552Y-72021819D01*
X73816552Y-72021819D02*
X73673695Y-72069438D01*
X73673695Y-72069438D02*
X73626076Y-72117057D01*
X74290133Y-92825219D02*
X74290133Y-93539504D01*
X74290133Y-93539504D02*
X74337752Y-93682361D01*
X74337752Y-93682361D02*
X74432990Y-93777600D01*
X74432990Y-93777600D02*
X74575847Y-93825219D01*
X74575847Y-93825219D02*
X74671085Y-93825219D01*
X73813942Y-93825219D02*
X73813942Y-92825219D01*
X73813942Y-92825219D02*
X73432990Y-92825219D01*
X73432990Y-92825219D02*
X73337752Y-92872838D01*
X73337752Y-92872838D02*
X73290133Y-92920457D01*
X73290133Y-92920457D02*
X73242514Y-93015695D01*
X73242514Y-93015695D02*
X73242514Y-93158552D01*
X73242514Y-93158552D02*
X73290133Y-93253790D01*
X73290133Y-93253790D02*
X73337752Y-93301409D01*
X73337752Y-93301409D02*
X73432990Y-93349028D01*
X73432990Y-93349028D02*
X73813942Y-93349028D01*
X72290133Y-93825219D02*
X72861561Y-93825219D01*
X72575847Y-93825219D02*
X72575847Y-92825219D01*
X72575847Y-92825219D02*
X72671085Y-92968076D01*
X72671085Y-92968076D02*
X72766323Y-93063314D01*
X72766323Y-93063314D02*
X72861561Y-93110933D01*
D11*
%TO.C,JP1*%
X72406000Y-89517000D02*
X74406000Y-89517000D01*
X72406000Y-92317000D02*
X72406000Y-89517000D01*
X74406000Y-89517000D02*
X74406000Y-92317000D01*
X74406000Y-92317000D02*
X72406000Y-92317000D01*
%TO.C,TP1*%
X80838000Y-90998000D02*
X82738000Y-90998000D01*
X80838000Y-92898000D02*
X80838000Y-90998000D01*
X82738000Y-90998000D02*
X82738000Y-92898000D01*
X82738000Y-92898000D02*
X80838000Y-92898000D01*
%TD*%
M02*
