%TF.GenerationSoftware,KiCad,Pcbnew,8.0.8*%
%TF.CreationDate,2025-02-17T20:22:09+01:00*%
%TF.ProjectId,x68030_scsi,78363830-3330-45f7-9363-73692e6b6963,rev?*%
%TF.SameCoordinates,Original*%
%TF.FileFunction,Legend,Top*%
%TF.FilePolarity,Positive*%
%FSLAX46Y46*%
G04 Gerber Fmt 4.6, Leading zero omitted, Abs format (unit mm)*
G04 Created by KiCad (PCBNEW 8.0.8) date 2025-02-17 20:22:09*
%MOMM*%
%LPD*%
G01*
G04 APERTURE LIST*
%ADD10C,0.150000*%
%ADD11C,0.300000*%
%ADD12C,0.120000*%
G04 APERTURE END LIST*
D10*
X37865255Y-131203819D02*
X37960493Y-131203819D01*
X37960493Y-131203819D02*
X38055731Y-131251438D01*
X38055731Y-131251438D02*
X38103350Y-131299057D01*
X38103350Y-131299057D02*
X38150969Y-131394295D01*
X38150969Y-131394295D02*
X38198588Y-131584771D01*
X38198588Y-131584771D02*
X38198588Y-131822866D01*
X38198588Y-131822866D02*
X38150969Y-132013342D01*
X38150969Y-132013342D02*
X38103350Y-132108580D01*
X38103350Y-132108580D02*
X38055731Y-132156200D01*
X38055731Y-132156200D02*
X37960493Y-132203819D01*
X37960493Y-132203819D02*
X37865255Y-132203819D01*
X37865255Y-132203819D02*
X37770017Y-132156200D01*
X37770017Y-132156200D02*
X37722398Y-132108580D01*
X37722398Y-132108580D02*
X37674779Y-132013342D01*
X37674779Y-132013342D02*
X37627160Y-131822866D01*
X37627160Y-131822866D02*
X37627160Y-131584771D01*
X37627160Y-131584771D02*
X37674779Y-131394295D01*
X37674779Y-131394295D02*
X37722398Y-131299057D01*
X37722398Y-131299057D02*
X37770017Y-131251438D01*
X37770017Y-131251438D02*
X37865255Y-131203819D01*
X38198588Y-129703819D02*
X37627160Y-129703819D01*
X37912874Y-129703819D02*
X37912874Y-128703819D01*
X37912874Y-128703819D02*
X37817636Y-128846676D01*
X37817636Y-128846676D02*
X37722398Y-128941914D01*
X37722398Y-128941914D02*
X37627160Y-128989533D01*
D11*
X46774558Y-173729638D02*
X46774558Y-171729638D01*
X46774558Y-172491542D02*
X46965034Y-172396304D01*
X46965034Y-172396304D02*
X47345987Y-172396304D01*
X47345987Y-172396304D02*
X47536463Y-172491542D01*
X47536463Y-172491542D02*
X47631701Y-172586780D01*
X47631701Y-172586780D02*
X47726939Y-172777257D01*
X47726939Y-172777257D02*
X47726939Y-173348685D01*
X47726939Y-173348685D02*
X47631701Y-173539161D01*
X47631701Y-173539161D02*
X47536463Y-173634400D01*
X47536463Y-173634400D02*
X47345987Y-173729638D01*
X47345987Y-173729638D02*
X46965034Y-173729638D01*
X46965034Y-173729638D02*
X46774558Y-173634400D01*
X49441225Y-172396304D02*
X49441225Y-173729638D01*
X48584082Y-172396304D02*
X48584082Y-173443923D01*
X48584082Y-173443923D02*
X48679320Y-173634400D01*
X48679320Y-173634400D02*
X48869796Y-173729638D01*
X48869796Y-173729638D02*
X49155511Y-173729638D01*
X49155511Y-173729638D02*
X49345987Y-173634400D01*
X49345987Y-173634400D02*
X49441225Y-173539161D01*
X50107892Y-172396304D02*
X50869796Y-172396304D01*
X50393606Y-173729638D02*
X50393606Y-172015352D01*
X50393606Y-172015352D02*
X50488844Y-171824876D01*
X50488844Y-171824876D02*
X50679320Y-171729638D01*
X50679320Y-171729638D02*
X50869796Y-171729638D01*
X51250749Y-172396304D02*
X52012653Y-172396304D01*
X51536463Y-173729638D02*
X51536463Y-172015352D01*
X51536463Y-172015352D02*
X51631701Y-171824876D01*
X51631701Y-171824876D02*
X51822177Y-171729638D01*
X51822177Y-171729638D02*
X52012653Y-171729638D01*
X52679320Y-173729638D02*
X52679320Y-172396304D01*
X52679320Y-171729638D02*
X52584082Y-171824876D01*
X52584082Y-171824876D02*
X52679320Y-171920114D01*
X52679320Y-171920114D02*
X52774558Y-171824876D01*
X52774558Y-171824876D02*
X52679320Y-171729638D01*
X52679320Y-171729638D02*
X52679320Y-171920114D01*
X55060273Y-171920114D02*
X55155511Y-171824876D01*
X55155511Y-171824876D02*
X55345987Y-171729638D01*
X55345987Y-171729638D02*
X55822178Y-171729638D01*
X55822178Y-171729638D02*
X56012654Y-171824876D01*
X56012654Y-171824876D02*
X56107892Y-171920114D01*
X56107892Y-171920114D02*
X56203130Y-172110590D01*
X56203130Y-172110590D02*
X56203130Y-172301066D01*
X56203130Y-172301066D02*
X56107892Y-172586780D01*
X56107892Y-172586780D02*
X54965035Y-173729638D01*
X54965035Y-173729638D02*
X56203130Y-173729638D01*
X57441225Y-171729638D02*
X57631702Y-171729638D01*
X57631702Y-171729638D02*
X57822178Y-171824876D01*
X57822178Y-171824876D02*
X57917416Y-171920114D01*
X57917416Y-171920114D02*
X58012654Y-172110590D01*
X58012654Y-172110590D02*
X58107892Y-172491542D01*
X58107892Y-172491542D02*
X58107892Y-172967733D01*
X58107892Y-172967733D02*
X58012654Y-173348685D01*
X58012654Y-173348685D02*
X57917416Y-173539161D01*
X57917416Y-173539161D02*
X57822178Y-173634400D01*
X57822178Y-173634400D02*
X57631702Y-173729638D01*
X57631702Y-173729638D02*
X57441225Y-173729638D01*
X57441225Y-173729638D02*
X57250749Y-173634400D01*
X57250749Y-173634400D02*
X57155511Y-173539161D01*
X57155511Y-173539161D02*
X57060273Y-173348685D01*
X57060273Y-173348685D02*
X56965035Y-172967733D01*
X56965035Y-172967733D02*
X56965035Y-172491542D01*
X56965035Y-172491542D02*
X57060273Y-172110590D01*
X57060273Y-172110590D02*
X57155511Y-171920114D01*
X57155511Y-171920114D02*
X57250749Y-171824876D01*
X57250749Y-171824876D02*
X57441225Y-171729638D01*
X58869797Y-171920114D02*
X58965035Y-171824876D01*
X58965035Y-171824876D02*
X59155511Y-171729638D01*
X59155511Y-171729638D02*
X59631702Y-171729638D01*
X59631702Y-171729638D02*
X59822178Y-171824876D01*
X59822178Y-171824876D02*
X59917416Y-171920114D01*
X59917416Y-171920114D02*
X60012654Y-172110590D01*
X60012654Y-172110590D02*
X60012654Y-172301066D01*
X60012654Y-172301066D02*
X59917416Y-172586780D01*
X59917416Y-172586780D02*
X58774559Y-173729638D01*
X58774559Y-173729638D02*
X60012654Y-173729638D01*
X61822178Y-171729638D02*
X60869797Y-171729638D01*
X60869797Y-171729638D02*
X60774559Y-172682019D01*
X60774559Y-172682019D02*
X60869797Y-172586780D01*
X60869797Y-172586780D02*
X61060273Y-172491542D01*
X61060273Y-172491542D02*
X61536464Y-172491542D01*
X61536464Y-172491542D02*
X61726940Y-172586780D01*
X61726940Y-172586780D02*
X61822178Y-172682019D01*
X61822178Y-172682019D02*
X61917416Y-172872495D01*
X61917416Y-172872495D02*
X61917416Y-173348685D01*
X61917416Y-173348685D02*
X61822178Y-173539161D01*
X61822178Y-173539161D02*
X61726940Y-173634400D01*
X61726940Y-173634400D02*
X61536464Y-173729638D01*
X61536464Y-173729638D02*
X61060273Y-173729638D01*
X61060273Y-173729638D02*
X60869797Y-173634400D01*
X60869797Y-173634400D02*
X60774559Y-173539161D01*
D10*
X67884922Y-83832819D02*
X68218255Y-84832819D01*
X68218255Y-84832819D02*
X68551588Y-83832819D01*
X69456350Y-84737580D02*
X69408731Y-84785200D01*
X69408731Y-84785200D02*
X69265874Y-84832819D01*
X69265874Y-84832819D02*
X69170636Y-84832819D01*
X69170636Y-84832819D02*
X69027779Y-84785200D01*
X69027779Y-84785200D02*
X68932541Y-84689961D01*
X68932541Y-84689961D02*
X68884922Y-84594723D01*
X68884922Y-84594723D02*
X68837303Y-84404247D01*
X68837303Y-84404247D02*
X68837303Y-84261390D01*
X68837303Y-84261390D02*
X68884922Y-84070914D01*
X68884922Y-84070914D02*
X68932541Y-83975676D01*
X68932541Y-83975676D02*
X69027779Y-83880438D01*
X69027779Y-83880438D02*
X69170636Y-83832819D01*
X69170636Y-83832819D02*
X69265874Y-83832819D01*
X69265874Y-83832819D02*
X69408731Y-83880438D01*
X69408731Y-83880438D02*
X69456350Y-83928057D01*
X70456350Y-84737580D02*
X70408731Y-84785200D01*
X70408731Y-84785200D02*
X70265874Y-84832819D01*
X70265874Y-84832819D02*
X70170636Y-84832819D01*
X70170636Y-84832819D02*
X70027779Y-84785200D01*
X70027779Y-84785200D02*
X69932541Y-84689961D01*
X69932541Y-84689961D02*
X69884922Y-84594723D01*
X69884922Y-84594723D02*
X69837303Y-84404247D01*
X69837303Y-84404247D02*
X69837303Y-84261390D01*
X69837303Y-84261390D02*
X69884922Y-84070914D01*
X69884922Y-84070914D02*
X69932541Y-83975676D01*
X69932541Y-83975676D02*
X70027779Y-83880438D01*
X70027779Y-83880438D02*
X70170636Y-83832819D01*
X70170636Y-83832819D02*
X70265874Y-83832819D01*
X70265874Y-83832819D02*
X70408731Y-83880438D01*
X70408731Y-83880438D02*
X70456350Y-83928057D01*
X40722779Y-124456819D02*
X40722779Y-123456819D01*
X41198969Y-124456819D02*
X41198969Y-123456819D01*
X41198969Y-123456819D02*
X41437064Y-123456819D01*
X41437064Y-123456819D02*
X41579921Y-123504438D01*
X41579921Y-123504438D02*
X41675159Y-123599676D01*
X41675159Y-123599676D02*
X41722778Y-123694914D01*
X41722778Y-123694914D02*
X41770397Y-123885390D01*
X41770397Y-123885390D02*
X41770397Y-124028247D01*
X41770397Y-124028247D02*
X41722778Y-124218723D01*
X41722778Y-124218723D02*
X41675159Y-124313961D01*
X41675159Y-124313961D02*
X41579921Y-124409200D01*
X41579921Y-124409200D02*
X41437064Y-124456819D01*
X41437064Y-124456819D02*
X41198969Y-124456819D01*
X42151350Y-124409200D02*
X42294207Y-124456819D01*
X42294207Y-124456819D02*
X42532302Y-124456819D01*
X42532302Y-124456819D02*
X42627540Y-124409200D01*
X42627540Y-124409200D02*
X42675159Y-124361580D01*
X42675159Y-124361580D02*
X42722778Y-124266342D01*
X42722778Y-124266342D02*
X42722778Y-124171104D01*
X42722778Y-124171104D02*
X42675159Y-124075866D01*
X42675159Y-124075866D02*
X42627540Y-124028247D01*
X42627540Y-124028247D02*
X42532302Y-123980628D01*
X42532302Y-123980628D02*
X42341826Y-123933009D01*
X42341826Y-123933009D02*
X42246588Y-123885390D01*
X42246588Y-123885390D02*
X42198969Y-123837771D01*
X42198969Y-123837771D02*
X42151350Y-123742533D01*
X42151350Y-123742533D02*
X42151350Y-123647295D01*
X42151350Y-123647295D02*
X42198969Y-123552057D01*
X42198969Y-123552057D02*
X42246588Y-123504438D01*
X42246588Y-123504438D02*
X42341826Y-123456819D01*
X42341826Y-123456819D02*
X42579921Y-123456819D01*
X42579921Y-123456819D02*
X42722778Y-123504438D01*
X43056112Y-123456819D02*
X43294207Y-124456819D01*
X43294207Y-124456819D02*
X43484683Y-123742533D01*
X43484683Y-123742533D02*
X43675159Y-124456819D01*
X43675159Y-124456819D02*
X43913255Y-123456819D01*
X76324017Y-72766961D02*
X76324017Y-73300295D01*
X76133541Y-72462200D02*
X75943064Y-73033628D01*
X75943064Y-73033628D02*
X76438303Y-73033628D01*
X76895446Y-72500295D02*
X76971636Y-72500295D01*
X76971636Y-72500295D02*
X77047827Y-72538390D01*
X77047827Y-72538390D02*
X77085922Y-72576485D01*
X77085922Y-72576485D02*
X77124017Y-72652676D01*
X77124017Y-72652676D02*
X77162112Y-72805057D01*
X77162112Y-72805057D02*
X77162112Y-72995533D01*
X77162112Y-72995533D02*
X77124017Y-73147914D01*
X77124017Y-73147914D02*
X77085922Y-73224104D01*
X77085922Y-73224104D02*
X77047827Y-73262200D01*
X77047827Y-73262200D02*
X76971636Y-73300295D01*
X76971636Y-73300295D02*
X76895446Y-73300295D01*
X76895446Y-73300295D02*
X76819255Y-73262200D01*
X76819255Y-73262200D02*
X76781160Y-73224104D01*
X76781160Y-73224104D02*
X76743065Y-73147914D01*
X76743065Y-73147914D02*
X76704969Y-72995533D01*
X76704969Y-72995533D02*
X76704969Y-72805057D01*
X76704969Y-72805057D02*
X76743065Y-72652676D01*
X76743065Y-72652676D02*
X76781160Y-72576485D01*
X76781160Y-72576485D02*
X76819255Y-72538390D01*
X76819255Y-72538390D02*
X76895446Y-72500295D01*
X68424588Y-88960438D02*
X68329350Y-88912819D01*
X68329350Y-88912819D02*
X68186493Y-88912819D01*
X68186493Y-88912819D02*
X68043636Y-88960438D01*
X68043636Y-88960438D02*
X67948398Y-89055676D01*
X67948398Y-89055676D02*
X67900779Y-89150914D01*
X67900779Y-89150914D02*
X67853160Y-89341390D01*
X67853160Y-89341390D02*
X67853160Y-89484247D01*
X67853160Y-89484247D02*
X67900779Y-89674723D01*
X67900779Y-89674723D02*
X67948398Y-89769961D01*
X67948398Y-89769961D02*
X68043636Y-89865200D01*
X68043636Y-89865200D02*
X68186493Y-89912819D01*
X68186493Y-89912819D02*
X68281731Y-89912819D01*
X68281731Y-89912819D02*
X68424588Y-89865200D01*
X68424588Y-89865200D02*
X68472207Y-89817580D01*
X68472207Y-89817580D02*
X68472207Y-89484247D01*
X68472207Y-89484247D02*
X68281731Y-89484247D01*
X68900779Y-89912819D02*
X68900779Y-88912819D01*
X68900779Y-88912819D02*
X69472207Y-89912819D01*
X69472207Y-89912819D02*
X69472207Y-88912819D01*
X69948398Y-89912819D02*
X69948398Y-88912819D01*
X69948398Y-88912819D02*
X70186493Y-88912819D01*
X70186493Y-88912819D02*
X70329350Y-88960438D01*
X70329350Y-88960438D02*
X70424588Y-89055676D01*
X70424588Y-89055676D02*
X70472207Y-89150914D01*
X70472207Y-89150914D02*
X70519826Y-89341390D01*
X70519826Y-89341390D02*
X70519826Y-89484247D01*
X70519826Y-89484247D02*
X70472207Y-89674723D01*
X70472207Y-89674723D02*
X70424588Y-89769961D01*
X70424588Y-89769961D02*
X70329350Y-89865200D01*
X70329350Y-89865200D02*
X70186493Y-89912819D01*
X70186493Y-89912819D02*
X69948398Y-89912819D01*
X37627160Y-126299057D02*
X37674779Y-126251438D01*
X37674779Y-126251438D02*
X37770017Y-126203819D01*
X37770017Y-126203819D02*
X38008112Y-126203819D01*
X38008112Y-126203819D02*
X38103350Y-126251438D01*
X38103350Y-126251438D02*
X38150969Y-126299057D01*
X38150969Y-126299057D02*
X38198588Y-126394295D01*
X38198588Y-126394295D02*
X38198588Y-126489533D01*
X38198588Y-126489533D02*
X38150969Y-126632390D01*
X38150969Y-126632390D02*
X37579541Y-127203819D01*
X37579541Y-127203819D02*
X38198588Y-127203819D01*
X66249779Y-87372819D02*
X66249779Y-86372819D01*
X66249779Y-86849009D02*
X66821207Y-86849009D01*
X66821207Y-87372819D02*
X66821207Y-86372819D01*
X67297398Y-87372819D02*
X67297398Y-86372819D01*
X67297398Y-86372819D02*
X67535493Y-86372819D01*
X67535493Y-86372819D02*
X67678350Y-86420438D01*
X67678350Y-86420438D02*
X67773588Y-86515676D01*
X67773588Y-86515676D02*
X67821207Y-86610914D01*
X67821207Y-86610914D02*
X67868826Y-86801390D01*
X67868826Y-86801390D02*
X67868826Y-86944247D01*
X67868826Y-86944247D02*
X67821207Y-87134723D01*
X67821207Y-87134723D02*
X67773588Y-87229961D01*
X67773588Y-87229961D02*
X67678350Y-87325200D01*
X67678350Y-87325200D02*
X67535493Y-87372819D01*
X67535493Y-87372819D02*
X67297398Y-87372819D01*
X68773588Y-87372819D02*
X68297398Y-87372819D01*
X68297398Y-87372819D02*
X68297398Y-86372819D01*
X69106922Y-86849009D02*
X69440255Y-86849009D01*
X69583112Y-87372819D02*
X69106922Y-87372819D01*
X69106922Y-87372819D02*
X69106922Y-86372819D01*
X69106922Y-86372819D02*
X69583112Y-86372819D01*
X70011684Y-87372819D02*
X70011684Y-86372819D01*
X70011684Y-86372819D02*
X70249779Y-86372819D01*
X70249779Y-86372819D02*
X70392636Y-86420438D01*
X70392636Y-86420438D02*
X70487874Y-86515676D01*
X70487874Y-86515676D02*
X70535493Y-86610914D01*
X70535493Y-86610914D02*
X70583112Y-86801390D01*
X70583112Y-86801390D02*
X70583112Y-86944247D01*
X70583112Y-86944247D02*
X70535493Y-87134723D01*
X70535493Y-87134723D02*
X70487874Y-87229961D01*
X70487874Y-87229961D02*
X70392636Y-87325200D01*
X70392636Y-87325200D02*
X70249779Y-87372819D01*
X70249779Y-87372819D02*
X70011684Y-87372819D01*
X38681207Y-81174295D02*
X38224064Y-81174295D01*
X38452636Y-81174295D02*
X38452636Y-80374295D01*
X38452636Y-80374295D02*
X38376445Y-80488580D01*
X38376445Y-80488580D02*
X38300255Y-80564771D01*
X38300255Y-80564771D02*
X38224064Y-80602866D01*
X68424588Y-91500438D02*
X68329350Y-91452819D01*
X68329350Y-91452819D02*
X68186493Y-91452819D01*
X68186493Y-91452819D02*
X68043636Y-91500438D01*
X68043636Y-91500438D02*
X67948398Y-91595676D01*
X67948398Y-91595676D02*
X67900779Y-91690914D01*
X67900779Y-91690914D02*
X67853160Y-91881390D01*
X67853160Y-91881390D02*
X67853160Y-92024247D01*
X67853160Y-92024247D02*
X67900779Y-92214723D01*
X67900779Y-92214723D02*
X67948398Y-92309961D01*
X67948398Y-92309961D02*
X68043636Y-92405200D01*
X68043636Y-92405200D02*
X68186493Y-92452819D01*
X68186493Y-92452819D02*
X68281731Y-92452819D01*
X68281731Y-92452819D02*
X68424588Y-92405200D01*
X68424588Y-92405200D02*
X68472207Y-92357580D01*
X68472207Y-92357580D02*
X68472207Y-92024247D01*
X68472207Y-92024247D02*
X68281731Y-92024247D01*
X68900779Y-92452819D02*
X68900779Y-91452819D01*
X68900779Y-91452819D02*
X69472207Y-92452819D01*
X69472207Y-92452819D02*
X69472207Y-91452819D01*
X69948398Y-92452819D02*
X69948398Y-91452819D01*
X69948398Y-91452819D02*
X70186493Y-91452819D01*
X70186493Y-91452819D02*
X70329350Y-91500438D01*
X70329350Y-91500438D02*
X70424588Y-91595676D01*
X70424588Y-91595676D02*
X70472207Y-91690914D01*
X70472207Y-91690914D02*
X70519826Y-91881390D01*
X70519826Y-91881390D02*
X70519826Y-92024247D01*
X70519826Y-92024247D02*
X70472207Y-92214723D01*
X70472207Y-92214723D02*
X70424588Y-92309961D01*
X70424588Y-92309961D02*
X70329350Y-92405200D01*
X70329350Y-92405200D02*
X70186493Y-92452819D01*
X70186493Y-92452819D02*
X69948398Y-92452819D01*
X75904969Y-80374295D02*
X76400207Y-80374295D01*
X76400207Y-80374295D02*
X76133541Y-80679057D01*
X76133541Y-80679057D02*
X76247826Y-80679057D01*
X76247826Y-80679057D02*
X76324017Y-80717152D01*
X76324017Y-80717152D02*
X76362112Y-80755247D01*
X76362112Y-80755247D02*
X76400207Y-80831438D01*
X76400207Y-80831438D02*
X76400207Y-81021914D01*
X76400207Y-81021914D02*
X76362112Y-81098104D01*
X76362112Y-81098104D02*
X76324017Y-81136200D01*
X76324017Y-81136200D02*
X76247826Y-81174295D01*
X76247826Y-81174295D02*
X76019255Y-81174295D01*
X76019255Y-81174295D02*
X75943064Y-81136200D01*
X75943064Y-81136200D02*
X75904969Y-81098104D01*
X76781160Y-81174295D02*
X76933541Y-81174295D01*
X76933541Y-81174295D02*
X77009731Y-81136200D01*
X77009731Y-81136200D02*
X77047827Y-81098104D01*
X77047827Y-81098104D02*
X77124017Y-80983819D01*
X77124017Y-80983819D02*
X77162112Y-80831438D01*
X77162112Y-80831438D02*
X77162112Y-80526676D01*
X77162112Y-80526676D02*
X77124017Y-80450485D01*
X77124017Y-80450485D02*
X77085922Y-80412390D01*
X77085922Y-80412390D02*
X77009731Y-80374295D01*
X77009731Y-80374295D02*
X76857350Y-80374295D01*
X76857350Y-80374295D02*
X76781160Y-80412390D01*
X76781160Y-80412390D02*
X76743065Y-80450485D01*
X76743065Y-80450485D02*
X76704969Y-80526676D01*
X76704969Y-80526676D02*
X76704969Y-80717152D01*
X76704969Y-80717152D02*
X76743065Y-80793342D01*
X76743065Y-80793342D02*
X76781160Y-80831438D01*
X76781160Y-80831438D02*
X76857350Y-80869533D01*
X76857350Y-80869533D02*
X77009731Y-80869533D01*
X77009731Y-80869533D02*
X77085922Y-80831438D01*
X77085922Y-80831438D02*
X77124017Y-80793342D01*
X77124017Y-80793342D02*
X77162112Y-80717152D01*
D11*
X32537638Y-169696917D02*
X34537638Y-168363584D01*
X32537638Y-168363584D02*
X34537638Y-169696917D01*
X32537638Y-166744536D02*
X32537638Y-167125489D01*
X32537638Y-167125489D02*
X32632876Y-167315965D01*
X32632876Y-167315965D02*
X32728114Y-167411203D01*
X32728114Y-167411203D02*
X33013828Y-167601679D01*
X33013828Y-167601679D02*
X33394780Y-167696917D01*
X33394780Y-167696917D02*
X34156685Y-167696917D01*
X34156685Y-167696917D02*
X34347161Y-167601679D01*
X34347161Y-167601679D02*
X34442400Y-167506441D01*
X34442400Y-167506441D02*
X34537638Y-167315965D01*
X34537638Y-167315965D02*
X34537638Y-166935012D01*
X34537638Y-166935012D02*
X34442400Y-166744536D01*
X34442400Y-166744536D02*
X34347161Y-166649298D01*
X34347161Y-166649298D02*
X34156685Y-166554060D01*
X34156685Y-166554060D02*
X33680495Y-166554060D01*
X33680495Y-166554060D02*
X33490019Y-166649298D01*
X33490019Y-166649298D02*
X33394780Y-166744536D01*
X33394780Y-166744536D02*
X33299542Y-166935012D01*
X33299542Y-166935012D02*
X33299542Y-167315965D01*
X33299542Y-167315965D02*
X33394780Y-167506441D01*
X33394780Y-167506441D02*
X33490019Y-167601679D01*
X33490019Y-167601679D02*
X33680495Y-167696917D01*
X33394780Y-165411203D02*
X33299542Y-165601679D01*
X33299542Y-165601679D02*
X33204304Y-165696917D01*
X33204304Y-165696917D02*
X33013828Y-165792155D01*
X33013828Y-165792155D02*
X32918590Y-165792155D01*
X32918590Y-165792155D02*
X32728114Y-165696917D01*
X32728114Y-165696917D02*
X32632876Y-165601679D01*
X32632876Y-165601679D02*
X32537638Y-165411203D01*
X32537638Y-165411203D02*
X32537638Y-165030250D01*
X32537638Y-165030250D02*
X32632876Y-164839774D01*
X32632876Y-164839774D02*
X32728114Y-164744536D01*
X32728114Y-164744536D02*
X32918590Y-164649298D01*
X32918590Y-164649298D02*
X33013828Y-164649298D01*
X33013828Y-164649298D02*
X33204304Y-164744536D01*
X33204304Y-164744536D02*
X33299542Y-164839774D01*
X33299542Y-164839774D02*
X33394780Y-165030250D01*
X33394780Y-165030250D02*
X33394780Y-165411203D01*
X33394780Y-165411203D02*
X33490019Y-165601679D01*
X33490019Y-165601679D02*
X33585257Y-165696917D01*
X33585257Y-165696917D02*
X33775733Y-165792155D01*
X33775733Y-165792155D02*
X34156685Y-165792155D01*
X34156685Y-165792155D02*
X34347161Y-165696917D01*
X34347161Y-165696917D02*
X34442400Y-165601679D01*
X34442400Y-165601679D02*
X34537638Y-165411203D01*
X34537638Y-165411203D02*
X34537638Y-165030250D01*
X34537638Y-165030250D02*
X34442400Y-164839774D01*
X34442400Y-164839774D02*
X34347161Y-164744536D01*
X34347161Y-164744536D02*
X34156685Y-164649298D01*
X34156685Y-164649298D02*
X33775733Y-164649298D01*
X33775733Y-164649298D02*
X33585257Y-164744536D01*
X33585257Y-164744536D02*
X33490019Y-164839774D01*
X33490019Y-164839774D02*
X33394780Y-165030250D01*
X32537638Y-163411203D02*
X32537638Y-163220726D01*
X32537638Y-163220726D02*
X32632876Y-163030250D01*
X32632876Y-163030250D02*
X32728114Y-162935012D01*
X32728114Y-162935012D02*
X32918590Y-162839774D01*
X32918590Y-162839774D02*
X33299542Y-162744536D01*
X33299542Y-162744536D02*
X33775733Y-162744536D01*
X33775733Y-162744536D02*
X34156685Y-162839774D01*
X34156685Y-162839774D02*
X34347161Y-162935012D01*
X34347161Y-162935012D02*
X34442400Y-163030250D01*
X34442400Y-163030250D02*
X34537638Y-163220726D01*
X34537638Y-163220726D02*
X34537638Y-163411203D01*
X34537638Y-163411203D02*
X34442400Y-163601679D01*
X34442400Y-163601679D02*
X34347161Y-163696917D01*
X34347161Y-163696917D02*
X34156685Y-163792155D01*
X34156685Y-163792155D02*
X33775733Y-163887393D01*
X33775733Y-163887393D02*
X33299542Y-163887393D01*
X33299542Y-163887393D02*
X32918590Y-163792155D01*
X32918590Y-163792155D02*
X32728114Y-163696917D01*
X32728114Y-163696917D02*
X32632876Y-163601679D01*
X32632876Y-163601679D02*
X32537638Y-163411203D01*
X32537638Y-162077869D02*
X32537638Y-160839774D01*
X32537638Y-160839774D02*
X33299542Y-161506441D01*
X33299542Y-161506441D02*
X33299542Y-161220726D01*
X33299542Y-161220726D02*
X33394780Y-161030250D01*
X33394780Y-161030250D02*
X33490019Y-160935012D01*
X33490019Y-160935012D02*
X33680495Y-160839774D01*
X33680495Y-160839774D02*
X34156685Y-160839774D01*
X34156685Y-160839774D02*
X34347161Y-160935012D01*
X34347161Y-160935012D02*
X34442400Y-161030250D01*
X34442400Y-161030250D02*
X34537638Y-161220726D01*
X34537638Y-161220726D02*
X34537638Y-161792155D01*
X34537638Y-161792155D02*
X34442400Y-161982631D01*
X34442400Y-161982631D02*
X34347161Y-162077869D01*
X32537638Y-159601679D02*
X32537638Y-159411202D01*
X32537638Y-159411202D02*
X32632876Y-159220726D01*
X32632876Y-159220726D02*
X32728114Y-159125488D01*
X32728114Y-159125488D02*
X32918590Y-159030250D01*
X32918590Y-159030250D02*
X33299542Y-158935012D01*
X33299542Y-158935012D02*
X33775733Y-158935012D01*
X33775733Y-158935012D02*
X34156685Y-159030250D01*
X34156685Y-159030250D02*
X34347161Y-159125488D01*
X34347161Y-159125488D02*
X34442400Y-159220726D01*
X34442400Y-159220726D02*
X34537638Y-159411202D01*
X34537638Y-159411202D02*
X34537638Y-159601679D01*
X34537638Y-159601679D02*
X34442400Y-159792155D01*
X34442400Y-159792155D02*
X34347161Y-159887393D01*
X34347161Y-159887393D02*
X34156685Y-159982631D01*
X34156685Y-159982631D02*
X33775733Y-160077869D01*
X33775733Y-160077869D02*
X33299542Y-160077869D01*
X33299542Y-160077869D02*
X32918590Y-159982631D01*
X32918590Y-159982631D02*
X32728114Y-159887393D01*
X32728114Y-159887393D02*
X32632876Y-159792155D01*
X32632876Y-159792155D02*
X32537638Y-159601679D01*
X34442400Y-156649297D02*
X34537638Y-156363583D01*
X34537638Y-156363583D02*
X34537638Y-155887392D01*
X34537638Y-155887392D02*
X34442400Y-155696916D01*
X34442400Y-155696916D02*
X34347161Y-155601678D01*
X34347161Y-155601678D02*
X34156685Y-155506440D01*
X34156685Y-155506440D02*
X33966209Y-155506440D01*
X33966209Y-155506440D02*
X33775733Y-155601678D01*
X33775733Y-155601678D02*
X33680495Y-155696916D01*
X33680495Y-155696916D02*
X33585257Y-155887392D01*
X33585257Y-155887392D02*
X33490019Y-156268345D01*
X33490019Y-156268345D02*
X33394780Y-156458821D01*
X33394780Y-156458821D02*
X33299542Y-156554059D01*
X33299542Y-156554059D02*
X33109066Y-156649297D01*
X33109066Y-156649297D02*
X32918590Y-156649297D01*
X32918590Y-156649297D02*
X32728114Y-156554059D01*
X32728114Y-156554059D02*
X32632876Y-156458821D01*
X32632876Y-156458821D02*
X32537638Y-156268345D01*
X32537638Y-156268345D02*
X32537638Y-155792154D01*
X32537638Y-155792154D02*
X32632876Y-155506440D01*
X34347161Y-153506440D02*
X34442400Y-153601678D01*
X34442400Y-153601678D02*
X34537638Y-153887392D01*
X34537638Y-153887392D02*
X34537638Y-154077868D01*
X34537638Y-154077868D02*
X34442400Y-154363583D01*
X34442400Y-154363583D02*
X34251923Y-154554059D01*
X34251923Y-154554059D02*
X34061447Y-154649297D01*
X34061447Y-154649297D02*
X33680495Y-154744535D01*
X33680495Y-154744535D02*
X33394780Y-154744535D01*
X33394780Y-154744535D02*
X33013828Y-154649297D01*
X33013828Y-154649297D02*
X32823352Y-154554059D01*
X32823352Y-154554059D02*
X32632876Y-154363583D01*
X32632876Y-154363583D02*
X32537638Y-154077868D01*
X32537638Y-154077868D02*
X32537638Y-153887392D01*
X32537638Y-153887392D02*
X32632876Y-153601678D01*
X32632876Y-153601678D02*
X32728114Y-153506440D01*
X34442400Y-152744535D02*
X34537638Y-152458821D01*
X34537638Y-152458821D02*
X34537638Y-151982630D01*
X34537638Y-151982630D02*
X34442400Y-151792154D01*
X34442400Y-151792154D02*
X34347161Y-151696916D01*
X34347161Y-151696916D02*
X34156685Y-151601678D01*
X34156685Y-151601678D02*
X33966209Y-151601678D01*
X33966209Y-151601678D02*
X33775733Y-151696916D01*
X33775733Y-151696916D02*
X33680495Y-151792154D01*
X33680495Y-151792154D02*
X33585257Y-151982630D01*
X33585257Y-151982630D02*
X33490019Y-152363583D01*
X33490019Y-152363583D02*
X33394780Y-152554059D01*
X33394780Y-152554059D02*
X33299542Y-152649297D01*
X33299542Y-152649297D02*
X33109066Y-152744535D01*
X33109066Y-152744535D02*
X32918590Y-152744535D01*
X32918590Y-152744535D02*
X32728114Y-152649297D01*
X32728114Y-152649297D02*
X32632876Y-152554059D01*
X32632876Y-152554059D02*
X32537638Y-152363583D01*
X32537638Y-152363583D02*
X32537638Y-151887392D01*
X32537638Y-151887392D02*
X32632876Y-151601678D01*
X34537638Y-150744535D02*
X32537638Y-150744535D01*
X33966209Y-148363582D02*
X33966209Y-147411201D01*
X34537638Y-148554058D02*
X32537638Y-147887392D01*
X32537638Y-147887392D02*
X34537638Y-147220725D01*
X34537638Y-146554058D02*
X32537638Y-146554058D01*
X32537638Y-146554058D02*
X32537638Y-146077868D01*
X32537638Y-146077868D02*
X32632876Y-145792153D01*
X32632876Y-145792153D02*
X32823352Y-145601677D01*
X32823352Y-145601677D02*
X33013828Y-145506439D01*
X33013828Y-145506439D02*
X33394780Y-145411201D01*
X33394780Y-145411201D02*
X33680495Y-145411201D01*
X33680495Y-145411201D02*
X34061447Y-145506439D01*
X34061447Y-145506439D02*
X34251923Y-145601677D01*
X34251923Y-145601677D02*
X34442400Y-145792153D01*
X34442400Y-145792153D02*
X34537638Y-146077868D01*
X34537638Y-146077868D02*
X34537638Y-146554058D01*
X33966209Y-144649296D02*
X33966209Y-143696915D01*
X34537638Y-144839772D02*
X32537638Y-144173106D01*
X32537638Y-144173106D02*
X34537638Y-143506439D01*
X34537638Y-142839772D02*
X32537638Y-142839772D01*
X32537638Y-142839772D02*
X32537638Y-142077867D01*
X32537638Y-142077867D02*
X32632876Y-141887391D01*
X32632876Y-141887391D02*
X32728114Y-141792153D01*
X32728114Y-141792153D02*
X32918590Y-141696915D01*
X32918590Y-141696915D02*
X33204304Y-141696915D01*
X33204304Y-141696915D02*
X33394780Y-141792153D01*
X33394780Y-141792153D02*
X33490019Y-141887391D01*
X33490019Y-141887391D02*
X33585257Y-142077867D01*
X33585257Y-142077867D02*
X33585257Y-142839772D01*
X32537638Y-141125486D02*
X32537638Y-139982629D01*
X34537638Y-140554058D02*
X32537638Y-140554058D01*
X33490019Y-139315962D02*
X33490019Y-138649295D01*
X34537638Y-138363581D02*
X34537638Y-139315962D01*
X34537638Y-139315962D02*
X32537638Y-139315962D01*
X32537638Y-139315962D02*
X32537638Y-138363581D01*
X34537638Y-136363581D02*
X33585257Y-137030248D01*
X34537638Y-137506438D02*
X32537638Y-137506438D01*
X32537638Y-137506438D02*
X32537638Y-136744533D01*
X32537638Y-136744533D02*
X32632876Y-136554057D01*
X32632876Y-136554057D02*
X32728114Y-136458819D01*
X32728114Y-136458819D02*
X32918590Y-136363581D01*
X32918590Y-136363581D02*
X33204304Y-136363581D01*
X33204304Y-136363581D02*
X33394780Y-136458819D01*
X33394780Y-136458819D02*
X33490019Y-136554057D01*
X33490019Y-136554057D02*
X33585257Y-136744533D01*
X33585257Y-136744533D02*
X33585257Y-137506438D01*
D10*
X38224064Y-72576485D02*
X38262160Y-72538390D01*
X38262160Y-72538390D02*
X38338350Y-72500295D01*
X38338350Y-72500295D02*
X38528826Y-72500295D01*
X38528826Y-72500295D02*
X38605017Y-72538390D01*
X38605017Y-72538390D02*
X38643112Y-72576485D01*
X38643112Y-72576485D02*
X38681207Y-72652676D01*
X38681207Y-72652676D02*
X38681207Y-72728866D01*
X38681207Y-72728866D02*
X38643112Y-72843152D01*
X38643112Y-72843152D02*
X38185969Y-73300295D01*
X38185969Y-73300295D02*
X38681207Y-73300295D01*
X57999333Y-112119580D02*
X57951714Y-112167200D01*
X57951714Y-112167200D02*
X57808857Y-112214819D01*
X57808857Y-112214819D02*
X57713619Y-112214819D01*
X57713619Y-112214819D02*
X57570762Y-112167200D01*
X57570762Y-112167200D02*
X57475524Y-112071961D01*
X57475524Y-112071961D02*
X57427905Y-111976723D01*
X57427905Y-111976723D02*
X57380286Y-111786247D01*
X57380286Y-111786247D02*
X57380286Y-111643390D01*
X57380286Y-111643390D02*
X57427905Y-111452914D01*
X57427905Y-111452914D02*
X57475524Y-111357676D01*
X57475524Y-111357676D02*
X57570762Y-111262438D01*
X57570762Y-111262438D02*
X57713619Y-111214819D01*
X57713619Y-111214819D02*
X57808857Y-111214819D01*
X57808857Y-111214819D02*
X57951714Y-111262438D01*
X57951714Y-111262438D02*
X57999333Y-111310057D01*
X58856476Y-111548152D02*
X58856476Y-112214819D01*
X58618381Y-111167200D02*
X58380286Y-111881485D01*
X58380286Y-111881485D02*
X58999333Y-111881485D01*
X31670666Y-87815009D02*
X31337333Y-87815009D01*
X31337333Y-88338819D02*
X31337333Y-87338819D01*
X31337333Y-87338819D02*
X31813523Y-87338819D01*
X32718285Y-88338819D02*
X32146857Y-88338819D01*
X32432571Y-88338819D02*
X32432571Y-87338819D01*
X32432571Y-87338819D02*
X32337333Y-87481676D01*
X32337333Y-87481676D02*
X32242095Y-87576914D01*
X32242095Y-87576914D02*
X32146857Y-87624533D01*
X57269142Y-162919580D02*
X57221523Y-162967200D01*
X57221523Y-162967200D02*
X57078666Y-163014819D01*
X57078666Y-163014819D02*
X56983428Y-163014819D01*
X56983428Y-163014819D02*
X56840571Y-162967200D01*
X56840571Y-162967200D02*
X56745333Y-162871961D01*
X56745333Y-162871961D02*
X56697714Y-162776723D01*
X56697714Y-162776723D02*
X56650095Y-162586247D01*
X56650095Y-162586247D02*
X56650095Y-162443390D01*
X56650095Y-162443390D02*
X56697714Y-162252914D01*
X56697714Y-162252914D02*
X56745333Y-162157676D01*
X56745333Y-162157676D02*
X56840571Y-162062438D01*
X56840571Y-162062438D02*
X56983428Y-162014819D01*
X56983428Y-162014819D02*
X57078666Y-162014819D01*
X57078666Y-162014819D02*
X57221523Y-162062438D01*
X57221523Y-162062438D02*
X57269142Y-162110057D01*
X58221523Y-163014819D02*
X57650095Y-163014819D01*
X57935809Y-163014819D02*
X57935809Y-162014819D01*
X57935809Y-162014819D02*
X57840571Y-162157676D01*
X57840571Y-162157676D02*
X57745333Y-162252914D01*
X57745333Y-162252914D02*
X57650095Y-162300533D01*
X58554857Y-162014819D02*
X59221523Y-162014819D01*
X59221523Y-162014819D02*
X58792952Y-163014819D01*
X57269142Y-153013580D02*
X57221523Y-153061200D01*
X57221523Y-153061200D02*
X57078666Y-153108819D01*
X57078666Y-153108819D02*
X56983428Y-153108819D01*
X56983428Y-153108819D02*
X56840571Y-153061200D01*
X56840571Y-153061200D02*
X56745333Y-152965961D01*
X56745333Y-152965961D02*
X56697714Y-152870723D01*
X56697714Y-152870723D02*
X56650095Y-152680247D01*
X56650095Y-152680247D02*
X56650095Y-152537390D01*
X56650095Y-152537390D02*
X56697714Y-152346914D01*
X56697714Y-152346914D02*
X56745333Y-152251676D01*
X56745333Y-152251676D02*
X56840571Y-152156438D01*
X56840571Y-152156438D02*
X56983428Y-152108819D01*
X56983428Y-152108819D02*
X57078666Y-152108819D01*
X57078666Y-152108819D02*
X57221523Y-152156438D01*
X57221523Y-152156438D02*
X57269142Y-152204057D01*
X58221523Y-153108819D02*
X57650095Y-153108819D01*
X57935809Y-153108819D02*
X57935809Y-152108819D01*
X57935809Y-152108819D02*
X57840571Y-152251676D01*
X57840571Y-152251676D02*
X57745333Y-152346914D01*
X57745333Y-152346914D02*
X57650095Y-152394533D01*
X58554857Y-152108819D02*
X59173904Y-152108819D01*
X59173904Y-152108819D02*
X58840571Y-152489771D01*
X58840571Y-152489771D02*
X58983428Y-152489771D01*
X58983428Y-152489771D02*
X59078666Y-152537390D01*
X59078666Y-152537390D02*
X59126285Y-152585009D01*
X59126285Y-152585009D02*
X59173904Y-152680247D01*
X59173904Y-152680247D02*
X59173904Y-152918342D01*
X59173904Y-152918342D02*
X59126285Y-153013580D01*
X59126285Y-153013580D02*
X59078666Y-153061200D01*
X59078666Y-153061200D02*
X58983428Y-153108819D01*
X58983428Y-153108819D02*
X58697714Y-153108819D01*
X58697714Y-153108819D02*
X58602476Y-153061200D01*
X58602476Y-153061200D02*
X58554857Y-153013580D01*
X57999333Y-122279580D02*
X57951714Y-122327200D01*
X57951714Y-122327200D02*
X57808857Y-122374819D01*
X57808857Y-122374819D02*
X57713619Y-122374819D01*
X57713619Y-122374819D02*
X57570762Y-122327200D01*
X57570762Y-122327200D02*
X57475524Y-122231961D01*
X57475524Y-122231961D02*
X57427905Y-122136723D01*
X57427905Y-122136723D02*
X57380286Y-121946247D01*
X57380286Y-121946247D02*
X57380286Y-121803390D01*
X57380286Y-121803390D02*
X57427905Y-121612914D01*
X57427905Y-121612914D02*
X57475524Y-121517676D01*
X57475524Y-121517676D02*
X57570762Y-121422438D01*
X57570762Y-121422438D02*
X57713619Y-121374819D01*
X57713619Y-121374819D02*
X57808857Y-121374819D01*
X57808857Y-121374819D02*
X57951714Y-121422438D01*
X57951714Y-121422438D02*
X57999333Y-121470057D01*
X58570762Y-121803390D02*
X58475524Y-121755771D01*
X58475524Y-121755771D02*
X58427905Y-121708152D01*
X58427905Y-121708152D02*
X58380286Y-121612914D01*
X58380286Y-121612914D02*
X58380286Y-121565295D01*
X58380286Y-121565295D02*
X58427905Y-121470057D01*
X58427905Y-121470057D02*
X58475524Y-121422438D01*
X58475524Y-121422438D02*
X58570762Y-121374819D01*
X58570762Y-121374819D02*
X58761238Y-121374819D01*
X58761238Y-121374819D02*
X58856476Y-121422438D01*
X58856476Y-121422438D02*
X58904095Y-121470057D01*
X58904095Y-121470057D02*
X58951714Y-121565295D01*
X58951714Y-121565295D02*
X58951714Y-121612914D01*
X58951714Y-121612914D02*
X58904095Y-121708152D01*
X58904095Y-121708152D02*
X58856476Y-121755771D01*
X58856476Y-121755771D02*
X58761238Y-121803390D01*
X58761238Y-121803390D02*
X58570762Y-121803390D01*
X58570762Y-121803390D02*
X58475524Y-121851009D01*
X58475524Y-121851009D02*
X58427905Y-121898628D01*
X58427905Y-121898628D02*
X58380286Y-121993866D01*
X58380286Y-121993866D02*
X58380286Y-122184342D01*
X58380286Y-122184342D02*
X58427905Y-122279580D01*
X58427905Y-122279580D02*
X58475524Y-122327200D01*
X58475524Y-122327200D02*
X58570762Y-122374819D01*
X58570762Y-122374819D02*
X58761238Y-122374819D01*
X58761238Y-122374819D02*
X58856476Y-122327200D01*
X58856476Y-122327200D02*
X58904095Y-122279580D01*
X58904095Y-122279580D02*
X58951714Y-122184342D01*
X58951714Y-122184342D02*
X58951714Y-121993866D01*
X58951714Y-121993866D02*
X58904095Y-121898628D01*
X58904095Y-121898628D02*
X58856476Y-121851009D01*
X58856476Y-121851009D02*
X58761238Y-121803390D01*
X57999333Y-114659580D02*
X57951714Y-114707200D01*
X57951714Y-114707200D02*
X57808857Y-114754819D01*
X57808857Y-114754819D02*
X57713619Y-114754819D01*
X57713619Y-114754819D02*
X57570762Y-114707200D01*
X57570762Y-114707200D02*
X57475524Y-114611961D01*
X57475524Y-114611961D02*
X57427905Y-114516723D01*
X57427905Y-114516723D02*
X57380286Y-114326247D01*
X57380286Y-114326247D02*
X57380286Y-114183390D01*
X57380286Y-114183390D02*
X57427905Y-113992914D01*
X57427905Y-113992914D02*
X57475524Y-113897676D01*
X57475524Y-113897676D02*
X57570762Y-113802438D01*
X57570762Y-113802438D02*
X57713619Y-113754819D01*
X57713619Y-113754819D02*
X57808857Y-113754819D01*
X57808857Y-113754819D02*
X57951714Y-113802438D01*
X57951714Y-113802438D02*
X57999333Y-113850057D01*
X58904095Y-113754819D02*
X58427905Y-113754819D01*
X58427905Y-113754819D02*
X58380286Y-114231009D01*
X58380286Y-114231009D02*
X58427905Y-114183390D01*
X58427905Y-114183390D02*
X58523143Y-114135771D01*
X58523143Y-114135771D02*
X58761238Y-114135771D01*
X58761238Y-114135771D02*
X58856476Y-114183390D01*
X58856476Y-114183390D02*
X58904095Y-114231009D01*
X58904095Y-114231009D02*
X58951714Y-114326247D01*
X58951714Y-114326247D02*
X58951714Y-114564342D01*
X58951714Y-114564342D02*
X58904095Y-114659580D01*
X58904095Y-114659580D02*
X58856476Y-114707200D01*
X58856476Y-114707200D02*
X58761238Y-114754819D01*
X58761238Y-114754819D02*
X58523143Y-114754819D01*
X58523143Y-114754819D02*
X58427905Y-114707200D01*
X58427905Y-114707200D02*
X58380286Y-114659580D01*
X72183666Y-81115819D02*
X72183666Y-81830104D01*
X72183666Y-81830104D02*
X72136047Y-81972961D01*
X72136047Y-81972961D02*
X72040809Y-82068200D01*
X72040809Y-82068200D02*
X71897952Y-82115819D01*
X71897952Y-82115819D02*
X71802714Y-82115819D01*
X73136047Y-81115819D02*
X72659857Y-81115819D01*
X72659857Y-81115819D02*
X72612238Y-81592009D01*
X72612238Y-81592009D02*
X72659857Y-81544390D01*
X72659857Y-81544390D02*
X72755095Y-81496771D01*
X72755095Y-81496771D02*
X72993190Y-81496771D01*
X72993190Y-81496771D02*
X73088428Y-81544390D01*
X73088428Y-81544390D02*
X73136047Y-81592009D01*
X73136047Y-81592009D02*
X73183666Y-81687247D01*
X73183666Y-81687247D02*
X73183666Y-81925342D01*
X73183666Y-81925342D02*
X73136047Y-82020580D01*
X73136047Y-82020580D02*
X73088428Y-82068200D01*
X73088428Y-82068200D02*
X72993190Y-82115819D01*
X72993190Y-82115819D02*
X72755095Y-82115819D01*
X72755095Y-82115819D02*
X72659857Y-82068200D01*
X72659857Y-82068200D02*
X72612238Y-82020580D01*
X35099666Y-76416819D02*
X35099666Y-77131104D01*
X35099666Y-77131104D02*
X35052047Y-77273961D01*
X35052047Y-77273961D02*
X34956809Y-77369200D01*
X34956809Y-77369200D02*
X34813952Y-77416819D01*
X34813952Y-77416819D02*
X34718714Y-77416819D01*
X35528238Y-76512057D02*
X35575857Y-76464438D01*
X35575857Y-76464438D02*
X35671095Y-76416819D01*
X35671095Y-76416819D02*
X35909190Y-76416819D01*
X35909190Y-76416819D02*
X36004428Y-76464438D01*
X36004428Y-76464438D02*
X36052047Y-76512057D01*
X36052047Y-76512057D02*
X36099666Y-76607295D01*
X36099666Y-76607295D02*
X36099666Y-76702533D01*
X36099666Y-76702533D02*
X36052047Y-76845390D01*
X36052047Y-76845390D02*
X35480619Y-77416819D01*
X35480619Y-77416819D02*
X36099666Y-77416819D01*
X57269142Y-147679580D02*
X57221523Y-147727200D01*
X57221523Y-147727200D02*
X57078666Y-147774819D01*
X57078666Y-147774819D02*
X56983428Y-147774819D01*
X56983428Y-147774819D02*
X56840571Y-147727200D01*
X56840571Y-147727200D02*
X56745333Y-147631961D01*
X56745333Y-147631961D02*
X56697714Y-147536723D01*
X56697714Y-147536723D02*
X56650095Y-147346247D01*
X56650095Y-147346247D02*
X56650095Y-147203390D01*
X56650095Y-147203390D02*
X56697714Y-147012914D01*
X56697714Y-147012914D02*
X56745333Y-146917676D01*
X56745333Y-146917676D02*
X56840571Y-146822438D01*
X56840571Y-146822438D02*
X56983428Y-146774819D01*
X56983428Y-146774819D02*
X57078666Y-146774819D01*
X57078666Y-146774819D02*
X57221523Y-146822438D01*
X57221523Y-146822438D02*
X57269142Y-146870057D01*
X58221523Y-147774819D02*
X57650095Y-147774819D01*
X57935809Y-147774819D02*
X57935809Y-146774819D01*
X57935809Y-146774819D02*
X57840571Y-146917676D01*
X57840571Y-146917676D02*
X57745333Y-147012914D01*
X57745333Y-147012914D02*
X57650095Y-147060533D01*
X59173904Y-147774819D02*
X58602476Y-147774819D01*
X58888190Y-147774819D02*
X58888190Y-146774819D01*
X58888190Y-146774819D02*
X58792952Y-146917676D01*
X58792952Y-146917676D02*
X58697714Y-147012914D01*
X58697714Y-147012914D02*
X58602476Y-147060533D01*
X57999333Y-107039580D02*
X57951714Y-107087200D01*
X57951714Y-107087200D02*
X57808857Y-107134819D01*
X57808857Y-107134819D02*
X57713619Y-107134819D01*
X57713619Y-107134819D02*
X57570762Y-107087200D01*
X57570762Y-107087200D02*
X57475524Y-106991961D01*
X57475524Y-106991961D02*
X57427905Y-106896723D01*
X57427905Y-106896723D02*
X57380286Y-106706247D01*
X57380286Y-106706247D02*
X57380286Y-106563390D01*
X57380286Y-106563390D02*
X57427905Y-106372914D01*
X57427905Y-106372914D02*
X57475524Y-106277676D01*
X57475524Y-106277676D02*
X57570762Y-106182438D01*
X57570762Y-106182438D02*
X57713619Y-106134819D01*
X57713619Y-106134819D02*
X57808857Y-106134819D01*
X57808857Y-106134819D02*
X57951714Y-106182438D01*
X57951714Y-106182438D02*
X57999333Y-106230057D01*
X58380286Y-106230057D02*
X58427905Y-106182438D01*
X58427905Y-106182438D02*
X58523143Y-106134819D01*
X58523143Y-106134819D02*
X58761238Y-106134819D01*
X58761238Y-106134819D02*
X58856476Y-106182438D01*
X58856476Y-106182438D02*
X58904095Y-106230057D01*
X58904095Y-106230057D02*
X58951714Y-106325295D01*
X58951714Y-106325295D02*
X58951714Y-106420533D01*
X58951714Y-106420533D02*
X58904095Y-106563390D01*
X58904095Y-106563390D02*
X58332667Y-107134819D01*
X58332667Y-107134819D02*
X58951714Y-107134819D01*
X57269142Y-160379580D02*
X57221523Y-160427200D01*
X57221523Y-160427200D02*
X57078666Y-160474819D01*
X57078666Y-160474819D02*
X56983428Y-160474819D01*
X56983428Y-160474819D02*
X56840571Y-160427200D01*
X56840571Y-160427200D02*
X56745333Y-160331961D01*
X56745333Y-160331961D02*
X56697714Y-160236723D01*
X56697714Y-160236723D02*
X56650095Y-160046247D01*
X56650095Y-160046247D02*
X56650095Y-159903390D01*
X56650095Y-159903390D02*
X56697714Y-159712914D01*
X56697714Y-159712914D02*
X56745333Y-159617676D01*
X56745333Y-159617676D02*
X56840571Y-159522438D01*
X56840571Y-159522438D02*
X56983428Y-159474819D01*
X56983428Y-159474819D02*
X57078666Y-159474819D01*
X57078666Y-159474819D02*
X57221523Y-159522438D01*
X57221523Y-159522438D02*
X57269142Y-159570057D01*
X58221523Y-160474819D02*
X57650095Y-160474819D01*
X57935809Y-160474819D02*
X57935809Y-159474819D01*
X57935809Y-159474819D02*
X57840571Y-159617676D01*
X57840571Y-159617676D02*
X57745333Y-159712914D01*
X57745333Y-159712914D02*
X57650095Y-159760533D01*
X59078666Y-159474819D02*
X58888190Y-159474819D01*
X58888190Y-159474819D02*
X58792952Y-159522438D01*
X58792952Y-159522438D02*
X58745333Y-159570057D01*
X58745333Y-159570057D02*
X58650095Y-159712914D01*
X58650095Y-159712914D02*
X58602476Y-159903390D01*
X58602476Y-159903390D02*
X58602476Y-160284342D01*
X58602476Y-160284342D02*
X58650095Y-160379580D01*
X58650095Y-160379580D02*
X58697714Y-160427200D01*
X58697714Y-160427200D02*
X58792952Y-160474819D01*
X58792952Y-160474819D02*
X58983428Y-160474819D01*
X58983428Y-160474819D02*
X59078666Y-160427200D01*
X59078666Y-160427200D02*
X59126285Y-160379580D01*
X59126285Y-160379580D02*
X59173904Y-160284342D01*
X59173904Y-160284342D02*
X59173904Y-160046247D01*
X59173904Y-160046247D02*
X59126285Y-159951009D01*
X59126285Y-159951009D02*
X59078666Y-159903390D01*
X59078666Y-159903390D02*
X58983428Y-159855771D01*
X58983428Y-159855771D02*
X58792952Y-159855771D01*
X58792952Y-159855771D02*
X58697714Y-159903390D01*
X58697714Y-159903390D02*
X58650095Y-159951009D01*
X58650095Y-159951009D02*
X58602476Y-160046247D01*
X41473523Y-138757819D02*
X41140190Y-138281628D01*
X40902095Y-138757819D02*
X40902095Y-137757819D01*
X40902095Y-137757819D02*
X41283047Y-137757819D01*
X41283047Y-137757819D02*
X41378285Y-137805438D01*
X41378285Y-137805438D02*
X41425904Y-137853057D01*
X41425904Y-137853057D02*
X41473523Y-137948295D01*
X41473523Y-137948295D02*
X41473523Y-138091152D01*
X41473523Y-138091152D02*
X41425904Y-138186390D01*
X41425904Y-138186390D02*
X41378285Y-138234009D01*
X41378285Y-138234009D02*
X41283047Y-138281628D01*
X41283047Y-138281628D02*
X40902095Y-138281628D01*
X41902095Y-138757819D02*
X41902095Y-137757819D01*
X41902095Y-137757819D02*
X42473523Y-138757819D01*
X42473523Y-138757819D02*
X42473523Y-137757819D01*
X42902095Y-137853057D02*
X42949714Y-137805438D01*
X42949714Y-137805438D02*
X43044952Y-137757819D01*
X43044952Y-137757819D02*
X43283047Y-137757819D01*
X43283047Y-137757819D02*
X43378285Y-137805438D01*
X43378285Y-137805438D02*
X43425904Y-137853057D01*
X43425904Y-137853057D02*
X43473523Y-137948295D01*
X43473523Y-137948295D02*
X43473523Y-138043533D01*
X43473523Y-138043533D02*
X43425904Y-138186390D01*
X43425904Y-138186390D02*
X42854476Y-138757819D01*
X42854476Y-138757819D02*
X43473523Y-138757819D01*
X57269142Y-142599580D02*
X57221523Y-142647200D01*
X57221523Y-142647200D02*
X57078666Y-142694819D01*
X57078666Y-142694819D02*
X56983428Y-142694819D01*
X56983428Y-142694819D02*
X56840571Y-142647200D01*
X56840571Y-142647200D02*
X56745333Y-142551961D01*
X56745333Y-142551961D02*
X56697714Y-142456723D01*
X56697714Y-142456723D02*
X56650095Y-142266247D01*
X56650095Y-142266247D02*
X56650095Y-142123390D01*
X56650095Y-142123390D02*
X56697714Y-141932914D01*
X56697714Y-141932914D02*
X56745333Y-141837676D01*
X56745333Y-141837676D02*
X56840571Y-141742438D01*
X56840571Y-141742438D02*
X56983428Y-141694819D01*
X56983428Y-141694819D02*
X57078666Y-141694819D01*
X57078666Y-141694819D02*
X57221523Y-141742438D01*
X57221523Y-141742438D02*
X57269142Y-141790057D01*
X58221523Y-142694819D02*
X57650095Y-142694819D01*
X57935809Y-142694819D02*
X57935809Y-141694819D01*
X57935809Y-141694819D02*
X57840571Y-141837676D01*
X57840571Y-141837676D02*
X57745333Y-141932914D01*
X57745333Y-141932914D02*
X57650095Y-141980533D01*
X58840571Y-141694819D02*
X58935809Y-141694819D01*
X58935809Y-141694819D02*
X59031047Y-141742438D01*
X59031047Y-141742438D02*
X59078666Y-141790057D01*
X59078666Y-141790057D02*
X59126285Y-141885295D01*
X59126285Y-141885295D02*
X59173904Y-142075771D01*
X59173904Y-142075771D02*
X59173904Y-142313866D01*
X59173904Y-142313866D02*
X59126285Y-142504342D01*
X59126285Y-142504342D02*
X59078666Y-142599580D01*
X59078666Y-142599580D02*
X59031047Y-142647200D01*
X59031047Y-142647200D02*
X58935809Y-142694819D01*
X58935809Y-142694819D02*
X58840571Y-142694819D01*
X58840571Y-142694819D02*
X58745333Y-142647200D01*
X58745333Y-142647200D02*
X58697714Y-142599580D01*
X58697714Y-142599580D02*
X58650095Y-142504342D01*
X58650095Y-142504342D02*
X58602476Y-142313866D01*
X58602476Y-142313866D02*
X58602476Y-142075771D01*
X58602476Y-142075771D02*
X58650095Y-141885295D01*
X58650095Y-141885295D02*
X58697714Y-141790057D01*
X58697714Y-141790057D02*
X58745333Y-141742438D01*
X58745333Y-141742438D02*
X58840571Y-141694819D01*
X57269142Y-157839580D02*
X57221523Y-157887200D01*
X57221523Y-157887200D02*
X57078666Y-157934819D01*
X57078666Y-157934819D02*
X56983428Y-157934819D01*
X56983428Y-157934819D02*
X56840571Y-157887200D01*
X56840571Y-157887200D02*
X56745333Y-157791961D01*
X56745333Y-157791961D02*
X56697714Y-157696723D01*
X56697714Y-157696723D02*
X56650095Y-157506247D01*
X56650095Y-157506247D02*
X56650095Y-157363390D01*
X56650095Y-157363390D02*
X56697714Y-157172914D01*
X56697714Y-157172914D02*
X56745333Y-157077676D01*
X56745333Y-157077676D02*
X56840571Y-156982438D01*
X56840571Y-156982438D02*
X56983428Y-156934819D01*
X56983428Y-156934819D02*
X57078666Y-156934819D01*
X57078666Y-156934819D02*
X57221523Y-156982438D01*
X57221523Y-156982438D02*
X57269142Y-157030057D01*
X58221523Y-157934819D02*
X57650095Y-157934819D01*
X57935809Y-157934819D02*
X57935809Y-156934819D01*
X57935809Y-156934819D02*
X57840571Y-157077676D01*
X57840571Y-157077676D02*
X57745333Y-157172914D01*
X57745333Y-157172914D02*
X57650095Y-157220533D01*
X59126285Y-156934819D02*
X58650095Y-156934819D01*
X58650095Y-156934819D02*
X58602476Y-157411009D01*
X58602476Y-157411009D02*
X58650095Y-157363390D01*
X58650095Y-157363390D02*
X58745333Y-157315771D01*
X58745333Y-157315771D02*
X58983428Y-157315771D01*
X58983428Y-157315771D02*
X59078666Y-157363390D01*
X59078666Y-157363390D02*
X59126285Y-157411009D01*
X59126285Y-157411009D02*
X59173904Y-157506247D01*
X59173904Y-157506247D02*
X59173904Y-157744342D01*
X59173904Y-157744342D02*
X59126285Y-157839580D01*
X59126285Y-157839580D02*
X59078666Y-157887200D01*
X59078666Y-157887200D02*
X58983428Y-157934819D01*
X58983428Y-157934819D02*
X58745333Y-157934819D01*
X58745333Y-157934819D02*
X58650095Y-157887200D01*
X58650095Y-157887200D02*
X58602476Y-157839580D01*
X57999333Y-109579580D02*
X57951714Y-109627200D01*
X57951714Y-109627200D02*
X57808857Y-109674819D01*
X57808857Y-109674819D02*
X57713619Y-109674819D01*
X57713619Y-109674819D02*
X57570762Y-109627200D01*
X57570762Y-109627200D02*
X57475524Y-109531961D01*
X57475524Y-109531961D02*
X57427905Y-109436723D01*
X57427905Y-109436723D02*
X57380286Y-109246247D01*
X57380286Y-109246247D02*
X57380286Y-109103390D01*
X57380286Y-109103390D02*
X57427905Y-108912914D01*
X57427905Y-108912914D02*
X57475524Y-108817676D01*
X57475524Y-108817676D02*
X57570762Y-108722438D01*
X57570762Y-108722438D02*
X57713619Y-108674819D01*
X57713619Y-108674819D02*
X57808857Y-108674819D01*
X57808857Y-108674819D02*
X57951714Y-108722438D01*
X57951714Y-108722438D02*
X57999333Y-108770057D01*
X58332667Y-108674819D02*
X58951714Y-108674819D01*
X58951714Y-108674819D02*
X58618381Y-109055771D01*
X58618381Y-109055771D02*
X58761238Y-109055771D01*
X58761238Y-109055771D02*
X58856476Y-109103390D01*
X58856476Y-109103390D02*
X58904095Y-109151009D01*
X58904095Y-109151009D02*
X58951714Y-109246247D01*
X58951714Y-109246247D02*
X58951714Y-109484342D01*
X58951714Y-109484342D02*
X58904095Y-109579580D01*
X58904095Y-109579580D02*
X58856476Y-109627200D01*
X58856476Y-109627200D02*
X58761238Y-109674819D01*
X58761238Y-109674819D02*
X58475524Y-109674819D01*
X58475524Y-109674819D02*
X58380286Y-109627200D01*
X58380286Y-109627200D02*
X58332667Y-109579580D01*
X41600523Y-95831819D02*
X41267190Y-95355628D01*
X41029095Y-95831819D02*
X41029095Y-94831819D01*
X41029095Y-94831819D02*
X41410047Y-94831819D01*
X41410047Y-94831819D02*
X41505285Y-94879438D01*
X41505285Y-94879438D02*
X41552904Y-94927057D01*
X41552904Y-94927057D02*
X41600523Y-95022295D01*
X41600523Y-95022295D02*
X41600523Y-95165152D01*
X41600523Y-95165152D02*
X41552904Y-95260390D01*
X41552904Y-95260390D02*
X41505285Y-95308009D01*
X41505285Y-95308009D02*
X41410047Y-95355628D01*
X41410047Y-95355628D02*
X41029095Y-95355628D01*
X42029095Y-95831819D02*
X42029095Y-94831819D01*
X42029095Y-94831819D02*
X42600523Y-95831819D01*
X42600523Y-95831819D02*
X42600523Y-94831819D01*
X43600523Y-95831819D02*
X43029095Y-95831819D01*
X43314809Y-95831819D02*
X43314809Y-94831819D01*
X43314809Y-94831819D02*
X43219571Y-94974676D01*
X43219571Y-94974676D02*
X43124333Y-95069914D01*
X43124333Y-95069914D02*
X43029095Y-95117533D01*
X57999333Y-104499580D02*
X57951714Y-104547200D01*
X57951714Y-104547200D02*
X57808857Y-104594819D01*
X57808857Y-104594819D02*
X57713619Y-104594819D01*
X57713619Y-104594819D02*
X57570762Y-104547200D01*
X57570762Y-104547200D02*
X57475524Y-104451961D01*
X57475524Y-104451961D02*
X57427905Y-104356723D01*
X57427905Y-104356723D02*
X57380286Y-104166247D01*
X57380286Y-104166247D02*
X57380286Y-104023390D01*
X57380286Y-104023390D02*
X57427905Y-103832914D01*
X57427905Y-103832914D02*
X57475524Y-103737676D01*
X57475524Y-103737676D02*
X57570762Y-103642438D01*
X57570762Y-103642438D02*
X57713619Y-103594819D01*
X57713619Y-103594819D02*
X57808857Y-103594819D01*
X57808857Y-103594819D02*
X57951714Y-103642438D01*
X57951714Y-103642438D02*
X57999333Y-103690057D01*
X58951714Y-104594819D02*
X58380286Y-104594819D01*
X58666000Y-104594819D02*
X58666000Y-103594819D01*
X58666000Y-103594819D02*
X58570762Y-103737676D01*
X58570762Y-103737676D02*
X58475524Y-103832914D01*
X58475524Y-103832914D02*
X58380286Y-103880533D01*
X57999333Y-117199580D02*
X57951714Y-117247200D01*
X57951714Y-117247200D02*
X57808857Y-117294819D01*
X57808857Y-117294819D02*
X57713619Y-117294819D01*
X57713619Y-117294819D02*
X57570762Y-117247200D01*
X57570762Y-117247200D02*
X57475524Y-117151961D01*
X57475524Y-117151961D02*
X57427905Y-117056723D01*
X57427905Y-117056723D02*
X57380286Y-116866247D01*
X57380286Y-116866247D02*
X57380286Y-116723390D01*
X57380286Y-116723390D02*
X57427905Y-116532914D01*
X57427905Y-116532914D02*
X57475524Y-116437676D01*
X57475524Y-116437676D02*
X57570762Y-116342438D01*
X57570762Y-116342438D02*
X57713619Y-116294819D01*
X57713619Y-116294819D02*
X57808857Y-116294819D01*
X57808857Y-116294819D02*
X57951714Y-116342438D01*
X57951714Y-116342438D02*
X57999333Y-116390057D01*
X58856476Y-116294819D02*
X58666000Y-116294819D01*
X58666000Y-116294819D02*
X58570762Y-116342438D01*
X58570762Y-116342438D02*
X58523143Y-116390057D01*
X58523143Y-116390057D02*
X58427905Y-116532914D01*
X58427905Y-116532914D02*
X58380286Y-116723390D01*
X58380286Y-116723390D02*
X58380286Y-117104342D01*
X58380286Y-117104342D02*
X58427905Y-117199580D01*
X58427905Y-117199580D02*
X58475524Y-117247200D01*
X58475524Y-117247200D02*
X58570762Y-117294819D01*
X58570762Y-117294819D02*
X58761238Y-117294819D01*
X58761238Y-117294819D02*
X58856476Y-117247200D01*
X58856476Y-117247200D02*
X58904095Y-117199580D01*
X58904095Y-117199580D02*
X58951714Y-117104342D01*
X58951714Y-117104342D02*
X58951714Y-116866247D01*
X58951714Y-116866247D02*
X58904095Y-116771009D01*
X58904095Y-116771009D02*
X58856476Y-116723390D01*
X58856476Y-116723390D02*
X58761238Y-116675771D01*
X58761238Y-116675771D02*
X58570762Y-116675771D01*
X58570762Y-116675771D02*
X58475524Y-116723390D01*
X58475524Y-116723390D02*
X58427905Y-116771009D01*
X58427905Y-116771009D02*
X58380286Y-116866247D01*
X57269142Y-155299580D02*
X57221523Y-155347200D01*
X57221523Y-155347200D02*
X57078666Y-155394819D01*
X57078666Y-155394819D02*
X56983428Y-155394819D01*
X56983428Y-155394819D02*
X56840571Y-155347200D01*
X56840571Y-155347200D02*
X56745333Y-155251961D01*
X56745333Y-155251961D02*
X56697714Y-155156723D01*
X56697714Y-155156723D02*
X56650095Y-154966247D01*
X56650095Y-154966247D02*
X56650095Y-154823390D01*
X56650095Y-154823390D02*
X56697714Y-154632914D01*
X56697714Y-154632914D02*
X56745333Y-154537676D01*
X56745333Y-154537676D02*
X56840571Y-154442438D01*
X56840571Y-154442438D02*
X56983428Y-154394819D01*
X56983428Y-154394819D02*
X57078666Y-154394819D01*
X57078666Y-154394819D02*
X57221523Y-154442438D01*
X57221523Y-154442438D02*
X57269142Y-154490057D01*
X58221523Y-155394819D02*
X57650095Y-155394819D01*
X57935809Y-155394819D02*
X57935809Y-154394819D01*
X57935809Y-154394819D02*
X57840571Y-154537676D01*
X57840571Y-154537676D02*
X57745333Y-154632914D01*
X57745333Y-154632914D02*
X57650095Y-154680533D01*
X59078666Y-154728152D02*
X59078666Y-155394819D01*
X58840571Y-154347200D02*
X58602476Y-155061485D01*
X58602476Y-155061485D02*
X59221523Y-155061485D01*
X57999333Y-124819580D02*
X57951714Y-124867200D01*
X57951714Y-124867200D02*
X57808857Y-124914819D01*
X57808857Y-124914819D02*
X57713619Y-124914819D01*
X57713619Y-124914819D02*
X57570762Y-124867200D01*
X57570762Y-124867200D02*
X57475524Y-124771961D01*
X57475524Y-124771961D02*
X57427905Y-124676723D01*
X57427905Y-124676723D02*
X57380286Y-124486247D01*
X57380286Y-124486247D02*
X57380286Y-124343390D01*
X57380286Y-124343390D02*
X57427905Y-124152914D01*
X57427905Y-124152914D02*
X57475524Y-124057676D01*
X57475524Y-124057676D02*
X57570762Y-123962438D01*
X57570762Y-123962438D02*
X57713619Y-123914819D01*
X57713619Y-123914819D02*
X57808857Y-123914819D01*
X57808857Y-123914819D02*
X57951714Y-123962438D01*
X57951714Y-123962438D02*
X57999333Y-124010057D01*
X58475524Y-124914819D02*
X58666000Y-124914819D01*
X58666000Y-124914819D02*
X58761238Y-124867200D01*
X58761238Y-124867200D02*
X58808857Y-124819580D01*
X58808857Y-124819580D02*
X58904095Y-124676723D01*
X58904095Y-124676723D02*
X58951714Y-124486247D01*
X58951714Y-124486247D02*
X58951714Y-124105295D01*
X58951714Y-124105295D02*
X58904095Y-124010057D01*
X58904095Y-124010057D02*
X58856476Y-123962438D01*
X58856476Y-123962438D02*
X58761238Y-123914819D01*
X58761238Y-123914819D02*
X58570762Y-123914819D01*
X58570762Y-123914819D02*
X58475524Y-123962438D01*
X58475524Y-123962438D02*
X58427905Y-124010057D01*
X58427905Y-124010057D02*
X58380286Y-124105295D01*
X58380286Y-124105295D02*
X58380286Y-124343390D01*
X58380286Y-124343390D02*
X58427905Y-124438628D01*
X58427905Y-124438628D02*
X58475524Y-124486247D01*
X58475524Y-124486247D02*
X58570762Y-124533866D01*
X58570762Y-124533866D02*
X58761238Y-124533866D01*
X58761238Y-124533866D02*
X58856476Y-124486247D01*
X58856476Y-124486247D02*
X58904095Y-124438628D01*
X58904095Y-124438628D02*
X58951714Y-124343390D01*
X57269142Y-150219580D02*
X57221523Y-150267200D01*
X57221523Y-150267200D02*
X57078666Y-150314819D01*
X57078666Y-150314819D02*
X56983428Y-150314819D01*
X56983428Y-150314819D02*
X56840571Y-150267200D01*
X56840571Y-150267200D02*
X56745333Y-150171961D01*
X56745333Y-150171961D02*
X56697714Y-150076723D01*
X56697714Y-150076723D02*
X56650095Y-149886247D01*
X56650095Y-149886247D02*
X56650095Y-149743390D01*
X56650095Y-149743390D02*
X56697714Y-149552914D01*
X56697714Y-149552914D02*
X56745333Y-149457676D01*
X56745333Y-149457676D02*
X56840571Y-149362438D01*
X56840571Y-149362438D02*
X56983428Y-149314819D01*
X56983428Y-149314819D02*
X57078666Y-149314819D01*
X57078666Y-149314819D02*
X57221523Y-149362438D01*
X57221523Y-149362438D02*
X57269142Y-149410057D01*
X58221523Y-150314819D02*
X57650095Y-150314819D01*
X57935809Y-150314819D02*
X57935809Y-149314819D01*
X57935809Y-149314819D02*
X57840571Y-149457676D01*
X57840571Y-149457676D02*
X57745333Y-149552914D01*
X57745333Y-149552914D02*
X57650095Y-149600533D01*
X58602476Y-149410057D02*
X58650095Y-149362438D01*
X58650095Y-149362438D02*
X58745333Y-149314819D01*
X58745333Y-149314819D02*
X58983428Y-149314819D01*
X58983428Y-149314819D02*
X59078666Y-149362438D01*
X59078666Y-149362438D02*
X59126285Y-149410057D01*
X59126285Y-149410057D02*
X59173904Y-149505295D01*
X59173904Y-149505295D02*
X59173904Y-149600533D01*
X59173904Y-149600533D02*
X59126285Y-149743390D01*
X59126285Y-149743390D02*
X58554857Y-150314819D01*
X58554857Y-150314819D02*
X59173904Y-150314819D01*
X57999333Y-119739580D02*
X57951714Y-119787200D01*
X57951714Y-119787200D02*
X57808857Y-119834819D01*
X57808857Y-119834819D02*
X57713619Y-119834819D01*
X57713619Y-119834819D02*
X57570762Y-119787200D01*
X57570762Y-119787200D02*
X57475524Y-119691961D01*
X57475524Y-119691961D02*
X57427905Y-119596723D01*
X57427905Y-119596723D02*
X57380286Y-119406247D01*
X57380286Y-119406247D02*
X57380286Y-119263390D01*
X57380286Y-119263390D02*
X57427905Y-119072914D01*
X57427905Y-119072914D02*
X57475524Y-118977676D01*
X57475524Y-118977676D02*
X57570762Y-118882438D01*
X57570762Y-118882438D02*
X57713619Y-118834819D01*
X57713619Y-118834819D02*
X57808857Y-118834819D01*
X57808857Y-118834819D02*
X57951714Y-118882438D01*
X57951714Y-118882438D02*
X57999333Y-118930057D01*
X58332667Y-118834819D02*
X58999333Y-118834819D01*
X58999333Y-118834819D02*
X58570762Y-119834819D01*
X51208666Y-96824819D02*
X51208666Y-97539104D01*
X51208666Y-97539104D02*
X51161047Y-97681961D01*
X51161047Y-97681961D02*
X51065809Y-97777200D01*
X51065809Y-97777200D02*
X50922952Y-97824819D01*
X50922952Y-97824819D02*
X50827714Y-97824819D01*
X52208666Y-97824819D02*
X51637238Y-97824819D01*
X51922952Y-97824819D02*
X51922952Y-96824819D01*
X51922952Y-96824819D02*
X51827714Y-96967676D01*
X51827714Y-96967676D02*
X51732476Y-97062914D01*
X51732476Y-97062914D02*
X51637238Y-97110533D01*
X57269142Y-165459580D02*
X57221523Y-165507200D01*
X57221523Y-165507200D02*
X57078666Y-165554819D01*
X57078666Y-165554819D02*
X56983428Y-165554819D01*
X56983428Y-165554819D02*
X56840571Y-165507200D01*
X56840571Y-165507200D02*
X56745333Y-165411961D01*
X56745333Y-165411961D02*
X56697714Y-165316723D01*
X56697714Y-165316723D02*
X56650095Y-165126247D01*
X56650095Y-165126247D02*
X56650095Y-164983390D01*
X56650095Y-164983390D02*
X56697714Y-164792914D01*
X56697714Y-164792914D02*
X56745333Y-164697676D01*
X56745333Y-164697676D02*
X56840571Y-164602438D01*
X56840571Y-164602438D02*
X56983428Y-164554819D01*
X56983428Y-164554819D02*
X57078666Y-164554819D01*
X57078666Y-164554819D02*
X57221523Y-164602438D01*
X57221523Y-164602438D02*
X57269142Y-164650057D01*
X58221523Y-165554819D02*
X57650095Y-165554819D01*
X57935809Y-165554819D02*
X57935809Y-164554819D01*
X57935809Y-164554819D02*
X57840571Y-164697676D01*
X57840571Y-164697676D02*
X57745333Y-164792914D01*
X57745333Y-164792914D02*
X57650095Y-164840533D01*
X58792952Y-164983390D02*
X58697714Y-164935771D01*
X58697714Y-164935771D02*
X58650095Y-164888152D01*
X58650095Y-164888152D02*
X58602476Y-164792914D01*
X58602476Y-164792914D02*
X58602476Y-164745295D01*
X58602476Y-164745295D02*
X58650095Y-164650057D01*
X58650095Y-164650057D02*
X58697714Y-164602438D01*
X58697714Y-164602438D02*
X58792952Y-164554819D01*
X58792952Y-164554819D02*
X58983428Y-164554819D01*
X58983428Y-164554819D02*
X59078666Y-164602438D01*
X59078666Y-164602438D02*
X59126285Y-164650057D01*
X59126285Y-164650057D02*
X59173904Y-164745295D01*
X59173904Y-164745295D02*
X59173904Y-164792914D01*
X59173904Y-164792914D02*
X59126285Y-164888152D01*
X59126285Y-164888152D02*
X59078666Y-164935771D01*
X59078666Y-164935771D02*
X58983428Y-164983390D01*
X58983428Y-164983390D02*
X58792952Y-164983390D01*
X58792952Y-164983390D02*
X58697714Y-165031009D01*
X58697714Y-165031009D02*
X58650095Y-165078628D01*
X58650095Y-165078628D02*
X58602476Y-165173866D01*
X58602476Y-165173866D02*
X58602476Y-165364342D01*
X58602476Y-165364342D02*
X58650095Y-165459580D01*
X58650095Y-165459580D02*
X58697714Y-165507200D01*
X58697714Y-165507200D02*
X58792952Y-165554819D01*
X58792952Y-165554819D02*
X58983428Y-165554819D01*
X58983428Y-165554819D02*
X59078666Y-165507200D01*
X59078666Y-165507200D02*
X59126285Y-165459580D01*
X59126285Y-165459580D02*
X59173904Y-165364342D01*
X59173904Y-165364342D02*
X59173904Y-165173866D01*
X59173904Y-165173866D02*
X59126285Y-165078628D01*
X59126285Y-165078628D02*
X59078666Y-165031009D01*
X59078666Y-165031009D02*
X58983428Y-164983390D01*
D12*
%TO.C,C4*%
X61206748Y-111025000D02*
X61729252Y-111025000D01*
X61206748Y-112495000D02*
X61729252Y-112495000D01*
%TO.C,F1*%
X33326000Y-88145252D02*
X33326000Y-87622748D01*
X34746000Y-88145252D02*
X34746000Y-87622748D01*
%TO.C,C17*%
X61206748Y-161825000D02*
X61729252Y-161825000D01*
X61206748Y-163295000D02*
X61729252Y-163295000D01*
%TO.C,C13*%
X61206748Y-151665000D02*
X61729252Y-151665000D01*
X61206748Y-153135000D02*
X61729252Y-153135000D01*
%TO.C,C8*%
X61206748Y-121185000D02*
X61729252Y-121185000D01*
X61206748Y-122655000D02*
X61729252Y-122655000D01*
%TO.C,C5*%
X61206748Y-113565000D02*
X61729252Y-113565000D01*
X61206748Y-115035000D02*
X61729252Y-115035000D01*
%TO.C,J5*%
X71480000Y-83180000D02*
X72750000Y-83180000D01*
X71480000Y-84450000D02*
X71480000Y-83180000D01*
X73792929Y-86610000D02*
X74190000Y-86610000D01*
X73792929Y-87370000D02*
X74190000Y-87370000D01*
X73792929Y-89150000D02*
X74190000Y-89150000D01*
X73792929Y-89910000D02*
X74190000Y-89910000D01*
X73792929Y-91690000D02*
X74190000Y-91690000D01*
X73792929Y-92450000D02*
X74190000Y-92450000D01*
X73860000Y-84070000D02*
X74190000Y-84070000D01*
X73860000Y-84830000D02*
X74190000Y-84830000D01*
X74190000Y-83120000D02*
X74190000Y-93400000D01*
X74190000Y-85720000D02*
X76850000Y-85720000D01*
X74190000Y-88260000D02*
X76850000Y-88260000D01*
X74190000Y-90800000D02*
X76850000Y-90800000D01*
X74190000Y-93400000D02*
X76850000Y-93400000D01*
X76850000Y-83120000D02*
X74190000Y-83120000D01*
X76850000Y-84070000D02*
X82850000Y-84070000D01*
X76850000Y-84130000D02*
X82850000Y-84130000D01*
X76850000Y-84250000D02*
X82850000Y-84250000D01*
X76850000Y-84370000D02*
X82850000Y-84370000D01*
X76850000Y-84490000D02*
X82850000Y-84490000D01*
X76850000Y-84610000D02*
X82850000Y-84610000D01*
X76850000Y-84730000D02*
X82850000Y-84730000D01*
X76850000Y-86610000D02*
X82850000Y-86610000D01*
X76850000Y-89150000D02*
X82850000Y-89150000D01*
X76850000Y-91690000D02*
X82850000Y-91690000D01*
X76850000Y-93400000D02*
X76850000Y-83120000D01*
X82850000Y-84070000D02*
X82850000Y-84830000D01*
X82850000Y-84830000D02*
X76850000Y-84830000D01*
X82850000Y-86610000D02*
X82850000Y-87370000D01*
X82850000Y-87370000D02*
X76850000Y-87370000D01*
X82850000Y-89150000D02*
X82850000Y-89910000D01*
X82850000Y-89910000D02*
X76850000Y-89910000D01*
X82850000Y-91690000D02*
X82850000Y-92450000D01*
X82850000Y-92450000D02*
X76850000Y-92450000D01*
%TO.C,J2*%
X37440000Y-74940000D02*
X77560000Y-74940000D01*
X37440000Y-77000000D02*
X37440000Y-74940000D01*
X37440000Y-79060000D02*
X37440000Y-78000000D01*
X38500000Y-79060000D02*
X37440000Y-79060000D01*
X39500000Y-77000000D02*
X37440000Y-77000000D01*
X39500000Y-79060000D02*
X39500000Y-77000000D01*
X39500000Y-79060000D02*
X77560000Y-79060000D01*
X77560000Y-79060000D02*
X77560000Y-74940000D01*
%TO.C,C11*%
X61206748Y-146585000D02*
X61729252Y-146585000D01*
X61206748Y-148055000D02*
X61729252Y-148055000D01*
%TO.C,C2*%
X61206748Y-105945000D02*
X61729252Y-105945000D01*
X61206748Y-107415000D02*
X61729252Y-107415000D01*
%TO.C,C16*%
X61238748Y-159265000D02*
X61761252Y-159265000D01*
X61238748Y-160735000D02*
X61761252Y-160735000D01*
%TO.C,RN2*%
X37462000Y-136736000D02*
X37462000Y-165016000D01*
X37462000Y-165016000D02*
X40262000Y-165016000D01*
X40262000Y-136736000D02*
X37462000Y-136736000D01*
X40262000Y-139446000D02*
X37462000Y-139446000D01*
X40262000Y-165016000D02*
X40262000Y-136736000D01*
%TO.C,C10*%
X61206748Y-141505000D02*
X61729252Y-141505000D01*
X61206748Y-142975000D02*
X61729252Y-142975000D01*
%TO.C,J3*%
X39569000Y-133141000D02*
X39569000Y-125401000D01*
X42169000Y-130541000D02*
X42169000Y-133141000D01*
X42169000Y-133141000D02*
X39569000Y-133141000D01*
X44769000Y-125401000D02*
X39569000Y-125401000D01*
X44769000Y-130541000D02*
X42169000Y-130541000D01*
X44769000Y-130541000D02*
X44769000Y-125401000D01*
X44769000Y-131811000D02*
X44769000Y-133141000D01*
X44769000Y-133141000D02*
X43439000Y-133141000D01*
%TO.C,C15*%
X61238748Y-156765000D02*
X61761252Y-156765000D01*
X61238748Y-158235000D02*
X61761252Y-158235000D01*
%TO.C,C3*%
X61206748Y-108485000D02*
X61729252Y-108485000D01*
X61206748Y-109955000D02*
X61729252Y-109955000D01*
%TO.C,RN1*%
X37462000Y-93810000D02*
X37462000Y-122090000D01*
X37462000Y-122090000D02*
X40262000Y-122090000D01*
X40262000Y-93810000D02*
X37462000Y-93810000D01*
X40262000Y-96520000D02*
X37462000Y-96520000D01*
X40262000Y-122090000D02*
X40262000Y-93810000D01*
%TO.C,C1*%
X61238748Y-103265000D02*
X61761252Y-103265000D01*
X61238748Y-104735000D02*
X61761252Y-104735000D01*
%TO.C,C6*%
X61238748Y-116015000D02*
X61761252Y-116015000D01*
X61238748Y-117485000D02*
X61761252Y-117485000D01*
%TO.C,C14*%
X61206748Y-154205000D02*
X61729252Y-154205000D01*
X61206748Y-155675000D02*
X61729252Y-155675000D01*
%TO.C,C9*%
X61206748Y-123725000D02*
X61729252Y-123725000D01*
X61206748Y-125195000D02*
X61729252Y-125195000D01*
%TO.C,C12*%
X61206748Y-149125000D02*
X61729252Y-149125000D01*
X61206748Y-150595000D02*
X61729252Y-150595000D01*
%TO.C,C7*%
X61206748Y-118645000D02*
X61729252Y-118645000D01*
X61206748Y-120115000D02*
X61729252Y-120115000D01*
%TO.C,J1*%
X45612000Y-103640000D02*
X45612000Y-104640000D01*
X45612000Y-104640000D02*
X46612000Y-104140000D01*
X46612000Y-104140000D02*
X45612000Y-103640000D01*
X47002000Y-98930000D02*
X56122000Y-98930000D01*
X47002000Y-132570000D02*
X48312000Y-132570000D01*
X47002000Y-170310000D02*
X47002000Y-98930000D01*
X48312000Y-100230000D02*
X54812000Y-100230000D01*
X48312000Y-132570000D02*
X48312000Y-100230000D01*
X48312000Y-136670000D02*
X47002000Y-136670000D01*
X48312000Y-136670000D02*
X48312000Y-136670000D01*
X48312000Y-169010000D02*
X48312000Y-136670000D01*
X54812000Y-100230000D02*
X54812000Y-169010000D01*
X54812000Y-169010000D02*
X48312000Y-169010000D01*
X56122000Y-98930000D02*
X56122000Y-170310000D01*
X56122000Y-170310000D02*
X47002000Y-170310000D01*
%TO.C,C18*%
X61206748Y-164365000D02*
X61729252Y-164365000D01*
X61206748Y-165835000D02*
X61729252Y-165835000D01*
%TD*%
M02*
