%TF.GenerationSoftware,KiCad,Pcbnew,8.0.8*%
%TF.CreationDate,2025-01-30T20:37:13+01:00*%
%TF.ProjectId,x68030_scsi,78363830-3330-45f7-9363-73692e6b6963,rev?*%
%TF.SameCoordinates,Original*%
%TF.FileFunction,Soldermask,Bot*%
%TF.FilePolarity,Negative*%
%FSLAX46Y46*%
G04 Gerber Fmt 4.6, Leading zero omitted, Abs format (unit mm)*
G04 Created by KiCad (PCBNEW 8.0.8) date 2025-01-30 20:37:13*
%MOMM*%
%LPD*%
G01*
G04 APERTURE LIST*
G04 Aperture macros list*
%AMRoundRect*
0 Rectangle with rounded corners*
0 $1 Rounding radius*
0 $2 $3 $4 $5 $6 $7 $8 $9 X,Y pos of 4 corners*
0 Add a 4 corners polygon primitive as box body*
4,1,4,$2,$3,$4,$5,$6,$7,$8,$9,$2,$3,0*
0 Add four circle primitives for the rounded corners*
1,1,$1+$1,$2,$3*
1,1,$1+$1,$4,$5*
1,1,$1+$1,$6,$7*
1,1,$1+$1,$8,$9*
0 Add four rect primitives between the rounded corners*
20,1,$1+$1,$2,$3,$4,$5,0*
20,1,$1+$1,$4,$5,$6,$7,0*
20,1,$1+$1,$6,$7,$8,$9,0*
20,1,$1+$1,$8,$9,$2,$3,0*%
G04 Aperture macros list end*
%ADD10C,4.300000*%
%ADD11R,1.350000X1.350000*%
%ADD12O,1.350000X1.350000*%
%ADD13R,1.700000X1.700000*%
%ADD14O,1.700000X1.700000*%
%ADD15RoundRect,0.250000X-0.600000X-0.600000X0.600000X-0.600000X0.600000X0.600000X-0.600000X0.600000X0*%
%ADD16C,1.700000*%
G04 APERTURE END LIST*
D10*
%TO.C,H1*%
X41000000Y-88000000D03*
%TD*%
D11*
%TO.C,J2*%
X38500000Y-78000000D03*
D12*
X38500000Y-76000000D03*
X40500000Y-78000000D03*
X40500000Y-76000000D03*
X42500000Y-78000000D03*
X42500000Y-76000000D03*
X44500000Y-78000000D03*
X44500000Y-76000000D03*
X46500000Y-78000000D03*
X46500000Y-76000000D03*
X48500000Y-78000000D03*
X48500000Y-76000000D03*
X50500000Y-78000000D03*
X50500000Y-76000000D03*
X52500000Y-78000000D03*
X52500000Y-76000000D03*
X54500000Y-78000000D03*
X54500000Y-76000000D03*
X56500000Y-78000000D03*
X56500000Y-76000000D03*
X58500000Y-78000000D03*
X58500000Y-76000000D03*
X60500000Y-78000000D03*
X60500000Y-76000000D03*
X62500000Y-78000000D03*
X62500000Y-76000000D03*
X64500000Y-78000000D03*
X64500000Y-76000000D03*
X66500000Y-78000000D03*
X66500000Y-76000000D03*
X68500000Y-78000000D03*
X68500000Y-76000000D03*
X70500000Y-78000000D03*
X70500000Y-76000000D03*
X72500000Y-78000000D03*
X72500000Y-76000000D03*
X74500000Y-78000000D03*
X74500000Y-76000000D03*
X76500000Y-78000000D03*
X76500000Y-76000000D03*
%TD*%
D13*
%TO.C,J3*%
X37000000Y-146000000D03*
D14*
X34460000Y-146000000D03*
X37000000Y-143460000D03*
X34460000Y-143460000D03*
X37000000Y-140920000D03*
X34460000Y-140920000D03*
%TD*%
D10*
%TO.C,H2*%
X41000000Y-170000000D03*
%TD*%
D15*
%TO.C,J1*%
X55500000Y-104020000D03*
D16*
X58040000Y-104020000D03*
X55500000Y-106560000D03*
X58040000Y-106560000D03*
X55500000Y-109100000D03*
X58040000Y-109100000D03*
X55500000Y-111640000D03*
X58040000Y-111640000D03*
X55500000Y-114180000D03*
X58040000Y-114180000D03*
X55500000Y-116720000D03*
X58040000Y-116720000D03*
X55500000Y-119260000D03*
X58040000Y-119260000D03*
X55500000Y-121800000D03*
X58040000Y-121800000D03*
X55500000Y-124340000D03*
X58040000Y-124340000D03*
X55500000Y-126880000D03*
X58040000Y-126880000D03*
X55500000Y-129420000D03*
X58040000Y-129420000D03*
X55500000Y-131960000D03*
X58040000Y-131960000D03*
X55500000Y-134500000D03*
X58040000Y-134500000D03*
X55500000Y-137040000D03*
X58040000Y-137040000D03*
X55500000Y-139580000D03*
X58040000Y-139580000D03*
X55500000Y-142120000D03*
X58040000Y-142120000D03*
X55500000Y-144660000D03*
X58040000Y-144660000D03*
X55500000Y-147200000D03*
X58040000Y-147200000D03*
X55500000Y-149740000D03*
X58040000Y-149740000D03*
X55500000Y-152280000D03*
X58040000Y-152280000D03*
X55500000Y-154820000D03*
X58040000Y-154820000D03*
X55500000Y-157360000D03*
X58040000Y-157360000D03*
X55500000Y-159900000D03*
X58040000Y-159900000D03*
X55500000Y-162440000D03*
X58040000Y-162440000D03*
X55500000Y-164980000D03*
X58040000Y-164980000D03*
%TD*%
M02*
