M48
; DRILL file {KiCad 8.0.8} date 2025-01-30T20:34:16+0100
; FORMAT={-:-/ absolute / metric / decimal}
; #@! TF.CreationDate,2025-01-30T20:34:16+01:00
; #@! TF.GenerationSoftware,Kicad,Pcbnew,8.0.8
; #@! TF.FileFunction,Plated,1,2,PTH
FMAT,2
METRIC
; #@! TA.AperFunction,Plated,PTH,ViaDrill
T1C0.400
; #@! TA.AperFunction,Plated,PTH,ComponentDrill
T2C0.800
; #@! TA.AperFunction,Plated,PTH,ComponentDrill
T3C1.000
%
G90
G05
T1
X32.0Y-72.0
X32.5Y-154.0
X32.5Y-173.0
X36.5Y-107.5
X37.5Y-126.0
X38.5Y-93.0
X39.5Y-104.5
X39.5Y-109.0
X43.0Y-93.0
X47.0Y-92.5
X47.569Y-82.569
X48.0Y-173.0
X49.0Y-96.0
X49.0Y-98.0
X49.5Y-134.0
X49.5Y-136.5
X50.324Y-82.324
X50.5Y-101.5
X52.5Y-82.0
X53.0Y-157.5
X54.5Y-82.0
X56.5Y-82.0
X58.0Y-72.0
X59.554Y-83.054
X61.5Y-87.5
X62.0Y-173.0
X63.5Y-87.0
X66.0Y-87.0
X68.5Y-87.5
X71.5Y-87.5
X71.5Y-90.5
X72.75Y-82.75
X75.0Y-87.5
X78.5Y-77.5
X79.0Y-88.0
X80.0Y-87.5
X84.0Y-72.0
X84.0Y-93.0
T2
X38.5Y-76.0
X38.5Y-78.0
X40.5Y-76.0
X40.5Y-78.0
X42.5Y-76.0
X42.5Y-78.0
X44.5Y-76.0
X44.5Y-78.0
X46.5Y-76.0
X46.5Y-78.0
X48.5Y-76.0
X48.5Y-78.0
X50.5Y-76.0
X50.5Y-78.0
X52.5Y-76.0
X52.5Y-78.0
X54.5Y-76.0
X54.5Y-78.0
X56.5Y-76.0
X56.5Y-78.0
X58.5Y-76.0
X58.5Y-78.0
X60.5Y-76.0
X60.5Y-78.0
X62.5Y-76.0
X62.5Y-78.0
X64.5Y-76.0
X64.5Y-78.0
X66.5Y-76.0
X66.5Y-78.0
X68.5Y-76.0
X68.5Y-78.0
X70.5Y-76.0
X70.5Y-78.0
X72.5Y-76.0
X72.5Y-78.0
X74.5Y-76.0
X74.5Y-78.0
X76.5Y-76.0
X76.5Y-78.0
T3
X34.46Y-140.92
X34.46Y-143.46
X34.46Y-146.0
X37.0Y-140.92
X37.0Y-143.46
X37.0Y-146.0
X55.5Y-104.02
X55.5Y-106.56
X55.5Y-109.1
X55.5Y-111.64
X55.5Y-114.18
X55.5Y-116.72
X55.5Y-119.26
X55.5Y-121.8
X55.5Y-124.34
X55.5Y-126.88
X55.5Y-129.42
X55.5Y-131.96
X55.5Y-134.5
X55.5Y-137.04
X55.5Y-139.58
X55.5Y-142.12
X55.5Y-144.66
X55.5Y-147.2
X55.5Y-149.74
X55.5Y-152.28
X55.5Y-154.82
X55.5Y-157.36
X55.5Y-159.9
X55.5Y-162.44
X55.5Y-164.98
X58.04Y-104.02
X58.04Y-106.56
X58.04Y-109.1
X58.04Y-111.64
X58.04Y-114.18
X58.04Y-116.72
X58.04Y-119.26
X58.04Y-121.8
X58.04Y-124.34
X58.04Y-126.88
X58.04Y-129.42
X58.04Y-131.96
X58.04Y-134.5
X58.04Y-137.04
X58.04Y-139.58
X58.04Y-142.12
X58.04Y-144.66
X58.04Y-147.2
X58.04Y-149.74
X58.04Y-152.28
X58.04Y-154.82
X58.04Y-157.36
X58.04Y-159.9
X58.04Y-162.44
X58.04Y-164.98
M30
