%TF.GenerationSoftware,KiCad,Pcbnew,8.0.8*%
%TF.CreationDate,2025-02-28T07:36:19+01:00*%
%TF.ProjectId,x68030_scsi,78363830-3330-45f7-9363-73692e6b6963,rev?*%
%TF.SameCoordinates,Original*%
%TF.FileFunction,Copper,L1,Top*%
%TF.FilePolarity,Positive*%
%FSLAX46Y46*%
G04 Gerber Fmt 4.6, Leading zero omitted, Abs format (unit mm)*
G04 Created by KiCad (PCBNEW 8.0.8) date 2025-02-28 07:36:19*
%MOMM*%
%LPD*%
G01*
G04 APERTURE LIST*
G04 Aperture macros list*
%AMRoundRect*
0 Rectangle with rounded corners*
0 $1 Rounding radius*
0 $2 $3 $4 $5 $6 $7 $8 $9 X,Y pos of 4 corners*
0 Add a 4 corners polygon primitive as box body*
4,1,4,$2,$3,$4,$5,$6,$7,$8,$9,$2,$3,0*
0 Add four circle primitives for the rounded corners*
1,1,$1+$1,$2,$3*
1,1,$1+$1,$4,$5*
1,1,$1+$1,$6,$7*
1,1,$1+$1,$8,$9*
0 Add four rect primitives between the rounded corners*
20,1,$1+$1,$2,$3,$4,$5,0*
20,1,$1+$1,$4,$5,$6,$7,0*
20,1,$1+$1,$6,$7,$8,$9,0*
20,1,$1+$1,$8,$9,$2,$3,0*%
G04 Aperture macros list end*
%TA.AperFunction,SMDPad,CuDef*%
%ADD10RoundRect,0.250000X-0.337500X-0.475000X0.337500X-0.475000X0.337500X0.475000X-0.337500X0.475000X0*%
%TD*%
%TA.AperFunction,SMDPad,CuDef*%
%ADD11RoundRect,0.250000X0.450000X-0.325000X0.450000X0.325000X-0.450000X0.325000X-0.450000X-0.325000X0*%
%TD*%
%TA.AperFunction,SMDPad,CuDef*%
%ADD12RoundRect,0.150000X0.150000X-0.512500X0.150000X0.512500X-0.150000X0.512500X-0.150000X-0.512500X0*%
%TD*%
%TA.AperFunction,ComponentPad*%
%ADD13R,1.350000X1.350000*%
%TD*%
%TA.AperFunction,ComponentPad*%
%ADD14O,1.350000X1.350000*%
%TD*%
%TA.AperFunction,ComponentPad*%
%ADD15R,1.600000X1.600000*%
%TD*%
%TA.AperFunction,ComponentPad*%
%ADD16O,1.600000X1.600000*%
%TD*%
%TA.AperFunction,ComponentPad*%
%ADD17RoundRect,0.250000X0.750000X-0.600000X0.750000X0.600000X-0.750000X0.600000X-0.750000X-0.600000X0*%
%TD*%
%TA.AperFunction,ComponentPad*%
%ADD18O,2.000000X1.700000*%
%TD*%
%TA.AperFunction,ComponentPad*%
%ADD19RoundRect,0.250000X-0.600000X-0.600000X0.600000X-0.600000X0.600000X0.600000X-0.600000X0.600000X0*%
%TD*%
%TA.AperFunction,ComponentPad*%
%ADD20C,1.700000*%
%TD*%
%TA.AperFunction,ViaPad*%
%ADD21C,0.800000*%
%TD*%
%TA.AperFunction,Conductor*%
%ADD22C,1.000000*%
%TD*%
%TA.AperFunction,Conductor*%
%ADD23C,0.250000*%
%TD*%
G04 APERTURE END LIST*
D10*
%TO.P,C4,1*%
%TO.N,/DB3*%
X60430500Y-111760000D03*
%TO.P,C4,2*%
%TO.N,GND*%
X62505500Y-111760000D03*
%TD*%
D11*
%TO.P,F1,1*%
%TO.N,/TMPWR*%
X34036000Y-88909000D03*
%TO.P,F1,2*%
%TO.N,Net-(J2-Pin_25)*%
X34036000Y-86859000D03*
%TD*%
D12*
%TO.P,U1,1,NC*%
%TO.N,unconnected-(U1-NC-Pad1)*%
X72811600Y-91510700D03*
%TO.P,U1,2*%
%TO.N,Net-(J3-Pin_1)*%
X73761600Y-91510700D03*
%TO.P,U1,3,GND*%
%TO.N,GND*%
X74711600Y-91510700D03*
%TO.P,U1,4*%
%TO.N,Net-(JP1-A)*%
X74711600Y-89235700D03*
%TO.P,U1,5,VCC*%
%TO.N,/VCC1*%
X72811600Y-89235700D03*
%TD*%
D10*
%TO.P,C17,1*%
%TO.N,/{slash}REQ*%
X60430500Y-162560000D03*
%TO.P,C17,2*%
%TO.N,GND*%
X62505500Y-162560000D03*
%TD*%
%TO.P,C13,1*%
%TO.N,/{slash}RST*%
X60430500Y-152400000D03*
%TO.P,C13,2*%
%TO.N,GND*%
X62505500Y-152400000D03*
%TD*%
%TO.P,C8,1*%
%TO.N,/DB7*%
X60430500Y-121920000D03*
%TO.P,C8,2*%
%TO.N,GND*%
X62505500Y-121920000D03*
%TD*%
%TO.P,C5,1*%
%TO.N,/DB4*%
X60430500Y-114300000D03*
%TO.P,C5,2*%
%TO.N,GND*%
X62505500Y-114300000D03*
%TD*%
D13*
%TO.P,J2,1,Pin_1*%
%TO.N,/ID0*%
X38500000Y-78000000D03*
D14*
%TO.P,J2,2,Pin_2*%
%TO.N,/ID1*%
X38500000Y-76000000D03*
%TO.P,J2,3,Pin_3*%
%TO.N,/ID2*%
X40500000Y-78000000D03*
%TO.P,J2,4,Pin_4*%
%TO.N,/HDLED-*%
X40500000Y-76000000D03*
%TO.P,J2,5,Pin_5*%
%TO.N,/VCC1*%
X42500000Y-78000000D03*
%TO.P,J2,6,Pin_6*%
X42500000Y-76000000D03*
%TO.P,J2,7,Pin_7*%
%TO.N,GND*%
X44500000Y-78000000D03*
%TO.P,J2,8,Pin_8*%
%TO.N,/DB0*%
X44500000Y-76000000D03*
%TO.P,J2,9,Pin_9*%
%TO.N,GND*%
X46500000Y-78000000D03*
%TO.P,J2,10,Pin_10*%
%TO.N,/DB1*%
X46500000Y-76000000D03*
%TO.P,J2,11,Pin_11*%
%TO.N,GND*%
X48500000Y-78000000D03*
%TO.P,J2,12,Pin_12*%
%TO.N,/DB2*%
X48500000Y-76000000D03*
%TO.P,J2,13,Pin_13*%
%TO.N,GND*%
X50500000Y-78000000D03*
%TO.P,J2,14,Pin_14*%
%TO.N,/DB3*%
X50500000Y-76000000D03*
%TO.P,J2,15,Pin_15*%
%TO.N,GND*%
X52500000Y-78000000D03*
%TO.P,J2,16,Pin_16*%
%TO.N,/DB4*%
X52500000Y-76000000D03*
%TO.P,J2,17,Pin_17*%
%TO.N,GND*%
X54500000Y-78000000D03*
%TO.P,J2,18,Pin_18*%
%TO.N,/DB5*%
X54500000Y-76000000D03*
%TO.P,J2,19,Pin_19*%
%TO.N,/DB6*%
X56500000Y-78000000D03*
%TO.P,J2,20,Pin_20*%
%TO.N,GND*%
X56500000Y-76000000D03*
%TO.P,J2,21,Pin_21*%
%TO.N,/DB7*%
X58500000Y-78000000D03*
%TO.P,J2,22,Pin_22*%
%TO.N,GND*%
X58500000Y-76000000D03*
%TO.P,J2,23,Pin_23*%
%TO.N,/PARITY*%
X60500000Y-78000000D03*
%TO.P,J2,24,Pin_24*%
%TO.N,GND*%
X60500000Y-76000000D03*
%TO.P,J2,25,Pin_25*%
%TO.N,Net-(J2-Pin_25)*%
X62500000Y-78000000D03*
%TO.P,J2,26,Pin_26*%
%TO.N,/{slash}ATN*%
X62500000Y-76000000D03*
%TO.P,J2,27,Pin_27*%
%TO.N,/{slash}BSY*%
X64500000Y-78000000D03*
%TO.P,J2,28,Pin_28*%
%TO.N,GND*%
X64500000Y-76000000D03*
%TO.P,J2,29,Pin_29*%
%TO.N,/{slash}ACK*%
X66500000Y-78000000D03*
%TO.P,J2,30,Pin_30*%
%TO.N,/{slash}RST*%
X66500000Y-76000000D03*
%TO.P,J2,31,Pin_31*%
%TO.N,/{slash}MSG*%
X68500000Y-78000000D03*
%TO.P,J2,32,Pin_32*%
%TO.N,GND*%
X68500000Y-76000000D03*
%TO.P,J2,33,Pin_33*%
%TO.N,/{slash}SEL*%
X70500000Y-78000000D03*
%TO.P,J2,34,Pin_34*%
%TO.N,/{slash}I{slash}O*%
X70500000Y-76000000D03*
%TO.P,J2,35,Pin_35*%
%TO.N,/{slash}C{slash}D*%
X72500000Y-78000000D03*
%TO.P,J2,36,Pin_36*%
%TO.N,GND*%
X72500000Y-76000000D03*
%TO.P,J2,37,Pin_37*%
%TO.N,/{slash}REQ*%
X74500000Y-78000000D03*
%TO.P,J2,38,Pin_38*%
%TO.N,GND*%
X74500000Y-76000000D03*
%TO.P,J2,39,Pin_39*%
%TO.N,/VCC1*%
X76500000Y-78000000D03*
%TO.P,J2,40,Pin_40*%
X76500000Y-76000000D03*
%TD*%
D10*
%TO.P,C11,1*%
%TO.N,/{slash}BSY*%
X60430500Y-147320000D03*
%TO.P,C11,2*%
%TO.N,GND*%
X62505500Y-147320000D03*
%TD*%
%TO.P,C2,1*%
%TO.N,/DB1*%
X60430500Y-106680000D03*
%TO.P,C2,2*%
%TO.N,GND*%
X62505500Y-106680000D03*
%TD*%
%TO.P,C16,1*%
%TO.N,/{slash}C{slash}D*%
X60462500Y-160000000D03*
%TO.P,C16,2*%
%TO.N,GND*%
X62537500Y-160000000D03*
%TD*%
D15*
%TO.P,RN2,1,COM1*%
%TO.N,/TMPWR*%
X38862000Y-138176000D03*
D16*
%TO.P,RN2,2,R1*%
%TO.N,/{slash}ATN*%
X38862000Y-140716000D03*
%TO.P,RN2,3,R2*%
%TO.N,/{slash}BSY*%
X38862000Y-143256000D03*
%TO.P,RN2,4,R3*%
%TO.N,/{slash}ACK*%
X38862000Y-145796000D03*
%TO.P,RN2,5,R4*%
%TO.N,/{slash}RST*%
X38862000Y-148336000D03*
%TO.P,RN2,6,R5*%
%TO.N,/{slash}MSG*%
X38862000Y-150876000D03*
%TO.P,RN2,7,R6*%
%TO.N,/{slash}SEL*%
X38862000Y-153416000D03*
%TO.P,RN2,8,R7*%
%TO.N,/{slash}C{slash}D*%
X38862000Y-155956000D03*
%TO.P,RN2,9,R8*%
%TO.N,/{slash}REQ*%
X38862000Y-158496000D03*
%TO.P,RN2,10,R9*%
%TO.N,/{slash}I{slash}O*%
X38862000Y-161036000D03*
%TO.P,RN2,11,COM2*%
%TO.N,GND*%
X38862000Y-163576000D03*
%TD*%
D10*
%TO.P,C10,1*%
%TO.N,/{slash}ATN*%
X60430500Y-142240000D03*
%TO.P,C10,2*%
%TO.N,GND*%
X62505500Y-142240000D03*
%TD*%
%TO.P,C15,1*%
%TO.N,/{slash}SEL*%
X60462500Y-157500000D03*
%TO.P,C15,2*%
%TO.N,GND*%
X62537500Y-157500000D03*
%TD*%
%TO.P,C3,1*%
%TO.N,/DB2*%
X60430500Y-109220000D03*
%TO.P,C3,2*%
%TO.N,GND*%
X62505500Y-109220000D03*
%TD*%
D17*
%TO.P,J3,1,Pin_1*%
%TO.N,Net-(J3-Pin_1)*%
X80145400Y-88524400D03*
D18*
%TO.P,J3,2,Pin_2*%
%TO.N,Net-(J3-Pin_2)*%
X80145400Y-86024400D03*
%TD*%
D15*
%TO.P,RN1,1,COM1*%
%TO.N,/TMPWR*%
X38862000Y-95250000D03*
D16*
%TO.P,RN1,2,R1*%
%TO.N,/DB0*%
X38862000Y-97790000D03*
%TO.P,RN1,3,R2*%
%TO.N,/DB1*%
X38862000Y-100330000D03*
%TO.P,RN1,4,R3*%
%TO.N,/DB2*%
X38862000Y-102870000D03*
%TO.P,RN1,5,R4*%
%TO.N,/DB3*%
X38862000Y-105410000D03*
%TO.P,RN1,6,R5*%
%TO.N,/DB4*%
X38862000Y-107950000D03*
%TO.P,RN1,7,R6*%
%TO.N,/DB5*%
X38862000Y-110490000D03*
%TO.P,RN1,8,R7*%
%TO.N,/DB6*%
X38862000Y-113030000D03*
%TO.P,RN1,9,R8*%
%TO.N,/DB7*%
X38862000Y-115570000D03*
%TO.P,RN1,10,R9*%
%TO.N,/PARITY*%
X38862000Y-118110000D03*
%TO.P,RN1,11,COM2*%
%TO.N,GND*%
X38862000Y-120650000D03*
%TD*%
D10*
%TO.P,C1,1*%
%TO.N,/DB0*%
X60462500Y-104000000D03*
%TO.P,C1,2*%
%TO.N,GND*%
X62537500Y-104000000D03*
%TD*%
%TO.P,C6,1*%
%TO.N,/DB5*%
X60462500Y-116750000D03*
%TO.P,C6,2*%
%TO.N,GND*%
X62537500Y-116750000D03*
%TD*%
%TO.P,C14,1*%
%TO.N,/{slash}MSG*%
X60430500Y-154940000D03*
%TO.P,C14,2*%
%TO.N,GND*%
X62505500Y-154940000D03*
%TD*%
%TO.P,C9,1*%
%TO.N,/PARITY*%
X60430500Y-124460000D03*
%TO.P,C9,2*%
%TO.N,GND*%
X62505500Y-124460000D03*
%TD*%
%TO.P,C12,1*%
%TO.N,/{slash}ACK*%
X60430500Y-149860000D03*
%TO.P,C12,2*%
%TO.N,GND*%
X62505500Y-149860000D03*
%TD*%
%TO.P,C7,1*%
%TO.N,/DB6*%
X60430500Y-119380000D03*
%TO.P,C7,2*%
%TO.N,GND*%
X62505500Y-119380000D03*
%TD*%
D19*
%TO.P,J1,1,Pin_1*%
%TO.N,GND*%
X50292000Y-104140000D03*
D20*
%TO.P,J1,2,Pin_2*%
%TO.N,/DB0*%
X52832000Y-104140000D03*
%TO.P,J1,3,Pin_3*%
%TO.N,GND*%
X50292000Y-106680000D03*
%TO.P,J1,4,Pin_4*%
%TO.N,/DB1*%
X52832000Y-106680000D03*
%TO.P,J1,5,Pin_5*%
%TO.N,GND*%
X50292000Y-109220000D03*
%TO.P,J1,6,Pin_6*%
%TO.N,/DB2*%
X52832000Y-109220000D03*
%TO.P,J1,7,Pin_7*%
%TO.N,GND*%
X50292000Y-111760000D03*
%TO.P,J1,8,Pin_8*%
%TO.N,/DB3*%
X52832000Y-111760000D03*
%TO.P,J1,9,Pin_9*%
%TO.N,GND*%
X50292000Y-114300000D03*
%TO.P,J1,10,Pin_10*%
%TO.N,/DB4*%
X52832000Y-114300000D03*
%TO.P,J1,11,Pin_11*%
%TO.N,GND*%
X50292000Y-116840000D03*
%TO.P,J1,12,Pin_12*%
%TO.N,/DB5*%
X52832000Y-116840000D03*
%TO.P,J1,13,Pin_13*%
%TO.N,GND*%
X50292000Y-119380000D03*
%TO.P,J1,14,Pin_14*%
%TO.N,/DB6*%
X52832000Y-119380000D03*
%TO.P,J1,15,Pin_15*%
%TO.N,GND*%
X50292000Y-121920000D03*
%TO.P,J1,16,Pin_16*%
%TO.N,/DB7*%
X52832000Y-121920000D03*
%TO.P,J1,17,Pin_17*%
%TO.N,GND*%
X50292000Y-124460000D03*
%TO.P,J1,18,Pin_18*%
%TO.N,/PARITY*%
X52832000Y-124460000D03*
%TO.P,J1,19,Pin_19*%
%TO.N,GND*%
X50292000Y-127000000D03*
%TO.P,J1,20,Pin_20*%
X52832000Y-127000000D03*
%TO.P,J1,21,Pin_21*%
X50292000Y-129540000D03*
%TO.P,J1,22,Pin_22*%
X52832000Y-129540000D03*
%TO.P,J1,23,Pin_23*%
X50292000Y-132080000D03*
%TO.P,J1,24,Pin_24*%
X52832000Y-132080000D03*
%TO.P,J1,25,Pin_25*%
%TO.N,unconnected-(J1-Pin_25-Pad25)*%
X50292000Y-134620000D03*
%TO.P,J1,26,Pin_26*%
%TO.N,/TMPWR*%
X52832000Y-134620000D03*
%TO.P,J1,27,Pin_27*%
%TO.N,GND*%
X50292000Y-137160000D03*
%TO.P,J1,28,Pin_28*%
X52832000Y-137160000D03*
%TO.P,J1,29,Pin_29*%
X50292000Y-139700000D03*
%TO.P,J1,30,Pin_30*%
X52832000Y-139700000D03*
%TO.P,J1,31,Pin_31*%
X50292000Y-142240000D03*
%TO.P,J1,32,Pin_32*%
%TO.N,/{slash}ATN*%
X52832000Y-142240000D03*
%TO.P,J1,33,Pin_33*%
%TO.N,GND*%
X50292000Y-144780000D03*
%TO.P,J1,34,Pin_34*%
X52832000Y-144780000D03*
%TO.P,J1,35,Pin_35*%
X50292000Y-147320000D03*
%TO.P,J1,36,Pin_36*%
%TO.N,/{slash}BSY*%
X52832000Y-147320000D03*
%TO.P,J1,37,Pin_37*%
%TO.N,GND*%
X50292000Y-149860000D03*
%TO.P,J1,38,Pin_38*%
%TO.N,/{slash}ACK*%
X52832000Y-149860000D03*
%TO.P,J1,39,Pin_39*%
%TO.N,GND*%
X50292000Y-152400000D03*
%TO.P,J1,40,Pin_40*%
%TO.N,/{slash}RST*%
X52832000Y-152400000D03*
%TO.P,J1,41,Pin_41*%
%TO.N,GND*%
X50292000Y-154940000D03*
%TO.P,J1,42,Pin_42*%
%TO.N,/{slash}MSG*%
X52832000Y-154940000D03*
%TO.P,J1,43,Pin_43*%
%TO.N,GND*%
X50292000Y-157480000D03*
%TO.P,J1,44,Pin_44*%
%TO.N,/{slash}SEL*%
X52832000Y-157480000D03*
%TO.P,J1,45,Pin_45*%
%TO.N,GND*%
X50292000Y-160020000D03*
%TO.P,J1,46,Pin_46*%
%TO.N,/{slash}C{slash}D*%
X52832000Y-160020000D03*
%TO.P,J1,47,Pin_47*%
%TO.N,GND*%
X50292000Y-162560000D03*
%TO.P,J1,48,Pin_48*%
%TO.N,/{slash}REQ*%
X52832000Y-162560000D03*
%TO.P,J1,49,Pin_49*%
%TO.N,GND*%
X50292000Y-165100000D03*
%TO.P,J1,50,Pin_50*%
%TO.N,/{slash}I{slash}O*%
X52832000Y-165100000D03*
%TD*%
D10*
%TO.P,C18,1*%
%TO.N,/{slash}I{slash}O*%
X60430500Y-165100000D03*
%TO.P,C18,2*%
%TO.N,GND*%
X62505500Y-165100000D03*
%TD*%
D21*
%TO.N,/HDLED-*%
X83312000Y-74218800D03*
%TO.N,Net-(JP1-A)*%
X79806800Y-81178400D03*
%TD*%
D22*
%TO.N,Net-(J2-Pin_25)*%
X34036000Y-86859000D02*
X34036000Y-84836000D01*
X35814000Y-83058000D02*
X62230000Y-83058000D01*
X34036000Y-84836000D02*
X35814000Y-83058000D01*
X62500000Y-82788000D02*
X62500000Y-78000000D01*
X62230000Y-83058000D02*
X62500000Y-82788000D01*
%TO.N,/VCC1*%
X72811600Y-85684400D02*
X72811600Y-89235700D01*
X76200000Y-73152000D02*
X43942000Y-73152000D01*
X76500000Y-78000000D02*
X76500000Y-81996000D01*
X42500000Y-74594000D02*
X42500000Y-76000000D01*
X43942000Y-73152000D02*
X42500000Y-74594000D01*
X76500000Y-81996000D02*
X72811600Y-85684400D01*
X76500000Y-73452000D02*
X76200000Y-73152000D01*
X76500000Y-76000000D02*
X76500000Y-73452000D01*
D23*
%TO.N,/{slash}MSG*%
X51657000Y-153765000D02*
X41751000Y-153765000D01*
X52832000Y-154940000D02*
X51657000Y-153765000D01*
X52832000Y-154940000D02*
X60430500Y-154940000D01*
X41751000Y-153765000D02*
X38862000Y-150876000D01*
%TO.N,/DB3*%
X43847000Y-110395000D02*
X51467000Y-110395000D01*
X51467000Y-110395000D02*
X52832000Y-111760000D01*
X38862000Y-105410000D02*
X43847000Y-110395000D01*
X52832000Y-111760000D02*
X60430500Y-111760000D01*
D22*
%TO.N,/TMPWR*%
X34036000Y-136398000D02*
X34036000Y-88909000D01*
X38862000Y-93735000D02*
X34036000Y-88909000D01*
X35814000Y-138176000D02*
X34036000Y-136398000D01*
D23*
X51467000Y-135985000D02*
X41053000Y-135985000D01*
D22*
X38862000Y-95250000D02*
X38862000Y-93735000D01*
D23*
X41053000Y-135985000D02*
X38862000Y-138176000D01*
X52832000Y-134620000D02*
X51467000Y-135985000D01*
D22*
X38862000Y-138176000D02*
X35814000Y-138176000D01*
D23*
%TO.N,/DB7*%
X51657000Y-120745000D02*
X44037000Y-120745000D01*
X44037000Y-120745000D02*
X38862000Y-115570000D01*
X52832000Y-121920000D02*
X51657000Y-120745000D01*
X52832000Y-121920000D02*
X60430500Y-121920000D01*
%TO.N,/DB5*%
X52832000Y-116840000D02*
X51467000Y-115475000D01*
X52832000Y-116840000D02*
X60372500Y-116840000D01*
X51467000Y-115475000D02*
X43847000Y-115475000D01*
X43847000Y-115475000D02*
X38862000Y-110490000D01*
X60372500Y-116840000D02*
X60462500Y-116750000D01*
%TO.N,/DB0*%
X46482000Y-97790000D02*
X38862000Y-97790000D01*
X60322500Y-104140000D02*
X60462500Y-104000000D01*
X52832000Y-104140000D02*
X60322500Y-104140000D01*
X52832000Y-104140000D02*
X46482000Y-97790000D01*
%TO.N,/PARITY*%
X52832000Y-124460000D02*
X51657000Y-123285000D01*
X51657000Y-123285000D02*
X44037000Y-123285000D01*
X44037000Y-123285000D02*
X38862000Y-118110000D01*
X52832000Y-124460000D02*
X60430500Y-124460000D01*
%TO.N,/{slash}I{slash}O*%
X51403000Y-163925000D02*
X41751000Y-163925000D01*
X41751000Y-163925000D02*
X38862000Y-161036000D01*
X52578000Y-165100000D02*
X51403000Y-163925000D01*
X52832000Y-165100000D02*
X52578000Y-165100000D01*
X52832000Y-165100000D02*
X60430500Y-165100000D01*
%TO.N,/{slash}REQ*%
X51467000Y-161195000D02*
X41561000Y-161195000D01*
X41561000Y-161195000D02*
X38862000Y-158496000D01*
X52832000Y-162560000D02*
X51467000Y-161195000D01*
X52832000Y-162560000D02*
X60430500Y-162560000D01*
%TO.N,/DB4*%
X51467000Y-112935000D02*
X43847000Y-112935000D01*
X43847000Y-112935000D02*
X38862000Y-107950000D01*
X52832000Y-114300000D02*
X51467000Y-112935000D01*
X52832000Y-114300000D02*
X60430500Y-114300000D01*
%TO.N,/{slash}RST*%
X51467000Y-151035000D02*
X41561000Y-151035000D01*
X52832000Y-152400000D02*
X51467000Y-151035000D01*
X52832000Y-152400000D02*
X60430500Y-152400000D01*
X41561000Y-151035000D02*
X38862000Y-148336000D01*
%TO.N,/{slash}BSY*%
X52832000Y-147320000D02*
X51467000Y-145955000D01*
X51467000Y-145955000D02*
X41561000Y-145955000D01*
X52832000Y-147320000D02*
X60430500Y-147320000D01*
X41561000Y-145955000D02*
X38862000Y-143256000D01*
%TO.N,/{slash}SEL*%
X51657000Y-156305000D02*
X41751000Y-156305000D01*
X41751000Y-156305000D02*
X38862000Y-153416000D01*
X52832000Y-157480000D02*
X51657000Y-156305000D01*
X60442500Y-157480000D02*
X60462500Y-157500000D01*
X52832000Y-157480000D02*
X60442500Y-157480000D01*
%TO.N,/{slash}ATN*%
X39211000Y-141065000D02*
X38862000Y-140716000D01*
X51657000Y-141065000D02*
X39211000Y-141065000D01*
X52832000Y-142240000D02*
X51657000Y-141065000D01*
X52832000Y-142240000D02*
X60430500Y-142240000D01*
%TO.N,/DB2*%
X43847000Y-107855000D02*
X38862000Y-102870000D01*
X51467000Y-107855000D02*
X43847000Y-107855000D01*
X52832000Y-109220000D02*
X51467000Y-107855000D01*
X52832000Y-109220000D02*
X60430500Y-109220000D01*
%TO.N,/{slash}C{slash}D*%
X51467000Y-158655000D02*
X41561000Y-158655000D01*
X52832000Y-160020000D02*
X60442500Y-160020000D01*
X41561000Y-158655000D02*
X38862000Y-155956000D01*
X60442500Y-160020000D02*
X60462500Y-160000000D01*
X52832000Y-160020000D02*
X51467000Y-158655000D01*
%TO.N,/DB1*%
X51657000Y-105505000D02*
X44037000Y-105505000D01*
X52832000Y-106680000D02*
X51657000Y-105505000D01*
X60430500Y-106680000D02*
X52832000Y-106680000D01*
X44037000Y-105505000D02*
X38862000Y-100330000D01*
%TO.N,/DB6*%
X51657000Y-118205000D02*
X44037000Y-118205000D01*
X44037000Y-118205000D02*
X38862000Y-113030000D01*
X52832000Y-119380000D02*
X51657000Y-118205000D01*
X52832000Y-119380000D02*
X60430500Y-119380000D01*
%TO.N,/{slash}ACK*%
X52832000Y-149860000D02*
X60430500Y-149860000D01*
X52832000Y-149860000D02*
X51562000Y-148590000D01*
X51562000Y-148590000D02*
X41656000Y-148590000D01*
X41656000Y-148590000D02*
X38862000Y-145796000D01*
%TO.N,/HDLED-*%
X43307000Y-71755000D02*
X80848200Y-71755000D01*
X80848200Y-71755000D02*
X83312000Y-74218800D01*
X40500000Y-76000000D02*
X40500000Y-74562000D01*
X40500000Y-74562000D02*
X43307000Y-71755000D01*
%TO.N,Net-(JP1-A)*%
X74711600Y-89235700D02*
X74676000Y-89200100D01*
X74676000Y-89200100D02*
X74676000Y-86664800D01*
X79806800Y-81534000D02*
X79806800Y-81178400D01*
X74676000Y-86664800D02*
X79806800Y-81534000D01*
%TO.N,Net-(J3-Pin_1)*%
X80145400Y-93946200D02*
X80145400Y-88524400D01*
X74066400Y-94183200D02*
X79908400Y-94183200D01*
X79908400Y-94183200D02*
X80145400Y-93946200D01*
X73761600Y-91510700D02*
X73761600Y-93878400D01*
X73761600Y-93878400D02*
X74066400Y-94183200D01*
%TD*%
%TA.AperFunction,Conductor*%
%TO.N,GND*%
G36*
X83000855Y-70000011D02*
G01*
X83162269Y-70002274D01*
X83174390Y-70003041D01*
X83478553Y-70037312D01*
X83495992Y-70039277D01*
X83509700Y-70041606D01*
X83824366Y-70113426D01*
X83837725Y-70117273D01*
X84142392Y-70223881D01*
X84155228Y-70229199D01*
X84446025Y-70369239D01*
X84458195Y-70375965D01*
X84731486Y-70547685D01*
X84742827Y-70555732D01*
X84995173Y-70756971D01*
X85005541Y-70766237D01*
X85233762Y-70994458D01*
X85243028Y-71004826D01*
X85444267Y-71257172D01*
X85452314Y-71268513D01*
X85624034Y-71541804D01*
X85630760Y-71553974D01*
X85770798Y-71844766D01*
X85776120Y-71857613D01*
X85882724Y-72162270D01*
X85886573Y-72175633D01*
X85958393Y-72490299D01*
X85960722Y-72504007D01*
X85996957Y-72825597D01*
X85997725Y-72837743D01*
X85999988Y-72999144D01*
X86000000Y-73000882D01*
X86000000Y-91999117D01*
X85999988Y-92000855D01*
X85997725Y-92162256D01*
X85996957Y-92174402D01*
X85960722Y-92495992D01*
X85958393Y-92509700D01*
X85886573Y-92824366D01*
X85882724Y-92837729D01*
X85776120Y-93142386D01*
X85770798Y-93155233D01*
X85630760Y-93446025D01*
X85624034Y-93458195D01*
X85452314Y-93731486D01*
X85444267Y-93742827D01*
X85243028Y-93995173D01*
X85233762Y-94005541D01*
X85005541Y-94233762D01*
X84995173Y-94243028D01*
X84742827Y-94444267D01*
X84731486Y-94452314D01*
X84458195Y-94624034D01*
X84446025Y-94630760D01*
X84155233Y-94770798D01*
X84142386Y-94776120D01*
X83837729Y-94882724D01*
X83824366Y-94886573D01*
X83509700Y-94958393D01*
X83495992Y-94960722D01*
X83174402Y-94996957D01*
X83162256Y-94997725D01*
X83000856Y-94999988D01*
X82999118Y-95000000D01*
X80194371Y-95000000D01*
X80127332Y-94980315D01*
X80081577Y-94927511D01*
X80071633Y-94858353D01*
X80100658Y-94794797D01*
X80146919Y-94761438D01*
X80204686Y-94737512D01*
X80265237Y-94697052D01*
X80307133Y-94669058D01*
X80394258Y-94581933D01*
X80394258Y-94581931D01*
X80404466Y-94571724D01*
X80404466Y-94571722D01*
X80631258Y-94344933D01*
X80699712Y-94242485D01*
X80746863Y-94128651D01*
X80770901Y-94007806D01*
X80770901Y-93884593D01*
X80770901Y-93879483D01*
X80770900Y-93879457D01*
X80770900Y-89998899D01*
X80790585Y-89931860D01*
X80843389Y-89886105D01*
X80894900Y-89874899D01*
X80945402Y-89874899D01*
X80945408Y-89874899D01*
X81048197Y-89864399D01*
X81214734Y-89809214D01*
X81364056Y-89717112D01*
X81488112Y-89593056D01*
X81580214Y-89443734D01*
X81635399Y-89277197D01*
X81645900Y-89174409D01*
X81645899Y-87874392D01*
X81638764Y-87804549D01*
X81635399Y-87771603D01*
X81635398Y-87771600D01*
X81595984Y-87652657D01*
X81580214Y-87605066D01*
X81488112Y-87455744D01*
X81364056Y-87331688D01*
X81214734Y-87239586D01*
X81214733Y-87239585D01*
X81209278Y-87236221D01*
X81162554Y-87184273D01*
X81151331Y-87115310D01*
X81179175Y-87051228D01*
X81186672Y-87043023D01*
X81325504Y-86904192D01*
X81450451Y-86732216D01*
X81546957Y-86542812D01*
X81612646Y-86340643D01*
X81645900Y-86130687D01*
X81645900Y-85918113D01*
X81612646Y-85708157D01*
X81546957Y-85505988D01*
X81450451Y-85316584D01*
X81450449Y-85316581D01*
X81450448Y-85316579D01*
X81325509Y-85144613D01*
X81175186Y-84994290D01*
X81003220Y-84869351D01*
X80813814Y-84772844D01*
X80813813Y-84772843D01*
X80813812Y-84772843D01*
X80611643Y-84707154D01*
X80611641Y-84707153D01*
X80611640Y-84707153D01*
X80450357Y-84681608D01*
X80401687Y-84673900D01*
X79889113Y-84673900D01*
X79840442Y-84681608D01*
X79679160Y-84707153D01*
X79476985Y-84772844D01*
X79287579Y-84869351D01*
X79115613Y-84994290D01*
X78965290Y-85144613D01*
X78840351Y-85316579D01*
X78743844Y-85505985D01*
X78678153Y-85708160D01*
X78648448Y-85895714D01*
X78644900Y-85918113D01*
X78644900Y-86130687D01*
X78678154Y-86340643D01*
X78724728Y-86483983D01*
X78743844Y-86542814D01*
X78840351Y-86732220D01*
X78965290Y-86904186D01*
X79104105Y-87043001D01*
X79137590Y-87104324D01*
X79132606Y-87174016D01*
X79090734Y-87229949D01*
X79081521Y-87236221D01*
X78926742Y-87331689D01*
X78802689Y-87455742D01*
X78710587Y-87605063D01*
X78710586Y-87605066D01*
X78655401Y-87771603D01*
X78655401Y-87771604D01*
X78655400Y-87771604D01*
X78644900Y-87874383D01*
X78644900Y-89174401D01*
X78644901Y-89174418D01*
X78655400Y-89277196D01*
X78655401Y-89277199D01*
X78693207Y-89391287D01*
X78710586Y-89443734D01*
X78802688Y-89593056D01*
X78926744Y-89717112D01*
X79076066Y-89809214D01*
X79242603Y-89864399D01*
X79345391Y-89874900D01*
X79395900Y-89874899D01*
X79462938Y-89894582D01*
X79508693Y-89947385D01*
X79519900Y-89998899D01*
X79519900Y-93433700D01*
X79500215Y-93500739D01*
X79447411Y-93546494D01*
X79395900Y-93557700D01*
X74511100Y-93557700D01*
X74444061Y-93538015D01*
X74398306Y-93485211D01*
X74387100Y-93433700D01*
X74387100Y-92793601D01*
X74406785Y-92726562D01*
X74426929Y-92702545D01*
X74461600Y-92670495D01*
X74961600Y-92670495D01*
X74961601Y-92670495D01*
X74964086Y-92670300D01*
X75121798Y-92624481D01*
X75263152Y-92540885D01*
X75263161Y-92540878D01*
X75379278Y-92424761D01*
X75379285Y-92424752D01*
X75462882Y-92283396D01*
X75462883Y-92283393D01*
X75508699Y-92125695D01*
X75508700Y-92125689D01*
X75511599Y-92088849D01*
X75511600Y-92088834D01*
X75511600Y-91760700D01*
X74961600Y-91760700D01*
X74961600Y-92670495D01*
X74461600Y-92670495D01*
X74461600Y-92405014D01*
X74478867Y-92341894D01*
X74513344Y-92283598D01*
X74559198Y-92125769D01*
X74562100Y-92088894D01*
X74562100Y-91634700D01*
X74581785Y-91567661D01*
X74634589Y-91521906D01*
X74686100Y-91510700D01*
X74711600Y-91510700D01*
X74711600Y-91384700D01*
X74731285Y-91317661D01*
X74784089Y-91271906D01*
X74835600Y-91260700D01*
X75511600Y-91260700D01*
X75511600Y-90932565D01*
X75511599Y-90932550D01*
X75508700Y-90895710D01*
X75508699Y-90895704D01*
X75462883Y-90738006D01*
X75462882Y-90738003D01*
X75379285Y-90596647D01*
X75379278Y-90596638D01*
X75263161Y-90480521D01*
X75263150Y-90480513D01*
X75262655Y-90480220D01*
X75262346Y-90479889D01*
X75256993Y-90475737D01*
X75257662Y-90474873D01*
X75214973Y-90429150D01*
X75202471Y-90360408D01*
X75229118Y-90295819D01*
X75257459Y-90271263D01*
X75257302Y-90271061D01*
X75261035Y-90268165D01*
X75262661Y-90266755D01*
X75263465Y-90266281D01*
X75379681Y-90150065D01*
X75463344Y-90008598D01*
X75509198Y-89850769D01*
X75512100Y-89813894D01*
X75512100Y-88657506D01*
X75509198Y-88620631D01*
X75463344Y-88462802D01*
X75379681Y-88321335D01*
X75379679Y-88321333D01*
X75379676Y-88321329D01*
X75337819Y-88279472D01*
X75304334Y-88218149D01*
X75301500Y-88191791D01*
X75301500Y-86975251D01*
X75321185Y-86908212D01*
X75337814Y-86887575D01*
X80198462Y-82026926D01*
X80198470Y-82026920D01*
X80205530Y-82019859D01*
X80205533Y-82019858D01*
X80264738Y-81960651D01*
X80279520Y-81948025D01*
X80412671Y-81851288D01*
X80539333Y-81710616D01*
X80633979Y-81546684D01*
X80692474Y-81366656D01*
X80712260Y-81178400D01*
X80692474Y-80990144D01*
X80633979Y-80810116D01*
X80539333Y-80646184D01*
X80412671Y-80505512D01*
X80412670Y-80505511D01*
X80259534Y-80394251D01*
X80259529Y-80394248D01*
X80086607Y-80317257D01*
X80086602Y-80317255D01*
X79940801Y-80286265D01*
X79901446Y-80277900D01*
X79712154Y-80277900D01*
X79679697Y-80284798D01*
X79526997Y-80317255D01*
X79526992Y-80317257D01*
X79354070Y-80394248D01*
X79354065Y-80394251D01*
X79200929Y-80505511D01*
X79074266Y-80646185D01*
X78979621Y-80810115D01*
X78979618Y-80810122D01*
X78921127Y-80990140D01*
X78921126Y-80990144D01*
X78901340Y-81178400D01*
X78921126Y-81366656D01*
X78921127Y-81366659D01*
X78938949Y-81421510D01*
X78940944Y-81491351D01*
X78908699Y-81547509D01*
X76511581Y-83944628D01*
X74277270Y-86178939D01*
X74277267Y-86178942D01*
X74248944Y-86207265D01*
X74190142Y-86266066D01*
X74173325Y-86291234D01*
X74156621Y-86316235D01*
X74133277Y-86351169D01*
X74121687Y-86368515D01*
X74121685Y-86368518D01*
X74088347Y-86449007D01*
X74082823Y-86462343D01*
X74074537Y-86482345D01*
X74074535Y-86482353D01*
X74057717Y-86566908D01*
X74025333Y-86628819D01*
X73964617Y-86663393D01*
X73894847Y-86659654D01*
X73838175Y-86618788D01*
X73812594Y-86553770D01*
X73812100Y-86542717D01*
X73812100Y-86150182D01*
X73831785Y-86083143D01*
X73848419Y-86062501D01*
X75548829Y-84362092D01*
X77277139Y-82633782D01*
X77386632Y-82469914D01*
X77462051Y-82287835D01*
X77463439Y-82280860D01*
X77500500Y-82094540D01*
X77500500Y-81897460D01*
X77500500Y-78657087D01*
X77513500Y-78601815D01*
X77600817Y-78426459D01*
X77660435Y-78216923D01*
X77680536Y-78000000D01*
X77660435Y-77783077D01*
X77600817Y-77573541D01*
X77503712Y-77378528D01*
X77372427Y-77204678D01*
X77248423Y-77091634D01*
X77212145Y-77031927D01*
X77213905Y-76962079D01*
X77248423Y-76908365D01*
X77372427Y-76795322D01*
X77503712Y-76621472D01*
X77600817Y-76426459D01*
X77660435Y-76216923D01*
X77680536Y-76000000D01*
X77660435Y-75783077D01*
X77600817Y-75573541D01*
X77513500Y-75398184D01*
X77500500Y-75342912D01*
X77500500Y-73353456D01*
X77462052Y-73160170D01*
X77462051Y-73160169D01*
X77462051Y-73160165D01*
X77462049Y-73160160D01*
X77386635Y-72978092D01*
X77386628Y-72978079D01*
X77277139Y-72814218D01*
X77277136Y-72814214D01*
X77134686Y-72671764D01*
X77134655Y-72671735D01*
X77055101Y-72592181D01*
X77021616Y-72530858D01*
X77026600Y-72461166D01*
X77068472Y-72405233D01*
X77133936Y-72380816D01*
X77142782Y-72380500D01*
X80537748Y-72380500D01*
X80604787Y-72400185D01*
X80625429Y-72416819D01*
X82373038Y-74164429D01*
X82406523Y-74225752D01*
X82408678Y-74239148D01*
X82411471Y-74265719D01*
X82426326Y-74407056D01*
X82426327Y-74407059D01*
X82484818Y-74587077D01*
X82484821Y-74587084D01*
X82579467Y-74751016D01*
X82681676Y-74864530D01*
X82706129Y-74891688D01*
X82859265Y-75002948D01*
X82859270Y-75002951D01*
X83032192Y-75079942D01*
X83032197Y-75079944D01*
X83217354Y-75119300D01*
X83217355Y-75119300D01*
X83406644Y-75119300D01*
X83406646Y-75119300D01*
X83591803Y-75079944D01*
X83764730Y-75002951D01*
X83917871Y-74891688D01*
X84044533Y-74751016D01*
X84139179Y-74587084D01*
X84197674Y-74407056D01*
X84217460Y-74218800D01*
X84197674Y-74030544D01*
X84139179Y-73850516D01*
X84044533Y-73686584D01*
X83917871Y-73545912D01*
X83917870Y-73545911D01*
X83764734Y-73434651D01*
X83764729Y-73434648D01*
X83591807Y-73357657D01*
X83591802Y-73357655D01*
X83446001Y-73326665D01*
X83406646Y-73318300D01*
X83406645Y-73318300D01*
X83347453Y-73318300D01*
X83280414Y-73298615D01*
X83259772Y-73281981D01*
X81341128Y-71363338D01*
X81341125Y-71363334D01*
X81341125Y-71363335D01*
X81334058Y-71356268D01*
X81334058Y-71356267D01*
X81246933Y-71269142D01*
X81246932Y-71269141D01*
X81246931Y-71269140D01*
X81195709Y-71234915D01*
X81144487Y-71200689D01*
X81144486Y-71200688D01*
X81144483Y-71200686D01*
X81144480Y-71200685D01*
X81063992Y-71167347D01*
X81030653Y-71153537D01*
X81020627Y-71151543D01*
X80970229Y-71141518D01*
X80909810Y-71129500D01*
X80909807Y-71129500D01*
X80909806Y-71129500D01*
X43368606Y-71129500D01*
X43245393Y-71129500D01*
X43245388Y-71129500D01*
X43124555Y-71153535D01*
X43124547Y-71153537D01*
X43010716Y-71200687D01*
X42908265Y-71269142D01*
X42908262Y-71269145D01*
X40101269Y-74076140D01*
X40014144Y-74163264D01*
X40014138Y-74163272D01*
X39945692Y-74265705D01*
X39945684Y-74265719D01*
X39912347Y-74346207D01*
X39906823Y-74359543D01*
X39898537Y-74379545D01*
X39898535Y-74379552D01*
X39891673Y-74414050D01*
X39891674Y-74414051D01*
X39875484Y-74495449D01*
X39875482Y-74495455D01*
X39874501Y-74500383D01*
X39874500Y-74500398D01*
X39874500Y-74935637D01*
X39854815Y-75002676D01*
X39815779Y-75041063D01*
X39788568Y-75057911D01*
X39788567Y-75057912D01*
X39627573Y-75204676D01*
X39598953Y-75242576D01*
X39542844Y-75284211D01*
X39473132Y-75288902D01*
X39411950Y-75255159D01*
X39401047Y-75242576D01*
X39372426Y-75204676D01*
X39211433Y-75057913D01*
X39211423Y-75057906D01*
X39026213Y-74943229D01*
X39026207Y-74943226D01*
X38941113Y-74910260D01*
X38823069Y-74864530D01*
X38608926Y-74824500D01*
X38391074Y-74824500D01*
X38176931Y-74864530D01*
X38156485Y-74872451D01*
X37973792Y-74943226D01*
X37973786Y-74943229D01*
X37788576Y-75057906D01*
X37788566Y-75057913D01*
X37627574Y-75204676D01*
X37496288Y-75378527D01*
X37399184Y-75573537D01*
X37339564Y-75783081D01*
X37319464Y-75999999D01*
X37319464Y-76000000D01*
X37339564Y-76216918D01*
X37339564Y-76216920D01*
X37339565Y-76216923D01*
X37399183Y-76426459D01*
X37496288Y-76621472D01*
X37567199Y-76715374D01*
X37577747Y-76729341D01*
X37602439Y-76794702D01*
X37587874Y-76863037D01*
X37553105Y-76903334D01*
X37467452Y-76967455D01*
X37381206Y-77082664D01*
X37381202Y-77082671D01*
X37330908Y-77217517D01*
X37324501Y-77277116D01*
X37324500Y-77277135D01*
X37324500Y-78722870D01*
X37324501Y-78722876D01*
X37330908Y-78782483D01*
X37381202Y-78917328D01*
X37381206Y-78917335D01*
X37467452Y-79032544D01*
X37467455Y-79032547D01*
X37582664Y-79118793D01*
X37582671Y-79118797D01*
X37717517Y-79169091D01*
X37717516Y-79169091D01*
X37724444Y-79169835D01*
X37777127Y-79175500D01*
X39222872Y-79175499D01*
X39282483Y-79169091D01*
X39417331Y-79118796D01*
X39532546Y-79032546D01*
X39594785Y-78949404D01*
X39650718Y-78907535D01*
X39720410Y-78902551D01*
X39777588Y-78932078D01*
X39788568Y-78942088D01*
X39788570Y-78942089D01*
X39788571Y-78942090D01*
X39973786Y-79056770D01*
X39973792Y-79056773D01*
X39996664Y-79065633D01*
X40176931Y-79135470D01*
X40391074Y-79175500D01*
X40391076Y-79175500D01*
X40608924Y-79175500D01*
X40608926Y-79175500D01*
X40823069Y-79135470D01*
X41026210Y-79056772D01*
X41211432Y-78942088D01*
X41372427Y-78795322D01*
X41401047Y-78757422D01*
X41457153Y-78715787D01*
X41526865Y-78711094D01*
X41588048Y-78744836D01*
X41598946Y-78757414D01*
X41627573Y-78795322D01*
X41627576Y-78795325D01*
X41627578Y-78795327D01*
X41732161Y-78890666D01*
X41788568Y-78942088D01*
X41788575Y-78942092D01*
X41788576Y-78942093D01*
X41973786Y-79056770D01*
X41973792Y-79056773D01*
X41996664Y-79065633D01*
X42176931Y-79135470D01*
X42391074Y-79175500D01*
X42391076Y-79175500D01*
X42608924Y-79175500D01*
X42608926Y-79175500D01*
X42823069Y-79135470D01*
X43026210Y-79056772D01*
X43211432Y-78942088D01*
X43372427Y-78795322D01*
X43401359Y-78757009D01*
X43457465Y-78715373D01*
X43527177Y-78710680D01*
X43588360Y-78744421D01*
X43599267Y-78757009D01*
X43627942Y-78794981D01*
X43627949Y-78794989D01*
X43788868Y-78941685D01*
X43974012Y-79056322D01*
X43974023Y-79056327D01*
X44177060Y-79134984D01*
X44250000Y-79148619D01*
X44250000Y-78315686D01*
X44254394Y-78320080D01*
X44345606Y-78372741D01*
X44447339Y-78400000D01*
X44552661Y-78400000D01*
X44654394Y-78372741D01*
X44745606Y-78320080D01*
X44750000Y-78315686D01*
X44750000Y-79148619D01*
X44822939Y-79134984D01*
X45025976Y-79056327D01*
X45025987Y-79056322D01*
X45211130Y-78941685D01*
X45211131Y-78941685D01*
X45372053Y-78794986D01*
X45401045Y-78756595D01*
X45457154Y-78714959D01*
X45526866Y-78710266D01*
X45588048Y-78744008D01*
X45598955Y-78756595D01*
X45627946Y-78794986D01*
X45788868Y-78941685D01*
X45974012Y-79056322D01*
X45974023Y-79056327D01*
X46177060Y-79134984D01*
X46250000Y-79148619D01*
X46250000Y-78315686D01*
X46254394Y-78320080D01*
X46345606Y-78372741D01*
X46447339Y-78400000D01*
X46552661Y-78400000D01*
X46654394Y-78372741D01*
X46745606Y-78320080D01*
X46750000Y-78315686D01*
X46750000Y-79148619D01*
X46822939Y-79134984D01*
X47025976Y-79056327D01*
X47025987Y-79056322D01*
X47211130Y-78941685D01*
X47211131Y-78941685D01*
X47372053Y-78794986D01*
X47401045Y-78756595D01*
X47457154Y-78714959D01*
X47526866Y-78710266D01*
X47588048Y-78744008D01*
X47598955Y-78756595D01*
X47627946Y-78794986D01*
X47788868Y-78941685D01*
X47974012Y-79056322D01*
X47974023Y-79056327D01*
X48177060Y-79134984D01*
X48250000Y-79148619D01*
X48250000Y-78315686D01*
X48254394Y-78320080D01*
X48345606Y-78372741D01*
X48447339Y-78400000D01*
X48552661Y-78400000D01*
X48654394Y-78372741D01*
X48745606Y-78320080D01*
X48750000Y-78315686D01*
X48750000Y-79148619D01*
X48822939Y-79134984D01*
X49025976Y-79056327D01*
X49025987Y-79056322D01*
X49211130Y-78941685D01*
X49211131Y-78941685D01*
X49372053Y-78794986D01*
X49401045Y-78756595D01*
X49457154Y-78714959D01*
X49526866Y-78710266D01*
X49588048Y-78744008D01*
X49598955Y-78756595D01*
X49627946Y-78794986D01*
X49788868Y-78941685D01*
X49974012Y-79056322D01*
X49974023Y-79056327D01*
X50177060Y-79134984D01*
X50250000Y-79148619D01*
X50250000Y-78315686D01*
X50254394Y-78320080D01*
X50345606Y-78372741D01*
X50447339Y-78400000D01*
X50552661Y-78400000D01*
X50654394Y-78372741D01*
X50745606Y-78320080D01*
X50750000Y-78315686D01*
X50750000Y-79148619D01*
X50822939Y-79134984D01*
X51025976Y-79056327D01*
X51025987Y-79056322D01*
X51211130Y-78941685D01*
X51211131Y-78941685D01*
X51372053Y-78794986D01*
X51401045Y-78756595D01*
X51457154Y-78714959D01*
X51526866Y-78710266D01*
X51588048Y-78744008D01*
X51598955Y-78756595D01*
X51627946Y-78794986D01*
X51788868Y-78941685D01*
X51974012Y-79056322D01*
X51974023Y-79056327D01*
X52177060Y-79134984D01*
X52250000Y-79148619D01*
X52250000Y-78315686D01*
X52254394Y-78320080D01*
X52345606Y-78372741D01*
X52447339Y-78400000D01*
X52552661Y-78400000D01*
X52654394Y-78372741D01*
X52745606Y-78320080D01*
X52750000Y-78315686D01*
X52750000Y-79148619D01*
X52822939Y-79134984D01*
X53025976Y-79056327D01*
X53025987Y-79056322D01*
X53211130Y-78941685D01*
X53211131Y-78941685D01*
X53372053Y-78794986D01*
X53401045Y-78756595D01*
X53457154Y-78714959D01*
X53526866Y-78710266D01*
X53588048Y-78744008D01*
X53598955Y-78756595D01*
X53627946Y-78794986D01*
X53788868Y-78941685D01*
X53974012Y-79056322D01*
X53974023Y-79056327D01*
X54177060Y-79134984D01*
X54250000Y-79148619D01*
X54250000Y-78315686D01*
X54254394Y-78320080D01*
X54345606Y-78372741D01*
X54447339Y-78400000D01*
X54552661Y-78400000D01*
X54654394Y-78372741D01*
X54745606Y-78320080D01*
X54750000Y-78315686D01*
X54750000Y-79148619D01*
X54822939Y-79134984D01*
X55025976Y-79056327D01*
X55025987Y-79056322D01*
X55211130Y-78941685D01*
X55211131Y-78941685D01*
X55372055Y-78794984D01*
X55400730Y-78757012D01*
X55456838Y-78715374D01*
X55526550Y-78710681D01*
X55587733Y-78744422D01*
X55598640Y-78757009D01*
X55617512Y-78782000D01*
X55627573Y-78795322D01*
X55788568Y-78942088D01*
X55788575Y-78942092D01*
X55788576Y-78942093D01*
X55973786Y-79056770D01*
X55973792Y-79056773D01*
X55996664Y-79065633D01*
X56176931Y-79135470D01*
X56391074Y-79175500D01*
X56391076Y-79175500D01*
X56608924Y-79175500D01*
X56608926Y-79175500D01*
X56823069Y-79135470D01*
X57026210Y-79056772D01*
X57211432Y-78942088D01*
X57372427Y-78795322D01*
X57401047Y-78757422D01*
X57457153Y-78715787D01*
X57526865Y-78711094D01*
X57588048Y-78744836D01*
X57598946Y-78757414D01*
X57627573Y-78795322D01*
X57627576Y-78795325D01*
X57627578Y-78795327D01*
X57732161Y-78890666D01*
X57788568Y-78942088D01*
X57788575Y-78942092D01*
X57788576Y-78942093D01*
X57973786Y-79056770D01*
X57973792Y-79056773D01*
X57996664Y-79065633D01*
X58176931Y-79135470D01*
X58391074Y-79175500D01*
X58391076Y-79175500D01*
X58608924Y-79175500D01*
X58608926Y-79175500D01*
X58823069Y-79135470D01*
X59026210Y-79056772D01*
X59211432Y-78942088D01*
X59372427Y-78795322D01*
X59401047Y-78757422D01*
X59457153Y-78715787D01*
X59526865Y-78711094D01*
X59588048Y-78744836D01*
X59598946Y-78757414D01*
X59627573Y-78795322D01*
X59627576Y-78795325D01*
X59627578Y-78795327D01*
X59732161Y-78890666D01*
X59788568Y-78942088D01*
X59788575Y-78942092D01*
X59788576Y-78942093D01*
X59973786Y-79056770D01*
X59973792Y-79056773D01*
X59996664Y-79065633D01*
X60176931Y-79135470D01*
X60391074Y-79175500D01*
X60391076Y-79175500D01*
X60608924Y-79175500D01*
X60608926Y-79175500D01*
X60823069Y-79135470D01*
X61026210Y-79056772D01*
X61211432Y-78942088D01*
X61291962Y-78868674D01*
X61354766Y-78838058D01*
X61424153Y-78846256D01*
X61478093Y-78890666D01*
X61499461Y-78957188D01*
X61499500Y-78960312D01*
X61499500Y-81933500D01*
X61479815Y-82000539D01*
X61427011Y-82046294D01*
X61375500Y-82057500D01*
X35715454Y-82057500D01*
X35683391Y-82063876D01*
X35683392Y-82063877D01*
X35522170Y-82095946D01*
X35522164Y-82095948D01*
X35431125Y-82133658D01*
X35340084Y-82171368D01*
X35340083Y-82171368D01*
X35217045Y-82253579D01*
X35217046Y-82253580D01*
X35176218Y-82280859D01*
X35176215Y-82280862D01*
X33768370Y-83688709D01*
X33398220Y-84058859D01*
X33398218Y-84058861D01*
X33362260Y-84094819D01*
X33258859Y-84198219D01*
X33149371Y-84362079D01*
X33149364Y-84362092D01*
X33073950Y-84544160D01*
X33073947Y-84544170D01*
X33035500Y-84737456D01*
X33035500Y-85971770D01*
X33015815Y-86038809D01*
X32999181Y-86059451D01*
X32993289Y-86065342D01*
X32901187Y-86214663D01*
X32901186Y-86214666D01*
X32846001Y-86381203D01*
X32846001Y-86381204D01*
X32846000Y-86381204D01*
X32835500Y-86483983D01*
X32835500Y-87234001D01*
X32835501Y-87234019D01*
X32846000Y-87336796D01*
X32846001Y-87336799D01*
X32885416Y-87455744D01*
X32901186Y-87503334D01*
X32963934Y-87605066D01*
X32993289Y-87652657D01*
X33117346Y-87776714D01*
X33120182Y-87778463D01*
X33121717Y-87780170D01*
X33123011Y-87781193D01*
X33122836Y-87781414D01*
X33166905Y-87830411D01*
X33178126Y-87899374D01*
X33150282Y-87963456D01*
X33120182Y-87989537D01*
X33117346Y-87991285D01*
X32993289Y-88115342D01*
X32901187Y-88264663D01*
X32901185Y-88264668D01*
X32884721Y-88314354D01*
X32846001Y-88431203D01*
X32846001Y-88431204D01*
X32846000Y-88431204D01*
X32835500Y-88533983D01*
X32835500Y-89284001D01*
X32835501Y-89284019D01*
X32846000Y-89386796D01*
X32846001Y-89386799D01*
X32901185Y-89553331D01*
X32901187Y-89553336D01*
X32993289Y-89702657D01*
X32999181Y-89708549D01*
X33032666Y-89769872D01*
X33035500Y-89796230D01*
X33035500Y-136496541D01*
X33035500Y-136496543D01*
X33035499Y-136496543D01*
X33073947Y-136689829D01*
X33073950Y-136689839D01*
X33149364Y-136871907D01*
X33149371Y-136871920D01*
X33258859Y-137035780D01*
X33258860Y-137035781D01*
X33258861Y-137035782D01*
X33398218Y-137175139D01*
X33398219Y-137175139D01*
X33405286Y-137182206D01*
X33405285Y-137182206D01*
X33405288Y-137182208D01*
X35036860Y-138813781D01*
X35036861Y-138813782D01*
X35161705Y-138938626D01*
X35176219Y-138953140D01*
X35334135Y-139058656D01*
X35340086Y-139062632D01*
X35340088Y-139062633D01*
X35340092Y-139062635D01*
X35431123Y-139100340D01*
X35431124Y-139100341D01*
X35495501Y-139127007D01*
X35522165Y-139138052D01*
X35683389Y-139170121D01*
X35715457Y-139176499D01*
X35715458Y-139176500D01*
X35715459Y-139176500D01*
X35715460Y-139176500D01*
X35912540Y-139176500D01*
X37524820Y-139176500D01*
X37591859Y-139196185D01*
X37624085Y-139226187D01*
X37704454Y-139333546D01*
X37750643Y-139368123D01*
X37819664Y-139419793D01*
X37819671Y-139419797D01*
X37864618Y-139436561D01*
X37954517Y-139470091D01*
X37989596Y-139473862D01*
X38054144Y-139500599D01*
X38093993Y-139557991D01*
X38096488Y-139627816D01*
X38060836Y-139687905D01*
X38047464Y-139698725D01*
X38022858Y-139715954D01*
X37861954Y-139876858D01*
X37731432Y-140063265D01*
X37731431Y-140063267D01*
X37635261Y-140269502D01*
X37635258Y-140269511D01*
X37576366Y-140489302D01*
X37576364Y-140489313D01*
X37556532Y-140715998D01*
X37556532Y-140716001D01*
X37576364Y-140942686D01*
X37576366Y-140942697D01*
X37635258Y-141162488D01*
X37635261Y-141162497D01*
X37731431Y-141368732D01*
X37731432Y-141368734D01*
X37861954Y-141555141D01*
X38022858Y-141716045D01*
X38022861Y-141716047D01*
X38209266Y-141846568D01*
X38267275Y-141873618D01*
X38319714Y-141919791D01*
X38338866Y-141986984D01*
X38318650Y-142053865D01*
X38267275Y-142098382D01*
X38209267Y-142125431D01*
X38209265Y-142125432D01*
X38022858Y-142255954D01*
X37861954Y-142416858D01*
X37731432Y-142603265D01*
X37731431Y-142603267D01*
X37635261Y-142809502D01*
X37635258Y-142809511D01*
X37576366Y-143029302D01*
X37576364Y-143029313D01*
X37556532Y-143255998D01*
X37556532Y-143256001D01*
X37576364Y-143482686D01*
X37576366Y-143482697D01*
X37635258Y-143702488D01*
X37635261Y-143702497D01*
X37731431Y-143908732D01*
X37731432Y-143908734D01*
X37861954Y-144095141D01*
X38022858Y-144256045D01*
X38022861Y-144256047D01*
X38209266Y-144386568D01*
X38267275Y-144413618D01*
X38319714Y-144459791D01*
X38338866Y-144526984D01*
X38318650Y-144593865D01*
X38267275Y-144638382D01*
X38209267Y-144665431D01*
X38209265Y-144665432D01*
X38022858Y-144795954D01*
X37861954Y-144956858D01*
X37731432Y-145143265D01*
X37731431Y-145143267D01*
X37635261Y-145349502D01*
X37635258Y-145349511D01*
X37576366Y-145569302D01*
X37576364Y-145569313D01*
X37556532Y-145795998D01*
X37556532Y-145796001D01*
X37576364Y-146022686D01*
X37576366Y-146022697D01*
X37635258Y-146242488D01*
X37635261Y-146242497D01*
X37731431Y-146448732D01*
X37731432Y-146448734D01*
X37861954Y-146635141D01*
X38022858Y-146796045D01*
X38022861Y-146796047D01*
X38209266Y-146926568D01*
X38267275Y-146953618D01*
X38319714Y-146999791D01*
X38338866Y-147066984D01*
X38318650Y-147133865D01*
X38267275Y-147178382D01*
X38209267Y-147205431D01*
X38209265Y-147205432D01*
X38022858Y-147335954D01*
X37861954Y-147496858D01*
X37731432Y-147683265D01*
X37731431Y-147683267D01*
X37635261Y-147889502D01*
X37635258Y-147889511D01*
X37576366Y-148109302D01*
X37576364Y-148109313D01*
X37556532Y-148335998D01*
X37556532Y-148336001D01*
X37576364Y-148562686D01*
X37576366Y-148562697D01*
X37635258Y-148782488D01*
X37635261Y-148782497D01*
X37731431Y-148988732D01*
X37731432Y-148988734D01*
X37861954Y-149175141D01*
X38022858Y-149336045D01*
X38022861Y-149336047D01*
X38209266Y-149466568D01*
X38267275Y-149493618D01*
X38319714Y-149539791D01*
X38338866Y-149606984D01*
X38318650Y-149673865D01*
X38267275Y-149718382D01*
X38209267Y-149745431D01*
X38209265Y-149745432D01*
X38022858Y-149875954D01*
X37861954Y-150036858D01*
X37731432Y-150223265D01*
X37731431Y-150223267D01*
X37635261Y-150429502D01*
X37635258Y-150429511D01*
X37576366Y-150649302D01*
X37576364Y-150649313D01*
X37556532Y-150875998D01*
X37556532Y-150876001D01*
X37576364Y-151102686D01*
X37576366Y-151102697D01*
X37635258Y-151322488D01*
X37635261Y-151322497D01*
X37731431Y-151528732D01*
X37731432Y-151528734D01*
X37861954Y-151715141D01*
X38022858Y-151876045D01*
X38022861Y-151876047D01*
X38209266Y-152006568D01*
X38267275Y-152033618D01*
X38319714Y-152079791D01*
X38338866Y-152146984D01*
X38318650Y-152213865D01*
X38267275Y-152258382D01*
X38209267Y-152285431D01*
X38209265Y-152285432D01*
X38022858Y-152415954D01*
X37861954Y-152576858D01*
X37731432Y-152763265D01*
X37731431Y-152763267D01*
X37635261Y-152969502D01*
X37635258Y-152969511D01*
X37576366Y-153189302D01*
X37576364Y-153189313D01*
X37556532Y-153415998D01*
X37556532Y-153416001D01*
X37576364Y-153642686D01*
X37576366Y-153642697D01*
X37635258Y-153862488D01*
X37635261Y-153862497D01*
X37731431Y-154068732D01*
X37731432Y-154068734D01*
X37861954Y-154255141D01*
X38022858Y-154416045D01*
X38022861Y-154416047D01*
X38209266Y-154546568D01*
X38267275Y-154573618D01*
X38319714Y-154619791D01*
X38338866Y-154686984D01*
X38318650Y-154753865D01*
X38267275Y-154798382D01*
X38209267Y-154825431D01*
X38209265Y-154825432D01*
X38022858Y-154955954D01*
X37861954Y-155116858D01*
X37731432Y-155303265D01*
X37731431Y-155303267D01*
X37635261Y-155509502D01*
X37635258Y-155509511D01*
X37576366Y-155729302D01*
X37576364Y-155729313D01*
X37556532Y-155955998D01*
X37556532Y-155956001D01*
X37576364Y-156182686D01*
X37576366Y-156182697D01*
X37635258Y-156402488D01*
X37635261Y-156402497D01*
X37731431Y-156608732D01*
X37731432Y-156608734D01*
X37861954Y-156795141D01*
X38022858Y-156956045D01*
X38049969Y-156975028D01*
X38209266Y-157086568D01*
X38267275Y-157113618D01*
X38319714Y-157159791D01*
X38338866Y-157226984D01*
X38318650Y-157293865D01*
X38267275Y-157338382D01*
X38209267Y-157365431D01*
X38209265Y-157365432D01*
X38022858Y-157495954D01*
X37861954Y-157656858D01*
X37731432Y-157843265D01*
X37731431Y-157843267D01*
X37635261Y-158049502D01*
X37635258Y-158049511D01*
X37576366Y-158269302D01*
X37576364Y-158269313D01*
X37556532Y-158495998D01*
X37556532Y-158496001D01*
X37576364Y-158722686D01*
X37576366Y-158722697D01*
X37635258Y-158942488D01*
X37635261Y-158942497D01*
X37731431Y-159148732D01*
X37731432Y-159148734D01*
X37861954Y-159335141D01*
X38022858Y-159496045D01*
X38022861Y-159496047D01*
X38209266Y-159626568D01*
X38267275Y-159653618D01*
X38319714Y-159699791D01*
X38338866Y-159766984D01*
X38318650Y-159833865D01*
X38267275Y-159878382D01*
X38209267Y-159905431D01*
X38209265Y-159905432D01*
X38022858Y-160035954D01*
X37861954Y-160196858D01*
X37731432Y-160383265D01*
X37731431Y-160383267D01*
X37635261Y-160589502D01*
X37635258Y-160589511D01*
X37576366Y-160809302D01*
X37576364Y-160809313D01*
X37556532Y-161035998D01*
X37556532Y-161036001D01*
X37576364Y-161262686D01*
X37576366Y-161262697D01*
X37635258Y-161482488D01*
X37635261Y-161482497D01*
X37731431Y-161688732D01*
X37731432Y-161688734D01*
X37861954Y-161875141D01*
X38022858Y-162036045D01*
X38022861Y-162036047D01*
X38209266Y-162166568D01*
X38267865Y-162193893D01*
X38320305Y-162240065D01*
X38339457Y-162307258D01*
X38319242Y-162374139D01*
X38267867Y-162418657D01*
X38209515Y-162445867D01*
X38023179Y-162576342D01*
X37862342Y-162737179D01*
X37731865Y-162923517D01*
X37635734Y-163129673D01*
X37635730Y-163129682D01*
X37583127Y-163325999D01*
X37583128Y-163326000D01*
X38546314Y-163326000D01*
X38541920Y-163330394D01*
X38489259Y-163421606D01*
X38462000Y-163523339D01*
X38462000Y-163628661D01*
X38489259Y-163730394D01*
X38541920Y-163821606D01*
X38546314Y-163826000D01*
X37583128Y-163826000D01*
X37635730Y-164022317D01*
X37635734Y-164022326D01*
X37731865Y-164228482D01*
X37862342Y-164414820D01*
X38023179Y-164575657D01*
X38209517Y-164706134D01*
X38415673Y-164802265D01*
X38415682Y-164802269D01*
X38611999Y-164854872D01*
X38612000Y-164854871D01*
X38612000Y-163891686D01*
X38616394Y-163896080D01*
X38707606Y-163948741D01*
X38809339Y-163976000D01*
X38914661Y-163976000D01*
X39016394Y-163948741D01*
X39107606Y-163896080D01*
X39112000Y-163891686D01*
X39112000Y-164854872D01*
X39308317Y-164802269D01*
X39308326Y-164802265D01*
X39514482Y-164706134D01*
X39700820Y-164575657D01*
X39861657Y-164414820D01*
X39992134Y-164228482D01*
X40088265Y-164022326D01*
X40088269Y-164022317D01*
X40140872Y-163826000D01*
X39177686Y-163826000D01*
X39182080Y-163821606D01*
X39234741Y-163730394D01*
X39262000Y-163628661D01*
X39262000Y-163523339D01*
X39234741Y-163421606D01*
X39182080Y-163330394D01*
X39177686Y-163326000D01*
X40165299Y-163326000D01*
X40166151Y-163325378D01*
X40235897Y-163321216D01*
X40295792Y-163354382D01*
X41262016Y-164320606D01*
X41262045Y-164320637D01*
X41352264Y-164410856D01*
X41352267Y-164410858D01*
X41403490Y-164445084D01*
X41454714Y-164479312D01*
X41535207Y-164512652D01*
X41568548Y-164526463D01*
X41628971Y-164538481D01*
X41689393Y-164550500D01*
X41689394Y-164550500D01*
X48880015Y-164550500D01*
X48947054Y-164570185D01*
X48992809Y-164622989D01*
X49002753Y-164692147D01*
X48999790Y-164706593D01*
X48957432Y-164864674D01*
X48957430Y-164864684D01*
X48936843Y-165099998D01*
X48936843Y-165100000D01*
X48957430Y-165335315D01*
X48957432Y-165335326D01*
X49018566Y-165563483D01*
X49018570Y-165563492D01*
X49118398Y-165777576D01*
X49177073Y-165861372D01*
X49809037Y-165229408D01*
X49826075Y-165292993D01*
X49891901Y-165407007D01*
X49984993Y-165500099D01*
X50099007Y-165565925D01*
X50162591Y-165582962D01*
X49530626Y-166214926D01*
X49614417Y-166273598D01*
X49614421Y-166273600D01*
X49828507Y-166373429D01*
X49828516Y-166373433D01*
X50056673Y-166434567D01*
X50056684Y-166434569D01*
X50291998Y-166455157D01*
X50292002Y-166455157D01*
X50527315Y-166434569D01*
X50527326Y-166434567D01*
X50755483Y-166373433D01*
X50755492Y-166373429D01*
X50969580Y-166273599D01*
X51053371Y-166214925D01*
X50421408Y-165582962D01*
X50484993Y-165565925D01*
X50599007Y-165500099D01*
X50692099Y-165407007D01*
X50757925Y-165292993D01*
X50774962Y-165229408D01*
X51406925Y-165861371D01*
X51460120Y-165785404D01*
X51514697Y-165741780D01*
X51584196Y-165734588D01*
X51646550Y-165766111D01*
X51663268Y-165785404D01*
X51793505Y-165971401D01*
X51960599Y-166138495D01*
X52057384Y-166206265D01*
X52154165Y-166274032D01*
X52154167Y-166274033D01*
X52154170Y-166274035D01*
X52368337Y-166373903D01*
X52596592Y-166435063D01*
X52784918Y-166451539D01*
X52831999Y-166455659D01*
X52832000Y-166455659D01*
X52832001Y-166455659D01*
X52871234Y-166452226D01*
X53067408Y-166435063D01*
X53295663Y-166373903D01*
X53509830Y-166274035D01*
X53703401Y-166138495D01*
X53870495Y-165971401D01*
X54005652Y-165778377D01*
X54060229Y-165734752D01*
X54107227Y-165725500D01*
X59262699Y-165725500D01*
X59329738Y-165745185D01*
X59375493Y-165797989D01*
X59380403Y-165810492D01*
X59408186Y-165894334D01*
X59500288Y-166043656D01*
X59624344Y-166167712D01*
X59773666Y-166259814D01*
X59940203Y-166314999D01*
X60042991Y-166325500D01*
X60818008Y-166325499D01*
X60818016Y-166325498D01*
X60818019Y-166325498D01*
X60874302Y-166319748D01*
X60920797Y-166314999D01*
X61087334Y-166259814D01*
X61236656Y-166167712D01*
X61360712Y-166043656D01*
X61362752Y-166040347D01*
X61364745Y-166038555D01*
X61365193Y-166037989D01*
X61365289Y-166038065D01*
X61414694Y-165993623D01*
X61483656Y-165982395D01*
X61547740Y-166010234D01*
X61573829Y-166040339D01*
X61575681Y-166043341D01*
X61575683Y-166043344D01*
X61699654Y-166167315D01*
X61848875Y-166259356D01*
X61848880Y-166259358D01*
X62015302Y-166314505D01*
X62015309Y-166314506D01*
X62118019Y-166324999D01*
X62255499Y-166324999D01*
X62755500Y-166324999D01*
X62892972Y-166324999D01*
X62892986Y-166324998D01*
X62995697Y-166314505D01*
X63162119Y-166259358D01*
X63162124Y-166259356D01*
X63311345Y-166167315D01*
X63435315Y-166043345D01*
X63527356Y-165894124D01*
X63527358Y-165894119D01*
X63582505Y-165727697D01*
X63582506Y-165727690D01*
X63592999Y-165624986D01*
X63593000Y-165624973D01*
X63593000Y-165350000D01*
X62755500Y-165350000D01*
X62755500Y-166324999D01*
X62255499Y-166324999D01*
X62255500Y-166324998D01*
X62255500Y-164850000D01*
X62755500Y-164850000D01*
X63592999Y-164850000D01*
X63592999Y-164575028D01*
X63592998Y-164575013D01*
X63582505Y-164472302D01*
X63527358Y-164305880D01*
X63527356Y-164305875D01*
X63435315Y-164156654D01*
X63311345Y-164032684D01*
X63155975Y-163936851D01*
X63157241Y-163934797D01*
X63113418Y-163896216D01*
X63094262Y-163829023D01*
X63114474Y-163762141D01*
X63157193Y-163725124D01*
X63155975Y-163723149D01*
X63311345Y-163627315D01*
X63435315Y-163503345D01*
X63527356Y-163354124D01*
X63527358Y-163354119D01*
X63582505Y-163187697D01*
X63582506Y-163187690D01*
X63592999Y-163084986D01*
X63593000Y-163084973D01*
X63593000Y-162810000D01*
X62755500Y-162810000D01*
X62755500Y-164850000D01*
X62255500Y-164850000D01*
X62255500Y-161353959D01*
X62755500Y-161353959D01*
X62755500Y-162310000D01*
X63592999Y-162310000D01*
X63592999Y-162035028D01*
X63592998Y-162035013D01*
X63582505Y-161932302D01*
X63527358Y-161765880D01*
X63527356Y-161765875D01*
X63435315Y-161616654D01*
X63311345Y-161492684D01*
X63162121Y-161400642D01*
X63155810Y-161397699D01*
X63103371Y-161351526D01*
X63084220Y-161284332D01*
X63104436Y-161217451D01*
X63157602Y-161172117D01*
X63169215Y-161167610D01*
X63194120Y-161159357D01*
X63194124Y-161159356D01*
X63343345Y-161067315D01*
X63467315Y-160943345D01*
X63559356Y-160794124D01*
X63559358Y-160794119D01*
X63614505Y-160627697D01*
X63614506Y-160627690D01*
X63624999Y-160524986D01*
X63625000Y-160524973D01*
X63625000Y-160250000D01*
X62787500Y-160250000D01*
X62787500Y-161271638D01*
X62767815Y-161338677D01*
X62755500Y-161353959D01*
X62255500Y-161353959D01*
X62255500Y-161288362D01*
X62275185Y-161221323D01*
X62287500Y-161206040D01*
X62287500Y-159750000D01*
X62787500Y-159750000D01*
X63624999Y-159750000D01*
X63624999Y-159475028D01*
X63624998Y-159475013D01*
X63614505Y-159372302D01*
X63559358Y-159205880D01*
X63559356Y-159205875D01*
X63467315Y-159056654D01*
X63343345Y-158932684D01*
X63218273Y-158855539D01*
X63171549Y-158803591D01*
X63160326Y-158734628D01*
X63188170Y-158670546D01*
X63218273Y-158644461D01*
X63343345Y-158567315D01*
X63467315Y-158443345D01*
X63559356Y-158294124D01*
X63559358Y-158294119D01*
X63614505Y-158127697D01*
X63614506Y-158127690D01*
X63624999Y-158024986D01*
X63625000Y-158024973D01*
X63625000Y-157750000D01*
X62787500Y-157750000D01*
X62787500Y-159750000D01*
X62287500Y-159750000D01*
X62287500Y-156291409D01*
X62258334Y-156237996D01*
X62255500Y-156211638D01*
X62255500Y-156148590D01*
X62755500Y-156148590D01*
X62784666Y-156202004D01*
X62787500Y-156228362D01*
X62787500Y-157250000D01*
X63624999Y-157250000D01*
X63624999Y-156975028D01*
X63624998Y-156975013D01*
X63614505Y-156872302D01*
X63559358Y-156705880D01*
X63559356Y-156705875D01*
X63467315Y-156556654D01*
X63343345Y-156432684D01*
X63194124Y-156340643D01*
X63194119Y-156340641D01*
X63169212Y-156332388D01*
X63111767Y-156292615D01*
X63084944Y-156228099D01*
X63097259Y-156159323D01*
X63144802Y-156108124D01*
X63155817Y-156102297D01*
X63162122Y-156099356D01*
X63311345Y-156007315D01*
X63435315Y-155883345D01*
X63527356Y-155734124D01*
X63527358Y-155734119D01*
X63582505Y-155567697D01*
X63582506Y-155567690D01*
X63592999Y-155464986D01*
X63593000Y-155464973D01*
X63593000Y-155190000D01*
X62755500Y-155190000D01*
X62755500Y-156148590D01*
X62255500Y-156148590D01*
X62255500Y-154690000D01*
X62755500Y-154690000D01*
X63592999Y-154690000D01*
X63592999Y-154415028D01*
X63592998Y-154415013D01*
X63582505Y-154312302D01*
X63527358Y-154145880D01*
X63527356Y-154145875D01*
X63435315Y-153996654D01*
X63311345Y-153872684D01*
X63155975Y-153776851D01*
X63157241Y-153774797D01*
X63113418Y-153736216D01*
X63094262Y-153669023D01*
X63114474Y-153602141D01*
X63157193Y-153565124D01*
X63155975Y-153563149D01*
X63311345Y-153467315D01*
X63435315Y-153343345D01*
X63527356Y-153194124D01*
X63527358Y-153194119D01*
X63582505Y-153027697D01*
X63582506Y-153027690D01*
X63592999Y-152924986D01*
X63593000Y-152924973D01*
X63593000Y-152650000D01*
X62755500Y-152650000D01*
X62755500Y-154690000D01*
X62255500Y-154690000D01*
X62255500Y-152150000D01*
X62755500Y-152150000D01*
X63592999Y-152150000D01*
X63592999Y-151875028D01*
X63592998Y-151875013D01*
X63582505Y-151772302D01*
X63527358Y-151605880D01*
X63527356Y-151605875D01*
X63435315Y-151456654D01*
X63311345Y-151332684D01*
X63155975Y-151236851D01*
X63157241Y-151234797D01*
X63113418Y-151196216D01*
X63094262Y-151129023D01*
X63114474Y-151062141D01*
X63157193Y-151025124D01*
X63155975Y-151023149D01*
X63311345Y-150927315D01*
X63435315Y-150803345D01*
X63527356Y-150654124D01*
X63527358Y-150654119D01*
X63582505Y-150487697D01*
X63582506Y-150487690D01*
X63592999Y-150384986D01*
X63593000Y-150384973D01*
X63593000Y-150110000D01*
X62755500Y-150110000D01*
X62755500Y-152150000D01*
X62255500Y-152150000D01*
X62255500Y-149610000D01*
X62755500Y-149610000D01*
X63592999Y-149610000D01*
X63592999Y-149335028D01*
X63592998Y-149335013D01*
X63582505Y-149232302D01*
X63527358Y-149065880D01*
X63527356Y-149065875D01*
X63435315Y-148916654D01*
X63311345Y-148792684D01*
X63155975Y-148696851D01*
X63157241Y-148694797D01*
X63113418Y-148656216D01*
X63094262Y-148589023D01*
X63114474Y-148522141D01*
X63157193Y-148485124D01*
X63155975Y-148483149D01*
X63311345Y-148387315D01*
X63435315Y-148263345D01*
X63527356Y-148114124D01*
X63527358Y-148114119D01*
X63582505Y-147947697D01*
X63582506Y-147947690D01*
X63592999Y-147844986D01*
X63593000Y-147844973D01*
X63593000Y-147570000D01*
X62755500Y-147570000D01*
X62755500Y-149610000D01*
X62255500Y-149610000D01*
X62255500Y-147070000D01*
X62755500Y-147070000D01*
X63592999Y-147070000D01*
X63592999Y-146795028D01*
X63592998Y-146795013D01*
X63582505Y-146692302D01*
X63527358Y-146525880D01*
X63527356Y-146525875D01*
X63435315Y-146376654D01*
X63311345Y-146252684D01*
X63162124Y-146160643D01*
X63162119Y-146160641D01*
X62995697Y-146105494D01*
X62995690Y-146105493D01*
X62892986Y-146095000D01*
X62755500Y-146095000D01*
X62755500Y-147070000D01*
X62255500Y-147070000D01*
X62255500Y-146095000D01*
X62118027Y-146095000D01*
X62118012Y-146095001D01*
X62015302Y-146105494D01*
X61848880Y-146160641D01*
X61848875Y-146160643D01*
X61699654Y-146252684D01*
X61575683Y-146376655D01*
X61575679Y-146376660D01*
X61573826Y-146379665D01*
X61572018Y-146381290D01*
X61571202Y-146382323D01*
X61571025Y-146382183D01*
X61521874Y-146426385D01*
X61452911Y-146437601D01*
X61388831Y-146409752D01*
X61362753Y-146379653D01*
X61362737Y-146379628D01*
X61360712Y-146376344D01*
X61236656Y-146252288D01*
X61087334Y-146160186D01*
X60920797Y-146105001D01*
X60920795Y-146105000D01*
X60818010Y-146094500D01*
X60042998Y-146094500D01*
X60042980Y-146094501D01*
X59940203Y-146105000D01*
X59940200Y-146105001D01*
X59773668Y-146160185D01*
X59773663Y-146160187D01*
X59624342Y-146252289D01*
X59500289Y-146376342D01*
X59408187Y-146525663D01*
X59408185Y-146525668D01*
X59380405Y-146609504D01*
X59340632Y-146666949D01*
X59276116Y-146693772D01*
X59262699Y-146694500D01*
X54107227Y-146694500D01*
X54040188Y-146674815D01*
X54005652Y-146641623D01*
X53870494Y-146448597D01*
X53703402Y-146281506D01*
X53703401Y-146281505D01*
X53530792Y-146160643D01*
X53517405Y-146151269D01*
X53473781Y-146096692D01*
X53466588Y-146027193D01*
X53498110Y-145964839D01*
X53517404Y-145948120D01*
X53593371Y-145894925D01*
X52961408Y-145262962D01*
X53024993Y-145245925D01*
X53139007Y-145180099D01*
X53232099Y-145087007D01*
X53297925Y-144972993D01*
X53314962Y-144909408D01*
X53946925Y-145541371D01*
X54005599Y-145457580D01*
X54105429Y-145243492D01*
X54105433Y-145243483D01*
X54166567Y-145015326D01*
X54166569Y-145015315D01*
X54187157Y-144780000D01*
X54187157Y-144779998D01*
X54166569Y-144544684D01*
X54166567Y-144544673D01*
X54105433Y-144316516D01*
X54105429Y-144316507D01*
X54005601Y-144102424D01*
X53946925Y-144018626D01*
X53314962Y-144650590D01*
X53297925Y-144587007D01*
X53232099Y-144472993D01*
X53139007Y-144379901D01*
X53024993Y-144314075D01*
X52961409Y-144297037D01*
X53593372Y-143665073D01*
X53593372Y-143665072D01*
X53517405Y-143611879D01*
X53473780Y-143557302D01*
X53466588Y-143487804D01*
X53498110Y-143425449D01*
X53517406Y-143408730D01*
X53517840Y-143408426D01*
X53703401Y-143278495D01*
X53870495Y-143111401D01*
X54005652Y-142918377D01*
X54060229Y-142874752D01*
X54107227Y-142865500D01*
X59262699Y-142865500D01*
X59329738Y-142885185D01*
X59375493Y-142937989D01*
X59380403Y-142950492D01*
X59408186Y-143034334D01*
X59500288Y-143183656D01*
X59624344Y-143307712D01*
X59773666Y-143399814D01*
X59940203Y-143454999D01*
X60042991Y-143465500D01*
X60818008Y-143465499D01*
X60818016Y-143465498D01*
X60818019Y-143465498D01*
X60874302Y-143459748D01*
X60920797Y-143454999D01*
X61087334Y-143399814D01*
X61236656Y-143307712D01*
X61360712Y-143183656D01*
X61362752Y-143180347D01*
X61364745Y-143178555D01*
X61365193Y-143177989D01*
X61365289Y-143178065D01*
X61414694Y-143133623D01*
X61483656Y-143122395D01*
X61547740Y-143150234D01*
X61573829Y-143180339D01*
X61575681Y-143183341D01*
X61575683Y-143183344D01*
X61699654Y-143307315D01*
X61848875Y-143399356D01*
X61848880Y-143399358D01*
X62015302Y-143454505D01*
X62015309Y-143454506D01*
X62118019Y-143464999D01*
X62255499Y-143464999D01*
X62755500Y-143464999D01*
X62892972Y-143464999D01*
X62892986Y-143464998D01*
X62995697Y-143454505D01*
X63162119Y-143399358D01*
X63162124Y-143399356D01*
X63311345Y-143307315D01*
X63435315Y-143183345D01*
X63527356Y-143034124D01*
X63527358Y-143034119D01*
X63582505Y-142867697D01*
X63582506Y-142867690D01*
X63592999Y-142764986D01*
X63593000Y-142764973D01*
X63593000Y-142490000D01*
X62755500Y-142490000D01*
X62755500Y-143464999D01*
X62255499Y-143464999D01*
X62255500Y-143464998D01*
X62255500Y-141990000D01*
X62755500Y-141990000D01*
X63592999Y-141990000D01*
X63592999Y-141715028D01*
X63592998Y-141715013D01*
X63582505Y-141612302D01*
X63527358Y-141445880D01*
X63527356Y-141445875D01*
X63435315Y-141296654D01*
X63311345Y-141172684D01*
X63162124Y-141080643D01*
X63162119Y-141080641D01*
X62995697Y-141025494D01*
X62995690Y-141025493D01*
X62892986Y-141015000D01*
X62755500Y-141015000D01*
X62755500Y-141990000D01*
X62255500Y-141990000D01*
X62255500Y-141015000D01*
X62118027Y-141015000D01*
X62118012Y-141015001D01*
X62015302Y-141025494D01*
X61848880Y-141080641D01*
X61848875Y-141080643D01*
X61699654Y-141172684D01*
X61575683Y-141296655D01*
X61575679Y-141296660D01*
X61573826Y-141299665D01*
X61572018Y-141301290D01*
X61571202Y-141302323D01*
X61571025Y-141302183D01*
X61521874Y-141346385D01*
X61452911Y-141357601D01*
X61388831Y-141329752D01*
X61362753Y-141299653D01*
X61362737Y-141299628D01*
X61360712Y-141296344D01*
X61236656Y-141172288D01*
X61087334Y-141080186D01*
X60920797Y-141025001D01*
X60920795Y-141025000D01*
X60818010Y-141014500D01*
X60042998Y-141014500D01*
X60042980Y-141014501D01*
X59940203Y-141025000D01*
X59940200Y-141025001D01*
X59773668Y-141080185D01*
X59773663Y-141080187D01*
X59624342Y-141172289D01*
X59500289Y-141296342D01*
X59408187Y-141445663D01*
X59408185Y-141445668D01*
X59380405Y-141529504D01*
X59340632Y-141586949D01*
X59276116Y-141613772D01*
X59262699Y-141614500D01*
X54107227Y-141614500D01*
X54040188Y-141594815D01*
X54005652Y-141561623D01*
X53870494Y-141368597D01*
X53703402Y-141201506D01*
X53703401Y-141201505D01*
X53530792Y-141080643D01*
X53517405Y-141071269D01*
X53473781Y-141016692D01*
X53466588Y-140947193D01*
X53498110Y-140884839D01*
X53517404Y-140868120D01*
X53593371Y-140814925D01*
X52961408Y-140182962D01*
X53024993Y-140165925D01*
X53139007Y-140100099D01*
X53232099Y-140007007D01*
X53297925Y-139892993D01*
X53314962Y-139829408D01*
X53946925Y-140461371D01*
X54005599Y-140377580D01*
X54105429Y-140163492D01*
X54105433Y-140163483D01*
X54166567Y-139935326D01*
X54166569Y-139935315D01*
X54187157Y-139700000D01*
X54187157Y-139699998D01*
X54166569Y-139464684D01*
X54166567Y-139464673D01*
X54105433Y-139236516D01*
X54105429Y-139236507D01*
X54005601Y-139022424D01*
X53946925Y-138938626D01*
X53314962Y-139570590D01*
X53297925Y-139507007D01*
X53232099Y-139392993D01*
X53139007Y-139299901D01*
X53024993Y-139234075D01*
X52961409Y-139217037D01*
X53593372Y-138585073D01*
X53516969Y-138531575D01*
X53473344Y-138476998D01*
X53466152Y-138407499D01*
X53497674Y-138345144D01*
X53516968Y-138328426D01*
X53593371Y-138274925D01*
X52961408Y-137642962D01*
X53024993Y-137625925D01*
X53139007Y-137560099D01*
X53232099Y-137467007D01*
X53297925Y-137352993D01*
X53314962Y-137289408D01*
X53946925Y-137921371D01*
X54005599Y-137837580D01*
X54105429Y-137623492D01*
X54105433Y-137623483D01*
X54166567Y-137395326D01*
X54166569Y-137395315D01*
X54187157Y-137160000D01*
X54187157Y-137159998D01*
X54166569Y-136924684D01*
X54166567Y-136924673D01*
X54105433Y-136696516D01*
X54105429Y-136696507D01*
X54005601Y-136482424D01*
X53946925Y-136398626D01*
X53314962Y-137030590D01*
X53297925Y-136967007D01*
X53232099Y-136852993D01*
X53139007Y-136759901D01*
X53024993Y-136694075D01*
X52961407Y-136677037D01*
X53593372Y-136045073D01*
X53593372Y-136045072D01*
X53517405Y-135991879D01*
X53473780Y-135937302D01*
X53466588Y-135867804D01*
X53498110Y-135805449D01*
X53517406Y-135788730D01*
X53703401Y-135658495D01*
X53870495Y-135491401D01*
X54006035Y-135297830D01*
X54105903Y-135083663D01*
X54167063Y-134855408D01*
X54187659Y-134620000D01*
X54167063Y-134384592D01*
X54105903Y-134156337D01*
X54006035Y-133942171D01*
X54000425Y-133934158D01*
X53870494Y-133748597D01*
X53703402Y-133581506D01*
X53703401Y-133581505D01*
X53517405Y-133451269D01*
X53473781Y-133396692D01*
X53466588Y-133327193D01*
X53498110Y-133264839D01*
X53517404Y-133248120D01*
X53593371Y-133194925D01*
X52961408Y-132562962D01*
X53024993Y-132545925D01*
X53139007Y-132480099D01*
X53232099Y-132387007D01*
X53297925Y-132272993D01*
X53314962Y-132209408D01*
X53946925Y-132841371D01*
X54005599Y-132757580D01*
X54105429Y-132543492D01*
X54105433Y-132543483D01*
X54166567Y-132315326D01*
X54166569Y-132315315D01*
X54187157Y-132080001D01*
X54187157Y-132079998D01*
X54166569Y-131844684D01*
X54166567Y-131844673D01*
X54105433Y-131616516D01*
X54105429Y-131616507D01*
X54005601Y-131402424D01*
X53946925Y-131318626D01*
X53314962Y-131950590D01*
X53297925Y-131887007D01*
X53232099Y-131772993D01*
X53139007Y-131679901D01*
X53024993Y-131614075D01*
X52961409Y-131597037D01*
X53593372Y-130965073D01*
X53516969Y-130911575D01*
X53473344Y-130856998D01*
X53466152Y-130787499D01*
X53497674Y-130725144D01*
X53516968Y-130708426D01*
X53593371Y-130654925D01*
X52961408Y-130022962D01*
X53024993Y-130005925D01*
X53139007Y-129940099D01*
X53232099Y-129847007D01*
X53297925Y-129732993D01*
X53314962Y-129669408D01*
X53946925Y-130301371D01*
X54005599Y-130217580D01*
X54105429Y-130003492D01*
X54105433Y-130003483D01*
X54166567Y-129775326D01*
X54166569Y-129775315D01*
X54187157Y-129540001D01*
X54187157Y-129539998D01*
X54166569Y-129304684D01*
X54166567Y-129304673D01*
X54105433Y-129076516D01*
X54105429Y-129076507D01*
X54005601Y-128862424D01*
X53946925Y-128778626D01*
X53314962Y-129410590D01*
X53297925Y-129347007D01*
X53232099Y-129232993D01*
X53139007Y-129139901D01*
X53024993Y-129074075D01*
X52961409Y-129057037D01*
X53593372Y-128425073D01*
X53516969Y-128371575D01*
X53473344Y-128316998D01*
X53466152Y-128247499D01*
X53497674Y-128185144D01*
X53516968Y-128168426D01*
X53593371Y-128114925D01*
X52961408Y-127482962D01*
X53024993Y-127465925D01*
X53139007Y-127400099D01*
X53232099Y-127307007D01*
X53297925Y-127192993D01*
X53314962Y-127129408D01*
X53946925Y-127761371D01*
X54005599Y-127677580D01*
X54105429Y-127463492D01*
X54105433Y-127463483D01*
X54166567Y-127235326D01*
X54166569Y-127235315D01*
X54187157Y-127000001D01*
X54187157Y-126999998D01*
X54166569Y-126764684D01*
X54166567Y-126764673D01*
X54105433Y-126536516D01*
X54105429Y-126536507D01*
X54005601Y-126322424D01*
X53946925Y-126238626D01*
X53314962Y-126870590D01*
X53297925Y-126807007D01*
X53232099Y-126692993D01*
X53139007Y-126599901D01*
X53024993Y-126534075D01*
X52961409Y-126517037D01*
X53593372Y-125885073D01*
X53593372Y-125885072D01*
X53517405Y-125831879D01*
X53473780Y-125777302D01*
X53466588Y-125707804D01*
X53498110Y-125645449D01*
X53517406Y-125628730D01*
X53517840Y-125628426D01*
X53703401Y-125498495D01*
X53870495Y-125331401D01*
X54005652Y-125138377D01*
X54060229Y-125094752D01*
X54107227Y-125085500D01*
X59262699Y-125085500D01*
X59329738Y-125105185D01*
X59375493Y-125157989D01*
X59380403Y-125170492D01*
X59408186Y-125254334D01*
X59500288Y-125403656D01*
X59624344Y-125527712D01*
X59773666Y-125619814D01*
X59940203Y-125674999D01*
X60042991Y-125685500D01*
X60818008Y-125685499D01*
X60818016Y-125685498D01*
X60818019Y-125685498D01*
X60874302Y-125679748D01*
X60920797Y-125674999D01*
X61087334Y-125619814D01*
X61236656Y-125527712D01*
X61360712Y-125403656D01*
X61362752Y-125400347D01*
X61364745Y-125398555D01*
X61365193Y-125397989D01*
X61365289Y-125398065D01*
X61414694Y-125353623D01*
X61483656Y-125342395D01*
X61547740Y-125370234D01*
X61573829Y-125400339D01*
X61575681Y-125403341D01*
X61575683Y-125403344D01*
X61699654Y-125527315D01*
X61848875Y-125619356D01*
X61848880Y-125619358D01*
X62015302Y-125674505D01*
X62015309Y-125674506D01*
X62118019Y-125684999D01*
X62255499Y-125684999D01*
X62755500Y-125684999D01*
X62892972Y-125684999D01*
X62892986Y-125684998D01*
X62995697Y-125674505D01*
X63162119Y-125619358D01*
X63162124Y-125619356D01*
X63311345Y-125527315D01*
X63435315Y-125403345D01*
X63527356Y-125254124D01*
X63527358Y-125254119D01*
X63582505Y-125087697D01*
X63582506Y-125087690D01*
X63592999Y-124984986D01*
X63593000Y-124984973D01*
X63593000Y-124710000D01*
X62755500Y-124710000D01*
X62755500Y-125684999D01*
X62255499Y-125684999D01*
X62255500Y-125684998D01*
X62255500Y-124210000D01*
X62755500Y-124210000D01*
X63592999Y-124210000D01*
X63592999Y-123935028D01*
X63592998Y-123935013D01*
X63582505Y-123832302D01*
X63527358Y-123665880D01*
X63527356Y-123665875D01*
X63435315Y-123516654D01*
X63311345Y-123392684D01*
X63155975Y-123296851D01*
X63157241Y-123294797D01*
X63113418Y-123256216D01*
X63094262Y-123189023D01*
X63114474Y-123122141D01*
X63157193Y-123085124D01*
X63155975Y-123083149D01*
X63311345Y-122987315D01*
X63435315Y-122863345D01*
X63527356Y-122714124D01*
X63527358Y-122714119D01*
X63582505Y-122547697D01*
X63582506Y-122547690D01*
X63592999Y-122444986D01*
X63593000Y-122444973D01*
X63593000Y-122170000D01*
X62755500Y-122170000D01*
X62755500Y-124210000D01*
X62255500Y-124210000D01*
X62255500Y-121670000D01*
X62755500Y-121670000D01*
X63592999Y-121670000D01*
X63592999Y-121395028D01*
X63592998Y-121395013D01*
X63582505Y-121292302D01*
X63527358Y-121125880D01*
X63527356Y-121125875D01*
X63435315Y-120976654D01*
X63311345Y-120852684D01*
X63155975Y-120756851D01*
X63157241Y-120754797D01*
X63113418Y-120716216D01*
X63094262Y-120649023D01*
X63114474Y-120582141D01*
X63157193Y-120545124D01*
X63155975Y-120543149D01*
X63311345Y-120447315D01*
X63435315Y-120323345D01*
X63527356Y-120174124D01*
X63527358Y-120174119D01*
X63582505Y-120007697D01*
X63582506Y-120007690D01*
X63592999Y-119904986D01*
X63593000Y-119904973D01*
X63593000Y-119630000D01*
X62755500Y-119630000D01*
X62755500Y-121670000D01*
X62255500Y-121670000D01*
X62255500Y-118154999D01*
X62755500Y-118154999D01*
X62755500Y-119130000D01*
X63592999Y-119130000D01*
X63592999Y-118855028D01*
X63592998Y-118855013D01*
X63582505Y-118752302D01*
X63527358Y-118585880D01*
X63527356Y-118585875D01*
X63435315Y-118436654D01*
X63311345Y-118312684D01*
X63162124Y-118220643D01*
X63162119Y-118220641D01*
X63063638Y-118188008D01*
X63006193Y-118148235D01*
X62979370Y-118083720D01*
X62991685Y-118014944D01*
X63039228Y-117963744D01*
X63063638Y-117952596D01*
X63194119Y-117909358D01*
X63194124Y-117909356D01*
X63343345Y-117817315D01*
X63467315Y-117693345D01*
X63559356Y-117544124D01*
X63559358Y-117544119D01*
X63614505Y-117377697D01*
X63614506Y-117377690D01*
X63624999Y-117274986D01*
X63625000Y-117274973D01*
X63625000Y-117000000D01*
X62787500Y-117000000D01*
X62787500Y-117986372D01*
X62807304Y-118022641D01*
X62802320Y-118092333D01*
X62773820Y-118136679D01*
X62755500Y-118154999D01*
X62255500Y-118154999D01*
X62255500Y-118143625D01*
X62235696Y-118107357D01*
X62240680Y-118037665D01*
X62269181Y-117993318D01*
X62287500Y-117974999D01*
X62287500Y-115651409D01*
X62258334Y-115597996D01*
X62255500Y-115571638D01*
X62255500Y-115398590D01*
X62755500Y-115398590D01*
X62784666Y-115452004D01*
X62787500Y-115478362D01*
X62787500Y-116500000D01*
X63624999Y-116500000D01*
X63624999Y-116225028D01*
X63624998Y-116225013D01*
X63614505Y-116122302D01*
X63559358Y-115955880D01*
X63559356Y-115955875D01*
X63467315Y-115806654D01*
X63343345Y-115682684D01*
X63242804Y-115620670D01*
X63196080Y-115568722D01*
X63184857Y-115499759D01*
X63212701Y-115435677D01*
X63242805Y-115409592D01*
X63311343Y-115367317D01*
X63435315Y-115243345D01*
X63527356Y-115094124D01*
X63527358Y-115094119D01*
X63582505Y-114927697D01*
X63582506Y-114927690D01*
X63592999Y-114824986D01*
X63593000Y-114824973D01*
X63593000Y-114550000D01*
X62755500Y-114550000D01*
X62755500Y-115398590D01*
X62255500Y-115398590D01*
X62255500Y-114050000D01*
X62755500Y-114050000D01*
X63592999Y-114050000D01*
X63592999Y-113775028D01*
X63592998Y-113775013D01*
X63582505Y-113672302D01*
X63527358Y-113505880D01*
X63527356Y-113505875D01*
X63435315Y-113356654D01*
X63311345Y-113232684D01*
X63155975Y-113136851D01*
X63157241Y-113134797D01*
X63113418Y-113096216D01*
X63094262Y-113029023D01*
X63114474Y-112962141D01*
X63157193Y-112925124D01*
X63155975Y-112923149D01*
X63311345Y-112827315D01*
X63435315Y-112703345D01*
X63527356Y-112554124D01*
X63527358Y-112554119D01*
X63582505Y-112387697D01*
X63582506Y-112387690D01*
X63592999Y-112284986D01*
X63593000Y-112284973D01*
X63593000Y-112010000D01*
X62755500Y-112010000D01*
X62755500Y-114050000D01*
X62255500Y-114050000D01*
X62255500Y-111510000D01*
X62755500Y-111510000D01*
X63592999Y-111510000D01*
X63592999Y-111235028D01*
X63592998Y-111235013D01*
X63582505Y-111132302D01*
X63527358Y-110965880D01*
X63527356Y-110965875D01*
X63435315Y-110816654D01*
X63311345Y-110692684D01*
X63155975Y-110596851D01*
X63157241Y-110594797D01*
X63113418Y-110556216D01*
X63094262Y-110489023D01*
X63114474Y-110422141D01*
X63157193Y-110385124D01*
X63155975Y-110383149D01*
X63311345Y-110287315D01*
X63435315Y-110163345D01*
X63527356Y-110014124D01*
X63527358Y-110014119D01*
X63582505Y-109847697D01*
X63582506Y-109847690D01*
X63592999Y-109744986D01*
X63593000Y-109744973D01*
X63593000Y-109470000D01*
X62755500Y-109470000D01*
X62755500Y-111510000D01*
X62255500Y-111510000D01*
X62255500Y-108970000D01*
X62755500Y-108970000D01*
X63592999Y-108970000D01*
X63592999Y-108695028D01*
X63592998Y-108695013D01*
X63582505Y-108592302D01*
X63527358Y-108425880D01*
X63527356Y-108425875D01*
X63435315Y-108276654D01*
X63311345Y-108152684D01*
X63155975Y-108056851D01*
X63157241Y-108054797D01*
X63113418Y-108016216D01*
X63094262Y-107949023D01*
X63114474Y-107882141D01*
X63157193Y-107845124D01*
X63155975Y-107843149D01*
X63311345Y-107747315D01*
X63435315Y-107623345D01*
X63527356Y-107474124D01*
X63527358Y-107474119D01*
X63582505Y-107307697D01*
X63582506Y-107307690D01*
X63592999Y-107204986D01*
X63593000Y-107204973D01*
X63593000Y-106930000D01*
X62755500Y-106930000D01*
X62755500Y-108970000D01*
X62255500Y-108970000D01*
X62255500Y-105455000D01*
X62755500Y-105455000D01*
X62755500Y-106430000D01*
X63592999Y-106430000D01*
X63592999Y-106155028D01*
X63592998Y-106155013D01*
X63582505Y-106052302D01*
X63527358Y-105885880D01*
X63527356Y-105885875D01*
X63435315Y-105736654D01*
X63311345Y-105612684D01*
X63162124Y-105520643D01*
X63162119Y-105520641D01*
X62995697Y-105465494D01*
X62995691Y-105465493D01*
X62990783Y-105464992D01*
X62926092Y-105438594D01*
X62885942Y-105381412D01*
X62883081Y-105311601D01*
X62918417Y-105251325D01*
X62980730Y-105219722D01*
X62990789Y-105218276D01*
X63027696Y-105214506D01*
X63194119Y-105159358D01*
X63194124Y-105159356D01*
X63343345Y-105067315D01*
X63467315Y-104943345D01*
X63559356Y-104794124D01*
X63559358Y-104794119D01*
X63614505Y-104627697D01*
X63614506Y-104627690D01*
X63624999Y-104524986D01*
X63625000Y-104524973D01*
X63625000Y-104250000D01*
X62787500Y-104250000D01*
X62787500Y-105224999D01*
X62805820Y-105243319D01*
X62839305Y-105304642D01*
X62834321Y-105374334D01*
X62792449Y-105430267D01*
X62772966Y-105437533D01*
X62755500Y-105455000D01*
X62255500Y-105455000D01*
X62255500Y-105454999D01*
X62237181Y-105436681D01*
X62203695Y-105375358D01*
X62208679Y-105305667D01*
X62250550Y-105249733D01*
X62270032Y-105242465D01*
X62287500Y-105224998D01*
X62287500Y-103750000D01*
X62787500Y-103750000D01*
X63624999Y-103750000D01*
X63624999Y-103475028D01*
X63624998Y-103475013D01*
X63614505Y-103372302D01*
X63559358Y-103205880D01*
X63559356Y-103205875D01*
X63467315Y-103056654D01*
X63343345Y-102932684D01*
X63194124Y-102840643D01*
X63194119Y-102840641D01*
X63027697Y-102785494D01*
X63027690Y-102785493D01*
X62924986Y-102775000D01*
X62787500Y-102775000D01*
X62787500Y-103750000D01*
X62287500Y-103750000D01*
X62287500Y-102775000D01*
X62150027Y-102775000D01*
X62150012Y-102775001D01*
X62047302Y-102785494D01*
X61880880Y-102840641D01*
X61880875Y-102840643D01*
X61731654Y-102932684D01*
X61607683Y-103056655D01*
X61607679Y-103056660D01*
X61605826Y-103059665D01*
X61604018Y-103061290D01*
X61603202Y-103062323D01*
X61603025Y-103062183D01*
X61553874Y-103106385D01*
X61484911Y-103117601D01*
X61420831Y-103089752D01*
X61394753Y-103059653D01*
X61394737Y-103059628D01*
X61392712Y-103056344D01*
X61268656Y-102932288D01*
X61167672Y-102870001D01*
X61119336Y-102840187D01*
X61119331Y-102840185D01*
X61117862Y-102839698D01*
X60952797Y-102785001D01*
X60952795Y-102785000D01*
X60850010Y-102774500D01*
X60074998Y-102774500D01*
X60074980Y-102774501D01*
X59972203Y-102785000D01*
X59972200Y-102785001D01*
X59805668Y-102840185D01*
X59805663Y-102840187D01*
X59656342Y-102932289D01*
X59532289Y-103056342D01*
X59440187Y-103205663D01*
X59440185Y-103205668D01*
X59385001Y-103372204D01*
X59385000Y-103372205D01*
X59381844Y-103403103D01*
X59355447Y-103467795D01*
X59298266Y-103507946D01*
X59258486Y-103514500D01*
X54107227Y-103514500D01*
X54040188Y-103494815D01*
X54005652Y-103461623D01*
X53870494Y-103268597D01*
X53703402Y-103101506D01*
X53703395Y-103101501D01*
X53509834Y-102965967D01*
X53509830Y-102965965D01*
X53470626Y-102947684D01*
X53295663Y-102866097D01*
X53295659Y-102866096D01*
X53295655Y-102866094D01*
X53067413Y-102804938D01*
X53067403Y-102804936D01*
X52832001Y-102784341D01*
X52831999Y-102784341D01*
X52596596Y-102804936D01*
X52596586Y-102804938D01*
X52496126Y-102831856D01*
X52426276Y-102830193D01*
X52376352Y-102799762D01*
X46972198Y-97395608D01*
X46972178Y-97395586D01*
X46880733Y-97304141D01*
X46829509Y-97269915D01*
X46778287Y-97235689D01*
X46778286Y-97235688D01*
X46778283Y-97235686D01*
X46778280Y-97235685D01*
X46697792Y-97202347D01*
X46664453Y-97188537D01*
X46654427Y-97186543D01*
X46604029Y-97176518D01*
X46543610Y-97164500D01*
X46543607Y-97164500D01*
X46543606Y-97164500D01*
X40076188Y-97164500D01*
X40009149Y-97144815D01*
X39974613Y-97111623D01*
X39862045Y-96950858D01*
X39701143Y-96789956D01*
X39676536Y-96772726D01*
X39632912Y-96718149D01*
X39625719Y-96648650D01*
X39657241Y-96586296D01*
X39717471Y-96550882D01*
X39734404Y-96547861D01*
X39769483Y-96544091D01*
X39904331Y-96493796D01*
X40019546Y-96407546D01*
X40105796Y-96292331D01*
X40156091Y-96157483D01*
X40162500Y-96097873D01*
X40162499Y-94402128D01*
X40156091Y-94342517D01*
X40131705Y-94277136D01*
X40105797Y-94207671D01*
X40105793Y-94207664D01*
X40019547Y-94092455D01*
X40016612Y-94090258D01*
X39977321Y-94060844D01*
X39912188Y-94012085D01*
X39870318Y-93956151D01*
X39862500Y-93912819D01*
X39862500Y-93636457D01*
X39855419Y-93600861D01*
X39844798Y-93547466D01*
X39824052Y-93443165D01*
X39748632Y-93261086D01*
X39748631Y-93261085D01*
X39748628Y-93261079D01*
X39639140Y-93097219D01*
X39639137Y-93097215D01*
X35272818Y-88730897D01*
X35239333Y-88669574D01*
X35236499Y-88643216D01*
X35236499Y-88533998D01*
X35236498Y-88533981D01*
X35225999Y-88431203D01*
X35225998Y-88431200D01*
X35175720Y-88279472D01*
X35170814Y-88264666D01*
X35078712Y-88115344D01*
X34954656Y-87991288D01*
X34951819Y-87989538D01*
X34950283Y-87987830D01*
X34948989Y-87986807D01*
X34949163Y-87986585D01*
X34905096Y-87937594D01*
X34893872Y-87868632D01*
X34895369Y-87865186D01*
X38599500Y-87865186D01*
X38599500Y-88134813D01*
X38629686Y-88402719D01*
X38629688Y-88402731D01*
X38689684Y-88665594D01*
X38689687Y-88665602D01*
X38778734Y-88920082D01*
X38895714Y-89162994D01*
X38895716Y-89162997D01*
X39039162Y-89391289D01*
X39147818Y-89527539D01*
X39200065Y-89593056D01*
X39207266Y-89602085D01*
X39397915Y-89792734D01*
X39608711Y-89960838D01*
X39837003Y-90104284D01*
X40079921Y-90221267D01*
X40251343Y-90281250D01*
X40334397Y-90310312D01*
X40334405Y-90310315D01*
X40334408Y-90310315D01*
X40334409Y-90310316D01*
X40597268Y-90370312D01*
X40865187Y-90400499D01*
X40865188Y-90400500D01*
X40865191Y-90400500D01*
X41134812Y-90400500D01*
X41134812Y-90400499D01*
X41402732Y-90370312D01*
X41665591Y-90310316D01*
X41920079Y-90221267D01*
X42162997Y-90104284D01*
X42391289Y-89960838D01*
X42602085Y-89792734D01*
X42792734Y-89602085D01*
X42960838Y-89391289D01*
X43104284Y-89162997D01*
X43221267Y-88920079D01*
X43310316Y-88665591D01*
X43370312Y-88402732D01*
X43400500Y-88134809D01*
X43400500Y-87865191D01*
X43370312Y-87597268D01*
X43310316Y-87334409D01*
X43221267Y-87079921D01*
X43104284Y-86837003D01*
X42960838Y-86608711D01*
X42792734Y-86397915D01*
X42602085Y-86207266D01*
X42391289Y-86039162D01*
X42233613Y-85940087D01*
X42162994Y-85895714D01*
X41920082Y-85778734D01*
X41665602Y-85689687D01*
X41665594Y-85689684D01*
X41468446Y-85644687D01*
X41402732Y-85629688D01*
X41402728Y-85629687D01*
X41402719Y-85629686D01*
X41134813Y-85599500D01*
X41134809Y-85599500D01*
X40865191Y-85599500D01*
X40865186Y-85599500D01*
X40597280Y-85629686D01*
X40597268Y-85629688D01*
X40334405Y-85689684D01*
X40334397Y-85689687D01*
X40079917Y-85778734D01*
X39837005Y-85895714D01*
X39608712Y-86039161D01*
X39397915Y-86207265D01*
X39207265Y-86397915D01*
X39039161Y-86608712D01*
X38895714Y-86837005D01*
X38778734Y-87079917D01*
X38689687Y-87334397D01*
X38689684Y-87334405D01*
X38629688Y-87597268D01*
X38629686Y-87597280D01*
X38599500Y-87865186D01*
X34895369Y-87865186D01*
X34921713Y-87804549D01*
X34951817Y-87778462D01*
X34954656Y-87776712D01*
X35078712Y-87652656D01*
X35170814Y-87503334D01*
X35225999Y-87336797D01*
X35236500Y-87234009D01*
X35236499Y-86483992D01*
X35232925Y-86449009D01*
X35225999Y-86381203D01*
X35225998Y-86381200D01*
X35204471Y-86316236D01*
X35170814Y-86214666D01*
X35078712Y-86065344D01*
X35072819Y-86059451D01*
X35039334Y-85998128D01*
X35036500Y-85971770D01*
X35036500Y-85301782D01*
X35056185Y-85234743D01*
X35072819Y-85214101D01*
X36192102Y-84094819D01*
X36253425Y-84061334D01*
X36279783Y-84058500D01*
X62328542Y-84058500D01*
X62347870Y-84054655D01*
X62425188Y-84039275D01*
X62521836Y-84020051D01*
X62575165Y-83997961D01*
X62703914Y-83944632D01*
X62867782Y-83835139D01*
X63007139Y-83695782D01*
X63007140Y-83695780D01*
X63277140Y-83425781D01*
X63386632Y-83261914D01*
X63462052Y-83079835D01*
X63500500Y-82886540D01*
X63500500Y-82689459D01*
X63500500Y-78960312D01*
X63520185Y-78893273D01*
X63572989Y-78847518D01*
X63642147Y-78837574D01*
X63705703Y-78866599D01*
X63708021Y-78868660D01*
X63788568Y-78942088D01*
X63788575Y-78942092D01*
X63788576Y-78942093D01*
X63973786Y-79056770D01*
X63973792Y-79056773D01*
X63996664Y-79065633D01*
X64176931Y-79135470D01*
X64391074Y-79175500D01*
X64391076Y-79175500D01*
X64608924Y-79175500D01*
X64608926Y-79175500D01*
X64823069Y-79135470D01*
X65026210Y-79056772D01*
X65211432Y-78942088D01*
X65372427Y-78795322D01*
X65401047Y-78757422D01*
X65457153Y-78715787D01*
X65526865Y-78711094D01*
X65588048Y-78744836D01*
X65598946Y-78757414D01*
X65627573Y-78795322D01*
X65627576Y-78795325D01*
X65627578Y-78795327D01*
X65732161Y-78890666D01*
X65788568Y-78942088D01*
X65788575Y-78942092D01*
X65788576Y-78942093D01*
X65973786Y-79056770D01*
X65973792Y-79056773D01*
X65996664Y-79065633D01*
X66176931Y-79135470D01*
X66391074Y-79175500D01*
X66391076Y-79175500D01*
X66608924Y-79175500D01*
X66608926Y-79175500D01*
X66823069Y-79135470D01*
X67026210Y-79056772D01*
X67211432Y-78942088D01*
X67372427Y-78795322D01*
X67401047Y-78757422D01*
X67457153Y-78715787D01*
X67526865Y-78711094D01*
X67588048Y-78744836D01*
X67598946Y-78757414D01*
X67627573Y-78795322D01*
X67627576Y-78795325D01*
X67627578Y-78795327D01*
X67732161Y-78890666D01*
X67788568Y-78942088D01*
X67788575Y-78942092D01*
X67788576Y-78942093D01*
X67973786Y-79056770D01*
X67973792Y-79056773D01*
X67996664Y-79065633D01*
X68176931Y-79135470D01*
X68391074Y-79175500D01*
X68391076Y-79175500D01*
X68608924Y-79175500D01*
X68608926Y-79175500D01*
X68823069Y-79135470D01*
X69026210Y-79056772D01*
X69211432Y-78942088D01*
X69372427Y-78795322D01*
X69401047Y-78757422D01*
X69457153Y-78715787D01*
X69526865Y-78711094D01*
X69588048Y-78744836D01*
X69598946Y-78757414D01*
X69627573Y-78795322D01*
X69627576Y-78795325D01*
X69627578Y-78795327D01*
X69732161Y-78890666D01*
X69788568Y-78942088D01*
X69788575Y-78942092D01*
X69788576Y-78942093D01*
X69973786Y-79056770D01*
X69973792Y-79056773D01*
X69996664Y-79065633D01*
X70176931Y-79135470D01*
X70391074Y-79175500D01*
X70391076Y-79175500D01*
X70608924Y-79175500D01*
X70608926Y-79175500D01*
X70823069Y-79135470D01*
X71026210Y-79056772D01*
X71211432Y-78942088D01*
X71372427Y-78795322D01*
X71401047Y-78757422D01*
X71457153Y-78715787D01*
X71526865Y-78711094D01*
X71588048Y-78744836D01*
X71598946Y-78757414D01*
X71627573Y-78795322D01*
X71627576Y-78795325D01*
X71627578Y-78795327D01*
X71732161Y-78890666D01*
X71788568Y-78942088D01*
X71788575Y-78942092D01*
X71788576Y-78942093D01*
X71973786Y-79056770D01*
X71973792Y-79056773D01*
X71996664Y-79065633D01*
X72176931Y-79135470D01*
X72391074Y-79175500D01*
X72391076Y-79175500D01*
X72608924Y-79175500D01*
X72608926Y-79175500D01*
X72823069Y-79135470D01*
X73026210Y-79056772D01*
X73211432Y-78942088D01*
X73372427Y-78795322D01*
X73401047Y-78757422D01*
X73457153Y-78715787D01*
X73526865Y-78711094D01*
X73588048Y-78744836D01*
X73598946Y-78757414D01*
X73627573Y-78795322D01*
X73627576Y-78795325D01*
X73627578Y-78795327D01*
X73732161Y-78890666D01*
X73788568Y-78942088D01*
X73788575Y-78942092D01*
X73788576Y-78942093D01*
X73973786Y-79056770D01*
X73973792Y-79056773D01*
X73996664Y-79065633D01*
X74176931Y-79135470D01*
X74391074Y-79175500D01*
X74391076Y-79175500D01*
X74608924Y-79175500D01*
X74608926Y-79175500D01*
X74823069Y-79135470D01*
X75026210Y-79056772D01*
X75211432Y-78942088D01*
X75291962Y-78868674D01*
X75354766Y-78838058D01*
X75424153Y-78846256D01*
X75478093Y-78890666D01*
X75499461Y-78957188D01*
X75499500Y-78960312D01*
X75499500Y-81530217D01*
X75479815Y-81597256D01*
X75463181Y-81617898D01*
X72173820Y-84907259D01*
X72173818Y-84907261D01*
X72104138Y-84976940D01*
X72034459Y-85046619D01*
X71924971Y-85210479D01*
X71924964Y-85210492D01*
X71849550Y-85392560D01*
X71849547Y-85392570D01*
X71811100Y-85585856D01*
X71811100Y-85585859D01*
X71811100Y-89334241D01*
X71811100Y-89334243D01*
X71811099Y-89334243D01*
X71849547Y-89527529D01*
X71849550Y-89527539D01*
X71924964Y-89709606D01*
X71924971Y-89709619D01*
X71929978Y-89717112D01*
X71999306Y-89820869D01*
X72015278Y-89855161D01*
X72059854Y-90008593D01*
X72059855Y-90008596D01*
X72143517Y-90150062D01*
X72143523Y-90150070D01*
X72259729Y-90266276D01*
X72259740Y-90266285D01*
X72260055Y-90266471D01*
X72260250Y-90266680D01*
X72265898Y-90271061D01*
X72265191Y-90271972D01*
X72307736Y-90317543D01*
X72320237Y-90386285D01*
X72293588Y-90450873D01*
X72265678Y-90475056D01*
X72265898Y-90475339D01*
X72260692Y-90479376D01*
X72260055Y-90479929D01*
X72259740Y-90480114D01*
X72259729Y-90480123D01*
X72143523Y-90596329D01*
X72143517Y-90596337D01*
X72059855Y-90737803D01*
X72059854Y-90737806D01*
X72014002Y-90895626D01*
X72014001Y-90895632D01*
X72011100Y-90932498D01*
X72011100Y-92088901D01*
X72014001Y-92125767D01*
X72014002Y-92125773D01*
X72059854Y-92283593D01*
X72059855Y-92283596D01*
X72143517Y-92425062D01*
X72143523Y-92425070D01*
X72259729Y-92541276D01*
X72259733Y-92541279D01*
X72259735Y-92541281D01*
X72401202Y-92624944D01*
X72442824Y-92637036D01*
X72559026Y-92670797D01*
X72559029Y-92670797D01*
X72559031Y-92670798D01*
X72595906Y-92673700D01*
X72595914Y-92673700D01*
X73012100Y-92673700D01*
X73079139Y-92693385D01*
X73124894Y-92746189D01*
X73136100Y-92797700D01*
X73136100Y-93940011D01*
X73160135Y-94060844D01*
X73160140Y-94060861D01*
X73207285Y-94174681D01*
X73207290Y-94174690D01*
X73230160Y-94208916D01*
X73230161Y-94208917D01*
X73275741Y-94277132D01*
X73275744Y-94277136D01*
X73367186Y-94368578D01*
X73367208Y-94368598D01*
X73577416Y-94578806D01*
X73577445Y-94578837D01*
X73667663Y-94669055D01*
X73667667Y-94669058D01*
X73770107Y-94737507D01*
X73770113Y-94737510D01*
X73770114Y-94737511D01*
X73827878Y-94761438D01*
X73827881Y-94761439D01*
X73882284Y-94805280D01*
X73904349Y-94871574D01*
X73887070Y-94939273D01*
X73835933Y-94986884D01*
X73780428Y-95000000D01*
X65499991Y-95000000D01*
X65382133Y-95002311D01*
X65149289Y-95039190D01*
X64925089Y-95112036D01*
X64925086Y-95112038D01*
X64715039Y-95219062D01*
X64524320Y-95357629D01*
X64357629Y-95524320D01*
X64219062Y-95715039D01*
X64112038Y-95925086D01*
X64112036Y-95925089D01*
X64039190Y-96149289D01*
X64002311Y-96382133D01*
X64000000Y-96499991D01*
X64000000Y-171999117D01*
X63999988Y-172000855D01*
X63997725Y-172162256D01*
X63996957Y-172174402D01*
X63960722Y-172495992D01*
X63958393Y-172509700D01*
X63886573Y-172824366D01*
X63882724Y-172837729D01*
X63776120Y-173142386D01*
X63770798Y-173155233D01*
X63630760Y-173446025D01*
X63624034Y-173458195D01*
X63452314Y-173731486D01*
X63444267Y-173742827D01*
X63243028Y-173995173D01*
X63233762Y-174005541D01*
X63005541Y-174233762D01*
X62995173Y-174243028D01*
X62742827Y-174444267D01*
X62731486Y-174452314D01*
X62458195Y-174624034D01*
X62446025Y-174630760D01*
X62155233Y-174770798D01*
X62142386Y-174776120D01*
X61837729Y-174882724D01*
X61824366Y-174886573D01*
X61509700Y-174958393D01*
X61495992Y-174960722D01*
X61174402Y-174996957D01*
X61162256Y-174997725D01*
X61000856Y-174999988D01*
X60999118Y-175000000D01*
X33500781Y-175000000D01*
X33499159Y-174999989D01*
X33322391Y-174997676D01*
X33311051Y-174997008D01*
X32958560Y-174959959D01*
X32945741Y-174957928D01*
X32599871Y-174884411D01*
X32587334Y-174881052D01*
X32251034Y-174771781D01*
X32238917Y-174767130D01*
X31915877Y-174623305D01*
X31904312Y-174617412D01*
X31598081Y-174440609D01*
X31587196Y-174433540D01*
X31301126Y-174225698D01*
X31291039Y-174217530D01*
X31028257Y-173980920D01*
X31019079Y-173971742D01*
X30812963Y-173742827D01*
X30782466Y-173708957D01*
X30774301Y-173698873D01*
X30566459Y-173412803D01*
X30559390Y-173401918D01*
X30416966Y-173155233D01*
X30382583Y-173095679D01*
X30376698Y-173084131D01*
X30232869Y-172761082D01*
X30228218Y-172748965D01*
X30118947Y-172412665D01*
X30115588Y-172400128D01*
X30096497Y-172310312D01*
X30042070Y-172054252D01*
X30040040Y-172041439D01*
X30002990Y-171688938D01*
X30002323Y-171677619D01*
X30000011Y-171500840D01*
X30000000Y-171499218D01*
X30000000Y-169865186D01*
X38599500Y-169865186D01*
X38599500Y-170134813D01*
X38629686Y-170402719D01*
X38629688Y-170402731D01*
X38689684Y-170665594D01*
X38689687Y-170665602D01*
X38778734Y-170920082D01*
X38895714Y-171162994D01*
X38895716Y-171162997D01*
X39039162Y-171391289D01*
X39207266Y-171602085D01*
X39397915Y-171792734D01*
X39608711Y-171960838D01*
X39837003Y-172104284D01*
X40079921Y-172221267D01*
X40271049Y-172288145D01*
X40334397Y-172310312D01*
X40334405Y-172310315D01*
X40334408Y-172310315D01*
X40334409Y-172310316D01*
X40597268Y-172370312D01*
X40865187Y-172400499D01*
X40865188Y-172400500D01*
X40865191Y-172400500D01*
X41134812Y-172400500D01*
X41134812Y-172400499D01*
X41402732Y-172370312D01*
X41665591Y-172310316D01*
X41920079Y-172221267D01*
X42162997Y-172104284D01*
X42391289Y-171960838D01*
X42602085Y-171792734D01*
X42792734Y-171602085D01*
X42960838Y-171391289D01*
X43104284Y-171162997D01*
X43221267Y-170920079D01*
X43310316Y-170665591D01*
X43370312Y-170402732D01*
X43400500Y-170134809D01*
X43400500Y-169865191D01*
X43370312Y-169597268D01*
X43310316Y-169334409D01*
X43221267Y-169079921D01*
X43104284Y-168837003D01*
X42960838Y-168608711D01*
X42792734Y-168397915D01*
X42602085Y-168207266D01*
X42391289Y-168039162D01*
X42162997Y-167895716D01*
X42162994Y-167895714D01*
X41920082Y-167778734D01*
X41665602Y-167689687D01*
X41665594Y-167689684D01*
X41468446Y-167644687D01*
X41402732Y-167629688D01*
X41402728Y-167629687D01*
X41402719Y-167629686D01*
X41134813Y-167599500D01*
X41134809Y-167599500D01*
X40865191Y-167599500D01*
X40865186Y-167599500D01*
X40597280Y-167629686D01*
X40597268Y-167629688D01*
X40334405Y-167689684D01*
X40334397Y-167689687D01*
X40079917Y-167778734D01*
X39837005Y-167895714D01*
X39608712Y-168039161D01*
X39397915Y-168207265D01*
X39207265Y-168397915D01*
X39039161Y-168608712D01*
X38895714Y-168837005D01*
X38778734Y-169079917D01*
X38689687Y-169334397D01*
X38689684Y-169334405D01*
X38629688Y-169597268D01*
X38629686Y-169597280D01*
X38599500Y-169865186D01*
X30000000Y-169865186D01*
X30000000Y-73000882D01*
X30000012Y-72999144D01*
X30000307Y-72978079D01*
X30002274Y-72837729D01*
X30003041Y-72825610D01*
X30039277Y-72504005D01*
X30041606Y-72490299D01*
X30113426Y-72175633D01*
X30117272Y-72162279D01*
X30223883Y-71857601D01*
X30229196Y-71844777D01*
X30369243Y-71553965D01*
X30375959Y-71541813D01*
X30547693Y-71268501D01*
X30555723Y-71257183D01*
X30756979Y-71004816D01*
X30766228Y-70994467D01*
X30994467Y-70766228D01*
X31004816Y-70756979D01*
X31257183Y-70555723D01*
X31268501Y-70547693D01*
X31541813Y-70375959D01*
X31553965Y-70369243D01*
X31844777Y-70229196D01*
X31857601Y-70223883D01*
X32162279Y-70117272D01*
X32175627Y-70113427D01*
X32393293Y-70063746D01*
X32490299Y-70041606D01*
X32504005Y-70039277D01*
X32825610Y-70003041D01*
X32837729Y-70002274D01*
X32999144Y-70000011D01*
X33000882Y-70000000D01*
X82999118Y-70000000D01*
X83000855Y-70000011D01*
G37*
%TD.AperFunction*%
%TA.AperFunction,Conductor*%
G36*
X48947054Y-141710185D02*
G01*
X48992809Y-141762989D01*
X49002753Y-141832147D01*
X48999790Y-141846593D01*
X48957432Y-142004674D01*
X48957430Y-142004684D01*
X48936843Y-142239998D01*
X48936843Y-142240000D01*
X48957430Y-142475315D01*
X48957432Y-142475326D01*
X49018566Y-142703483D01*
X49018570Y-142703492D01*
X49118398Y-142917576D01*
X49177073Y-143001372D01*
X49809037Y-142369408D01*
X49826075Y-142432993D01*
X49891901Y-142547007D01*
X49984993Y-142640099D01*
X50099007Y-142705925D01*
X50162591Y-142722962D01*
X49530626Y-143354926D01*
X49607031Y-143408426D01*
X49650656Y-143463003D01*
X49657848Y-143532501D01*
X49626326Y-143594856D01*
X49607030Y-143611575D01*
X49530627Y-143665072D01*
X49530626Y-143665073D01*
X50162591Y-144297037D01*
X50099007Y-144314075D01*
X49984993Y-144379901D01*
X49891901Y-144472993D01*
X49826075Y-144587007D01*
X49809037Y-144650590D01*
X49177073Y-144018626D01*
X49177073Y-144018627D01*
X49118400Y-144102421D01*
X49118399Y-144102423D01*
X49018570Y-144316507D01*
X49018566Y-144316516D01*
X48957432Y-144544673D01*
X48957430Y-144544684D01*
X48936843Y-144779998D01*
X48936843Y-144780000D01*
X48957430Y-145015315D01*
X48957432Y-145015325D01*
X48999790Y-145173407D01*
X48998127Y-145243256D01*
X48958965Y-145301119D01*
X48894736Y-145328623D01*
X48880015Y-145329500D01*
X41871453Y-145329500D01*
X41804414Y-145309815D01*
X41783772Y-145293181D01*
X40161413Y-143670822D01*
X40127928Y-143609499D01*
X40129319Y-143551048D01*
X40147635Y-143482692D01*
X40167468Y-143256000D01*
X40147635Y-143029308D01*
X40088739Y-142809504D01*
X39992568Y-142603266D01*
X39862047Y-142416861D01*
X39862045Y-142416858D01*
X39701141Y-142255954D01*
X39514734Y-142125432D01*
X39514728Y-142125429D01*
X39456725Y-142098382D01*
X39404285Y-142052210D01*
X39385133Y-141985017D01*
X39405348Y-141918135D01*
X39456725Y-141873618D01*
X39514734Y-141846568D01*
X39666930Y-141740000D01*
X39705574Y-141712942D01*
X39707173Y-141715226D01*
X39760237Y-141691600D01*
X39776717Y-141690500D01*
X48880015Y-141690500D01*
X48947054Y-141710185D01*
G37*
%TD.AperFunction*%
%TA.AperFunction,Conductor*%
G36*
X51406925Y-143001371D02*
G01*
X51460120Y-142925404D01*
X51514697Y-142881780D01*
X51584196Y-142874588D01*
X51646550Y-142906111D01*
X51663268Y-142925404D01*
X51793505Y-143111401D01*
X51960599Y-143278495D01*
X52069754Y-143354926D01*
X52146595Y-143408731D01*
X52190219Y-143463308D01*
X52197412Y-143532807D01*
X52165890Y-143595161D01*
X52146594Y-143611881D01*
X52070627Y-143665073D01*
X52070626Y-143665073D01*
X52702591Y-144297037D01*
X52639007Y-144314075D01*
X52524993Y-144379901D01*
X52431901Y-144472993D01*
X52366075Y-144587007D01*
X52349037Y-144650591D01*
X51717073Y-144018626D01*
X51717073Y-144018627D01*
X51663575Y-144095031D01*
X51608999Y-144138656D01*
X51539500Y-144145850D01*
X51477145Y-144114327D01*
X51460425Y-144095032D01*
X51406925Y-144018626D01*
X50774962Y-144650589D01*
X50757925Y-144587007D01*
X50692099Y-144472993D01*
X50599007Y-144379901D01*
X50484993Y-144314075D01*
X50421409Y-144297037D01*
X51053372Y-143665073D01*
X50976969Y-143611575D01*
X50933344Y-143556998D01*
X50926152Y-143487499D01*
X50957674Y-143425144D01*
X50976968Y-143408426D01*
X51053371Y-143354925D01*
X50421408Y-142722962D01*
X50484993Y-142705925D01*
X50599007Y-142640099D01*
X50692099Y-142547007D01*
X50757925Y-142432993D01*
X50774962Y-142369408D01*
X51406925Y-143001371D01*
G37*
%TD.AperFunction*%
%TA.AperFunction,Conductor*%
G36*
X48947054Y-136630185D02*
G01*
X48992809Y-136682989D01*
X49002753Y-136752147D01*
X48999790Y-136766593D01*
X48957432Y-136924674D01*
X48957430Y-136924684D01*
X48936843Y-137159998D01*
X48936843Y-137160000D01*
X48957430Y-137395315D01*
X48957432Y-137395326D01*
X49018566Y-137623483D01*
X49018570Y-137623492D01*
X49118398Y-137837576D01*
X49177073Y-137921372D01*
X49809037Y-137289408D01*
X49826075Y-137352993D01*
X49891901Y-137467007D01*
X49984993Y-137560099D01*
X50099007Y-137625925D01*
X50162591Y-137642962D01*
X49530626Y-138274926D01*
X49607031Y-138328426D01*
X49650656Y-138383003D01*
X49657848Y-138452501D01*
X49626326Y-138514856D01*
X49607030Y-138531575D01*
X49530627Y-138585072D01*
X49530626Y-138585073D01*
X50162591Y-139217037D01*
X50099007Y-139234075D01*
X49984993Y-139299901D01*
X49891901Y-139392993D01*
X49826075Y-139507007D01*
X49809037Y-139570590D01*
X49177073Y-138938626D01*
X49177073Y-138938627D01*
X49118400Y-139022421D01*
X49118399Y-139022423D01*
X49018570Y-139236507D01*
X49018566Y-139236516D01*
X48957432Y-139464673D01*
X48957430Y-139464684D01*
X48936843Y-139699998D01*
X48936843Y-139700000D01*
X48957430Y-139935315D01*
X48957432Y-139935326D01*
X49018566Y-140163483D01*
X49018571Y-140163497D01*
X49065015Y-140263096D01*
X49075507Y-140332173D01*
X49046987Y-140395957D01*
X48988510Y-140434196D01*
X48952633Y-140439500D01*
X40229438Y-140439500D01*
X40162399Y-140419815D01*
X40116644Y-140367011D01*
X40109663Y-140347593D01*
X40088741Y-140269511D01*
X40088738Y-140269502D01*
X40085751Y-140263096D01*
X39992568Y-140063266D01*
X39862047Y-139876861D01*
X39862045Y-139876858D01*
X39701143Y-139715956D01*
X39678355Y-139700000D01*
X39676535Y-139698725D01*
X39632912Y-139644149D01*
X39625719Y-139574650D01*
X39657241Y-139512296D01*
X39717471Y-139476882D01*
X39734404Y-139473861D01*
X39769483Y-139470091D01*
X39904331Y-139419796D01*
X40019546Y-139333546D01*
X40105796Y-139218331D01*
X40156091Y-139083483D01*
X40162500Y-139023873D01*
X40162499Y-137811450D01*
X40182184Y-137744412D01*
X40198813Y-137723775D01*
X41275771Y-136646819D01*
X41337094Y-136613334D01*
X41363452Y-136610500D01*
X48880015Y-136610500D01*
X48947054Y-136630185D01*
G37*
%TD.AperFunction*%
%TA.AperFunction,Conductor*%
G36*
X52366075Y-137352993D02*
G01*
X52431901Y-137467007D01*
X52524993Y-137560099D01*
X52639007Y-137625925D01*
X52702591Y-137642962D01*
X52070626Y-138274926D01*
X52147031Y-138328426D01*
X52190656Y-138383003D01*
X52197848Y-138452501D01*
X52166326Y-138514856D01*
X52147030Y-138531575D01*
X52070627Y-138585072D01*
X52070626Y-138585073D01*
X52702591Y-139217037D01*
X52639007Y-139234075D01*
X52524993Y-139299901D01*
X52431901Y-139392993D01*
X52366075Y-139507007D01*
X52349037Y-139570591D01*
X51717073Y-138938626D01*
X51717073Y-138938627D01*
X51663575Y-139015031D01*
X51608999Y-139058656D01*
X51539500Y-139065850D01*
X51477145Y-139034327D01*
X51460425Y-139015032D01*
X51406925Y-138938626D01*
X50774962Y-139570589D01*
X50757925Y-139507007D01*
X50692099Y-139392993D01*
X50599007Y-139299901D01*
X50484993Y-139234075D01*
X50421409Y-139217037D01*
X51053372Y-138585073D01*
X50976969Y-138531575D01*
X50933344Y-138476998D01*
X50926152Y-138407499D01*
X50957674Y-138345144D01*
X50976968Y-138328426D01*
X51053371Y-138274925D01*
X50421408Y-137642962D01*
X50484993Y-137625925D01*
X50599007Y-137560099D01*
X50692099Y-137467007D01*
X50757925Y-137352993D01*
X50774962Y-137289408D01*
X51406925Y-137921371D01*
X51460426Y-137844968D01*
X51515004Y-137801344D01*
X51584502Y-137794152D01*
X51646856Y-137825675D01*
X51663575Y-137844969D01*
X51717073Y-137921372D01*
X52349037Y-137289407D01*
X52366075Y-137352993D01*
G37*
%TD.AperFunction*%
%TA.AperFunction,Conductor*%
G36*
X35241703Y-91530069D02*
G01*
X35248179Y-91536099D01*
X36505680Y-92793601D01*
X37671322Y-93959243D01*
X37704807Y-94020566D01*
X37699823Y-94090258D01*
X37682908Y-94121235D01*
X37618204Y-94207668D01*
X37618202Y-94207671D01*
X37567908Y-94342517D01*
X37561501Y-94402116D01*
X37561501Y-94402123D01*
X37561500Y-94402135D01*
X37561500Y-96097870D01*
X37561501Y-96097876D01*
X37567908Y-96157483D01*
X37618202Y-96292328D01*
X37618206Y-96292335D01*
X37704452Y-96407544D01*
X37704455Y-96407547D01*
X37819664Y-96493793D01*
X37819671Y-96493797D01*
X37864618Y-96510561D01*
X37954517Y-96544091D01*
X37989596Y-96547862D01*
X38054144Y-96574599D01*
X38093993Y-96631991D01*
X38096488Y-96701816D01*
X38060836Y-96761905D01*
X38047464Y-96772725D01*
X38022858Y-96789954D01*
X37861954Y-96950858D01*
X37731432Y-97137265D01*
X37731431Y-97137267D01*
X37635261Y-97343502D01*
X37635258Y-97343511D01*
X37576366Y-97563302D01*
X37576364Y-97563313D01*
X37556532Y-97789998D01*
X37556532Y-97790001D01*
X37576364Y-98016686D01*
X37576366Y-98016697D01*
X37635258Y-98236488D01*
X37635261Y-98236497D01*
X37731431Y-98442732D01*
X37731432Y-98442734D01*
X37861954Y-98629141D01*
X38022858Y-98790045D01*
X38022861Y-98790047D01*
X38209266Y-98920568D01*
X38267275Y-98947618D01*
X38319714Y-98993791D01*
X38338866Y-99060984D01*
X38318650Y-99127865D01*
X38267275Y-99172382D01*
X38209267Y-99199431D01*
X38209265Y-99199432D01*
X38022858Y-99329954D01*
X37861954Y-99490858D01*
X37731432Y-99677265D01*
X37731431Y-99677267D01*
X37635261Y-99883502D01*
X37635258Y-99883511D01*
X37576366Y-100103302D01*
X37576364Y-100103313D01*
X37556532Y-100329998D01*
X37556532Y-100330001D01*
X37576364Y-100556686D01*
X37576366Y-100556697D01*
X37635258Y-100776488D01*
X37635261Y-100776497D01*
X37731431Y-100982732D01*
X37731432Y-100982734D01*
X37861954Y-101169141D01*
X38022858Y-101330045D01*
X38022861Y-101330047D01*
X38209266Y-101460568D01*
X38267275Y-101487618D01*
X38319714Y-101533791D01*
X38338866Y-101600984D01*
X38318650Y-101667865D01*
X38267275Y-101712382D01*
X38209267Y-101739431D01*
X38209265Y-101739432D01*
X38022858Y-101869954D01*
X37861954Y-102030858D01*
X37731432Y-102217265D01*
X37731431Y-102217267D01*
X37635261Y-102423502D01*
X37635258Y-102423511D01*
X37576366Y-102643302D01*
X37576364Y-102643313D01*
X37556532Y-102869998D01*
X37556532Y-102870001D01*
X37576364Y-103096686D01*
X37576366Y-103096697D01*
X37635258Y-103316488D01*
X37635261Y-103316497D01*
X37731431Y-103522732D01*
X37731432Y-103522734D01*
X37861954Y-103709141D01*
X38022858Y-103870045D01*
X38022861Y-103870047D01*
X38209266Y-104000568D01*
X38267275Y-104027618D01*
X38319714Y-104073791D01*
X38338866Y-104140984D01*
X38318650Y-104207865D01*
X38267275Y-104252382D01*
X38209267Y-104279431D01*
X38209265Y-104279432D01*
X38022858Y-104409954D01*
X37861954Y-104570858D01*
X37731432Y-104757265D01*
X37731431Y-104757267D01*
X37635261Y-104963502D01*
X37635258Y-104963511D01*
X37576366Y-105183302D01*
X37576364Y-105183313D01*
X37556532Y-105409998D01*
X37556532Y-105410001D01*
X37576364Y-105636686D01*
X37576366Y-105636697D01*
X37635258Y-105856488D01*
X37635261Y-105856497D01*
X37731431Y-106062732D01*
X37731432Y-106062734D01*
X37861954Y-106249141D01*
X38022858Y-106410045D01*
X38022861Y-106410047D01*
X38209266Y-106540568D01*
X38267275Y-106567618D01*
X38319714Y-106613791D01*
X38338866Y-106680984D01*
X38318650Y-106747865D01*
X38267275Y-106792382D01*
X38209267Y-106819431D01*
X38209265Y-106819432D01*
X38022858Y-106949954D01*
X37861954Y-107110858D01*
X37731432Y-107297265D01*
X37731431Y-107297267D01*
X37635261Y-107503502D01*
X37635258Y-107503511D01*
X37576366Y-107723302D01*
X37576364Y-107723313D01*
X37556532Y-107949998D01*
X37556532Y-107950001D01*
X37576364Y-108176686D01*
X37576366Y-108176697D01*
X37635258Y-108396488D01*
X37635261Y-108396497D01*
X37731431Y-108602732D01*
X37731432Y-108602734D01*
X37861954Y-108789141D01*
X38022858Y-108950045D01*
X38022861Y-108950047D01*
X38209266Y-109080568D01*
X38267275Y-109107618D01*
X38319714Y-109153791D01*
X38338866Y-109220984D01*
X38318650Y-109287865D01*
X38267275Y-109332382D01*
X38209267Y-109359431D01*
X38209265Y-109359432D01*
X38022858Y-109489954D01*
X37861954Y-109650858D01*
X37731432Y-109837265D01*
X37731431Y-109837267D01*
X37635261Y-110043502D01*
X37635258Y-110043511D01*
X37576366Y-110263302D01*
X37576364Y-110263313D01*
X37556532Y-110489998D01*
X37556532Y-110490001D01*
X37576364Y-110716686D01*
X37576366Y-110716697D01*
X37635258Y-110936488D01*
X37635261Y-110936497D01*
X37731431Y-111142732D01*
X37731432Y-111142734D01*
X37861954Y-111329141D01*
X38022858Y-111490045D01*
X38022861Y-111490047D01*
X38209266Y-111620568D01*
X38267275Y-111647618D01*
X38319714Y-111693791D01*
X38338866Y-111760984D01*
X38318650Y-111827865D01*
X38267275Y-111872382D01*
X38209267Y-111899431D01*
X38209265Y-111899432D01*
X38022858Y-112029954D01*
X37861954Y-112190858D01*
X37731432Y-112377265D01*
X37731431Y-112377267D01*
X37635261Y-112583502D01*
X37635258Y-112583511D01*
X37576366Y-112803302D01*
X37576364Y-112803313D01*
X37556532Y-113029998D01*
X37556532Y-113030001D01*
X37576364Y-113256686D01*
X37576366Y-113256697D01*
X37635258Y-113476488D01*
X37635261Y-113476497D01*
X37731431Y-113682732D01*
X37731432Y-113682734D01*
X37861954Y-113869141D01*
X38022858Y-114030045D01*
X38022861Y-114030047D01*
X38209266Y-114160568D01*
X38267275Y-114187618D01*
X38319714Y-114233791D01*
X38338866Y-114300984D01*
X38318650Y-114367865D01*
X38267275Y-114412382D01*
X38209267Y-114439431D01*
X38209265Y-114439432D01*
X38022858Y-114569954D01*
X37861954Y-114730858D01*
X37731432Y-114917265D01*
X37731431Y-114917267D01*
X37635261Y-115123502D01*
X37635258Y-115123511D01*
X37576366Y-115343302D01*
X37576364Y-115343313D01*
X37556532Y-115569998D01*
X37556532Y-115570001D01*
X37576364Y-115796686D01*
X37576366Y-115796697D01*
X37635258Y-116016488D01*
X37635261Y-116016497D01*
X37731431Y-116222732D01*
X37731432Y-116222734D01*
X37861954Y-116409141D01*
X38022858Y-116570045D01*
X38022861Y-116570047D01*
X38209266Y-116700568D01*
X38267275Y-116727618D01*
X38319714Y-116773791D01*
X38338866Y-116840984D01*
X38318650Y-116907865D01*
X38267275Y-116952382D01*
X38209267Y-116979431D01*
X38209265Y-116979432D01*
X38022858Y-117109954D01*
X37861954Y-117270858D01*
X37731432Y-117457265D01*
X37731431Y-117457267D01*
X37635261Y-117663502D01*
X37635258Y-117663511D01*
X37576366Y-117883302D01*
X37576364Y-117883313D01*
X37556532Y-118109998D01*
X37556532Y-118110001D01*
X37576364Y-118336686D01*
X37576366Y-118336697D01*
X37635258Y-118556488D01*
X37635261Y-118556497D01*
X37731431Y-118762732D01*
X37731432Y-118762734D01*
X37861954Y-118949141D01*
X38022858Y-119110045D01*
X38022861Y-119110047D01*
X38209266Y-119240568D01*
X38267865Y-119267893D01*
X38320305Y-119314065D01*
X38339457Y-119381258D01*
X38319242Y-119448139D01*
X38267867Y-119492657D01*
X38209515Y-119519867D01*
X38023179Y-119650342D01*
X37862342Y-119811179D01*
X37731865Y-119997517D01*
X37635734Y-120203673D01*
X37635730Y-120203682D01*
X37583127Y-120399999D01*
X37583128Y-120400000D01*
X38546314Y-120400000D01*
X38541920Y-120404394D01*
X38489259Y-120495606D01*
X38462000Y-120597339D01*
X38462000Y-120702661D01*
X38489259Y-120804394D01*
X38541920Y-120895606D01*
X38546314Y-120900000D01*
X37583128Y-120900000D01*
X37635730Y-121096317D01*
X37635734Y-121096326D01*
X37731865Y-121302482D01*
X37862342Y-121488820D01*
X38023179Y-121649657D01*
X38209517Y-121780134D01*
X38415673Y-121876265D01*
X38415682Y-121876269D01*
X38611999Y-121928872D01*
X38612000Y-121928871D01*
X38612000Y-120965686D01*
X38616394Y-120970080D01*
X38707606Y-121022741D01*
X38809339Y-121050000D01*
X38914661Y-121050000D01*
X39016394Y-121022741D01*
X39107606Y-120970080D01*
X39112000Y-120965686D01*
X39112000Y-121928872D01*
X39308317Y-121876269D01*
X39308326Y-121876265D01*
X39514482Y-121780134D01*
X39700820Y-121649657D01*
X39861657Y-121488820D01*
X39992134Y-121302482D01*
X40088265Y-121096326D01*
X40088269Y-121096317D01*
X40140872Y-120900000D01*
X39177686Y-120900000D01*
X39182080Y-120895606D01*
X39234741Y-120804394D01*
X39262000Y-120702661D01*
X39262000Y-120597339D01*
X39234741Y-120495606D01*
X39182080Y-120404394D01*
X39177686Y-120400000D01*
X40165299Y-120400000D01*
X40166151Y-120399378D01*
X40235897Y-120395216D01*
X40295792Y-120428382D01*
X43548016Y-123680606D01*
X43548045Y-123680637D01*
X43638263Y-123770855D01*
X43638267Y-123770858D01*
X43740707Y-123839307D01*
X43740713Y-123839310D01*
X43740714Y-123839311D01*
X43854548Y-123886463D01*
X43914971Y-123898481D01*
X43975393Y-123910500D01*
X43975394Y-123910500D01*
X48880015Y-123910500D01*
X48947054Y-123930185D01*
X48992809Y-123982989D01*
X49002753Y-124052147D01*
X48999790Y-124066593D01*
X48957432Y-124224674D01*
X48957430Y-124224684D01*
X48936843Y-124459998D01*
X48936843Y-124460000D01*
X48957430Y-124695315D01*
X48957432Y-124695326D01*
X49018566Y-124923483D01*
X49018570Y-124923492D01*
X49118398Y-125137576D01*
X49177073Y-125221372D01*
X49809037Y-124589408D01*
X49826075Y-124652993D01*
X49891901Y-124767007D01*
X49984993Y-124860099D01*
X50099007Y-124925925D01*
X50162591Y-124942962D01*
X49530626Y-125574926D01*
X49607031Y-125628426D01*
X49650656Y-125683003D01*
X49657848Y-125752501D01*
X49626326Y-125814856D01*
X49607030Y-125831575D01*
X49530627Y-125885072D01*
X49530626Y-125885073D01*
X50162591Y-126517037D01*
X50099007Y-126534075D01*
X49984993Y-126599901D01*
X49891901Y-126692993D01*
X49826075Y-126807007D01*
X49809037Y-126870590D01*
X49177073Y-126238626D01*
X49177073Y-126238627D01*
X49118400Y-126322421D01*
X49118399Y-126322423D01*
X49018570Y-126536507D01*
X49018566Y-126536516D01*
X48957432Y-126764673D01*
X48957430Y-126764684D01*
X48936843Y-126999998D01*
X48936843Y-127000001D01*
X48957430Y-127235315D01*
X48957432Y-127235326D01*
X49018566Y-127463483D01*
X49018570Y-127463492D01*
X49118398Y-127677576D01*
X49177073Y-127761372D01*
X49809037Y-127129408D01*
X49826075Y-127192993D01*
X49891901Y-127307007D01*
X49984993Y-127400099D01*
X50099007Y-127465925D01*
X50162591Y-127482962D01*
X49530626Y-128114926D01*
X49607031Y-128168426D01*
X49650656Y-128223003D01*
X49657848Y-128292501D01*
X49626326Y-128354856D01*
X49607030Y-128371575D01*
X49530627Y-128425072D01*
X49530626Y-128425073D01*
X50162591Y-129057037D01*
X50099007Y-129074075D01*
X49984993Y-129139901D01*
X49891901Y-129232993D01*
X49826075Y-129347007D01*
X49809037Y-129410590D01*
X49177073Y-128778626D01*
X49177073Y-128778627D01*
X49118400Y-128862421D01*
X49118399Y-128862423D01*
X49018570Y-129076507D01*
X49018566Y-129076516D01*
X48957432Y-129304673D01*
X48957430Y-129304684D01*
X48936843Y-129539998D01*
X48936843Y-129540001D01*
X48957430Y-129775315D01*
X48957432Y-129775326D01*
X49018566Y-130003483D01*
X49018570Y-130003492D01*
X49118398Y-130217576D01*
X49177073Y-130301372D01*
X49809037Y-129669408D01*
X49826075Y-129732993D01*
X49891901Y-129847007D01*
X49984993Y-129940099D01*
X50099007Y-130005925D01*
X50162591Y-130022962D01*
X49530626Y-130654926D01*
X49607031Y-130708426D01*
X49650656Y-130763003D01*
X49657848Y-130832501D01*
X49626326Y-130894856D01*
X49607030Y-130911575D01*
X49530627Y-130965072D01*
X49530626Y-130965073D01*
X50162591Y-131597037D01*
X50099007Y-131614075D01*
X49984993Y-131679901D01*
X49891901Y-131772993D01*
X49826075Y-131887007D01*
X49809037Y-131950590D01*
X49177073Y-131318626D01*
X49177073Y-131318627D01*
X49118400Y-131402421D01*
X49118399Y-131402423D01*
X49018570Y-131616507D01*
X49018566Y-131616516D01*
X48957432Y-131844673D01*
X48957430Y-131844684D01*
X48936843Y-132079998D01*
X48936843Y-132080001D01*
X48957430Y-132315315D01*
X48957432Y-132315326D01*
X49018566Y-132543483D01*
X49018570Y-132543492D01*
X49118398Y-132757576D01*
X49177073Y-132841372D01*
X49809037Y-132209408D01*
X49826075Y-132272993D01*
X49891901Y-132387007D01*
X49984993Y-132480099D01*
X50099007Y-132545925D01*
X50162591Y-132562962D01*
X49530627Y-133194925D01*
X49606595Y-133248119D01*
X49650219Y-133302696D01*
X49657412Y-133372195D01*
X49625890Y-133434549D01*
X49606595Y-133451269D01*
X49420594Y-133581508D01*
X49253505Y-133748597D01*
X49117965Y-133942169D01*
X49117964Y-133942171D01*
X49018098Y-134156335D01*
X49018094Y-134156344D01*
X48956938Y-134384586D01*
X48956936Y-134384596D01*
X48936341Y-134619999D01*
X48936341Y-134620000D01*
X48956936Y-134855403D01*
X48956938Y-134855413D01*
X49018094Y-135083655D01*
X49018096Y-135083659D01*
X49018097Y-135083663D01*
X49061481Y-135176701D01*
X49064463Y-135183095D01*
X49074955Y-135252173D01*
X49046435Y-135315957D01*
X48987959Y-135354196D01*
X48952081Y-135359500D01*
X40991389Y-135359500D01*
X40930971Y-135371518D01*
X40870548Y-135383537D01*
X40870546Y-135383537D01*
X40870545Y-135383538D01*
X40870543Y-135383538D01*
X40837709Y-135397138D01*
X40837710Y-135397139D01*
X40756713Y-135430688D01*
X40756714Y-135430689D01*
X40654268Y-135499140D01*
X40610705Y-135542703D01*
X40567142Y-135586267D01*
X40567139Y-135586270D01*
X39314227Y-136839181D01*
X39252904Y-136872666D01*
X39226546Y-136875500D01*
X38014129Y-136875500D01*
X38014123Y-136875501D01*
X37954516Y-136881908D01*
X37819671Y-136932202D01*
X37819664Y-136932206D01*
X37704456Y-137018452D01*
X37704455Y-137018453D01*
X37704454Y-137018454D01*
X37690257Y-137037419D01*
X37624087Y-137125811D01*
X37568153Y-137167682D01*
X37524820Y-137175500D01*
X36279783Y-137175500D01*
X36212744Y-137155815D01*
X36192102Y-137139181D01*
X35072819Y-136019898D01*
X35039334Y-135958575D01*
X35036500Y-135932217D01*
X35036500Y-91623782D01*
X35056185Y-91556743D01*
X35108989Y-91510988D01*
X35178147Y-91501044D01*
X35241703Y-91530069D01*
G37*
%TD.AperFunction*%
%TA.AperFunction,Conductor*%
G36*
X52366075Y-132272993D02*
G01*
X52431901Y-132387007D01*
X52524993Y-132480099D01*
X52639007Y-132545925D01*
X52702591Y-132562962D01*
X52070627Y-133194925D01*
X52146595Y-133248119D01*
X52190219Y-133302696D01*
X52197412Y-133372195D01*
X52165890Y-133434549D01*
X52146595Y-133451269D01*
X51960594Y-133581508D01*
X51793505Y-133748597D01*
X51663575Y-133934158D01*
X51608998Y-133977783D01*
X51539500Y-133984977D01*
X51477145Y-133953454D01*
X51460425Y-133934158D01*
X51330494Y-133748597D01*
X51163402Y-133581506D01*
X51163401Y-133581505D01*
X50977405Y-133451269D01*
X50933781Y-133396692D01*
X50926588Y-133327193D01*
X50958110Y-133264839D01*
X50977404Y-133248120D01*
X51053371Y-133194925D01*
X50421408Y-132562962D01*
X50484993Y-132545925D01*
X50599007Y-132480099D01*
X50692099Y-132387007D01*
X50757925Y-132272993D01*
X50774962Y-132209408D01*
X51406925Y-132841371D01*
X51460426Y-132764968D01*
X51515004Y-132721344D01*
X51584502Y-132714152D01*
X51646856Y-132745675D01*
X51663575Y-132764969D01*
X51717073Y-132841372D01*
X52349037Y-132209408D01*
X52366075Y-132272993D01*
G37*
%TD.AperFunction*%
%TA.AperFunction,Conductor*%
G36*
X52366075Y-129732993D02*
G01*
X52431901Y-129847007D01*
X52524993Y-129940099D01*
X52639007Y-130005925D01*
X52702591Y-130022962D01*
X52070626Y-130654926D01*
X52147031Y-130708426D01*
X52190656Y-130763003D01*
X52197848Y-130832501D01*
X52166326Y-130894856D01*
X52147030Y-130911575D01*
X52070627Y-130965072D01*
X52070626Y-130965073D01*
X52702591Y-131597037D01*
X52639007Y-131614075D01*
X52524993Y-131679901D01*
X52431901Y-131772993D01*
X52366075Y-131887007D01*
X52349037Y-131950590D01*
X51717073Y-131318626D01*
X51717073Y-131318627D01*
X51663575Y-131395031D01*
X51608999Y-131438656D01*
X51539500Y-131445850D01*
X51477145Y-131414327D01*
X51460425Y-131395032D01*
X51406925Y-131318626D01*
X50774962Y-131950590D01*
X50757925Y-131887007D01*
X50692099Y-131772993D01*
X50599007Y-131679901D01*
X50484993Y-131614075D01*
X50421409Y-131597037D01*
X51053372Y-130965073D01*
X50976969Y-130911575D01*
X50933344Y-130856998D01*
X50926152Y-130787499D01*
X50957674Y-130725144D01*
X50976968Y-130708426D01*
X51053371Y-130654925D01*
X50421408Y-130022962D01*
X50484993Y-130005925D01*
X50599007Y-129940099D01*
X50692099Y-129847007D01*
X50757925Y-129732993D01*
X50774962Y-129669408D01*
X51406925Y-130301371D01*
X51460426Y-130224968D01*
X51515004Y-130181344D01*
X51584502Y-130174152D01*
X51646856Y-130205675D01*
X51663575Y-130224969D01*
X51717073Y-130301372D01*
X52349037Y-129669408D01*
X52366075Y-129732993D01*
G37*
%TD.AperFunction*%
%TA.AperFunction,Conductor*%
G36*
X52366075Y-127192993D02*
G01*
X52431901Y-127307007D01*
X52524993Y-127400099D01*
X52639007Y-127465925D01*
X52702591Y-127482962D01*
X52070626Y-128114926D01*
X52147031Y-128168426D01*
X52190656Y-128223003D01*
X52197848Y-128292501D01*
X52166326Y-128354856D01*
X52147030Y-128371575D01*
X52070627Y-128425072D01*
X52070626Y-128425073D01*
X52702591Y-129057037D01*
X52639007Y-129074075D01*
X52524993Y-129139901D01*
X52431901Y-129232993D01*
X52366075Y-129347007D01*
X52349037Y-129410590D01*
X51717073Y-128778626D01*
X51717073Y-128778627D01*
X51663575Y-128855031D01*
X51608999Y-128898656D01*
X51539500Y-128905850D01*
X51477145Y-128874327D01*
X51460425Y-128855032D01*
X51406925Y-128778626D01*
X50774962Y-129410590D01*
X50757925Y-129347007D01*
X50692099Y-129232993D01*
X50599007Y-129139901D01*
X50484993Y-129074075D01*
X50421409Y-129057037D01*
X51053372Y-128425073D01*
X50976969Y-128371575D01*
X50933344Y-128316998D01*
X50926152Y-128247499D01*
X50957674Y-128185144D01*
X50976968Y-128168426D01*
X51053371Y-128114925D01*
X50421408Y-127482962D01*
X50484993Y-127465925D01*
X50599007Y-127400099D01*
X50692099Y-127307007D01*
X50757925Y-127192993D01*
X50774962Y-127129408D01*
X51406925Y-127761371D01*
X51460426Y-127684968D01*
X51515004Y-127641344D01*
X51584502Y-127634152D01*
X51646856Y-127665675D01*
X51663575Y-127684969D01*
X51717073Y-127761372D01*
X52349037Y-127129408D01*
X52366075Y-127192993D01*
G37*
%TD.AperFunction*%
%TA.AperFunction,Conductor*%
G36*
X51406925Y-125221371D02*
G01*
X51460120Y-125145404D01*
X51514697Y-125101780D01*
X51584196Y-125094588D01*
X51646550Y-125126111D01*
X51663268Y-125145404D01*
X51793505Y-125331401D01*
X51960599Y-125498495D01*
X52069754Y-125574926D01*
X52146595Y-125628731D01*
X52190219Y-125683308D01*
X52197412Y-125752807D01*
X52165890Y-125815161D01*
X52146594Y-125831881D01*
X52070627Y-125885073D01*
X52070626Y-125885073D01*
X52702591Y-126517037D01*
X52639007Y-126534075D01*
X52524993Y-126599901D01*
X52431901Y-126692993D01*
X52366075Y-126807007D01*
X52349037Y-126870590D01*
X51717073Y-126238626D01*
X51717073Y-126238627D01*
X51663575Y-126315031D01*
X51608999Y-126358656D01*
X51539500Y-126365850D01*
X51477145Y-126334327D01*
X51460425Y-126315032D01*
X51406925Y-126238626D01*
X50774962Y-126870590D01*
X50757925Y-126807007D01*
X50692099Y-126692993D01*
X50599007Y-126599901D01*
X50484993Y-126534075D01*
X50421409Y-126517037D01*
X51053372Y-125885073D01*
X50976969Y-125831575D01*
X50933344Y-125776998D01*
X50926152Y-125707499D01*
X50957674Y-125645144D01*
X50976968Y-125628426D01*
X51053371Y-125574925D01*
X50421408Y-124942962D01*
X50484993Y-124925925D01*
X50599007Y-124860099D01*
X50692099Y-124767007D01*
X50757925Y-124652993D01*
X50774962Y-124589408D01*
X51406925Y-125221371D01*
G37*
%TD.AperFunction*%
%TA.AperFunction,Conductor*%
G36*
X46238587Y-98435185D02*
G01*
X46259229Y-98451819D01*
X50505681Y-102698271D01*
X50539166Y-102759594D01*
X50542000Y-102785952D01*
X50542000Y-103706988D01*
X50484993Y-103674075D01*
X50357826Y-103640000D01*
X50226174Y-103640000D01*
X50099007Y-103674075D01*
X50042000Y-103706988D01*
X50042000Y-102790000D01*
X49642028Y-102790000D01*
X49642012Y-102790001D01*
X49539302Y-102800494D01*
X49372880Y-102855641D01*
X49372875Y-102855643D01*
X49223654Y-102947684D01*
X49099684Y-103071654D01*
X49007643Y-103220875D01*
X49007641Y-103220880D01*
X48952494Y-103387302D01*
X48952493Y-103387309D01*
X48942000Y-103490013D01*
X48942000Y-103890000D01*
X49858988Y-103890000D01*
X49826075Y-103947007D01*
X49792000Y-104074174D01*
X49792000Y-104205826D01*
X49826075Y-104332993D01*
X49858988Y-104390000D01*
X48942001Y-104390000D01*
X48942001Y-104755500D01*
X48922316Y-104822539D01*
X48869512Y-104868294D01*
X48818001Y-104879500D01*
X44347452Y-104879500D01*
X44280413Y-104859815D01*
X44259771Y-104843181D01*
X40161412Y-100744822D01*
X40127927Y-100683499D01*
X40129318Y-100625048D01*
X40147635Y-100556692D01*
X40167468Y-100330000D01*
X40147635Y-100103308D01*
X40088739Y-99883504D01*
X39992568Y-99677266D01*
X39862047Y-99490861D01*
X39862045Y-99490858D01*
X39701141Y-99329954D01*
X39514734Y-99199432D01*
X39514728Y-99199429D01*
X39456725Y-99172382D01*
X39404285Y-99126210D01*
X39385133Y-99059017D01*
X39405348Y-98992135D01*
X39456725Y-98947618D01*
X39514734Y-98920568D01*
X39701139Y-98790047D01*
X39862047Y-98629139D01*
X39974613Y-98468377D01*
X40029189Y-98424752D01*
X40076188Y-98415500D01*
X46171548Y-98415500D01*
X46238587Y-98435185D01*
G37*
%TD.AperFunction*%
%TA.AperFunction,Conductor*%
G36*
X46179920Y-77754394D02*
G01*
X46127259Y-77845606D01*
X46100000Y-77947339D01*
X46100000Y-78052661D01*
X46127259Y-78154394D01*
X46179920Y-78245606D01*
X46184314Y-78250000D01*
X44815686Y-78250000D01*
X44820080Y-78245606D01*
X44872741Y-78154394D01*
X44900000Y-78052661D01*
X44900000Y-77947339D01*
X44872741Y-77845606D01*
X44820080Y-77754394D01*
X44815686Y-77750000D01*
X46184314Y-77750000D01*
X46179920Y-77754394D01*
G37*
%TD.AperFunction*%
%TA.AperFunction,Conductor*%
G36*
X48179920Y-77754394D02*
G01*
X48127259Y-77845606D01*
X48100000Y-77947339D01*
X48100000Y-78052661D01*
X48127259Y-78154394D01*
X48179920Y-78245606D01*
X48184314Y-78250000D01*
X46815686Y-78250000D01*
X46820080Y-78245606D01*
X46872741Y-78154394D01*
X46900000Y-78052661D01*
X46900000Y-77947339D01*
X46872741Y-77845606D01*
X46820080Y-77754394D01*
X46815686Y-77750000D01*
X48184314Y-77750000D01*
X48179920Y-77754394D01*
G37*
%TD.AperFunction*%
%TA.AperFunction,Conductor*%
G36*
X50179920Y-77754394D02*
G01*
X50127259Y-77845606D01*
X50100000Y-77947339D01*
X50100000Y-78052661D01*
X50127259Y-78154394D01*
X50179920Y-78245606D01*
X50184314Y-78250000D01*
X48815686Y-78250000D01*
X48820080Y-78245606D01*
X48872741Y-78154394D01*
X48900000Y-78052661D01*
X48900000Y-77947339D01*
X48872741Y-77845606D01*
X48820080Y-77754394D01*
X48815686Y-77750000D01*
X50184314Y-77750000D01*
X50179920Y-77754394D01*
G37*
%TD.AperFunction*%
%TA.AperFunction,Conductor*%
G36*
X52179920Y-77754394D02*
G01*
X52127259Y-77845606D01*
X52100000Y-77947339D01*
X52100000Y-78052661D01*
X52127259Y-78154394D01*
X52179920Y-78245606D01*
X52184314Y-78250000D01*
X50815686Y-78250000D01*
X50820080Y-78245606D01*
X50872741Y-78154394D01*
X50900000Y-78052661D01*
X50900000Y-77947339D01*
X50872741Y-77845606D01*
X50820080Y-77754394D01*
X50815686Y-77750000D01*
X52184314Y-77750000D01*
X52179920Y-77754394D01*
G37*
%TD.AperFunction*%
%TA.AperFunction,Conductor*%
G36*
X54179920Y-77754394D02*
G01*
X54127259Y-77845606D01*
X54100000Y-77947339D01*
X54100000Y-78052661D01*
X54127259Y-78154394D01*
X54179920Y-78245606D01*
X54184314Y-78250000D01*
X52815686Y-78250000D01*
X52820080Y-78245606D01*
X52872741Y-78154394D01*
X52900000Y-78052661D01*
X52900000Y-77947339D01*
X52872741Y-77845606D01*
X52820080Y-77754394D01*
X52815686Y-77750000D01*
X54184314Y-77750000D01*
X54179920Y-77754394D01*
G37*
%TD.AperFunction*%
%TA.AperFunction,Conductor*%
G36*
X58179920Y-75754394D02*
G01*
X58127259Y-75845606D01*
X58100000Y-75947339D01*
X58100000Y-76052661D01*
X58127259Y-76154394D01*
X58179920Y-76245606D01*
X58184314Y-76250000D01*
X56815686Y-76250000D01*
X56820080Y-76245606D01*
X56872741Y-76154394D01*
X56900000Y-76052661D01*
X56900000Y-75947339D01*
X56872741Y-75845606D01*
X56820080Y-75754394D01*
X56815686Y-75750000D01*
X58184314Y-75750000D01*
X58179920Y-75754394D01*
G37*
%TD.AperFunction*%
%TA.AperFunction,Conductor*%
G36*
X60179920Y-75754394D02*
G01*
X60127259Y-75845606D01*
X60100000Y-75947339D01*
X60100000Y-76052661D01*
X60127259Y-76154394D01*
X60179920Y-76245606D01*
X60184314Y-76250000D01*
X58815686Y-76250000D01*
X58820080Y-76245606D01*
X58872741Y-76154394D01*
X58900000Y-76052661D01*
X58900000Y-75947339D01*
X58872741Y-75845606D01*
X58820080Y-75754394D01*
X58815686Y-75750000D01*
X60184314Y-75750000D01*
X60179920Y-75754394D01*
G37*
%TD.AperFunction*%
%TA.AperFunction,Conductor*%
G36*
X74179920Y-75754394D02*
G01*
X74127259Y-75845606D01*
X74100000Y-75947339D01*
X74100000Y-76052661D01*
X74127259Y-76154394D01*
X74179920Y-76245606D01*
X74184314Y-76250000D01*
X72815686Y-76250000D01*
X72820080Y-76245606D01*
X72872741Y-76154394D01*
X72900000Y-76052661D01*
X72900000Y-75947339D01*
X72872741Y-75845606D01*
X72820080Y-75754394D01*
X72815686Y-75750000D01*
X74184314Y-75750000D01*
X74179920Y-75754394D01*
G37*
%TD.AperFunction*%
%TA.AperFunction,Conductor*%
G36*
X75442539Y-74172185D02*
G01*
X75488294Y-74224989D01*
X75499500Y-74276500D01*
X75499500Y-75040363D01*
X75479815Y-75107402D01*
X75427011Y-75153157D01*
X75357853Y-75163101D01*
X75294297Y-75134076D01*
X75291963Y-75132001D01*
X75211131Y-75058314D01*
X75025987Y-74943677D01*
X75025985Y-74943676D01*
X74822931Y-74865013D01*
X74822921Y-74865010D01*
X74750001Y-74851378D01*
X74750000Y-74851379D01*
X74750000Y-75684314D01*
X74745606Y-75679920D01*
X74654394Y-75627259D01*
X74552661Y-75600000D01*
X74447339Y-75600000D01*
X74345606Y-75627259D01*
X74254394Y-75679920D01*
X74250000Y-75684314D01*
X74250000Y-74851379D01*
X74249998Y-74851378D01*
X74177078Y-74865010D01*
X74177068Y-74865013D01*
X73974014Y-74943676D01*
X73974012Y-74943677D01*
X73788869Y-75058314D01*
X73788868Y-75058314D01*
X73627945Y-75205014D01*
X73598954Y-75243405D01*
X73542845Y-75285041D01*
X73473133Y-75289732D01*
X73411951Y-75255990D01*
X73401046Y-75243405D01*
X73372054Y-75205014D01*
X73211131Y-75058314D01*
X73025987Y-74943677D01*
X73025985Y-74943676D01*
X72822931Y-74865013D01*
X72822921Y-74865010D01*
X72750001Y-74851378D01*
X72750000Y-74851379D01*
X72750000Y-75684314D01*
X72745606Y-75679920D01*
X72654394Y-75627259D01*
X72552661Y-75600000D01*
X72447339Y-75600000D01*
X72345606Y-75627259D01*
X72254394Y-75679920D01*
X72250000Y-75684314D01*
X72250000Y-74851379D01*
X72249998Y-74851378D01*
X72177078Y-74865010D01*
X72177068Y-74865013D01*
X71974014Y-74943676D01*
X71974012Y-74943677D01*
X71788869Y-75058314D01*
X71788868Y-75058314D01*
X71627945Y-75205014D01*
X71599267Y-75242990D01*
X71543157Y-75284626D01*
X71473445Y-75289317D01*
X71412264Y-75255575D01*
X71401359Y-75242990D01*
X71392547Y-75231321D01*
X71372427Y-75204678D01*
X71315169Y-75152481D01*
X71211433Y-75057913D01*
X71211423Y-75057906D01*
X71026213Y-74943229D01*
X71026207Y-74943226D01*
X70941113Y-74910260D01*
X70823069Y-74864530D01*
X70608926Y-74824500D01*
X70391074Y-74824500D01*
X70176931Y-74864530D01*
X70156485Y-74872451D01*
X69973792Y-74943226D01*
X69973786Y-74943229D01*
X69788576Y-75057906D01*
X69788566Y-75057913D01*
X69627574Y-75204676D01*
X69598640Y-75242991D01*
X69542530Y-75284627D01*
X69472818Y-75289318D01*
X69411637Y-75255576D01*
X69400731Y-75242990D01*
X69372051Y-75205011D01*
X69372050Y-75205010D01*
X69211131Y-75058314D01*
X69025987Y-74943677D01*
X69025985Y-74943676D01*
X68822931Y-74865013D01*
X68822921Y-74865010D01*
X68750001Y-74851378D01*
X68750000Y-74851379D01*
X68750000Y-75684314D01*
X68745606Y-75679920D01*
X68654394Y-75627259D01*
X68552661Y-75600000D01*
X68447339Y-75600000D01*
X68345606Y-75627259D01*
X68254394Y-75679920D01*
X68250000Y-75684314D01*
X68250000Y-74851379D01*
X68249998Y-74851378D01*
X68177078Y-74865010D01*
X68177068Y-74865013D01*
X67974014Y-74943676D01*
X67974012Y-74943677D01*
X67788869Y-75058314D01*
X67788868Y-75058314D01*
X67627945Y-75205014D01*
X67599267Y-75242990D01*
X67543157Y-75284626D01*
X67473445Y-75289317D01*
X67412264Y-75255575D01*
X67401359Y-75242990D01*
X67392547Y-75231321D01*
X67372427Y-75204678D01*
X67315169Y-75152481D01*
X67211433Y-75057913D01*
X67211423Y-75057906D01*
X67026213Y-74943229D01*
X67026207Y-74943226D01*
X66941113Y-74910260D01*
X66823069Y-74864530D01*
X66608926Y-74824500D01*
X66391074Y-74824500D01*
X66176931Y-74864530D01*
X66156485Y-74872451D01*
X65973792Y-74943226D01*
X65973786Y-74943229D01*
X65788576Y-75057906D01*
X65788566Y-75057913D01*
X65627574Y-75204676D01*
X65598640Y-75242991D01*
X65542530Y-75284627D01*
X65472818Y-75289318D01*
X65411637Y-75255576D01*
X65400731Y-75242990D01*
X65372051Y-75205011D01*
X65372050Y-75205010D01*
X65211131Y-75058314D01*
X65025987Y-74943677D01*
X65025985Y-74943676D01*
X64822931Y-74865013D01*
X64822921Y-74865010D01*
X64750001Y-74851378D01*
X64750000Y-74851379D01*
X64750000Y-75684314D01*
X64745606Y-75679920D01*
X64654394Y-75627259D01*
X64552661Y-75600000D01*
X64447339Y-75600000D01*
X64345606Y-75627259D01*
X64254394Y-75679920D01*
X64250000Y-75684314D01*
X64250000Y-74851379D01*
X64249998Y-74851378D01*
X64177078Y-74865010D01*
X64177068Y-74865013D01*
X63974014Y-74943676D01*
X63974012Y-74943677D01*
X63788869Y-75058314D01*
X63788868Y-75058314D01*
X63627945Y-75205014D01*
X63599267Y-75242990D01*
X63543157Y-75284626D01*
X63473445Y-75289317D01*
X63412264Y-75255575D01*
X63401359Y-75242990D01*
X63392547Y-75231321D01*
X63372427Y-75204678D01*
X63315169Y-75152481D01*
X63211433Y-75057913D01*
X63211423Y-75057906D01*
X63026213Y-74943229D01*
X63026207Y-74943226D01*
X62941113Y-74910260D01*
X62823069Y-74864530D01*
X62608926Y-74824500D01*
X62391074Y-74824500D01*
X62176931Y-74864530D01*
X62156485Y-74872451D01*
X61973792Y-74943226D01*
X61973786Y-74943229D01*
X61788576Y-75057906D01*
X61788566Y-75057913D01*
X61627574Y-75204676D01*
X61598640Y-75242991D01*
X61542530Y-75284627D01*
X61472818Y-75289318D01*
X61411637Y-75255576D01*
X61400731Y-75242990D01*
X61372051Y-75205011D01*
X61372050Y-75205010D01*
X61211131Y-75058314D01*
X61025987Y-74943677D01*
X61025985Y-74943676D01*
X60822931Y-74865013D01*
X60822921Y-74865010D01*
X60750001Y-74851378D01*
X60750000Y-74851379D01*
X60750000Y-75684314D01*
X60745606Y-75679920D01*
X60654394Y-75627259D01*
X60552661Y-75600000D01*
X60447339Y-75600000D01*
X60345606Y-75627259D01*
X60254394Y-75679920D01*
X60250000Y-75684314D01*
X60250000Y-74851379D01*
X60249998Y-74851378D01*
X60177078Y-74865010D01*
X60177068Y-74865013D01*
X59974014Y-74943676D01*
X59974012Y-74943677D01*
X59788869Y-75058314D01*
X59788868Y-75058314D01*
X59627945Y-75205014D01*
X59598954Y-75243405D01*
X59542845Y-75285041D01*
X59473133Y-75289732D01*
X59411951Y-75255990D01*
X59401046Y-75243405D01*
X59372054Y-75205014D01*
X59211131Y-75058314D01*
X59025987Y-74943677D01*
X59025985Y-74943676D01*
X58822931Y-74865013D01*
X58822921Y-74865010D01*
X58750001Y-74851378D01*
X58750000Y-74851379D01*
X58750000Y-75684314D01*
X58745606Y-75679920D01*
X58654394Y-75627259D01*
X58552661Y-75600000D01*
X58447339Y-75600000D01*
X58345606Y-75627259D01*
X58254394Y-75679920D01*
X58250000Y-75684314D01*
X58250000Y-74851379D01*
X58249998Y-74851378D01*
X58177078Y-74865010D01*
X58177068Y-74865013D01*
X57974014Y-74943676D01*
X57974012Y-74943677D01*
X57788869Y-75058314D01*
X57788868Y-75058314D01*
X57627945Y-75205014D01*
X57598954Y-75243405D01*
X57542845Y-75285041D01*
X57473133Y-75289732D01*
X57411951Y-75255990D01*
X57401046Y-75243405D01*
X57372054Y-75205014D01*
X57211131Y-75058314D01*
X57025987Y-74943677D01*
X57025985Y-74943676D01*
X56822931Y-74865013D01*
X56822921Y-74865010D01*
X56750001Y-74851378D01*
X56750000Y-74851379D01*
X56750000Y-75684314D01*
X56745606Y-75679920D01*
X56654394Y-75627259D01*
X56552661Y-75600000D01*
X56447339Y-75600000D01*
X56345606Y-75627259D01*
X56254394Y-75679920D01*
X56250000Y-75684314D01*
X56250000Y-74851379D01*
X56249998Y-74851378D01*
X56177078Y-74865010D01*
X56177068Y-74865013D01*
X55974014Y-74943676D01*
X55974012Y-74943677D01*
X55788869Y-75058314D01*
X55788868Y-75058314D01*
X55627945Y-75205014D01*
X55599267Y-75242990D01*
X55543157Y-75284626D01*
X55473445Y-75289317D01*
X55412264Y-75255575D01*
X55401359Y-75242990D01*
X55392547Y-75231321D01*
X55372427Y-75204678D01*
X55315169Y-75152481D01*
X55211433Y-75057913D01*
X55211423Y-75057906D01*
X55026213Y-74943229D01*
X55026207Y-74943226D01*
X54941113Y-74910260D01*
X54823069Y-74864530D01*
X54608926Y-74824500D01*
X54391074Y-74824500D01*
X54176931Y-74864530D01*
X54156485Y-74872451D01*
X53973792Y-74943226D01*
X53973786Y-74943229D01*
X53788576Y-75057906D01*
X53788566Y-75057913D01*
X53627573Y-75204676D01*
X53598953Y-75242576D01*
X53542844Y-75284211D01*
X53473132Y-75288902D01*
X53411950Y-75255159D01*
X53401047Y-75242576D01*
X53372426Y-75204676D01*
X53211433Y-75057913D01*
X53211423Y-75057906D01*
X53026213Y-74943229D01*
X53026207Y-74943226D01*
X52941113Y-74910260D01*
X52823069Y-74864530D01*
X52608926Y-74824500D01*
X52391074Y-74824500D01*
X52176931Y-74864530D01*
X52156485Y-74872451D01*
X51973792Y-74943226D01*
X51973786Y-74943229D01*
X51788576Y-75057906D01*
X51788566Y-75057913D01*
X51627573Y-75204676D01*
X51598953Y-75242576D01*
X51542844Y-75284211D01*
X51473132Y-75288902D01*
X51411950Y-75255159D01*
X51401047Y-75242576D01*
X51372426Y-75204676D01*
X51211433Y-75057913D01*
X51211423Y-75057906D01*
X51026213Y-74943229D01*
X51026207Y-74943226D01*
X50941113Y-74910260D01*
X50823069Y-74864530D01*
X50608926Y-74824500D01*
X50391074Y-74824500D01*
X50176931Y-74864530D01*
X50156485Y-74872451D01*
X49973792Y-74943226D01*
X49973786Y-74943229D01*
X49788576Y-75057906D01*
X49788566Y-75057913D01*
X49627573Y-75204676D01*
X49598953Y-75242576D01*
X49542844Y-75284211D01*
X49473132Y-75288902D01*
X49411950Y-75255159D01*
X49401047Y-75242576D01*
X49372426Y-75204676D01*
X49211433Y-75057913D01*
X49211423Y-75057906D01*
X49026213Y-74943229D01*
X49026207Y-74943226D01*
X48941113Y-74910260D01*
X48823069Y-74864530D01*
X48608926Y-74824500D01*
X48391074Y-74824500D01*
X48176931Y-74864530D01*
X48156485Y-74872451D01*
X47973792Y-74943226D01*
X47973786Y-74943229D01*
X47788576Y-75057906D01*
X47788566Y-75057913D01*
X47627573Y-75204676D01*
X47598953Y-75242576D01*
X47542844Y-75284211D01*
X47473132Y-75288902D01*
X47411950Y-75255159D01*
X47401047Y-75242576D01*
X47372426Y-75204676D01*
X47211433Y-75057913D01*
X47211423Y-75057906D01*
X47026213Y-74943229D01*
X47026207Y-74943226D01*
X46941113Y-74910260D01*
X46823069Y-74864530D01*
X46608926Y-74824500D01*
X46391074Y-74824500D01*
X46176931Y-74864530D01*
X46156485Y-74872451D01*
X45973792Y-74943226D01*
X45973786Y-74943229D01*
X45788576Y-75057906D01*
X45788566Y-75057913D01*
X45627573Y-75204676D01*
X45598953Y-75242576D01*
X45542844Y-75284211D01*
X45473132Y-75288902D01*
X45411950Y-75255159D01*
X45401047Y-75242576D01*
X45372426Y-75204676D01*
X45211433Y-75057913D01*
X45211423Y-75057906D01*
X45026213Y-74943229D01*
X45026207Y-74943226D01*
X44941113Y-74910260D01*
X44823069Y-74864530D01*
X44608926Y-74824500D01*
X44391074Y-74824500D01*
X44176931Y-74864530D01*
X44156485Y-74872451D01*
X43973792Y-74943226D01*
X43973786Y-74943230D01*
X43810904Y-75044081D01*
X43743543Y-75062636D01*
X43676844Y-75041828D01*
X43631983Y-74988263D01*
X43623203Y-74918947D01*
X43653292Y-74855888D01*
X43657928Y-74850991D01*
X44320101Y-74188819D01*
X44381424Y-74155334D01*
X44407782Y-74152500D01*
X75375500Y-74152500D01*
X75442539Y-74172185D01*
G37*
%TD.AperFunction*%
%TD*%
M02*
