%TF.GenerationSoftware,KiCad,Pcbnew,8.0.8*%
%TF.CreationDate,2025-02-28T07:36:19+01:00*%
%TF.ProjectId,x68030_scsi,78363830-3330-45f7-9363-73692e6b6963,rev?*%
%TF.SameCoordinates,Original*%
%TF.FileFunction,Paste,Top*%
%TF.FilePolarity,Positive*%
%FSLAX46Y46*%
G04 Gerber Fmt 4.6, Leading zero omitted, Abs format (unit mm)*
G04 Created by KiCad (PCBNEW 8.0.8) date 2025-02-28 07:36:19*
%MOMM*%
%LPD*%
G01*
G04 APERTURE LIST*
G04 Aperture macros list*
%AMRoundRect*
0 Rectangle with rounded corners*
0 $1 Rounding radius*
0 $2 $3 $4 $5 $6 $7 $8 $9 X,Y pos of 4 corners*
0 Add a 4 corners polygon primitive as box body*
4,1,4,$2,$3,$4,$5,$6,$7,$8,$9,$2,$3,0*
0 Add four circle primitives for the rounded corners*
1,1,$1+$1,$2,$3*
1,1,$1+$1,$4,$5*
1,1,$1+$1,$6,$7*
1,1,$1+$1,$8,$9*
0 Add four rect primitives between the rounded corners*
20,1,$1+$1,$2,$3,$4,$5,0*
20,1,$1+$1,$4,$5,$6,$7,0*
20,1,$1+$1,$6,$7,$8,$9,0*
20,1,$1+$1,$8,$9,$2,$3,0*%
G04 Aperture macros list end*
%ADD10RoundRect,0.250000X-0.337500X-0.475000X0.337500X-0.475000X0.337500X0.475000X-0.337500X0.475000X0*%
%ADD11RoundRect,0.250000X0.450000X-0.325000X0.450000X0.325000X-0.450000X0.325000X-0.450000X-0.325000X0*%
%ADD12RoundRect,0.150000X0.150000X-0.512500X0.150000X0.512500X-0.150000X0.512500X-0.150000X-0.512500X0*%
G04 APERTURE END LIST*
D10*
%TO.C,C4*%
X60430500Y-111760000D03*
X62505500Y-111760000D03*
%TD*%
D11*
%TO.C,F1*%
X34036000Y-88909000D03*
X34036000Y-86859000D03*
%TD*%
D12*
%TO.C,U1*%
X72811600Y-91510700D03*
X73761600Y-91510700D03*
X74711600Y-91510700D03*
X74711600Y-89235700D03*
X72811600Y-89235700D03*
%TD*%
D10*
%TO.C,C17*%
X60430500Y-162560000D03*
X62505500Y-162560000D03*
%TD*%
%TO.C,C13*%
X60430500Y-152400000D03*
X62505500Y-152400000D03*
%TD*%
%TO.C,C8*%
X60430500Y-121920000D03*
X62505500Y-121920000D03*
%TD*%
%TO.C,C5*%
X60430500Y-114300000D03*
X62505500Y-114300000D03*
%TD*%
%TO.C,C11*%
X60430500Y-147320000D03*
X62505500Y-147320000D03*
%TD*%
%TO.C,C2*%
X60430500Y-106680000D03*
X62505500Y-106680000D03*
%TD*%
%TO.C,C16*%
X60462500Y-160000000D03*
X62537500Y-160000000D03*
%TD*%
%TO.C,C10*%
X60430500Y-142240000D03*
X62505500Y-142240000D03*
%TD*%
%TO.C,C15*%
X60462500Y-157500000D03*
X62537500Y-157500000D03*
%TD*%
%TO.C,C3*%
X60430500Y-109220000D03*
X62505500Y-109220000D03*
%TD*%
%TO.C,C1*%
X60462500Y-104000000D03*
X62537500Y-104000000D03*
%TD*%
%TO.C,C6*%
X60462500Y-116750000D03*
X62537500Y-116750000D03*
%TD*%
%TO.C,C14*%
X60430500Y-154940000D03*
X62505500Y-154940000D03*
%TD*%
%TO.C,C9*%
X60430500Y-124460000D03*
X62505500Y-124460000D03*
%TD*%
%TO.C,C12*%
X60430500Y-149860000D03*
X62505500Y-149860000D03*
%TD*%
%TO.C,C7*%
X60430500Y-119380000D03*
X62505500Y-119380000D03*
%TD*%
%TO.C,C18*%
X60430500Y-165100000D03*
X62505500Y-165100000D03*
%TD*%
M02*
