%TF.GenerationSoftware,KiCad,Pcbnew,8.0.8*%
%TF.CreationDate,2025-02-28T07:36:19+01:00*%
%TF.ProjectId,x68030_scsi,78363830-3330-45f7-9363-73692e6b6963,rev?*%
%TF.SameCoordinates,Original*%
%TF.FileFunction,Soldermask,Bot*%
%TF.FilePolarity,Negative*%
%FSLAX46Y46*%
G04 Gerber Fmt 4.6, Leading zero omitted, Abs format (unit mm)*
G04 Created by KiCad (PCBNEW 8.0.8) date 2025-02-28 07:36:19*
%MOMM*%
%LPD*%
G01*
G04 APERTURE LIST*
G04 Aperture macros list*
%AMRoundRect*
0 Rectangle with rounded corners*
0 $1 Rounding radius*
0 $2 $3 $4 $5 $6 $7 $8 $9 X,Y pos of 4 corners*
0 Add a 4 corners polygon primitive as box body*
4,1,4,$2,$3,$4,$5,$6,$7,$8,$9,$2,$3,0*
0 Add four circle primitives for the rounded corners*
1,1,$1+$1,$2,$3*
1,1,$1+$1,$4,$5*
1,1,$1+$1,$6,$7*
1,1,$1+$1,$8,$9*
0 Add four rect primitives between the rounded corners*
20,1,$1+$1,$2,$3,$4,$5,0*
20,1,$1+$1,$4,$5,$6,$7,0*
20,1,$1+$1,$6,$7,$8,$9,0*
20,1,$1+$1,$8,$9,$2,$3,0*%
G04 Aperture macros list end*
%ADD10C,4.300000*%
%ADD11R,1.350000X1.350000*%
%ADD12O,1.350000X1.350000*%
%ADD13R,1.600000X1.600000*%
%ADD14O,1.600000X1.600000*%
%ADD15RoundRect,0.250000X0.750000X-0.600000X0.750000X0.600000X-0.750000X0.600000X-0.750000X-0.600000X0*%
%ADD16O,2.000000X1.700000*%
%ADD17RoundRect,0.250000X-0.600000X-0.600000X0.600000X-0.600000X0.600000X0.600000X-0.600000X0.600000X0*%
%ADD18C,1.700000*%
%ADD19R,1.000000X1.500000*%
G04 APERTURE END LIST*
D10*
%TO.C,H1*%
X41000000Y-88000000D03*
%TD*%
D11*
%TO.C,J2*%
X38500000Y-78000000D03*
D12*
X38500000Y-76000000D03*
X40500000Y-78000000D03*
X40500000Y-76000000D03*
X42500000Y-78000000D03*
X42500000Y-76000000D03*
X44500000Y-78000000D03*
X44500000Y-76000000D03*
X46500000Y-78000000D03*
X46500000Y-76000000D03*
X48500000Y-78000000D03*
X48500000Y-76000000D03*
X50500000Y-78000000D03*
X50500000Y-76000000D03*
X52500000Y-78000000D03*
X52500000Y-76000000D03*
X54500000Y-78000000D03*
X54500000Y-76000000D03*
X56500000Y-78000000D03*
X56500000Y-76000000D03*
X58500000Y-78000000D03*
X58500000Y-76000000D03*
X60500000Y-78000000D03*
X60500000Y-76000000D03*
X62500000Y-78000000D03*
X62500000Y-76000000D03*
X64500000Y-78000000D03*
X64500000Y-76000000D03*
X66500000Y-78000000D03*
X66500000Y-76000000D03*
X68500000Y-78000000D03*
X68500000Y-76000000D03*
X70500000Y-78000000D03*
X70500000Y-76000000D03*
X72500000Y-78000000D03*
X72500000Y-76000000D03*
X74500000Y-78000000D03*
X74500000Y-76000000D03*
X76500000Y-78000000D03*
X76500000Y-76000000D03*
%TD*%
D13*
%TO.C,RN2*%
X38862000Y-138176000D03*
D14*
X38862000Y-140716000D03*
X38862000Y-143256000D03*
X38862000Y-145796000D03*
X38862000Y-148336000D03*
X38862000Y-150876000D03*
X38862000Y-153416000D03*
X38862000Y-155956000D03*
X38862000Y-158496000D03*
X38862000Y-161036000D03*
X38862000Y-163576000D03*
%TD*%
D10*
%TO.C,H2*%
X41000000Y-170000000D03*
%TD*%
D15*
%TO.C,J3*%
X80145400Y-88524400D03*
D16*
X80145400Y-86024400D03*
%TD*%
D13*
%TO.C,RN1*%
X38862000Y-95250000D03*
D14*
X38862000Y-97790000D03*
X38862000Y-100330000D03*
X38862000Y-102870000D03*
X38862000Y-105410000D03*
X38862000Y-107950000D03*
X38862000Y-110490000D03*
X38862000Y-113030000D03*
X38862000Y-115570000D03*
X38862000Y-118110000D03*
X38862000Y-120650000D03*
%TD*%
D17*
%TO.C,J1*%
X50292000Y-104140000D03*
D18*
X52832000Y-104140000D03*
X50292000Y-106680000D03*
X52832000Y-106680000D03*
X50292000Y-109220000D03*
X52832000Y-109220000D03*
X50292000Y-111760000D03*
X52832000Y-111760000D03*
X50292000Y-114300000D03*
X52832000Y-114300000D03*
X50292000Y-116840000D03*
X52832000Y-116840000D03*
X50292000Y-119380000D03*
X52832000Y-119380000D03*
X50292000Y-121920000D03*
X52832000Y-121920000D03*
X50292000Y-124460000D03*
X52832000Y-124460000D03*
X50292000Y-127000000D03*
X52832000Y-127000000D03*
X50292000Y-129540000D03*
X52832000Y-129540000D03*
X50292000Y-132080000D03*
X52832000Y-132080000D03*
X50292000Y-134620000D03*
X52832000Y-134620000D03*
X50292000Y-137160000D03*
X52832000Y-137160000D03*
X50292000Y-139700000D03*
X52832000Y-139700000D03*
X50292000Y-142240000D03*
X52832000Y-142240000D03*
X50292000Y-144780000D03*
X52832000Y-144780000D03*
X50292000Y-147320000D03*
X52832000Y-147320000D03*
X50292000Y-149860000D03*
X52832000Y-149860000D03*
X50292000Y-152400000D03*
X52832000Y-152400000D03*
X50292000Y-154940000D03*
X52832000Y-154940000D03*
X50292000Y-157480000D03*
X52832000Y-157480000D03*
X50292000Y-160020000D03*
X52832000Y-160020000D03*
X50292000Y-162560000D03*
X52832000Y-162560000D03*
X50292000Y-165100000D03*
X52832000Y-165100000D03*
%TD*%
D19*
%TO.C,JP1*%
X82052400Y-77825600D03*
X83352400Y-77825600D03*
%TD*%
%TO.C,JP2*%
X82052400Y-80670400D03*
X83352400Y-80670400D03*
%TD*%
M02*
